solid OpenSCAD_Model
  facet normal 0 -0.768221 0.640184
    outer loop
      vertex 0 0 3
      vertex 3 7.5 12
      vertex 0 7.5 12
    endloop
  endfacet
  facet normal 2.24728e-009 -0.768221 0.640184
    outer loop
      vertex 3 7.5 12
      vertex 0 0 3
      vertex 28.75 3.95642 7.74771
    endloop
  endfacet
  facet normal -2.24728e-009 -0.768221 0.640184
    outer loop
      vertex 57.5 0 3
      vertex 54.5 7.5 12
      vertex 28.75 3.95642 7.74771
    endloop
  endfacet
  facet normal 0 -0.768221 0.640184
    outer loop
      vertex 57.5 0 3
      vertex 28.75 3.95642 7.74771
      vertex 0 0 3
    endloop
  endfacet
  facet normal 0 -0.768221 0.640184
    outer loop
      vertex 54.5 7.5 12
      vertex 57.5 0 3
      vertex 57.5 7.5 12
    endloop
  endfacet
  facet normal -1 0 0
    outer loop
      vertex 0 0 3
      vertex 0 18 3
      vertex 0 18 0
    endloop
  endfacet
  facet normal -1 0 0
    outer loop
      vertex 0 18 3
      vertex 0 0 3
      vertex 0 10.5 12
    endloop
  endfacet
  facet normal -1 0 0
    outer loop
      vertex 0 0 3
      vertex 0 18 0
      vertex 0 0 0
    endloop
  endfacet
  facet normal -1 -0 0
    outer loop
      vertex 0 10.5 12
      vertex 0 0 3
      vertex 0 7.5 12
    endloop
  endfacet
  facet normal 0 0 -1
    outer loop
      vertex 6.11941 13.7089 0
      vertex 51.3806 13.7089 0
      vertex 6.11941 4.29108 0
    endloop
  endfacet
  facet normal 0 0 -1
    outer loop
      vertex 51.3806 13.7089 0
      vertex 6.11941 13.7089 0
      vertex 6.15 14 0
    endloop
  endfacet
  facet normal 0 0 -1
    outer loop
      vertex 6.02896 4.56943 0
      vertex 6.11941 13.7089 0
      vertex 6.11941 4.29108 0
    endloop
  endfacet
  facet normal 0 0 -1
    outer loop
      vertex 6.02896 4.56943 0
      vertex 6.02896 13.4306 0
      vertex 6.11941 13.7089 0
    endloop
  endfacet
  facet normal 0 0 -1
    outer loop
      vertex 5.88262 4.8229 0
      vertex 6.02896 13.4306 0
      vertex 6.02896 4.56943 0
    endloop
  endfacet
  facet normal 0 0 -1
    outer loop
      vertex 5.88262 4.8229 0
      vertex 5.88262 13.1771 0
      vertex 6.02896 13.4306 0
    endloop
  endfacet
  facet normal 0 0 -1
    outer loop
      vertex 5.68678 5.0404 0
      vertex 5.88262 13.1771 0
      vertex 5.88262 4.8229 0
    endloop
  endfacet
  facet normal 0 0 -1
    outer loop
      vertex 5.68678 5.0404 0
      vertex 5.68678 12.9596 0
      vertex 5.88262 13.1771 0
    endloop
  endfacet
  facet normal 0 0 -1
    outer loop
      vertex 5.45 5.21243 0
      vertex 5.68678 12.9596 0
      vertex 5.68678 5.0404 0
    endloop
  endfacet
  facet normal 0 0 -1
    outer loop
      vertex 5.45 5.21243 0
      vertex 5.45 12.7876 0
      vertex 5.68678 12.9596 0
    endloop
  endfacet
  facet normal 0 0 -1
    outer loop
      vertex 5.18262 5.33148 0
      vertex 5.45 12.7876 0
      vertex 5.45 5.21243 0
    endloop
  endfacet
  facet normal 0 0 -1
    outer loop
      vertex 5.18262 5.33148 0
      vertex 5.18262 12.6685 0
      vertex 5.45 12.7876 0
    endloop
  endfacet
  facet normal 0 0 -1
    outer loop
      vertex 4.89634 5.39233 0
      vertex 5.18262 12.6685 0
      vertex 5.18262 5.33148 0
    endloop
  endfacet
  facet normal 0 0 -1
    outer loop
      vertex 4.89634 5.39233 0
      vertex 4.89634 12.6077 0
      vertex 5.18262 12.6685 0
    endloop
  endfacet
  facet normal 0 0 -1
    outer loop
      vertex 4.60366 5.39233 0
      vertex 4.89634 12.6077 0
      vertex 4.89634 5.39233 0
    endloop
  endfacet
  facet normal 0 0 -1
    outer loop
      vertex 4.60366 5.39233 0
      vertex 4.60366 12.6077 0
      vertex 4.89634 12.6077 0
    endloop
  endfacet
  facet normal 0 0 -1
    outer loop
      vertex 4.31738 5.33148 0
      vertex 4.60366 12.6077 0
      vertex 4.60366 5.39233 0
    endloop
  endfacet
  facet normal 0 0 -1
    outer loop
      vertex 4.31738 5.33148 0
      vertex 4.31738 12.6685 0
      vertex 4.60366 12.6077 0
    endloop
  endfacet
  facet normal 0 0 -1
    outer loop
      vertex 4.05 5.21243 0
      vertex 4.31738 12.6685 0
      vertex 4.31738 5.33148 0
    endloop
  endfacet
  facet normal 0 0 -1
    outer loop
      vertex 4.05 5.21243 0
      vertex 4.05 12.7876 0
      vertex 4.31738 12.6685 0
    endloop
  endfacet
  facet normal 0 0 -1
    outer loop
      vertex 3.81322 5.0404 0
      vertex 4.05 12.7876 0
      vertex 4.05 5.21243 0
    endloop
  endfacet
  facet normal 0 0 -1
    outer loop
      vertex 3.81322 5.0404 0
      vertex 3.81322 12.9596 0
      vertex 4.05 12.7876 0
    endloop
  endfacet
  facet normal 0 0 -1
    outer loop
      vertex 3.61738 4.8229 0
      vertex 3.81322 12.9596 0
      vertex 3.81322 5.0404 0
    endloop
  endfacet
  facet normal 0 0 -1
    outer loop
      vertex 3.61738 4.8229 0
      vertex 3.61738 13.1771 0
      vertex 3.81322 12.9596 0
    endloop
  endfacet
  facet normal 0 0 -1
    outer loop
      vertex 3.47104 4.56943 0
      vertex 3.61738 13.1771 0
      vertex 3.61738 4.8229 0
    endloop
  endfacet
  facet normal 0 0 -1
    outer loop
      vertex 3.47104 4.56943 0
      vertex 3.47104 13.4306 0
      vertex 3.61738 13.1771 0
    endloop
  endfacet
  facet normal 0 0 -1
    outer loop
      vertex 0 0 0
      vertex 3.47104 4.56943 0
      vertex 3.38059 4.29108 0
    endloop
  endfacet
  facet normal -0 0 -1
    outer loop
      vertex 3.47104 4.56943 0
      vertex 0 0 0
      vertex 3.47104 13.4306 0
    endloop
  endfacet
  facet normal 0 0 -1
    outer loop
      vertex 0 0 0
      vertex 3.38059 4.29108 0
      vertex 3.35 4 0
    endloop
  endfacet
  facet normal 0 0 -1
    outer loop
      vertex 0 18 0
      vertex 3.47104 13.4306 0
      vertex 0 0 0
    endloop
  endfacet
  facet normal 0 0 -1
    outer loop
      vertex 57.5 0 0
      vertex 54.029 4.56943 0
      vertex 57.5 18 0
    endloop
  endfacet
  facet normal 0 0 -1
    outer loop
      vertex 57.5 18 0
      vertex 54.1194 13.7089 0
      vertex 54.15 14 0
    endloop
  endfacet
  facet normal 0 0 -1
    outer loop
      vertex 54.029 13.4306 0
      vertex 57.5 18 0
      vertex 54.029 4.56943 0
    endloop
  endfacet
  facet normal 0 0 -1
    outer loop
      vertex 57.5 18 0
      vertex 54.029 13.4306 0
      vertex 54.1194 13.7089 0
    endloop
  endfacet
  facet normal 0 0 -1
    outer loop
      vertex 53.8826 4.8229 0
      vertex 54.029 13.4306 0
      vertex 54.029 4.56943 0
    endloop
  endfacet
  facet normal 0 0 -1
    outer loop
      vertex 53.8826 4.8229 0
      vertex 53.8826 13.1771 0
      vertex 54.029 13.4306 0
    endloop
  endfacet
  facet normal 0 0 -1
    outer loop
      vertex 53.6868 5.0404 0
      vertex 53.8826 13.1771 0
      vertex 53.8826 4.8229 0
    endloop
  endfacet
  facet normal 0 0 -1
    outer loop
      vertex 53.6868 5.0404 0
      vertex 53.6868 12.9596 0
      vertex 53.8826 13.1771 0
    endloop
  endfacet
  facet normal 0 0 -1
    outer loop
      vertex 53.45 5.21243 0
      vertex 53.6868 12.9596 0
      vertex 53.6868 5.0404 0
    endloop
  endfacet
  facet normal 0 0 -1
    outer loop
      vertex 53.45 5.21243 0
      vertex 53.45 12.7876 0
      vertex 53.6868 12.9596 0
    endloop
  endfacet
  facet normal 0 0 -1
    outer loop
      vertex 53.1826 5.33148 0
      vertex 53.45 12.7876 0
      vertex 53.45 5.21243 0
    endloop
  endfacet
  facet normal 0 0 -1
    outer loop
      vertex 53.1826 5.33148 0
      vertex 53.1826 12.6685 0
      vertex 53.45 12.7876 0
    endloop
  endfacet
  facet normal 0 0 -1
    outer loop
      vertex 52.8963 5.39233 0
      vertex 53.1826 12.6685 0
      vertex 53.1826 5.33148 0
    endloop
  endfacet
  facet normal 0 0 -1
    outer loop
      vertex 52.8963 5.39233 0
      vertex 52.8963 12.6077 0
      vertex 53.1826 12.6685 0
    endloop
  endfacet
  facet normal 0 0 -1
    outer loop
      vertex 52.6037 5.39233 0
      vertex 52.8963 12.6077 0
      vertex 52.8963 5.39233 0
    endloop
  endfacet
  facet normal 0 0 -1
    outer loop
      vertex 52.6037 5.39233 0
      vertex 52.6037 12.6077 0
      vertex 52.8963 12.6077 0
    endloop
  endfacet
  facet normal 0 0 -1
    outer loop
      vertex 52.3174 5.33148 0
      vertex 52.6037 12.6077 0
      vertex 52.6037 5.39233 0
    endloop
  endfacet
  facet normal 0 0 -1
    outer loop
      vertex 52.3174 5.33148 0
      vertex 52.3174 12.6685 0
      vertex 52.6037 12.6077 0
    endloop
  endfacet
  facet normal 0 0 -1
    outer loop
      vertex 52.05 5.21243 0
      vertex 52.3174 12.6685 0
      vertex 52.3174 5.33148 0
    endloop
  endfacet
  facet normal 0 0 -1
    outer loop
      vertex 52.05 5.21243 0
      vertex 52.05 12.7876 0
      vertex 52.3174 12.6685 0
    endloop
  endfacet
  facet normal 0 0 -1
    outer loop
      vertex 51.8132 5.0404 0
      vertex 52.05 12.7876 0
      vertex 52.05 5.21243 0
    endloop
  endfacet
  facet normal 0 0 -1
    outer loop
      vertex 51.8132 5.0404 0
      vertex 51.8132 12.9596 0
      vertex 52.05 12.7876 0
    endloop
  endfacet
  facet normal 0 0 -1
    outer loop
      vertex 51.6174 4.8229 0
      vertex 51.8132 12.9596 0
      vertex 51.8132 5.0404 0
    endloop
  endfacet
  facet normal 0 0 -1
    outer loop
      vertex 51.6174 4.8229 0
      vertex 51.6174 13.1771 0
      vertex 51.8132 12.9596 0
    endloop
  endfacet
  facet normal 0 0 -1
    outer loop
      vertex 51.471 4.56943 0
      vertex 51.6174 13.1771 0
      vertex 51.6174 4.8229 0
    endloop
  endfacet
  facet normal 0 0 -1
    outer loop
      vertex 51.471 4.56943 0
      vertex 51.471 13.4306 0
      vertex 51.6174 13.1771 0
    endloop
  endfacet
  facet normal 0 0 -1
    outer loop
      vertex 51.3806 4.29108 0
      vertex 51.471 13.4306 0
      vertex 51.471 4.56943 0
    endloop
  endfacet
  facet normal 0 0 -1
    outer loop
      vertex 51.3806 4.29108 0
      vertex 51.3806 13.7089 0
      vertex 51.471 13.4306 0
    endloop
  endfacet
  facet normal 0 0 -1
    outer loop
      vertex 6.15 4 0
      vertex 51.3806 4.29108 0
      vertex 51.35 4 0
    endloop
  endfacet
  facet normal 0 0 -1
    outer loop
      vertex 6.11941 4.29108 0
      vertex 51.3806 4.29108 0
      vertex 6.15 4 0
    endloop
  endfacet
  facet normal 0 0 -1
    outer loop
      vertex 54.1194 4.29108 0
      vertex 57.5 0 0
      vertex 54.15 4 0
    endloop
  endfacet
  facet normal 0 0 -1
    outer loop
      vertex 57.5 0 0
      vertex 54.1194 3.70892 0
      vertex 54.15 4 0
    endloop
  endfacet
  facet normal 0 0 -1
    outer loop
      vertex 57.5 0 0
      vertex 54.029 3.43057 0
      vertex 54.1194 3.70892 0
    endloop
  endfacet
  facet normal 0 0 -1
    outer loop
      vertex 57.5 0 0
      vertex 53.8826 3.1771 0
      vertex 54.029 3.43057 0
    endloop
  endfacet
  facet normal 0 0 -1
    outer loop
      vertex 57.5 0 0
      vertex 53.6868 2.9596 0
      vertex 53.8826 3.1771 0
    endloop
  endfacet
  facet normal 0 0 -1
    outer loop
      vertex 57.5 0 0
      vertex 53.45 2.78756 0
      vertex 53.6868 2.9596 0
    endloop
  endfacet
  facet normal 0 0 -1
    outer loop
      vertex 57.5 0 0
      vertex 53.1826 2.66852 0
      vertex 53.45 2.78756 0
    endloop
  endfacet
  facet normal 0 0 -1
    outer loop
      vertex 57.5 0 0
      vertex 52.8963 2.60767 0
      vertex 53.1826 2.66852 0
    endloop
  endfacet
  facet normal 0 0 -1
    outer loop
      vertex 57.5 0 0
      vertex 52.6037 2.60767 0
      vertex 52.8963 2.60767 0
    endloop
  endfacet
  facet normal 0 0 -1
    outer loop
      vertex 57.5 0 0
      vertex 52.3174 2.66852 0
      vertex 52.6037 2.60767 0
    endloop
  endfacet
  facet normal 0 0 -1
    outer loop
      vertex 57.5 0 0
      vertex 52.05 2.78756 0
      vertex 52.3174 2.66852 0
    endloop
  endfacet
  facet normal 0 0 -1
    outer loop
      vertex 51.3806 4.29108 0
      vertex 6.11941 4.29108 0
      vertex 51.3806 13.7089 0
    endloop
  endfacet
  facet normal 0 0 -1
    outer loop
      vertex 51.3806 3.70892 0
      vertex 6.15 4 0
      vertex 51.35 4 0
    endloop
  endfacet
  facet normal 0 0 -1
    outer loop
      vertex 6.11941 3.70892 0
      vertex 51.3806 3.70892 0
      vertex 51.471 3.43057 0
    endloop
  endfacet
  facet normal 0 0 -1
    outer loop
      vertex 6.02896 3.43057 0
      vertex 51.471 3.43057 0
      vertex 51.6174 3.1771 0
    endloop
  endfacet
  facet normal 0 0 -1
    outer loop
      vertex 5.88262 3.1771 0
      vertex 51.6174 3.1771 0
      vertex 51.8132 2.9596 0
    endloop
  endfacet
  facet normal 0 0 -1
    outer loop
      vertex 5.68678 2.9596 0
      vertex 51.8132 2.9596 0
      vertex 52.05 2.78756 0
    endloop
  endfacet
  facet normal 0 0 -1
    outer loop
      vertex 5.45 2.78756 0
      vertex 52.05 2.78756 0
      vertex 57.5 0 0
    endloop
  endfacet
  facet normal 0 0 -1
    outer loop
      vertex 51.3806 3.70892 0
      vertex 6.11941 3.70892 0
      vertex 6.15 4 0
    endloop
  endfacet
  facet normal 0 0 -1
    outer loop
      vertex 51.471 3.43057 0
      vertex 6.02896 3.43057 0
      vertex 6.11941 3.70892 0
    endloop
  endfacet
  facet normal 0 0 -1
    outer loop
      vertex 51.6174 3.1771 0
      vertex 5.88262 3.1771 0
      vertex 6.02896 3.43057 0
    endloop
  endfacet
  facet normal 0 0 -1
    outer loop
      vertex 51.8132 2.9596 0
      vertex 5.68678 2.9596 0
      vertex 5.88262 3.1771 0
    endloop
  endfacet
  facet normal 0 0 -1
    outer loop
      vertex 52.05 2.78756 0
      vertex 5.45 2.78756 0
      vertex 5.68678 2.9596 0
    endloop
  endfacet
  facet normal 0 0 -1
    outer loop
      vertex 57.5 0 0
      vertex 5.18262 2.66852 0
      vertex 5.45 2.78756 0
    endloop
  endfacet
  facet normal 0 0 -1
    outer loop
      vertex 0 0 0
      vertex 5.18262 2.66852 0
      vertex 57.5 0 0
    endloop
  endfacet
  facet normal 0 0 -1
    outer loop
      vertex 5.18262 2.66852 0
      vertex 0 0 0
      vertex 4.89634 2.60767 0
    endloop
  endfacet
  facet normal 0 0 -1
    outer loop
      vertex 3.47104 13.4306 0
      vertex 0 18 0
      vertex 3.38059 13.7089 0
    endloop
  endfacet
  facet normal -0 0 -1
    outer loop
      vertex 3.38059 3.70892 0
      vertex 0 0 0
      vertex 3.35 4 0
    endloop
  endfacet
  facet normal -0 0 -1
    outer loop
      vertex 3.47104 3.43057 0
      vertex 0 0 0
      vertex 3.38059 3.70892 0
    endloop
  endfacet
  facet normal -0 0 -1
    outer loop
      vertex 3.61738 3.1771 0
      vertex 0 0 0
      vertex 3.47104 3.43057 0
    endloop
  endfacet
  facet normal -0 0 -1
    outer loop
      vertex 3.81322 2.9596 0
      vertex 0 0 0
      vertex 3.61738 3.1771 0
    endloop
  endfacet
  facet normal -0 0 -1
    outer loop
      vertex 4.05 2.78756 0
      vertex 0 0 0
      vertex 3.81322 2.9596 0
    endloop
  endfacet
  facet normal -0 0 -1
    outer loop
      vertex 4.31738 2.66852 0
      vertex 0 0 0
      vertex 4.05 2.78756 0
    endloop
  endfacet
  facet normal -0 0 -1
    outer loop
      vertex 4.60366 2.60767 0
      vertex 0 0 0
      vertex 4.31738 2.66852 0
    endloop
  endfacet
  facet normal -0 0 -1
    outer loop
      vertex 4.89634 2.60767 0
      vertex 0 0 0
      vertex 4.60366 2.60767 0
    endloop
  endfacet
  facet normal 0 0 -1
    outer loop
      vertex 54.029 4.56943 0
      vertex 57.5 0 0
      vertex 54.1194 4.29108 0
    endloop
  endfacet
  facet normal 0 0 -1
    outer loop
      vertex 54.1194 14.2911 0
      vertex 57.5 18 0
      vertex 54.15 14 0
    endloop
  endfacet
  facet normal 0 0 -1
    outer loop
      vertex 54.029 14.5694 0
      vertex 57.5 18 0
      vertex 54.1194 14.2911 0
    endloop
  endfacet
  facet normal 0 0 -1
    outer loop
      vertex 53.8826 14.8229 0
      vertex 57.5 18 0
      vertex 54.029 14.5694 0
    endloop
  endfacet
  facet normal 0 0 -1
    outer loop
      vertex 53.6868 15.0404 0
      vertex 57.5 18 0
      vertex 53.8826 14.8229 0
    endloop
  endfacet
  facet normal 0 0 -1
    outer loop
      vertex 53.45 15.2124 0
      vertex 57.5 18 0
      vertex 53.6868 15.0404 0
    endloop
  endfacet
  facet normal 0 0 -1
    outer loop
      vertex 53.1826 15.3315 0
      vertex 57.5 18 0
      vertex 53.45 15.2124 0
    endloop
  endfacet
  facet normal 0 0 -1
    outer loop
      vertex 52.8963 15.3923 0
      vertex 57.5 18 0
      vertex 53.1826 15.3315 0
    endloop
  endfacet
  facet normal 0 0 -1
    outer loop
      vertex 52.6037 15.3923 0
      vertex 57.5 18 0
      vertex 52.8963 15.3923 0
    endloop
  endfacet
  facet normal 0 0 -1
    outer loop
      vertex 52.3174 15.3315 0
      vertex 57.5 18 0
      vertex 52.6037 15.3923 0
    endloop
  endfacet
  facet normal 0 0 -1
    outer loop
      vertex 52.05 15.2124 0
      vertex 57.5 18 0
      vertex 52.3174 15.3315 0
    endloop
  endfacet
  facet normal 0 0 -1
    outer loop
      vertex 51.3806 13.7089 0
      vertex 6.15 14 0
      vertex 51.35 14 0
    endloop
  endfacet
  facet normal 0 0 -1
    outer loop
      vertex 51.35 14 0
      vertex 6.15 14 0
      vertex 51.3806 14.2911 0
    endloop
  endfacet
  facet normal 0 0 -1
    outer loop
      vertex 6.11941 14.2911 0
      vertex 51.3806 14.2911 0
      vertex 6.15 14 0
    endloop
  endfacet
  facet normal 0 0 -1
    outer loop
      vertex 51.3806 14.2911 0
      vertex 6.11941 14.2911 0
      vertex 51.471 14.5694 0
    endloop
  endfacet
  facet normal 0 0 -1
    outer loop
      vertex 6.02896 14.5694 0
      vertex 51.471 14.5694 0
      vertex 6.11941 14.2911 0
    endloop
  endfacet
  facet normal 0 0 -1
    outer loop
      vertex 51.471 14.5694 0
      vertex 6.02896 14.5694 0
      vertex 51.6174 14.8229 0
    endloop
  endfacet
  facet normal 0 0 -1
    outer loop
      vertex 5.88262 14.8229 0
      vertex 51.6174 14.8229 0
      vertex 6.02896 14.5694 0
    endloop
  endfacet
  facet normal 0 0 -1
    outer loop
      vertex 51.6174 14.8229 0
      vertex 5.88262 14.8229 0
      vertex 51.8132 15.0404 0
    endloop
  endfacet
  facet normal 0 0 -1
    outer loop
      vertex 5.68678 15.0404 0
      vertex 51.8132 15.0404 0
      vertex 5.88262 14.8229 0
    endloop
  endfacet
  facet normal 0 0 -1
    outer loop
      vertex 51.8132 15.0404 0
      vertex 5.68678 15.0404 0
      vertex 52.05 15.2124 0
    endloop
  endfacet
  facet normal 0 0 -1
    outer loop
      vertex 5.45 15.2124 0
      vertex 52.05 15.2124 0
      vertex 5.68678 15.0404 0
    endloop
  endfacet
  facet normal 0 0 -1
    outer loop
      vertex 52.05 15.2124 0
      vertex 5.45 15.2124 0
      vertex 57.5 18 0
    endloop
  endfacet
  facet normal 0 0 -1
    outer loop
      vertex 5.18262 15.3315 0
      vertex 57.5 18 0
      vertex 5.45 15.2124 0
    endloop
  endfacet
  facet normal 0 0 -1
    outer loop
      vertex 0 18 0
      vertex 5.18262 15.3315 0
      vertex 4.89634 15.3923 0
    endloop
  endfacet
  facet normal 0 0 -1
    outer loop
      vertex 0 18 0
      vertex 4.89634 15.3923 0
      vertex 4.60366 15.3923 0
    endloop
  endfacet
  facet normal 0 0 -1
    outer loop
      vertex 3.38059 13.7089 0
      vertex 0 18 0
      vertex 3.35 14 0
    endloop
  endfacet
  facet normal 0 0 -1
    outer loop
      vertex 5.18262 15.3315 0
      vertex 0 18 0
      vertex 57.5 18 0
    endloop
  endfacet
  facet normal 0 0 -1
    outer loop
      vertex 4.31738 15.3315 0
      vertex 0 18 0
      vertex 4.60366 15.3923 0
    endloop
  endfacet
  facet normal 0 0 -1
    outer loop
      vertex 4.05 15.2124 0
      vertex 0 18 0
      vertex 4.31738 15.3315 0
    endloop
  endfacet
  facet normal 0 0 -1
    outer loop
      vertex 3.81322 15.0404 0
      vertex 0 18 0
      vertex 4.05 15.2124 0
    endloop
  endfacet
  facet normal 0 0 -1
    outer loop
      vertex 3.61738 14.8229 0
      vertex 0 18 0
      vertex 3.81322 15.0404 0
    endloop
  endfacet
  facet normal 0 0 -1
    outer loop
      vertex 3.47104 14.5694 0
      vertex 0 18 0
      vertex 3.61738 14.8229 0
    endloop
  endfacet
  facet normal 0 0 -1
    outer loop
      vertex 3.38059 14.2911 0
      vertex 0 18 0
      vertex 3.47104 14.5694 0
    endloop
  endfacet
  facet normal 0 0 -1
    outer loop
      vertex 3.35 14 0
      vertex 0 18 0
      vertex 3.38059 14.2911 0
    endloop
  endfacet
  facet normal 0 -1 0
    outer loop
      vertex 0 0 0
      vertex 57.5 0 3
      vertex 0 0 3
    endloop
  endfacet
  facet normal 0 -1 -0
    outer loop
      vertex 57.5 0 3
      vertex 0 0 0
      vertex 57.5 0 0
    endloop
  endfacet
  facet normal 0.162931 0 0.986637
    outer loop
      vertex 3 10.5 12
      vertex 28.75 3.95642 7.74771
      vertex 28.75 14.0436 7.74771
    endloop
  endfacet
  facet normal 0.162931 0 0.986637
    outer loop
      vertex 28.75 3.95642 7.74771
      vertex 3 10.5 12
      vertex 3 7.5 12
    endloop
  endfacet
  facet normal 1 0 0
    outer loop
      vertex 57.5 0 3
      vertex 57.5 18 3
      vertex 57.5 10.5 12
    endloop
  endfacet
  facet normal 1 0 0
    outer loop
      vertex 57.5 0 3
      vertex 57.5 10.5 12
      vertex 57.5 7.5 12
    endloop
  endfacet
  facet normal 1 0 0
    outer loop
      vertex 57.5 18 3
      vertex 57.5 0 3
      vertex 57.5 18 0
    endloop
  endfacet
  facet normal 1 0 0
    outer loop
      vertex 57.5 18 0
      vertex 57.5 0 3
      vertex 57.5 0 0
    endloop
  endfacet
  facet normal -0 0 1
    outer loop
      vertex 0 10.5 12
      vertex 3 7.5 12
      vertex 3 10.5 12
    endloop
  endfacet
  facet normal 0 0 1
    outer loop
      vertex 3 7.5 12
      vertex 0 10.5 12
      vertex 0 7.5 12
    endloop
  endfacet
  facet normal 0 0.768221 0.640184
    outer loop
      vertex 57.5 18 3
      vertex 54.5 10.5 12
      vertex 57.5 10.5 12
    endloop
  endfacet
  facet normal 4.49455e-009 0.768221 0.640184
    outer loop
      vertex 54.5 10.5 12
      vertex 57.5 18 3
      vertex 28.75 14.0436 7.74771
    endloop
  endfacet
  facet normal -4.49455e-009 0.768221 0.640184
    outer loop
      vertex 0 18 3
      vertex 3 10.5 12
      vertex 28.75 14.0436 7.74771
    endloop
  endfacet
  facet normal -0 0.768221 0.640184
    outer loop
      vertex 0 18 3
      vertex 28.75 14.0436 7.74771
      vertex 57.5 18 3
    endloop
  endfacet
  facet normal 0 0.768221 0.640184
    outer loop
      vertex 3 10.5 12
      vertex 0 18 3
      vertex 0 10.5 12
    endloop
  endfacet
  facet normal 0 1 -0
    outer loop
      vertex 57.5 18 0
      vertex 0 18 3
      vertex 57.5 18 3
    endloop
  endfacet
  facet normal 0 1 0
    outer loop
      vertex 0 18 3
      vertex 57.5 18 0
      vertex 0 18 0
    endloop
  endfacet
  facet normal -0.162931 0 0.986637
    outer loop
      vertex 28.75 14.0436 7.74771
      vertex 54.5 7.5 12
      vertex 54.5 10.5 12
    endloop
  endfacet
  facet normal -0.162931 0 0.986637
    outer loop
      vertex 54.5 7.5 12
      vertex 28.75 14.0436 7.74771
      vertex 28.75 3.95642 7.74771
    endloop
  endfacet
  facet normal -0 0 1
    outer loop
      vertex 54.5 10.5 12
      vertex 57.5 7.5 12
      vertex 57.5 10.5 12
    endloop
  endfacet
  facet normal 0 0 1
    outer loop
      vertex 57.5 7.5 12
      vertex 54.5 10.5 12
      vertex 54.5 7.5 12
    endloop
  endfacet
  facet normal -0.994522 -0.10453 0
    outer loop
      vertex 6.15 4 0
      vertex 6.11941 4.29108 6
      vertex 6.11941 4.29108 0
    endloop
  endfacet
  facet normal -0.994522 -0.10453 0
    outer loop
      vertex 6.11941 4.29108 6
      vertex 6.15 4 0
      vertex 6.15 4 6
    endloop
  endfacet
  facet normal 0.207911 -0.978148 0
    outer loop
      vertex 4.31738 5.33148 0
      vertex 4.60366 5.39233 6
      vertex 4.31738 5.33148 6
    endloop
  endfacet
  facet normal 0.207911 -0.978148 0
    outer loop
      vertex 4.60366 5.39233 6
      vertex 4.31738 5.33148 0
      vertex 4.60366 5.39233 0
    endloop
  endfacet
  facet normal -0.207911 0.978148 0
    outer loop
      vertex 5.18262 2.66852 0
      vertex 4.89634 2.60767 6
      vertex 5.18262 2.66852 6
    endloop
  endfacet
  facet normal -0.207911 0.978148 0
    outer loop
      vertex 4.89634 2.60767 6
      vertex 5.18262 2.66852 0
      vertex 4.89634 2.60767 0
    endloop
  endfacet
  facet normal -0.587784 -0.809018 0
    outer loop
      vertex 5.45 5.21243 0
      vertex 5.68678 5.0404 6
      vertex 5.45 5.21243 6
    endloop
  endfacet
  facet normal -0.587784 -0.809018 -0
    outer loop
      vertex 5.68678 5.0404 6
      vertex 5.45 5.21243 0
      vertex 5.68678 5.0404 0
    endloop
  endfacet
  facet normal 0.743145 -0.66913 0
    outer loop
      vertex 3.61738 4.8229 6
      vertex 3.81322 5.0404 0
      vertex 3.81322 5.0404 6
    endloop
  endfacet
  facet normal 0.743145 -0.66913 0
    outer loop
      vertex 3.81322 5.0404 0
      vertex 3.61738 4.8229 6
      vertex 3.61738 4.8229 0
    endloop
  endfacet
  facet normal 0.587784 -0.809018 0
    outer loop
      vertex 3.81322 5.0404 0
      vertex 4.05 5.21243 6
      vertex 3.81322 5.0404 6
    endloop
  endfacet
  facet normal 0.587784 -0.809018 0
    outer loop
      vertex 4.05 5.21243 6
      vertex 3.81322 5.0404 0
      vertex 4.05 5.21243 0
    endloop
  endfacet
  facet normal -0.951057 0.309016 0
    outer loop
      vertex 6.02896 3.43057 0
      vertex 6.11941 3.70892 6
      vertex 6.11941 3.70892 0
    endloop
  endfacet
  facet normal -0.951057 0.309016 0
    outer loop
      vertex 6.11941 3.70892 6
      vertex 6.02896 3.43057 0
      vertex 6.02896 3.43057 6
    endloop
  endfacet
  facet normal -0.866026 -0.499998 0
    outer loop
      vertex 6.02896 4.56943 0
      vertex 5.88262 4.8229 6
      vertex 5.88262 4.8229 0
    endloop
  endfacet
  facet normal -0.866026 -0.499998 0
    outer loop
      vertex 5.88262 4.8229 6
      vertex 6.02896 4.56943 0
      vertex 6.02896 4.56943 6
    endloop
  endfacet
  facet normal -0.951057 -0.309016 0
    outer loop
      vertex 6.11941 4.29108 0
      vertex 6.02896 4.56943 6
      vertex 6.02896 4.56943 0
    endloop
  endfacet
  facet normal -0.951057 -0.309016 0
    outer loop
      vertex 6.02896 4.56943 6
      vertex 6.11941 4.29108 0
      vertex 6.11941 4.29108 6
    endloop
  endfacet
  facet normal -0.743145 -0.66913 0
    outer loop
      vertex 5.88262 4.8229 0
      vertex 5.68678 5.0404 6
      vertex 5.68678 5.0404 0
    endloop
  endfacet
  facet normal -0.743145 -0.66913 0
    outer loop
      vertex 5.68678 5.0404 6
      vertex 5.88262 4.8229 0
      vertex 5.88262 4.8229 6
    endloop
  endfacet
  facet normal -0.207911 -0.978148 0
    outer loop
      vertex 4.89634 5.39233 0
      vertex 5.18262 5.33148 6
      vertex 4.89634 5.39233 6
    endloop
  endfacet
  facet normal -0.207911 -0.978148 -0
    outer loop
      vertex 5.18262 5.33148 6
      vertex 4.89634 5.39233 0
      vertex 5.18262 5.33148 0
    endloop
  endfacet
  facet normal 0 -1 0
    outer loop
      vertex 4.60366 5.39233 0
      vertex 4.89634 5.39233 6
      vertex 4.60366 5.39233 6
    endloop
  endfacet
  facet normal 0 -1 -0
    outer loop
      vertex 4.89634 5.39233 6
      vertex 4.60366 5.39233 0
      vertex 4.89634 5.39233 0
    endloop
  endfacet
  facet normal -0.406738 -0.913545 0
    outer loop
      vertex 5.18262 5.33148 0
      vertex 5.45 5.21243 6
      vertex 5.18262 5.33148 6
    endloop
  endfacet
  facet normal -0.406738 -0.913545 -0
    outer loop
      vertex 5.45 5.21243 6
      vertex 5.18262 5.33148 0
      vertex 5.45 5.21243 0
    endloop
  endfacet
  facet normal 0.951057 -0.309016 0
    outer loop
      vertex 3.38059 4.29108 6
      vertex 3.47104 4.56943 0
      vertex 3.47104 4.56943 6
    endloop
  endfacet
  facet normal 0.951057 -0.309016 0
    outer loop
      vertex 3.47104 4.56943 0
      vertex 3.38059 4.29108 6
      vertex 3.38059 4.29108 0
    endloop
  endfacet
  facet normal 0.866026 -0.499998 0
    outer loop
      vertex 3.47104 4.56943 6
      vertex 3.61738 4.8229 0
      vertex 3.61738 4.8229 6
    endloop
  endfacet
  facet normal 0.866026 -0.499998 0
    outer loop
      vertex 3.61738 4.8229 0
      vertex 3.47104 4.56943 6
      vertex 3.47104 4.56943 0
    endloop
  endfacet
  facet normal 0.994522 -0.10453 0
    outer loop
      vertex 3.35 4 6
      vertex 3.38059 4.29108 0
      vertex 3.38059 4.29108 6
    endloop
  endfacet
  facet normal 0.994522 -0.10453 0
    outer loop
      vertex 3.38059 4.29108 0
      vertex 3.35 4 6
      vertex 3.35 4 0
    endloop
  endfacet
  facet normal 0 0 -1
    outer loop
      vertex 6.11941 3.70892 6
      vertex 6.11941 4.29108 6
      vertex 6.15 4 6
    endloop
  endfacet
  facet normal 0 0 -1
    outer loop
      vertex 6.02896 3.43057 6
      vertex 6.11941 4.29108 6
      vertex 6.11941 3.70892 6
    endloop
  endfacet
  facet normal 0 0 -1
    outer loop
      vertex 6.02896 3.43057 6
      vertex 6.02896 4.56943 6
      vertex 6.11941 4.29108 6
    endloop
  endfacet
  facet normal 0 0 -1
    outer loop
      vertex 5.88262 3.1771 6
      vertex 6.02896 4.56943 6
      vertex 6.02896 3.43057 6
    endloop
  endfacet
  facet normal 0 0 -1
    outer loop
      vertex 5.88262 3.1771 6
      vertex 5.88262 4.8229 6
      vertex 6.02896 4.56943 6
    endloop
  endfacet
  facet normal 0 0 -1
    outer loop
      vertex 5.68678 2.9596 6
      vertex 5.88262 4.8229 6
      vertex 5.88262 3.1771 6
    endloop
  endfacet
  facet normal 0 0 -1
    outer loop
      vertex 5.68678 2.9596 6
      vertex 5.68678 5.0404 6
      vertex 5.88262 4.8229 6
    endloop
  endfacet
  facet normal 0 0 -1
    outer loop
      vertex 5.45 2.78756 6
      vertex 5.68678 5.0404 6
      vertex 5.68678 2.9596 6
    endloop
  endfacet
  facet normal 0 0 -1
    outer loop
      vertex 5.45 2.78756 6
      vertex 5.45 5.21243 6
      vertex 5.68678 5.0404 6
    endloop
  endfacet
  facet normal 0 0 -1
    outer loop
      vertex 5.18262 2.66852 6
      vertex 5.45 5.21243 6
      vertex 5.45 2.78756 6
    endloop
  endfacet
  facet normal 0 0 -1
    outer loop
      vertex 5.18262 2.66852 6
      vertex 5.18262 5.33148 6
      vertex 5.45 5.21243 6
    endloop
  endfacet
  facet normal 0 0 -1
    outer loop
      vertex 4.89634 2.60767 6
      vertex 5.18262 5.33148 6
      vertex 5.18262 2.66852 6
    endloop
  endfacet
  facet normal 0 0 -1
    outer loop
      vertex 4.89634 2.60767 6
      vertex 4.89634 5.39233 6
      vertex 5.18262 5.33148 6
    endloop
  endfacet
  facet normal 0 0 -1
    outer loop
      vertex 4.60366 2.60767 6
      vertex 4.89634 5.39233 6
      vertex 4.89634 2.60767 6
    endloop
  endfacet
  facet normal 0 0 -1
    outer loop
      vertex 4.60366 2.60767 6
      vertex 4.60366 5.39233 6
      vertex 4.89634 5.39233 6
    endloop
  endfacet
  facet normal 0 0 -1
    outer loop
      vertex 4.31738 2.66852 6
      vertex 4.60366 5.39233 6
      vertex 4.60366 2.60767 6
    endloop
  endfacet
  facet normal 0 0 -1
    outer loop
      vertex 4.31738 2.66852 6
      vertex 4.31738 5.33148 6
      vertex 4.60366 5.39233 6
    endloop
  endfacet
  facet normal 0 0 -1
    outer loop
      vertex 4.05 2.78756 6
      vertex 4.31738 5.33148 6
      vertex 4.31738 2.66852 6
    endloop
  endfacet
  facet normal 0 0 -1
    outer loop
      vertex 4.05 2.78756 6
      vertex 4.05 5.21243 6
      vertex 4.31738 5.33148 6
    endloop
  endfacet
  facet normal 0 0 -1
    outer loop
      vertex 3.81322 2.9596 6
      vertex 4.05 5.21243 6
      vertex 4.05 2.78756 6
    endloop
  endfacet
  facet normal 0 0 -1
    outer loop
      vertex 3.81322 2.9596 6
      vertex 3.81322 5.0404 6
      vertex 4.05 5.21243 6
    endloop
  endfacet
  facet normal 0 0 -1
    outer loop
      vertex 3.61738 3.1771 6
      vertex 3.81322 5.0404 6
      vertex 3.81322 2.9596 6
    endloop
  endfacet
  facet normal 0 0 -1
    outer loop
      vertex 3.61738 3.1771 6
      vertex 3.61738 4.8229 6
      vertex 3.81322 5.0404 6
    endloop
  endfacet
  facet normal 0 0 -1
    outer loop
      vertex 3.47104 3.43057 6
      vertex 3.61738 4.8229 6
      vertex 3.61738 3.1771 6
    endloop
  endfacet
  facet normal 0 0 -1
    outer loop
      vertex 3.47104 3.43057 6
      vertex 3.47104 4.56943 6
      vertex 3.61738 4.8229 6
    endloop
  endfacet
  facet normal 0 0 -1
    outer loop
      vertex 3.38059 3.70892 6
      vertex 3.47104 4.56943 6
      vertex 3.47104 3.43057 6
    endloop
  endfacet
  facet normal 0 0 -1
    outer loop
      vertex 3.38059 3.70892 6
      vertex 3.38059 4.29108 6
      vertex 3.47104 4.56943 6
    endloop
  endfacet
  facet normal 0 -0 -1
    outer loop
      vertex 3.38059 4.29108 6
      vertex 3.38059 3.70892 6
      vertex 3.35 4 6
    endloop
  endfacet
  facet normal 0.406738 -0.913545 0
    outer loop
      vertex 4.05 5.21243 0
      vertex 4.31738 5.33148 6
      vertex 4.05 5.21243 6
    endloop
  endfacet
  facet normal 0.406738 -0.913545 0
    outer loop
      vertex 4.31738 5.33148 6
      vertex 4.05 5.21243 0
      vertex 4.31738 5.33148 0
    endloop
  endfacet
  facet normal -0.994522 0.10453 0
    outer loop
      vertex 6.11941 3.70892 0
      vertex 6.15 4 6
      vertex 6.15 4 0
    endloop
  endfacet
  facet normal -0.994522 0.10453 0
    outer loop
      vertex 6.15 4 6
      vertex 6.11941 3.70892 0
      vertex 6.11941 3.70892 6
    endloop
  endfacet
  facet normal -0.743145 0.66913 0
    outer loop
      vertex 5.68678 2.9596 0
      vertex 5.88262 3.1771 6
      vertex 5.88262 3.1771 0
    endloop
  endfacet
  facet normal -0.743145 0.66913 0
    outer loop
      vertex 5.88262 3.1771 6
      vertex 5.68678 2.9596 0
      vertex 5.68678 2.9596 6
    endloop
  endfacet
  facet normal 0.994522 0.10453 0
    outer loop
      vertex 3.38059 3.70892 6
      vertex 3.35 4 0
      vertex 3.35 4 6
    endloop
  endfacet
  facet normal 0.994522 0.10453 0
    outer loop
      vertex 3.35 4 0
      vertex 3.38059 3.70892 6
      vertex 3.38059 3.70892 0
    endloop
  endfacet
  facet normal -0.866026 0.499998 0
    outer loop
      vertex 5.88262 3.1771 0
      vertex 6.02896 3.43057 6
      vertex 6.02896 3.43057 0
    endloop
  endfacet
  facet normal -0.866026 0.499998 0
    outer loop
      vertex 6.02896 3.43057 6
      vertex 5.88262 3.1771 0
      vertex 5.88262 3.1771 6
    endloop
  endfacet
  facet normal 0.743145 0.66913 0
    outer loop
      vertex 3.81322 2.9596 6
      vertex 3.61738 3.1771 0
      vertex 3.61738 3.1771 6
    endloop
  endfacet
  facet normal 0.743145 0.66913 0
    outer loop
      vertex 3.61738 3.1771 0
      vertex 3.81322 2.9596 6
      vertex 3.81322 2.9596 0
    endloop
  endfacet
  facet normal 0 1 -0
    outer loop
      vertex 4.89634 2.60767 0
      vertex 4.60366 2.60767 6
      vertex 4.89634 2.60767 6
    endloop
  endfacet
  facet normal 0 1 0
    outer loop
      vertex 4.60366 2.60767 6
      vertex 4.89634 2.60767 0
      vertex 4.60366 2.60767 0
    endloop
  endfacet
  facet normal 0.587784 0.809018 -0
    outer loop
      vertex 4.05 2.78756 0
      vertex 3.81322 2.9596 6
      vertex 4.05 2.78756 6
    endloop
  endfacet
  facet normal 0.587784 0.809018 0
    outer loop
      vertex 3.81322 2.9596 6
      vertex 4.05 2.78756 0
      vertex 3.81322 2.9596 0
    endloop
  endfacet
  facet normal 0.866026 0.499998 0
    outer loop
      vertex 3.61738 3.1771 6
      vertex 3.47104 3.43057 0
      vertex 3.47104 3.43057 6
    endloop
  endfacet
  facet normal 0.866026 0.499998 0
    outer loop
      vertex 3.47104 3.43057 0
      vertex 3.61738 3.1771 6
      vertex 3.61738 3.1771 0
    endloop
  endfacet
  facet normal 0.951057 0.309016 0
    outer loop
      vertex 3.47104 3.43057 6
      vertex 3.38059 3.70892 0
      vertex 3.38059 3.70892 6
    endloop
  endfacet
  facet normal 0.951057 0.309016 0
    outer loop
      vertex 3.38059 3.70892 0
      vertex 3.47104 3.43057 6
      vertex 3.47104 3.43057 0
    endloop
  endfacet
  facet normal -0.587784 0.809018 0
    outer loop
      vertex 5.68678 2.9596 0
      vertex 5.45 2.78756 6
      vertex 5.68678 2.9596 6
    endloop
  endfacet
  facet normal -0.587784 0.809018 0
    outer loop
      vertex 5.45 2.78756 6
      vertex 5.68678 2.9596 0
      vertex 5.45 2.78756 0
    endloop
  endfacet
  facet normal -0.406738 0.913545 0
    outer loop
      vertex 5.45 2.78756 0
      vertex 5.18262 2.66852 6
      vertex 5.45 2.78756 6
    endloop
  endfacet
  facet normal -0.406738 0.913545 0
    outer loop
      vertex 5.18262 2.66852 6
      vertex 5.45 2.78756 0
      vertex 5.18262 2.66852 0
    endloop
  endfacet
  facet normal 0.207911 0.978148 -0
    outer loop
      vertex 4.60366 2.60767 0
      vertex 4.31738 2.66852 6
      vertex 4.60366 2.60767 6
    endloop
  endfacet
  facet normal 0.207911 0.978148 0
    outer loop
      vertex 4.31738 2.66852 6
      vertex 4.60366 2.60767 0
      vertex 4.31738 2.66852 0
    endloop
  endfacet
  facet normal 0.406738 0.913545 -0
    outer loop
      vertex 4.31738 2.66852 0
      vertex 4.05 2.78756 6
      vertex 4.31738 2.66852 6
    endloop
  endfacet
  facet normal 0.406738 0.913545 0
    outer loop
      vertex 4.05 2.78756 6
      vertex 4.31738 2.66852 0
      vertex 4.05 2.78756 0
    endloop
  endfacet
  facet normal -0.994522 -0.10453 0
    outer loop
      vertex 6.15 14 0
      vertex 6.11941 14.2911 6
      vertex 6.11941 14.2911 0
    endloop
  endfacet
  facet normal -0.994522 -0.10453 0
    outer loop
      vertex 6.11941 14.2911 6
      vertex 6.15 14 0
      vertex 6.15 14 6
    endloop
  endfacet
  facet normal 0.207911 -0.978148 0
    outer loop
      vertex 4.31738 15.3315 0
      vertex 4.60366 15.3923 6
      vertex 4.31738 15.3315 6
    endloop
  endfacet
  facet normal 0.207911 -0.978148 0
    outer loop
      vertex 4.60366 15.3923 6
      vertex 4.31738 15.3315 0
      vertex 4.60366 15.3923 0
    endloop
  endfacet
  facet normal -0.207911 0.978148 0
    outer loop
      vertex 5.18262 12.6685 0
      vertex 4.89634 12.6077 6
      vertex 5.18262 12.6685 6
    endloop
  endfacet
  facet normal -0.207911 0.978148 0
    outer loop
      vertex 4.89634 12.6077 6
      vertex 5.18262 12.6685 0
      vertex 4.89634 12.6077 0
    endloop
  endfacet
  facet normal -0.587784 -0.809018 0
    outer loop
      vertex 5.45 15.2124 0
      vertex 5.68678 15.0404 6
      vertex 5.45 15.2124 6
    endloop
  endfacet
  facet normal -0.587784 -0.809018 -0
    outer loop
      vertex 5.68678 15.0404 6
      vertex 5.45 15.2124 0
      vertex 5.68678 15.0404 0
    endloop
  endfacet
  facet normal 0.743145 -0.66913 0
    outer loop
      vertex 3.61738 14.8229 6
      vertex 3.81322 15.0404 0
      vertex 3.81322 15.0404 6
    endloop
  endfacet
  facet normal 0.743145 -0.66913 0
    outer loop
      vertex 3.81322 15.0404 0
      vertex 3.61738 14.8229 6
      vertex 3.61738 14.8229 0
    endloop
  endfacet
  facet normal 0.587784 -0.809018 0
    outer loop
      vertex 3.81322 15.0404 0
      vertex 4.05 15.2124 6
      vertex 3.81322 15.0404 6
    endloop
  endfacet
  facet normal 0.587784 -0.809018 0
    outer loop
      vertex 4.05 15.2124 6
      vertex 3.81322 15.0404 0
      vertex 4.05 15.2124 0
    endloop
  endfacet
  facet normal -0.866026 -0.499998 0
    outer loop
      vertex 6.02896 14.5694 0
      vertex 5.88262 14.8229 6
      vertex 5.88262 14.8229 0
    endloop
  endfacet
  facet normal -0.866026 -0.499998 0
    outer loop
      vertex 5.88262 14.8229 6
      vertex 6.02896 14.5694 0
      vertex 6.02896 14.5694 6
    endloop
  endfacet
  facet normal -0.951057 -0.309016 0
    outer loop
      vertex 6.11941 14.2911 0
      vertex 6.02896 14.5694 6
      vertex 6.02896 14.5694 0
    endloop
  endfacet
  facet normal -0.951057 -0.309016 0
    outer loop
      vertex 6.02896 14.5694 6
      vertex 6.11941 14.2911 0
      vertex 6.11941 14.2911 6
    endloop
  endfacet
  facet normal -0.743145 -0.66913 0
    outer loop
      vertex 5.88262 14.8229 0
      vertex 5.68678 15.0404 6
      vertex 5.68678 15.0404 0
    endloop
  endfacet
  facet normal -0.743145 -0.66913 0
    outer loop
      vertex 5.68678 15.0404 6
      vertex 5.88262 14.8229 0
      vertex 5.88262 14.8229 6
    endloop
  endfacet
  facet normal -0.207911 -0.978148 0
    outer loop
      vertex 4.89634 15.3923 0
      vertex 5.18262 15.3315 6
      vertex 4.89634 15.3923 6
    endloop
  endfacet
  facet normal -0.207911 -0.978148 -0
    outer loop
      vertex 5.18262 15.3315 6
      vertex 4.89634 15.3923 0
      vertex 5.18262 15.3315 0
    endloop
  endfacet
  facet normal 0 -1 0
    outer loop
      vertex 4.60366 15.3923 0
      vertex 4.89634 15.3923 6
      vertex 4.60366 15.3923 6
    endloop
  endfacet
  facet normal 0 -1 -0
    outer loop
      vertex 4.89634 15.3923 6
      vertex 4.60366 15.3923 0
      vertex 4.89634 15.3923 0
    endloop
  endfacet
  facet normal -0.406738 -0.913545 0
    outer loop
      vertex 5.18262 15.3315 0
      vertex 5.45 15.2124 6
      vertex 5.18262 15.3315 6
    endloop
  endfacet
  facet normal -0.406738 -0.913545 -0
    outer loop
      vertex 5.45 15.2124 6
      vertex 5.18262 15.3315 0
      vertex 5.45 15.2124 0
    endloop
  endfacet
  facet normal 0.951057 -0.309016 0
    outer loop
      vertex 3.38059 14.2911 6
      vertex 3.47104 14.5694 0
      vertex 3.47104 14.5694 6
    endloop
  endfacet
  facet normal 0.951057 -0.309016 0
    outer loop
      vertex 3.47104 14.5694 0
      vertex 3.38059 14.2911 6
      vertex 3.38059 14.2911 0
    endloop
  endfacet
  facet normal 0.866026 -0.499998 0
    outer loop
      vertex 3.47104 14.5694 6
      vertex 3.61738 14.8229 0
      vertex 3.61738 14.8229 6
    endloop
  endfacet
  facet normal 0.866026 -0.499998 0
    outer loop
      vertex 3.61738 14.8229 0
      vertex 3.47104 14.5694 6
      vertex 3.47104 14.5694 0
    endloop
  endfacet
  facet normal 0.994522 -0.10453 0
    outer loop
      vertex 3.35 14 6
      vertex 3.38059 14.2911 0
      vertex 3.38059 14.2911 6
    endloop
  endfacet
  facet normal 0.994522 -0.10453 0
    outer loop
      vertex 3.38059 14.2911 0
      vertex 3.35 14 6
      vertex 3.35 14 0
    endloop
  endfacet
  facet normal 0 0 -1
    outer loop
      vertex 6.11941 13.7089 6
      vertex 6.11941 14.2911 6
      vertex 6.15 14 6
    endloop
  endfacet
  facet normal 0 0 -1
    outer loop
      vertex 6.02896 13.4306 6
      vertex 6.11941 14.2911 6
      vertex 6.11941 13.7089 6
    endloop
  endfacet
  facet normal 0 0 -1
    outer loop
      vertex 6.02896 13.4306 6
      vertex 6.02896 14.5694 6
      vertex 6.11941 14.2911 6
    endloop
  endfacet
  facet normal 0 0 -1
    outer loop
      vertex 5.88262 13.1771 6
      vertex 6.02896 14.5694 6
      vertex 6.02896 13.4306 6
    endloop
  endfacet
  facet normal 0 0 -1
    outer loop
      vertex 5.88262 13.1771 6
      vertex 5.88262 14.8229 6
      vertex 6.02896 14.5694 6
    endloop
  endfacet
  facet normal 0 0 -1
    outer loop
      vertex 5.68678 12.9596 6
      vertex 5.88262 14.8229 6
      vertex 5.88262 13.1771 6
    endloop
  endfacet
  facet normal 0 0 -1
    outer loop
      vertex 5.68678 12.9596 6
      vertex 5.68678 15.0404 6
      vertex 5.88262 14.8229 6
    endloop
  endfacet
  facet normal 0 0 -1
    outer loop
      vertex 5.45 12.7876 6
      vertex 5.68678 15.0404 6
      vertex 5.68678 12.9596 6
    endloop
  endfacet
  facet normal 0 0 -1
    outer loop
      vertex 5.45 12.7876 6
      vertex 5.45 15.2124 6
      vertex 5.68678 15.0404 6
    endloop
  endfacet
  facet normal 0 0 -1
    outer loop
      vertex 5.18262 12.6685 6
      vertex 5.45 15.2124 6
      vertex 5.45 12.7876 6
    endloop
  endfacet
  facet normal 0 0 -1
    outer loop
      vertex 5.18262 12.6685 6
      vertex 5.18262 15.3315 6
      vertex 5.45 15.2124 6
    endloop
  endfacet
  facet normal 0 0 -1
    outer loop
      vertex 4.89634 12.6077 6
      vertex 5.18262 15.3315 6
      vertex 5.18262 12.6685 6
    endloop
  endfacet
  facet normal 0 0 -1
    outer loop
      vertex 4.89634 12.6077 6
      vertex 4.89634 15.3923 6
      vertex 5.18262 15.3315 6
    endloop
  endfacet
  facet normal 0 0 -1
    outer loop
      vertex 4.60366 12.6077 6
      vertex 4.89634 15.3923 6
      vertex 4.89634 12.6077 6
    endloop
  endfacet
  facet normal 0 0 -1
    outer loop
      vertex 4.60366 12.6077 6
      vertex 4.60366 15.3923 6
      vertex 4.89634 15.3923 6
    endloop
  endfacet
  facet normal 0 0 -1
    outer loop
      vertex 4.31738 12.6685 6
      vertex 4.60366 15.3923 6
      vertex 4.60366 12.6077 6
    endloop
  endfacet
  facet normal 0 0 -1
    outer loop
      vertex 4.31738 12.6685 6
      vertex 4.31738 15.3315 6
      vertex 4.60366 15.3923 6
    endloop
  endfacet
  facet normal 0 0 -1
    outer loop
      vertex 4.05 12.7876 6
      vertex 4.31738 15.3315 6
      vertex 4.31738 12.6685 6
    endloop
  endfacet
  facet normal 0 0 -1
    outer loop
      vertex 4.05 12.7876 6
      vertex 4.05 15.2124 6
      vertex 4.31738 15.3315 6
    endloop
  endfacet
  facet normal 0 0 -1
    outer loop
      vertex 3.81322 12.9596 6
      vertex 4.05 15.2124 6
      vertex 4.05 12.7876 6
    endloop
  endfacet
  facet normal 0 0 -1
    outer loop
      vertex 3.81322 12.9596 6
      vertex 3.81322 15.0404 6
      vertex 4.05 15.2124 6
    endloop
  endfacet
  facet normal 0 0 -1
    outer loop
      vertex 3.61738 13.1771 6
      vertex 3.81322 15.0404 6
      vertex 3.81322 12.9596 6
    endloop
  endfacet
  facet normal 0 0 -1
    outer loop
      vertex 3.61738 13.1771 6
      vertex 3.61738 14.8229 6
      vertex 3.81322 15.0404 6
    endloop
  endfacet
  facet normal 0 0 -1
    outer loop
      vertex 3.47104 13.4306 6
      vertex 3.61738 14.8229 6
      vertex 3.61738 13.1771 6
    endloop
  endfacet
  facet normal 0 0 -1
    outer loop
      vertex 3.47104 13.4306 6
      vertex 3.47104 14.5694 6
      vertex 3.61738 14.8229 6
    endloop
  endfacet
  facet normal 0 0 -1
    outer loop
      vertex 3.38059 13.7089 6
      vertex 3.47104 14.5694 6
      vertex 3.47104 13.4306 6
    endloop
  endfacet
  facet normal 0 0 -1
    outer loop
      vertex 3.38059 13.7089 6
      vertex 3.38059 14.2911 6
      vertex 3.47104 14.5694 6
    endloop
  endfacet
  facet normal 0 -0 -1
    outer loop
      vertex 3.38059 14.2911 6
      vertex 3.38059 13.7089 6
      vertex 3.35 14 6
    endloop
  endfacet
  facet normal 0.406738 -0.913545 0
    outer loop
      vertex 4.05 15.2124 0
      vertex 4.31738 15.3315 6
      vertex 4.05 15.2124 6
    endloop
  endfacet
  facet normal 0.406738 -0.913545 0
    outer loop
      vertex 4.31738 15.3315 6
      vertex 4.05 15.2124 0
      vertex 4.31738 15.3315 0
    endloop
  endfacet
  facet normal -0.994522 0.10453 0
    outer loop
      vertex 6.11941 13.7089 0
      vertex 6.15 14 6
      vertex 6.15 14 0
    endloop
  endfacet
  facet normal -0.994522 0.10453 0
    outer loop
      vertex 6.15 14 6
      vertex 6.11941 13.7089 0
      vertex 6.11941 13.7089 6
    endloop
  endfacet
  facet normal -0.743145 0.66913 0
    outer loop
      vertex 5.68678 12.9596 0
      vertex 5.88262 13.1771 6
      vertex 5.88262 13.1771 0
    endloop
  endfacet
  facet normal -0.743145 0.66913 0
    outer loop
      vertex 5.88262 13.1771 6
      vertex 5.68678 12.9596 0
      vertex 5.68678 12.9596 6
    endloop
  endfacet
  facet normal 0.994522 0.10453 0
    outer loop
      vertex 3.38059 13.7089 6
      vertex 3.35 14 0
      vertex 3.35 14 6
    endloop
  endfacet
  facet normal 0.994522 0.10453 0
    outer loop
      vertex 3.35 14 0
      vertex 3.38059 13.7089 6
      vertex 3.38059 13.7089 0
    endloop
  endfacet
  facet normal -0.866026 0.499998 0
    outer loop
      vertex 5.88262 13.1771 0
      vertex 6.02896 13.4306 6
      vertex 6.02896 13.4306 0
    endloop
  endfacet
  facet normal -0.866026 0.499998 0
    outer loop
      vertex 6.02896 13.4306 6
      vertex 5.88262 13.1771 0
      vertex 5.88262 13.1771 6
    endloop
  endfacet
  facet normal 0.743145 0.66913 0
    outer loop
      vertex 3.81322 12.9596 6
      vertex 3.61738 13.1771 0
      vertex 3.61738 13.1771 6
    endloop
  endfacet
  facet normal 0.743145 0.66913 0
    outer loop
      vertex 3.61738 13.1771 0
      vertex 3.81322 12.9596 6
      vertex 3.81322 12.9596 0
    endloop
  endfacet
  facet normal -0.951057 0.309016 0
    outer loop
      vertex 6.02896 13.4306 0
      vertex 6.11941 13.7089 6
      vertex 6.11941 13.7089 0
    endloop
  endfacet
  facet normal -0.951057 0.309016 0
    outer loop
      vertex 6.11941 13.7089 6
      vertex 6.02896 13.4306 0
      vertex 6.02896 13.4306 6
    endloop
  endfacet
  facet normal 0 1 -0
    outer loop
      vertex 4.89634 12.6077 0
      vertex 4.60366 12.6077 6
      vertex 4.89634 12.6077 6
    endloop
  endfacet
  facet normal 0 1 0
    outer loop
      vertex 4.60366 12.6077 6
      vertex 4.89634 12.6077 0
      vertex 4.60366 12.6077 0
    endloop
  endfacet
  facet normal 0.587784 0.809018 -0
    outer loop
      vertex 4.05 12.7876 0
      vertex 3.81322 12.9596 6
      vertex 4.05 12.7876 6
    endloop
  endfacet
  facet normal 0.587784 0.809018 0
    outer loop
      vertex 3.81322 12.9596 6
      vertex 4.05 12.7876 0
      vertex 3.81322 12.9596 0
    endloop
  endfacet
  facet normal 0.866026 0.499998 0
    outer loop
      vertex 3.61738 13.1771 6
      vertex 3.47104 13.4306 0
      vertex 3.47104 13.4306 6
    endloop
  endfacet
  facet normal 0.866026 0.499998 0
    outer loop
      vertex 3.47104 13.4306 0
      vertex 3.61738 13.1771 6
      vertex 3.61738 13.1771 0
    endloop
  endfacet
  facet normal 0.951057 0.309016 0
    outer loop
      vertex 3.47104 13.4306 6
      vertex 3.38059 13.7089 0
      vertex 3.38059 13.7089 6
    endloop
  endfacet
  facet normal 0.951057 0.309016 0
    outer loop
      vertex 3.38059 13.7089 0
      vertex 3.47104 13.4306 6
      vertex 3.47104 13.4306 0
    endloop
  endfacet
  facet normal -0.587784 0.809018 0
    outer loop
      vertex 5.68678 12.9596 0
      vertex 5.45 12.7876 6
      vertex 5.68678 12.9596 6
    endloop
  endfacet
  facet normal -0.587784 0.809018 0
    outer loop
      vertex 5.45 12.7876 6
      vertex 5.68678 12.9596 0
      vertex 5.45 12.7876 0
    endloop
  endfacet
  facet normal -0.406738 0.913545 0
    outer loop
      vertex 5.45 12.7876 0
      vertex 5.18262 12.6685 6
      vertex 5.45 12.7876 6
    endloop
  endfacet
  facet normal -0.406738 0.913545 0
    outer loop
      vertex 5.18262 12.6685 6
      vertex 5.45 12.7876 0
      vertex 5.18262 12.6685 0
    endloop
  endfacet
  facet normal 0.406738 0.913545 -0
    outer loop
      vertex 4.31738 12.6685 0
      vertex 4.05 12.7876 6
      vertex 4.31738 12.6685 6
    endloop
  endfacet
  facet normal 0.406738 0.913545 0
    outer loop
      vertex 4.05 12.7876 6
      vertex 4.31738 12.6685 0
      vertex 4.05 12.7876 0
    endloop
  endfacet
  facet normal 0.207911 0.978148 -0
    outer loop
      vertex 4.60366 12.6077 0
      vertex 4.31738 12.6685 6
      vertex 4.60366 12.6077 6
    endloop
  endfacet
  facet normal 0.207911 0.978148 0
    outer loop
      vertex 4.31738 12.6685 6
      vertex 4.60366 12.6077 0
      vertex 4.31738 12.6685 0
    endloop
  endfacet
  facet normal -0.994522 -0.10453 0
    outer loop
      vertex 54.15 4 0
      vertex 54.1194 4.29108 6
      vertex 54.1194 4.29108 0
    endloop
  endfacet
  facet normal -0.994522 -0.10453 0
    outer loop
      vertex 54.1194 4.29108 6
      vertex 54.15 4 0
      vertex 54.15 4 6
    endloop
  endfacet
  facet normal 0.207909 -0.978148 0
    outer loop
      vertex 52.3174 5.33148 0
      vertex 52.6037 5.39233 6
      vertex 52.3174 5.33148 6
    endloop
  endfacet
  facet normal 0.207909 -0.978148 0
    outer loop
      vertex 52.6037 5.39233 6
      vertex 52.3174 5.33148 0
      vertex 52.6037 5.39233 0
    endloop
  endfacet
  facet normal -0.207909 0.978148 0
    outer loop
      vertex 53.1826 2.66852 0
      vertex 52.8963 2.60767 6
      vertex 53.1826 2.66852 6
    endloop
  endfacet
  facet normal -0.207909 0.978148 0
    outer loop
      vertex 52.8963 2.60767 6
      vertex 53.1826 2.66852 0
      vertex 52.8963 2.60767 0
    endloop
  endfacet
  facet normal -0.587785 -0.809017 0
    outer loop
      vertex 53.45 5.21243 0
      vertex 53.6868 5.0404 6
      vertex 53.45 5.21243 6
    endloop
  endfacet
  facet normal -0.587785 -0.809017 -0
    outer loop
      vertex 53.6868 5.0404 6
      vertex 53.45 5.21243 0
      vertex 53.6868 5.0404 0
    endloop
  endfacet
  facet normal 0.743142 -0.669134 0
    outer loop
      vertex 51.6174 4.8229 6
      vertex 51.8132 5.0404 0
      vertex 51.8132 5.0404 6
    endloop
  endfacet
  facet normal 0.743142 -0.669134 0
    outer loop
      vertex 51.8132 5.0404 0
      vertex 51.6174 4.8229 6
      vertex 51.6174 4.8229 0
    endloop
  endfacet
  facet normal 0.587785 -0.809017 0
    outer loop
      vertex 51.8132 5.0404 0
      vertex 52.05 5.21243 6
      vertex 51.8132 5.0404 6
    endloop
  endfacet
  facet normal 0.587785 -0.809017 0
    outer loop
      vertex 52.05 5.21243 6
      vertex 51.8132 5.0404 0
      vertex 52.05 5.21243 0
    endloop
  endfacet
  facet normal -0.951053 0.309028 0
    outer loop
      vertex 54.029 3.43057 0
      vertex 54.1194 3.70892 6
      vertex 54.1194 3.70892 0
    endloop
  endfacet
  facet normal -0.951053 0.309028 0
    outer loop
      vertex 54.1194 3.70892 6
      vertex 54.029 3.43057 0
      vertex 54.029 3.43057 6
    endloop
  endfacet
  facet normal -0.866026 -0.499998 0
    outer loop
      vertex 54.029 4.56943 0
      vertex 53.8826 4.8229 6
      vertex 53.8826 4.8229 0
    endloop
  endfacet
  facet normal -0.866026 -0.499998 0
    outer loop
      vertex 53.8826 4.8229 6
      vertex 54.029 4.56943 0
      vertex 54.029 4.56943 6
    endloop
  endfacet
  facet normal -0.951053 -0.309028 0
    outer loop
      vertex 54.1194 4.29108 0
      vertex 54.029 4.56943 6
      vertex 54.029 4.56943 0
    endloop
  endfacet
  facet normal -0.951053 -0.309028 0
    outer loop
      vertex 54.029 4.56943 6
      vertex 54.1194 4.29108 0
      vertex 54.1194 4.29108 6
    endloop
  endfacet
  facet normal -0.743148 -0.669127 0
    outer loop
      vertex 53.8826 4.8229 0
      vertex 53.6868 5.0404 6
      vertex 53.6868 5.0404 0
    endloop
  endfacet
  facet normal -0.743148 -0.669127 0
    outer loop
      vertex 53.6868 5.0404 6
      vertex 53.8826 4.8229 0
      vertex 53.8826 4.8229 6
    endloop
  endfacet
  facet normal -0.207909 -0.978148 0
    outer loop
      vertex 52.8963 5.39233 0
      vertex 53.1826 5.33148 6
      vertex 52.8963 5.39233 6
    endloop
  endfacet
  facet normal -0.207909 -0.978148 -0
    outer loop
      vertex 53.1826 5.33148 6
      vertex 52.8963 5.39233 0
      vertex 53.1826 5.33148 0
    endloop
  endfacet
  facet normal 0 -1 0
    outer loop
      vertex 52.6037 5.39233 0
      vertex 52.8963 5.39233 6
      vertex 52.6037 5.39233 6
    endloop
  endfacet
  facet normal 0 -1 -0
    outer loop
      vertex 52.8963 5.39233 6
      vertex 52.6037 5.39233 0
      vertex 52.8963 5.39233 0
    endloop
  endfacet
  facet normal -0.406739 -0.913544 0
    outer loop
      vertex 53.1826 5.33148 0
      vertex 53.45 5.21243 6
      vertex 53.1826 5.33148 6
    endloop
  endfacet
  facet normal -0.406739 -0.913544 -0
    outer loop
      vertex 53.45 5.21243 6
      vertex 53.1826 5.33148 0
      vertex 53.45 5.21243 0
    endloop
  endfacet
  facet normal 0.951057 -0.309016 0
    outer loop
      vertex 51.3806 4.29108 6
      vertex 51.471 4.56943 0
      vertex 51.471 4.56943 6
    endloop
  endfacet
  facet normal 0.951057 -0.309016 0
    outer loop
      vertex 51.471 4.56943 0
      vertex 51.3806 4.29108 6
      vertex 51.3806 4.29108 0
    endloop
  endfacet
  facet normal 0.866026 -0.499998 0
    outer loop
      vertex 51.471 4.56943 6
      vertex 51.6174 4.8229 0
      vertex 51.6174 4.8229 6
    endloop
  endfacet
  facet normal 0.866026 -0.499998 0
    outer loop
      vertex 51.6174 4.8229 0
      vertex 51.471 4.56943 6
      vertex 51.471 4.56943 0
    endloop
  endfacet
  facet normal 0.994522 -0.10453 0
    outer loop
      vertex 51.35 4 6
      vertex 51.3806 4.29108 0
      vertex 51.3806 4.29108 6
    endloop
  endfacet
  facet normal 0.994522 -0.10453 0
    outer loop
      vertex 51.3806 4.29108 0
      vertex 51.35 4 6
      vertex 51.35 4 0
    endloop
  endfacet
  facet normal 0 0 -1
    outer loop
      vertex 54.1194 3.70892 6
      vertex 54.1194 4.29108 6
      vertex 54.15 4 6
    endloop
  endfacet
  facet normal 0 0 -1
    outer loop
      vertex 54.029 3.43057 6
      vertex 54.1194 4.29108 6
      vertex 54.1194 3.70892 6
    endloop
  endfacet
  facet normal 0 0 -1
    outer loop
      vertex 54.029 3.43057 6
      vertex 54.029 4.56943 6
      vertex 54.1194 4.29108 6
    endloop
  endfacet
  facet normal 0 0 -1
    outer loop
      vertex 53.8826 3.1771 6
      vertex 54.029 4.56943 6
      vertex 54.029 3.43057 6
    endloop
  endfacet
  facet normal 0 0 -1
    outer loop
      vertex 53.8826 3.1771 6
      vertex 53.8826 4.8229 6
      vertex 54.029 4.56943 6
    endloop
  endfacet
  facet normal 0 0 -1
    outer loop
      vertex 53.6868 2.9596 6
      vertex 53.8826 4.8229 6
      vertex 53.8826 3.1771 6
    endloop
  endfacet
  facet normal 0 0 -1
    outer loop
      vertex 53.6868 2.9596 6
      vertex 53.6868 5.0404 6
      vertex 53.8826 4.8229 6
    endloop
  endfacet
  facet normal 0 0 -1
    outer loop
      vertex 53.45 2.78756 6
      vertex 53.6868 5.0404 6
      vertex 53.6868 2.9596 6
    endloop
  endfacet
  facet normal 0 0 -1
    outer loop
      vertex 53.45 2.78756 6
      vertex 53.45 5.21243 6
      vertex 53.6868 5.0404 6
    endloop
  endfacet
  facet normal 0 0 -1
    outer loop
      vertex 53.1826 2.66852 6
      vertex 53.45 5.21243 6
      vertex 53.45 2.78756 6
    endloop
  endfacet
  facet normal 0 0 -1
    outer loop
      vertex 53.1826 2.66852 6
      vertex 53.1826 5.33148 6
      vertex 53.45 5.21243 6
    endloop
  endfacet
  facet normal 0 0 -1
    outer loop
      vertex 52.8963 2.60767 6
      vertex 53.1826 5.33148 6
      vertex 53.1826 2.66852 6
    endloop
  endfacet
  facet normal 0 0 -1
    outer loop
      vertex 52.8963 2.60767 6
      vertex 52.8963 5.39233 6
      vertex 53.1826 5.33148 6
    endloop
  endfacet
  facet normal 0 0 -1
    outer loop
      vertex 52.6037 2.60767 6
      vertex 52.8963 5.39233 6
      vertex 52.8963 2.60767 6
    endloop
  endfacet
  facet normal 0 0 -1
    outer loop
      vertex 52.6037 2.60767 6
      vertex 52.6037 5.39233 6
      vertex 52.8963 5.39233 6
    endloop
  endfacet
  facet normal 0 0 -1
    outer loop
      vertex 52.3174 2.66852 6
      vertex 52.6037 5.39233 6
      vertex 52.6037 2.60767 6
    endloop
  endfacet
  facet normal 0 0 -1
    outer loop
      vertex 52.3174 2.66852 6
      vertex 52.3174 5.33148 6
      vertex 52.6037 5.39233 6
    endloop
  endfacet
  facet normal 0 0 -1
    outer loop
      vertex 52.05 2.78756 6
      vertex 52.3174 5.33148 6
      vertex 52.3174 2.66852 6
    endloop
  endfacet
  facet normal 0 0 -1
    outer loop
      vertex 52.05 2.78756 6
      vertex 52.05 5.21243 6
      vertex 52.3174 5.33148 6
    endloop
  endfacet
  facet normal 0 0 -1
    outer loop
      vertex 51.8132 2.9596 6
      vertex 52.05 5.21243 6
      vertex 52.05 2.78756 6
    endloop
  endfacet
  facet normal 0 0 -1
    outer loop
      vertex 51.8132 2.9596 6
      vertex 51.8132 5.0404 6
      vertex 52.05 5.21243 6
    endloop
  endfacet
  facet normal 0 0 -1
    outer loop
      vertex 51.6174 3.1771 6
      vertex 51.8132 5.0404 6
      vertex 51.8132 2.9596 6
    endloop
  endfacet
  facet normal 0 0 -1
    outer loop
      vertex 51.6174 3.1771 6
      vertex 51.6174 4.8229 6
      vertex 51.8132 5.0404 6
    endloop
  endfacet
  facet normal 0 0 -1
    outer loop
      vertex 51.471 3.43057 6
      vertex 51.6174 4.8229 6
      vertex 51.6174 3.1771 6
    endloop
  endfacet
  facet normal 0 0 -1
    outer loop
      vertex 51.471 3.43057 6
      vertex 51.471 4.56943 6
      vertex 51.6174 4.8229 6
    endloop
  endfacet
  facet normal 0 0 -1
    outer loop
      vertex 51.3806 3.70892 6
      vertex 51.471 4.56943 6
      vertex 51.471 3.43057 6
    endloop
  endfacet
  facet normal 0 0 -1
    outer loop
      vertex 51.3806 3.70892 6
      vertex 51.3806 4.29108 6
      vertex 51.471 4.56943 6
    endloop
  endfacet
  facet normal 0 -0 -1
    outer loop
      vertex 51.3806 4.29108 6
      vertex 51.3806 3.70892 6
      vertex 51.35 4 6
    endloop
  endfacet
  facet normal 0.406739 -0.913544 0
    outer loop
      vertex 52.05 5.21243 0
      vertex 52.3174 5.33148 6
      vertex 52.05 5.21243 6
    endloop
  endfacet
  facet normal 0.406739 -0.913544 0
    outer loop
      vertex 52.3174 5.33148 6
      vertex 52.05 5.21243 0
      vertex 52.3174 5.33148 0
    endloop
  endfacet
  facet normal -0.994522 0.10453 0
    outer loop
      vertex 54.1194 3.70892 0
      vertex 54.15 4 6
      vertex 54.15 4 0
    endloop
  endfacet
  facet normal -0.994522 0.10453 0
    outer loop
      vertex 54.15 4 6
      vertex 54.1194 3.70892 0
      vertex 54.1194 3.70892 6
    endloop
  endfacet
  facet normal -0.743148 0.669127 0
    outer loop
      vertex 53.6868 2.9596 0
      vertex 53.8826 3.1771 6
      vertex 53.8826 3.1771 0
    endloop
  endfacet
  facet normal -0.743148 0.669127 0
    outer loop
      vertex 53.8826 3.1771 6
      vertex 53.6868 2.9596 0
      vertex 53.6868 2.9596 6
    endloop
  endfacet
  facet normal 0.994522 0.10453 0
    outer loop
      vertex 51.3806 3.70892 6
      vertex 51.35 4 0
      vertex 51.35 4 6
    endloop
  endfacet
  facet normal 0.994522 0.10453 0
    outer loop
      vertex 51.35 4 0
      vertex 51.3806 3.70892 6
      vertex 51.3806 3.70892 0
    endloop
  endfacet
  facet normal -0.866026 0.499998 0
    outer loop
      vertex 53.8826 3.1771 0
      vertex 54.029 3.43057 6
      vertex 54.029 3.43057 0
    endloop
  endfacet
  facet normal -0.866026 0.499998 0
    outer loop
      vertex 54.029 3.43057 6
      vertex 53.8826 3.1771 0
      vertex 53.8826 3.1771 6
    endloop
  endfacet
  facet normal 0.743142 0.669134 0
    outer loop
      vertex 51.8132 2.9596 6
      vertex 51.6174 3.1771 0
      vertex 51.6174 3.1771 6
    endloop
  endfacet
  facet normal 0.743142 0.669134 0
    outer loop
      vertex 51.6174 3.1771 0
      vertex 51.8132 2.9596 6
      vertex 51.8132 2.9596 0
    endloop
  endfacet
  facet normal 0.951057 0.309016 0
    outer loop
      vertex 51.471 3.43057 6
      vertex 51.3806 3.70892 0
      vertex 51.3806 3.70892 6
    endloop
  endfacet
  facet normal 0.951057 0.309016 0
    outer loop
      vertex 51.3806 3.70892 0
      vertex 51.471 3.43057 6
      vertex 51.471 3.43057 0
    endloop
  endfacet
  facet normal 0.587785 0.809017 -0
    outer loop
      vertex 52.05 2.78756 0
      vertex 51.8132 2.9596 6
      vertex 52.05 2.78756 6
    endloop
  endfacet
  facet normal 0.587785 0.809017 0
    outer loop
      vertex 51.8132 2.9596 6
      vertex 52.05 2.78756 0
      vertex 51.8132 2.9596 0
    endloop
  endfacet
  facet normal 0.866026 0.499998 0
    outer loop
      vertex 51.6174 3.1771 6
      vertex 51.471 3.43057 0
      vertex 51.471 3.43057 6
    endloop
  endfacet
  facet normal 0.866026 0.499998 0
    outer loop
      vertex 51.471 3.43057 0
      vertex 51.6174 3.1771 6
      vertex 51.6174 3.1771 0
    endloop
  endfacet
  facet normal -0.587785 0.809017 0
    outer loop
      vertex 53.6868 2.9596 0
      vertex 53.45 2.78756 6
      vertex 53.6868 2.9596 6
    endloop
  endfacet
  facet normal -0.587785 0.809017 0
    outer loop
      vertex 53.45 2.78756 6
      vertex 53.6868 2.9596 0
      vertex 53.45 2.78756 0
    endloop
  endfacet
  facet normal -0.406739 0.913544 0
    outer loop
      vertex 53.45 2.78756 0
      vertex 53.1826 2.66852 6
      vertex 53.45 2.78756 6
    endloop
  endfacet
  facet normal -0.406739 0.913544 0
    outer loop
      vertex 53.1826 2.66852 6
      vertex 53.45 2.78756 0
      vertex 53.1826 2.66852 0
    endloop
  endfacet
  facet normal 0.207909 0.978148 -0
    outer loop
      vertex 52.6037 2.60767 0
      vertex 52.3174 2.66852 6
      vertex 52.6037 2.60767 6
    endloop
  endfacet
  facet normal 0.207909 0.978148 0
    outer loop
      vertex 52.3174 2.66852 6
      vertex 52.6037 2.60767 0
      vertex 52.3174 2.66852 0
    endloop
  endfacet
  facet normal 0.406739 0.913544 -0
    outer loop
      vertex 52.3174 2.66852 0
      vertex 52.05 2.78756 6
      vertex 52.3174 2.66852 6
    endloop
  endfacet
  facet normal 0.406739 0.913544 0
    outer loop
      vertex 52.05 2.78756 6
      vertex 52.3174 2.66852 0
      vertex 52.05 2.78756 0
    endloop
  endfacet
  facet normal 0 1 -0
    outer loop
      vertex 52.8963 2.60767 0
      vertex 52.6037 2.60767 6
      vertex 52.8963 2.60767 6
    endloop
  endfacet
  facet normal 0 1 0
    outer loop
      vertex 52.6037 2.60767 6
      vertex 52.8963 2.60767 0
      vertex 52.6037 2.60767 0
    endloop
  endfacet
  facet normal -0.994522 -0.10453 0
    outer loop
      vertex 54.15 14 0
      vertex 54.1194 14.2911 6
      vertex 54.1194 14.2911 0
    endloop
  endfacet
  facet normal -0.994522 -0.10453 0
    outer loop
      vertex 54.1194 14.2911 6
      vertex 54.15 14 0
      vertex 54.15 14 6
    endloop
  endfacet
  facet normal 0.207909 -0.978148 0
    outer loop
      vertex 52.3174 15.3315 0
      vertex 52.6037 15.3923 6
      vertex 52.3174 15.3315 6
    endloop
  endfacet
  facet normal 0.207909 -0.978148 0
    outer loop
      vertex 52.6037 15.3923 6
      vertex 52.3174 15.3315 0
      vertex 52.6037 15.3923 0
    endloop
  endfacet
  facet normal -0.207909 0.978148 0
    outer loop
      vertex 53.1826 12.6685 0
      vertex 52.8963 12.6077 6
      vertex 53.1826 12.6685 6
    endloop
  endfacet
  facet normal -0.207909 0.978148 0
    outer loop
      vertex 52.8963 12.6077 6
      vertex 53.1826 12.6685 0
      vertex 52.8963 12.6077 0
    endloop
  endfacet
  facet normal -0.587785 -0.809017 0
    outer loop
      vertex 53.45 15.2124 0
      vertex 53.6868 15.0404 6
      vertex 53.45 15.2124 6
    endloop
  endfacet
  facet normal -0.587785 -0.809017 -0
    outer loop
      vertex 53.6868 15.0404 6
      vertex 53.45 15.2124 0
      vertex 53.6868 15.0404 0
    endloop
  endfacet
  facet normal 0.743142 -0.669134 0
    outer loop
      vertex 51.6174 14.8229 6
      vertex 51.8132 15.0404 0
      vertex 51.8132 15.0404 6
    endloop
  endfacet
  facet normal 0.743142 -0.669134 0
    outer loop
      vertex 51.8132 15.0404 0
      vertex 51.6174 14.8229 6
      vertex 51.6174 14.8229 0
    endloop
  endfacet
  facet normal 0.587785 -0.809017 0
    outer loop
      vertex 51.8132 15.0404 0
      vertex 52.05 15.2124 6
      vertex 51.8132 15.0404 6
    endloop
  endfacet
  facet normal 0.587785 -0.809017 0
    outer loop
      vertex 52.05 15.2124 6
      vertex 51.8132 15.0404 0
      vertex 52.05 15.2124 0
    endloop
  endfacet
  facet normal -0.866026 -0.499998 0
    outer loop
      vertex 54.029 14.5694 0
      vertex 53.8826 14.8229 6
      vertex 53.8826 14.8229 0
    endloop
  endfacet
  facet normal -0.866026 -0.499998 0
    outer loop
      vertex 53.8826 14.8229 6
      vertex 54.029 14.5694 0
      vertex 54.029 14.5694 6
    endloop
  endfacet
  facet normal -0.951053 -0.309028 0
    outer loop
      vertex 54.1194 14.2911 0
      vertex 54.029 14.5694 6
      vertex 54.029 14.5694 0
    endloop
  endfacet
  facet normal -0.951053 -0.309028 0
    outer loop
      vertex 54.029 14.5694 6
      vertex 54.1194 14.2911 0
      vertex 54.1194 14.2911 6
    endloop
  endfacet
  facet normal -0.743148 -0.669127 0
    outer loop
      vertex 53.8826 14.8229 0
      vertex 53.6868 15.0404 6
      vertex 53.6868 15.0404 0
    endloop
  endfacet
  facet normal -0.743148 -0.669127 0
    outer loop
      vertex 53.6868 15.0404 6
      vertex 53.8826 14.8229 0
      vertex 53.8826 14.8229 6
    endloop
  endfacet
  facet normal -0.207909 -0.978148 0
    outer loop
      vertex 52.8963 15.3923 0
      vertex 53.1826 15.3315 6
      vertex 52.8963 15.3923 6
    endloop
  endfacet
  facet normal -0.207909 -0.978148 -0
    outer loop
      vertex 53.1826 15.3315 6
      vertex 52.8963 15.3923 0
      vertex 53.1826 15.3315 0
    endloop
  endfacet
  facet normal 0 -1 0
    outer loop
      vertex 52.6037 15.3923 0
      vertex 52.8963 15.3923 6
      vertex 52.6037 15.3923 6
    endloop
  endfacet
  facet normal 0 -1 -0
    outer loop
      vertex 52.8963 15.3923 6
      vertex 52.6037 15.3923 0
      vertex 52.8963 15.3923 0
    endloop
  endfacet
  facet normal -0.406739 -0.913544 0
    outer loop
      vertex 53.1826 15.3315 0
      vertex 53.45 15.2124 6
      vertex 53.1826 15.3315 6
    endloop
  endfacet
  facet normal -0.406739 -0.913544 -0
    outer loop
      vertex 53.45 15.2124 6
      vertex 53.1826 15.3315 0
      vertex 53.45 15.2124 0
    endloop
  endfacet
  facet normal 0.951057 -0.309016 0
    outer loop
      vertex 51.3806 14.2911 6
      vertex 51.471 14.5694 0
      vertex 51.471 14.5694 6
    endloop
  endfacet
  facet normal 0.951057 -0.309016 0
    outer loop
      vertex 51.471 14.5694 0
      vertex 51.3806 14.2911 6
      vertex 51.3806 14.2911 0
    endloop
  endfacet
  facet normal 0.866026 -0.499998 0
    outer loop
      vertex 51.471 14.5694 6
      vertex 51.6174 14.8229 0
      vertex 51.6174 14.8229 6
    endloop
  endfacet
  facet normal 0.866026 -0.499998 0
    outer loop
      vertex 51.6174 14.8229 0
      vertex 51.471 14.5694 6
      vertex 51.471 14.5694 0
    endloop
  endfacet
  facet normal 0.994522 -0.10453 0
    outer loop
      vertex 51.35 14 6
      vertex 51.3806 14.2911 0
      vertex 51.3806 14.2911 6
    endloop
  endfacet
  facet normal 0.994522 -0.10453 0
    outer loop
      vertex 51.3806 14.2911 0
      vertex 51.35 14 6
      vertex 51.35 14 0
    endloop
  endfacet
  facet normal 0 0 -1
    outer loop
      vertex 54.1194 13.7089 6
      vertex 54.1194 14.2911 6
      vertex 54.15 14 6
    endloop
  endfacet
  facet normal 0 0 -1
    outer loop
      vertex 54.029 13.4306 6
      vertex 54.1194 14.2911 6
      vertex 54.1194 13.7089 6
    endloop
  endfacet
  facet normal 0 0 -1
    outer loop
      vertex 54.029 13.4306 6
      vertex 54.029 14.5694 6
      vertex 54.1194 14.2911 6
    endloop
  endfacet
  facet normal 0 0 -1
    outer loop
      vertex 53.8826 13.1771 6
      vertex 54.029 14.5694 6
      vertex 54.029 13.4306 6
    endloop
  endfacet
  facet normal 0 0 -1
    outer loop
      vertex 53.8826 13.1771 6
      vertex 53.8826 14.8229 6
      vertex 54.029 14.5694 6
    endloop
  endfacet
  facet normal 0 0 -1
    outer loop
      vertex 53.6868 12.9596 6
      vertex 53.8826 14.8229 6
      vertex 53.8826 13.1771 6
    endloop
  endfacet
  facet normal 0 0 -1
    outer loop
      vertex 53.6868 12.9596 6
      vertex 53.6868 15.0404 6
      vertex 53.8826 14.8229 6
    endloop
  endfacet
  facet normal 0 0 -1
    outer loop
      vertex 53.45 12.7876 6
      vertex 53.6868 15.0404 6
      vertex 53.6868 12.9596 6
    endloop
  endfacet
  facet normal 0 0 -1
    outer loop
      vertex 53.45 12.7876 6
      vertex 53.45 15.2124 6
      vertex 53.6868 15.0404 6
    endloop
  endfacet
  facet normal 0 0 -1
    outer loop
      vertex 53.1826 12.6685 6
      vertex 53.45 15.2124 6
      vertex 53.45 12.7876 6
    endloop
  endfacet
  facet normal 0 0 -1
    outer loop
      vertex 53.1826 12.6685 6
      vertex 53.1826 15.3315 6
      vertex 53.45 15.2124 6
    endloop
  endfacet
  facet normal 0 0 -1
    outer loop
      vertex 52.8963 12.6077 6
      vertex 53.1826 15.3315 6
      vertex 53.1826 12.6685 6
    endloop
  endfacet
  facet normal 0 0 -1
    outer loop
      vertex 52.8963 12.6077 6
      vertex 52.8963 15.3923 6
      vertex 53.1826 15.3315 6
    endloop
  endfacet
  facet normal 0 0 -1
    outer loop
      vertex 52.6037 12.6077 6
      vertex 52.8963 15.3923 6
      vertex 52.8963 12.6077 6
    endloop
  endfacet
  facet normal 0 0 -1
    outer loop
      vertex 52.6037 12.6077 6
      vertex 52.6037 15.3923 6
      vertex 52.8963 15.3923 6
    endloop
  endfacet
  facet normal 0 0 -1
    outer loop
      vertex 52.3174 12.6685 6
      vertex 52.6037 15.3923 6
      vertex 52.6037 12.6077 6
    endloop
  endfacet
  facet normal 0 0 -1
    outer loop
      vertex 52.3174 12.6685 6
      vertex 52.3174 15.3315 6
      vertex 52.6037 15.3923 6
    endloop
  endfacet
  facet normal 0 0 -1
    outer loop
      vertex 52.05 12.7876 6
      vertex 52.3174 15.3315 6
      vertex 52.3174 12.6685 6
    endloop
  endfacet
  facet normal 0 0 -1
    outer loop
      vertex 52.05 12.7876 6
      vertex 52.05 15.2124 6
      vertex 52.3174 15.3315 6
    endloop
  endfacet
  facet normal 0 0 -1
    outer loop
      vertex 51.8132 12.9596 6
      vertex 52.05 15.2124 6
      vertex 52.05 12.7876 6
    endloop
  endfacet
  facet normal 0 0 -1
    outer loop
      vertex 51.8132 12.9596 6
      vertex 51.8132 15.0404 6
      vertex 52.05 15.2124 6
    endloop
  endfacet
  facet normal 0 0 -1
    outer loop
      vertex 51.6174 13.1771 6
      vertex 51.8132 15.0404 6
      vertex 51.8132 12.9596 6
    endloop
  endfacet
  facet normal 0 0 -1
    outer loop
      vertex 51.6174 13.1771 6
      vertex 51.6174 14.8229 6
      vertex 51.8132 15.0404 6
    endloop
  endfacet
  facet normal 0 0 -1
    outer loop
      vertex 51.471 13.4306 6
      vertex 51.6174 14.8229 6
      vertex 51.6174 13.1771 6
    endloop
  endfacet
  facet normal 0 0 -1
    outer loop
      vertex 51.471 13.4306 6
      vertex 51.471 14.5694 6
      vertex 51.6174 14.8229 6
    endloop
  endfacet
  facet normal 0 0 -1
    outer loop
      vertex 51.3806 13.7089 6
      vertex 51.471 14.5694 6
      vertex 51.471 13.4306 6
    endloop
  endfacet
  facet normal 0 0 -1
    outer loop
      vertex 51.3806 13.7089 6
      vertex 51.3806 14.2911 6
      vertex 51.471 14.5694 6
    endloop
  endfacet
  facet normal 0 -0 -1
    outer loop
      vertex 51.3806 14.2911 6
      vertex 51.3806 13.7089 6
      vertex 51.35 14 6
    endloop
  endfacet
  facet normal 0.406739 -0.913544 0
    outer loop
      vertex 52.05 15.2124 0
      vertex 52.3174 15.3315 6
      vertex 52.05 15.2124 6
    endloop
  endfacet
  facet normal 0.406739 -0.913544 0
    outer loop
      vertex 52.3174 15.3315 6
      vertex 52.05 15.2124 0
      vertex 52.3174 15.3315 0
    endloop
  endfacet
  facet normal -0.994522 0.10453 0
    outer loop
      vertex 54.1194 13.7089 0
      vertex 54.15 14 6
      vertex 54.15 14 0
    endloop
  endfacet
  facet normal -0.994522 0.10453 0
    outer loop
      vertex 54.15 14 6
      vertex 54.1194 13.7089 0
      vertex 54.1194 13.7089 6
    endloop
  endfacet
  facet normal -0.743148 0.669127 0
    outer loop
      vertex 53.6868 12.9596 0
      vertex 53.8826 13.1771 6
      vertex 53.8826 13.1771 0
    endloop
  endfacet
  facet normal -0.743148 0.669127 0
    outer loop
      vertex 53.8826 13.1771 6
      vertex 53.6868 12.9596 0
      vertex 53.6868 12.9596 6
    endloop
  endfacet
  facet normal 0.994522 0.10453 0
    outer loop
      vertex 51.3806 13.7089 6
      vertex 51.35 14 0
      vertex 51.35 14 6
    endloop
  endfacet
  facet normal 0.994522 0.10453 0
    outer loop
      vertex 51.35 14 0
      vertex 51.3806 13.7089 6
      vertex 51.3806 13.7089 0
    endloop
  endfacet
  facet normal -0.866026 0.499998 0
    outer loop
      vertex 53.8826 13.1771 0
      vertex 54.029 13.4306 6
      vertex 54.029 13.4306 0
    endloop
  endfacet
  facet normal -0.866026 0.499998 0
    outer loop
      vertex 54.029 13.4306 6
      vertex 53.8826 13.1771 0
      vertex 53.8826 13.1771 6
    endloop
  endfacet
  facet normal 0.743142 0.669134 0
    outer loop
      vertex 51.8132 12.9596 6
      vertex 51.6174 13.1771 0
      vertex 51.6174 13.1771 6
    endloop
  endfacet
  facet normal 0.743142 0.669134 0
    outer loop
      vertex 51.6174 13.1771 0
      vertex 51.8132 12.9596 6
      vertex 51.8132 12.9596 0
    endloop
  endfacet
  facet normal -0.951053 0.309028 0
    outer loop
      vertex 54.029 13.4306 0
      vertex 54.1194 13.7089 6
      vertex 54.1194 13.7089 0
    endloop
  endfacet
  facet normal -0.951053 0.309028 0
    outer loop
      vertex 54.1194 13.7089 6
      vertex 54.029 13.4306 0
      vertex 54.029 13.4306 6
    endloop
  endfacet
  facet normal 0 1 -0
    outer loop
      vertex 52.8963 12.6077 0
      vertex 52.6037 12.6077 6
      vertex 52.8963 12.6077 6
    endloop
  endfacet
  facet normal 0 1 0
    outer loop
      vertex 52.6037 12.6077 6
      vertex 52.8963 12.6077 0
      vertex 52.6037 12.6077 0
    endloop
  endfacet
  facet normal 0.207909 0.978148 -0
    outer loop
      vertex 52.6037 12.6077 0
      vertex 52.3174 12.6685 6
      vertex 52.6037 12.6077 6
    endloop
  endfacet
  facet normal 0.207909 0.978148 0
    outer loop
      vertex 52.3174 12.6685 6
      vertex 52.6037 12.6077 0
      vertex 52.3174 12.6685 0
    endloop
  endfacet
  facet normal 0.587785 0.809017 -0
    outer loop
      vertex 52.05 12.7876 0
      vertex 51.8132 12.9596 6
      vertex 52.05 12.7876 6
    endloop
  endfacet
  facet normal 0.587785 0.809017 0
    outer loop
      vertex 51.8132 12.9596 6
      vertex 52.05 12.7876 0
      vertex 51.8132 12.9596 0
    endloop
  endfacet
  facet normal 0.866026 0.499998 0
    outer loop
      vertex 51.6174 13.1771 6
      vertex 51.471 13.4306 0
      vertex 51.471 13.4306 6
    endloop
  endfacet
  facet normal 0.866026 0.499998 0
    outer loop
      vertex 51.471 13.4306 0
      vertex 51.6174 13.1771 6
      vertex 51.6174 13.1771 0
    endloop
  endfacet
  facet normal 0.951057 0.309016 0
    outer loop
      vertex 51.471 13.4306 6
      vertex 51.3806 13.7089 0
      vertex 51.3806 13.7089 6
    endloop
  endfacet
  facet normal 0.951057 0.309016 0
    outer loop
      vertex 51.3806 13.7089 0
      vertex 51.471 13.4306 6
      vertex 51.471 13.4306 0
    endloop
  endfacet
  facet normal -0.587785 0.809017 0
    outer loop
      vertex 53.6868 12.9596 0
      vertex 53.45 12.7876 6
      vertex 53.6868 12.9596 6
    endloop
  endfacet
  facet normal -0.587785 0.809017 0
    outer loop
      vertex 53.45 12.7876 6
      vertex 53.6868 12.9596 0
      vertex 53.45 12.7876 0
    endloop
  endfacet
  facet normal -0.406739 0.913544 0
    outer loop
      vertex 53.45 12.7876 0
      vertex 53.1826 12.6685 6
      vertex 53.45 12.7876 6
    endloop
  endfacet
  facet normal -0.406739 0.913544 0
    outer loop
      vertex 53.1826 12.6685 6
      vertex 53.45 12.7876 0
      vertex 53.1826 12.6685 0
    endloop
  endfacet
  facet normal 0.406739 0.913544 -0
    outer loop
      vertex 52.3174 12.6685 0
      vertex 52.05 12.7876 6
      vertex 52.3174 12.6685 6
    endloop
  endfacet
  facet normal 0.406739 0.913544 0
    outer loop
      vertex 52.05 12.7876 6
      vertex 52.3174 12.6685 0
      vertex 52.05 12.7876 0
    endloop
  endfacet
endsolid OpenSCAD_Model
