solid OpenSCAD_Model
  facet normal -0.998027 -0.062792 0
    outer loop
      vertex -1.98423 -0.250666 0
      vertex -2 0 2.7
      vertex -2 0 0
    endloop
  endfacet
  facet normal -0.998027 -0.062792 0
    outer loop
      vertex -2 0 2.7
      vertex -1.98423 -0.250666 0
      vertex -1.98423 -0.250666 2.7
    endloop
  endfacet
  facet normal 0.904828 -0.425778 0
    outer loop
      vertex 11.7526 17.0365 2.7
      vertex 11.8596 17.2638 0
      vertex 11.8596 17.2638 2.7
    endloop
  endfacet
  facet normal 0.904828 -0.425778 0
    outer loop
      vertex 11.8596 17.2638 0
      vertex 11.7526 17.0365 2.7
      vertex 11.7526 17.0365 0
    endloop
  endfacet
  facet normal -0.904827 -0.425779 0
    outer loop
      vertex -1.75261 -0.963507 0
      vertex -1.85955 -0.736249 2.7
      vertex -1.85955 -0.736249 0
    endloop
  endfacet
  facet normal -0.904827 -0.425779 0
    outer loop
      vertex -1.85955 -0.736249 2.7
      vertex -1.75261 -0.963507 0
      vertex -1.75261 -0.963507 2.7
    endloop
  endfacet
  facet normal 0.951056 -0.309017 0
    outer loop
      vertex 11.8596 17.2638 2.7
      vertex 11.9372 17.5026 0
      vertex 11.9372 17.5026 2.7
    endloop
  endfacet
  facet normal 0.951056 -0.309017 0
    outer loop
      vertex 11.9372 17.5026 0
      vertex 11.8596 17.2638 2.7
      vertex 11.8596 17.2638 0
    endloop
  endfacet
  facet normal -0.874157 0.485643 0
    outer loop
      vertex -1.75261 0.963507 0
      vertex 8 18.5182 2.7
      vertex 8 18.5182 0
    endloop
  endfacet
  facet normal -0.874157 0.485643 0
    outer loop
      vertex 8 18.5182 2.7
      vertex -1.75261 0.963507 0
      vertex -1.75261 0.963507 2.7
    endloop
  endfacet
  facet normal 0.874157 -0.485643 0
    outer loop
      vertex 1.75261 -0.963507 2.7
      vertex 11.7526 17.0365 0
      vertex 11.7526 17.0365 2.7
    endloop
  endfacet
  facet normal 0.874157 -0.485643 0
    outer loop
      vertex 11.7526 17.0365 0
      vertex 1.75261 -0.963507 2.7
      vertex 1.75261 -0.963507 0
    endloop
  endfacet
  facet normal -0.982287 -0.18738 0
    outer loop
      vertex -1.93717 -0.497379 0
      vertex -1.98423 -0.250666 2.7
      vertex -1.98423 -0.250666 0
    endloop
  endfacet
  facet normal -0.982287 -0.18738 0
    outer loop
      vertex -1.98423 -0.250666 2.7
      vertex -1.93717 -0.497379 0
      vertex -1.93717 -0.497379 2.7
    endloop
  endfacet
  facet normal 0 0 -1
    outer loop
      vertex 1.75261 -0.963507 0
      vertex 0.942509 -0.119066 0
      vertex 0.95 0 0
    endloop
  endfacet
  facet normal 0 0 -1
    outer loop
      vertex 1.27485 -1.54103 0
      vertex 0.920154 -0.236255 0
      vertex 0.942509 -0.119066 0
    endloop
  endfacet
  facet normal 0 0 -1
    outer loop
      vertex 1.27485 -1.54103 0
      vertex 0.883287 -0.349718 0
      vertex 0.920154 -0.236255 0
    endloop
  endfacet
  facet normal 0 0 -1
    outer loop
      vertex 0.509035 -0.802111 0
      vertex 1.07165 -1.68865 0
      vertex 0.851558 -1.80965 0
    endloop
  endfacet
  facet normal 0 0 -1
    outer loop
      vertex 1.27485 -1.54103 0
      vertex 0.832491 -0.457665 0
      vertex 0.883287 -0.349718 0
    endloop
  endfacet
  facet normal 0 0 -1
    outer loop
      vertex 1.27485 -1.54103 0
      vertex 0.768566 -0.558395 0
      vertex 0.832491 -0.457665 0
    endloop
  endfacet
  facet normal 0 0 -1
    outer loop
      vertex 1.27485 -1.54103 0
      vertex 0.69252 -0.650319 0
      vertex 0.768566 -0.558395 0
    endloop
  endfacet
  facet normal 0 0 -1
    outer loop
      vertex 0.40449 -0.859585 0
      vertex 0.851558 -1.80965 0
      vertex 0.618033 -1.90211 0
    endloop
  endfacet
  facet normal 0 0 -1
    outer loop
      vertex 1.27485 -1.54103 0
      vertex 0.605553 -0.731987 0
      vertex 0.69252 -0.650319 0
    endloop
  endfacet
  facet normal 0 0 -1
    outer loop
      vertex 1.07165 -1.68865 0
      vertex 0.509035 -0.802111 0
      vertex 0.605553 -0.731987 0
    endloop
  endfacet
  facet normal 0 0 -1
    outer loop
      vertex 0.851558 -1.80965 0
      vertex 0.40449 -0.859585 0
      vertex 0.509035 -0.802111 0
    endloop
  endfacet
  facet normal 0 0 -1
    outer loop
      vertex 0.293566 -0.903503 0
      vertex 0.618033 -1.90211 0
      vertex 0.374763 -1.96457 0
    endloop
  endfacet
  facet normal 0 0 -1
    outer loop
      vertex 0.618033 -1.90211 0
      vertex 0.293566 -0.903503 0
      vertex 0.40449 -0.859585 0
    endloop
  endfacet
  facet normal 0 0 -1
    outer loop
      vertex 0.374763 -1.96457 0
      vertex 0.178012 -0.933172 0
      vertex 0.293566 -0.903503 0
    endloop
  endfacet
  facet normal 0 0 -1
    outer loop
      vertex 0.125581 -1.99605 0
      vertex 0.178012 -0.933172 0
      vertex 0.374763 -1.96457 0
    endloop
  endfacet
  facet normal 0 0 -1
    outer loop
      vertex 0.125581 -1.99605 0
      vertex 0.0596504 -0.948125 0
      vertex 0.178012 -0.933172 0
    endloop
  endfacet
  facet normal 0 0 -1
    outer loop
      vertex 0.125581 -1.99605 0
      vertex -0.0596504 -0.948125 0
      vertex 0.0596504 -0.948125 0
    endloop
  endfacet
  facet normal 0 0 -1
    outer loop
      vertex -0.125581 -1.99605 0
      vertex -0.0596504 -0.948125 0
      vertex 0.125581 -1.99605 0
    endloop
  endfacet
  facet normal 0 0 -1
    outer loop
      vertex -0.125581 -1.99605 0
      vertex -0.178012 -0.933172 0
      vertex -0.0596504 -0.948125 0
    endloop
  endfacet
  facet normal 0 0 -1
    outer loop
      vertex -0.374763 -1.96457 0
      vertex -0.178012 -0.933172 0
      vertex -0.125581 -1.99605 0
    endloop
  endfacet
  facet normal -0 0 -1
    outer loop
      vertex -0.178012 -0.933172 0
      vertex -0.374763 -1.96457 0
      vertex -0.293566 -0.903503 0
    endloop
  endfacet
  facet normal 0 0 -1
    outer loop
      vertex -0.618033 -1.90211 0
      vertex -0.293566 -0.903503 0
      vertex -0.374763 -1.96457 0
    endloop
  endfacet
  facet normal -0 0 -1
    outer loop
      vertex -0.293566 -0.903503 0
      vertex -0.618033 -1.90211 0
      vertex -0.40449 -0.859585 0
    endloop
  endfacet
  facet normal 0 0 -1
    outer loop
      vertex -0.851558 -1.80965 0
      vertex -0.40449 -0.859585 0
      vertex -0.618033 -1.90211 0
    endloop
  endfacet
  facet normal -0 0 -1
    outer loop
      vertex -0.40449 -0.859585 0
      vertex -0.851558 -1.80965 0
      vertex -0.509035 -0.802111 0
    endloop
  endfacet
  facet normal 0 0 -1
    outer loop
      vertex -1.07165 -1.68865 0
      vertex -0.509035 -0.802111 0
      vertex -0.851558 -1.80965 0
    endloop
  endfacet
  facet normal -0 0 -1
    outer loop
      vertex -0.509035 -0.802111 0
      vertex -1.07165 -1.68865 0
      vertex -0.605553 -0.731987 0
    endloop
  endfacet
  facet normal 0 0 -1
    outer loop
      vertex -1.27485 -1.54103 0
      vertex -0.605553 -0.731987 0
      vertex -1.07165 -1.68865 0
    endloop
  endfacet
  facet normal -0 0 -1
    outer loop
      vertex -0.605553 -0.731987 0
      vertex -1.27485 -1.54103 0
      vertex -0.69252 -0.650319 0
    endloop
  endfacet
  facet normal 0 0 -1
    outer loop
      vertex -1.45794 -1.36909 0
      vertex -0.69252 -0.650319 0
      vertex -1.27485 -1.54103 0
    endloop
  endfacet
  facet normal -0 0 -1
    outer loop
      vertex -0.69252 -0.650319 0
      vertex -1.45794 -1.36909 0
      vertex -0.768566 -0.558395 0
    endloop
  endfacet
  facet normal 0 0 -1
    outer loop
      vertex -1.61803 -1.17557 0
      vertex -0.768566 -0.558395 0
      vertex -1.45794 -1.36909 0
    endloop
  endfacet
  facet normal -0 0 -1
    outer loop
      vertex -0.768566 -0.558395 0
      vertex -1.61803 -1.17557 0
      vertex -0.832491 -0.457665 0
    endloop
  endfacet
  facet normal 0 0 -1
    outer loop
      vertex -1.75261 -0.963507 0
      vertex -0.832491 -0.457665 0
      vertex -1.61803 -1.17557 0
    endloop
  endfacet
  facet normal 0 0 -1
    outer loop
      vertex 11.9842 17.7493 0
      vertex 10.9425 17.8809 0
      vertex 10.95 18 0
    endloop
  endfacet
  facet normal 0 0 -1
    outer loop
      vertex 11.8596 17.2638 0
      vertex 10.9202 17.7637 0
      vertex 10.9425 17.8809 0
    endloop
  endfacet
  facet normal 0 0 -1
    outer loop
      vertex 11.8596 17.2638 0
      vertex 10.8833 17.6503 0
      vertex 10.9202 17.7637 0
    endloop
  endfacet
  facet normal 0 0 -1
    outer loop
      vertex 11.7526 17.0365 0
      vertex 10.8325 17.5423 0
      vertex 10.8833 17.6503 0
    endloop
  endfacet
  facet normal 0 0 -1
    outer loop
      vertex 11.7526 17.0365 0
      vertex 10.7686 17.4416 0
      vertex 10.8325 17.5423 0
    endloop
  endfacet
  facet normal 0 0 -1
    outer loop
      vertex 11.7526 17.0365 0
      vertex 10.6925 17.3497 0
      vertex 10.7686 17.4416 0
    endloop
  endfacet
  facet normal 0 0 -1
    outer loop
      vertex 11.7526 17.0365 0
      vertex 10.6056 17.268 0
      vertex 10.6925 17.3497 0
    endloop
  endfacet
  facet normal 0 0 -1
    outer loop
      vertex 11.7526 17.0365 0
      vertex 10.509 17.1979 0
      vertex 10.6056 17.268 0
    endloop
  endfacet
  facet normal 0 0 -1
    outer loop
      vertex 11.7526 17.0365 0
      vertex 10.4045 17.1404 0
      vertex 10.509 17.1979 0
    endloop
  endfacet
  facet normal 0 0 -1
    outer loop
      vertex 11.7526 17.0365 0
      vertex 10.2936 17.0965 0
      vertex 10.4045 17.1404 0
    endloop
  endfacet
  facet normal 0 0 -1
    outer loop
      vertex 11.7526 17.0365 0
      vertex 10.178 17.0668 0
      vertex 10.2936 17.0965 0
    endloop
  endfacet
  facet normal 0 0 -1
    outer loop
      vertex 11.7526 17.0365 0
      vertex 10.0597 17.0519 0
      vertex 10.178 17.0668 0
    endloop
  endfacet
  facet normal 0 0 -1
    outer loop
      vertex 1.75261 -0.963507 0
      vertex 10.0597 17.0519 0
      vertex 11.7526 17.0365 0
    endloop
  endfacet
  facet normal 0 0 -1
    outer loop
      vertex 9.05749 17.8809 0
      vertex 8 18.5182 0
      vertex 9.05 18 0
    endloop
  endfacet
  facet normal 0 0 -1
    outer loop
      vertex 9.07985 17.7637 0
      vertex 8 18.5182 0
      vertex 9.05749 17.8809 0
    endloop
  endfacet
  facet normal 0 0 -1
    outer loop
      vertex 9.11671 17.6503 0
      vertex 8 18.5182 0
      vertex 9.07985 17.7637 0
    endloop
  endfacet
  facet normal 0 0 -1
    outer loop
      vertex 9.16751 17.5423 0
      vertex 8 18.5182 0
      vertex 9.11671 17.6503 0
    endloop
  endfacet
  facet normal 0 0 -1
    outer loop
      vertex 9.23143 17.4416 0
      vertex 8 18.5182 0
      vertex 9.16751 17.5423 0
    endloop
  endfacet
  facet normal 0 0 -1
    outer loop
      vertex 9.30748 17.3497 0
      vertex 8 18.5182 0
      vertex 9.23143 17.4416 0
    endloop
  endfacet
  facet normal 0 0 -1
    outer loop
      vertex 0.178012 0.933172 0
      vertex 9.30748 17.3497 0
      vertex 9.39445 17.268 0
    endloop
  endfacet
  facet normal 0 0 -1
    outer loop
      vertex 0.832491 0.457665 0
      vertex 10.0597 17.0519 0
      vertex 1.75261 -0.963507 0
    endloop
  endfacet
  facet normal -0 0 -1
    outer loop
      vertex 10.0597 17.0519 0
      vertex 0.832491 0.457665 0
      vertex 9.94035 17.0519 0
    endloop
  endfacet
  facet normal 0 0 -1
    outer loop
      vertex 0.768566 0.558395 0
      vertex 9.94035 17.0519 0
      vertex 0.832491 0.457665 0
    endloop
  endfacet
  facet normal -0 0 -1
    outer loop
      vertex 9.94035 17.0519 0
      vertex 0.768566 0.558395 0
      vertex 9.82199 17.0668 0
    endloop
  endfacet
  facet normal 0 0 -1
    outer loop
      vertex 0.69252 0.650319 0
      vertex 9.82199 17.0668 0
      vertex 0.768566 0.558395 0
    endloop
  endfacet
  facet normal -0 0 -1
    outer loop
      vertex 9.82199 17.0668 0
      vertex 0.69252 0.650319 0
      vertex 9.70643 17.0965 0
    endloop
  endfacet
  facet normal 0 0 -1
    outer loop
      vertex 0.605553 0.731987 0
      vertex 9.70643 17.0965 0
      vertex 0.69252 0.650319 0
    endloop
  endfacet
  facet normal 0 0 -1
    outer loop
      vertex 0.942509 -0.119066 0
      vertex 1.75261 -0.963507 0
      vertex 1.61803 -1.17557 0
    endloop
  endfacet
  facet normal 0 0 -1
    outer loop
      vertex 0.942509 -0.119066 0
      vertex 1.61803 -1.17557 0
      vertex 1.45794 -1.36909 0
    endloop
  endfacet
  facet normal 0 0 -1
    outer loop
      vertex 0.942509 -0.119066 0
      vertex 1.45794 -1.36909 0
      vertex 1.27485 -1.54103 0
    endloop
  endfacet
  facet normal 0 0 -1
    outer loop
      vertex 0.605553 -0.731987 0
      vertex 1.27485 -1.54103 0
      vertex 1.07165 -1.68865 0
    endloop
  endfacet
  facet normal 0 0 -1
    outer loop
      vertex 1.75261 -0.963507 0
      vertex 0.95 0 0
      vertex 0.942509 0.119066 0
    endloop
  endfacet
  facet normal 0 0 -1
    outer loop
      vertex 1.75261 -0.963507 0
      vertex 0.942509 0.119066 0
      vertex 0.920154 0.236255 0
    endloop
  endfacet
  facet normal 0 0 -1
    outer loop
      vertex 1.75261 -0.963507 0
      vertex 0.920154 0.236255 0
      vertex 0.883287 0.349718 0
    endloop
  endfacet
  facet normal 0 0 -1
    outer loop
      vertex 0.832491 0.457665 0
      vertex 1.75261 -0.963507 0
      vertex 0.883287 0.349718 0
    endloop
  endfacet
  facet normal -0 0 -1
    outer loop
      vertex 9.70643 17.0965 0
      vertex 0.605553 0.731987 0
      vertex 9.59551 17.1404 0
    endloop
  endfacet
  facet normal 0 0 -1
    outer loop
      vertex 0.509035 0.802111 0
      vertex 9.59551 17.1404 0
      vertex 0.605553 0.731987 0
    endloop
  endfacet
  facet normal -0 0 -1
    outer loop
      vertex 9.59551 17.1404 0
      vertex 0.509035 0.802111 0
      vertex 9.49096 17.1979 0
    endloop
  endfacet
  facet normal 0 0 -1
    outer loop
      vertex 0.40449 0.859585 0
      vertex 9.49096 17.1979 0
      vertex 0.509035 0.802111 0
    endloop
  endfacet
  facet normal -0 0 -1
    outer loop
      vertex 9.49096 17.1979 0
      vertex 0.40449 0.859585 0
      vertex 9.39445 17.268 0
    endloop
  endfacet
  facet normal 0 0 -1
    outer loop
      vertex 0.293566 0.903503 0
      vertex 9.39445 17.268 0
      vertex 0.40449 0.859585 0
    endloop
  endfacet
  facet normal 0 0 -1
    outer loop
      vertex 0.178012 0.933172 0
      vertex 9.39445 17.268 0
      vertex 0.293566 0.903503 0
    endloop
  endfacet
  facet normal -0 0 -1
    outer loop
      vertex 9.30748 17.3497 0
      vertex 0.178012 0.933172 0
      vertex 8 18.5182 0
    endloop
  endfacet
  facet normal 0 0 -1
    outer loop
      vertex 0.0596504 0.948125 0
      vertex 8 18.5182 0
      vertex 0.178012 0.933172 0
    endloop
  endfacet
  facet normal 0 0 -1
    outer loop
      vertex -0.0596504 0.948125 0
      vertex 8 18.5182 0
      vertex 0.0596504 0.948125 0
    endloop
  endfacet
  facet normal 0 0 -1
    outer loop
      vertex -1.75261 0.963507 0
      vertex -0.0596504 0.948125 0
      vertex -0.178012 0.933172 0
    endloop
  endfacet
  facet normal 0 0 -1
    outer loop
      vertex -1.75261 0.963507 0
      vertex -0.178012 0.933172 0
      vertex -0.293566 0.903503 0
    endloop
  endfacet
  facet normal 0 0 -1
    outer loop
      vertex -1.75261 0.963507 0
      vertex -0.293566 0.903503 0
      vertex -0.40449 0.859585 0
    endloop
  endfacet
  facet normal 0 0 -1
    outer loop
      vertex -1.75261 0.963507 0
      vertex -0.40449 0.859585 0
      vertex -0.509035 0.802111 0
    endloop
  endfacet
  facet normal 0 0 -1
    outer loop
      vertex -1.75261 0.963507 0
      vertex -0.509035 0.802111 0
      vertex -0.605553 0.731987 0
    endloop
  endfacet
  facet normal 0 0 -1
    outer loop
      vertex -1.75261 0.963507 0
      vertex -0.605553 0.731987 0
      vertex -0.69252 0.650319 0
    endloop
  endfacet
  facet normal 0 0 -1
    outer loop
      vertex -1.75261 0.963507 0
      vertex -0.69252 0.650319 0
      vertex -0.768566 0.558395 0
    endloop
  endfacet
  facet normal 0 0 -1
    outer loop
      vertex -1.75261 0.963507 0
      vertex -0.768566 0.558395 0
      vertex -0.832491 0.457665 0
    endloop
  endfacet
  facet normal -0 0 -1
    outer loop
      vertex -0.832491 -0.457665 0
      vertex -1.75261 -0.963507 0
      vertex -0.883287 -0.349718 0
    endloop
  endfacet
  facet normal 0 0 -1
    outer loop
      vertex -1.85955 -0.736249 0
      vertex -0.883287 -0.349718 0
      vertex -1.75261 -0.963507 0
    endloop
  endfacet
  facet normal -0 0 -1
    outer loop
      vertex -0.883287 -0.349718 0
      vertex -1.85955 -0.736249 0
      vertex -0.920154 -0.236255 0
    endloop
  endfacet
  facet normal 0 0 -1
    outer loop
      vertex -1.93717 -0.497379 0
      vertex -0.920154 -0.236255 0
      vertex -1.85955 -0.736249 0
    endloop
  endfacet
  facet normal -0 0 -1
    outer loop
      vertex -0.920154 -0.236255 0
      vertex -1.93717 -0.497379 0
      vertex -0.942509 -0.119066 0
    endloop
  endfacet
  facet normal 0 0 -1
    outer loop
      vertex -1.98423 -0.250666 0
      vertex -0.942509 -0.119066 0
      vertex -1.93717 -0.497379 0
    endloop
  endfacet
  facet normal -0 0 -1
    outer loop
      vertex -0.942509 -0.119066 0
      vertex -1.98423 -0.250666 0
      vertex -0.95 0 0
    endloop
  endfacet
  facet normal 0 0 -1
    outer loop
      vertex -2 0 0
      vertex -0.95 0 0
      vertex -1.98423 -0.250666 0
    endloop
  endfacet
  facet normal 0 0 -1
    outer loop
      vertex -0.95 0 0
      vertex -2 0 0
      vertex -0.942509 0.119066 0
    endloop
  endfacet
  facet normal 0 0 -1
    outer loop
      vertex -0.0596504 0.948125 0
      vertex -1.75261 0.963507 0
      vertex 8 18.5182 0
    endloop
  endfacet
  facet normal 0 -0 -1
    outer loop
      vertex -1.98423 0.250666 0
      vertex -0.942509 0.119066 0
      vertex -2 0 0
    endloop
  endfacet
  facet normal 0 0 -1
    outer loop
      vertex -0.832491 0.457665 0
      vertex -1.85955 0.736249 0
      vertex -1.75261 0.963507 0
    endloop
  endfacet
  facet normal 0 0 -1
    outer loop
      vertex -0.942509 0.119066 0
      vertex -1.98423 0.250666 0
      vertex -0.920154 0.236255 0
    endloop
  endfacet
  facet normal 0 0 -1
    outer loop
      vertex -0.883287 0.349718 0
      vertex -1.85955 0.736249 0
      vertex -0.832491 0.457665 0
    endloop
  endfacet
  facet normal 0 -0 -1
    outer loop
      vertex -1.93717 0.497379 0
      vertex -0.920154 0.236255 0
      vertex -1.98423 0.250666 0
    endloop
  endfacet
  facet normal 0 -0 -1
    outer loop
      vertex -1.85955 0.736249 0
      vertex -0.883287 0.349718 0
      vertex -1.93717 0.497379 0
    endloop
  endfacet
  facet normal 0 0 -1
    outer loop
      vertex -0.920154 0.236255 0
      vertex -1.93717 0.497379 0
      vertex -0.883287 0.349718 0
    endloop
  endfacet
  facet normal 0 0 -1
    outer loop
      vertex 10.95 18 0
      vertex 12 18 0
      vertex 11.9842 17.7493 0
    endloop
  endfacet
  facet normal 0 0 -1
    outer loop
      vertex 10.9425 17.8809 0
      vertex 11.9842 17.7493 0
      vertex 11.9372 17.5026 0
    endloop
  endfacet
  facet normal 0 0 -1
    outer loop
      vertex 10.9425 17.8809 0
      vertex 11.9372 17.5026 0
      vertex 11.8596 17.2638 0
    endloop
  endfacet
  facet normal 0 0 -1
    outer loop
      vertex 10.8833 17.6503 0
      vertex 11.8596 17.2638 0
      vertex 11.7526 17.0365 0
    endloop
  endfacet
  facet normal 0 0 -1
    outer loop
      vertex 12 18 0
      vertex 10.95 18 0
      vertex 10.9425 18.1191 0
    endloop
  endfacet
  facet normal 0 0 -1
    outer loop
      vertex 12 18 0
      vertex 10.9425 18.1191 0
      vertex 10.9202 18.2363 0
    endloop
  endfacet
  facet normal 0 0 -1
    outer loop
      vertex 12 18 0
      vertex 10.9202 18.2363 0
      vertex 10.8833 18.3497 0
    endloop
  endfacet
  facet normal 0 0 -1
    outer loop
      vertex 12 18 0
      vertex 10.8833 18.3497 0
      vertex 10.8325 18.4577 0
    endloop
  endfacet
  facet normal 0 0 -1
    outer loop
      vertex 12 18 0
      vertex 10.8325 18.4577 0
      vertex 10.7686 18.5584 0
    endloop
  endfacet
  facet normal 0 0 -1
    outer loop
      vertex 12 18 0
      vertex 10.7686 18.5584 0
      vertex 10.6925 18.6503 0
    endloop
  endfacet
  facet normal 0 0 -1
    outer loop
      vertex 12 18 0
      vertex 10.6925 18.6503 0
      vertex 10.6056 18.732 0
    endloop
  endfacet
  facet normal 0 0 -1
    outer loop
      vertex 10.509 18.8021 0
      vertex 12 18 0
      vertex 10.6056 18.732 0
    endloop
  endfacet
  facet normal 0 0 -1
    outer loop
      vertex 12 18 0
      vertex 10.509 18.8021 0
      vertex 12 42 0
    endloop
  endfacet
  facet normal 0 0 -1
    outer loop
      vertex 10.4045 18.8596 0
      vertex 12 42 0
      vertex 10.509 18.8021 0
    endloop
  endfacet
  facet normal 0 0 -1
    outer loop
      vertex 10.2936 18.9035 0
      vertex 12 42 0
      vertex 10.4045 18.8596 0
    endloop
  endfacet
  facet normal 0 0 -1
    outer loop
      vertex 10.178 18.9332 0
      vertex 12 42 0
      vertex 10.2936 18.9035 0
    endloop
  endfacet
  facet normal 0 0 -1
    outer loop
      vertex 10.0597 18.9481 0
      vertex 12 42 0
      vertex 10.178 18.9332 0
    endloop
  endfacet
  facet normal 0 0 -1
    outer loop
      vertex 9.94035 18.9481 0
      vertex 12 42 0
      vertex 10.0597 18.9481 0
    endloop
  endfacet
  facet normal 0 0 -1
    outer loop
      vertex 8 42 0
      vertex 9.94035 18.9481 0
      vertex 9.82199 18.9332 0
    endloop
  endfacet
  facet normal 0 0 -1
    outer loop
      vertex 8 42 0
      vertex 9.82199 18.9332 0
      vertex 9.70643 18.9035 0
    endloop
  endfacet
  facet normal 0 0 -1
    outer loop
      vertex 8 18.5182 0
      vertex 9.70643 18.9035 0
      vertex 9.59551 18.8596 0
    endloop
  endfacet
  facet normal 0 0 -1
    outer loop
      vertex 8 18.5182 0
      vertex 9.59551 18.8596 0
      vertex 9.49096 18.8021 0
    endloop
  endfacet
  facet normal 0 0 -1
    outer loop
      vertex 8 18.5182 0
      vertex 9.49096 18.8021 0
      vertex 9.39445 18.732 0
    endloop
  endfacet
  facet normal 0 0 -1
    outer loop
      vertex 8 18.5182 0
      vertex 9.39445 18.732 0
      vertex 9.30748 18.6503 0
    endloop
  endfacet
  facet normal 0 0 -1
    outer loop
      vertex 8 18.5182 0
      vertex 9.30748 18.6503 0
      vertex 9.23143 18.5584 0
    endloop
  endfacet
  facet normal 0 0 -1
    outer loop
      vertex 8 18.5182 0
      vertex 9.23143 18.5584 0
      vertex 9.16751 18.4577 0
    endloop
  endfacet
  facet normal 0 0 -1
    outer loop
      vertex 8 18.5182 0
      vertex 9.16751 18.4577 0
      vertex 9.11671 18.3497 0
    endloop
  endfacet
  facet normal 0 0 -1
    outer loop
      vertex 8 18.5182 0
      vertex 9.11671 18.3497 0
      vertex 9.07985 18.2363 0
    endloop
  endfacet
  facet normal 0 0 -1
    outer loop
      vertex 8 18.5182 0
      vertex 9.07985 18.2363 0
      vertex 9.05749 18.1191 0
    endloop
  endfacet
  facet normal 0 0 -1
    outer loop
      vertex 8 18.5182 0
      vertex 9.05749 18.1191 0
      vertex 9.05 18 0
    endloop
  endfacet
  facet normal -0 0 -1
    outer loop
      vertex 9.70643 18.9035 0
      vertex 8 18.5182 0
      vertex 8 42 0
    endloop
  endfacet
  facet normal 0 0 -1
    outer loop
      vertex 9.94035 18.9481 0
      vertex 8 42 0
      vertex 12 42 0
    endloop
  endfacet
  facet normal -0.844328 -0.535826 0
    outer loop
      vertex -1.61803 -1.17557 0
      vertex -1.75261 -0.963507 2.7
      vertex -1.75261 -0.963507 0
    endloop
  endfacet
  facet normal -0.844328 -0.535826 0
    outer loop
      vertex -1.75261 -0.963507 2.7
      vertex -1.61803 -1.17557 0
      vertex -1.61803 -1.17557 2.7
    endloop
  endfacet
  facet normal -0.684545 -0.72897 0
    outer loop
      vertex -1.45794 -1.36909 0
      vertex -1.27485 -1.54103 2.7
      vertex -1.45794 -1.36909 2.7
    endloop
  endfacet
  facet normal -0.684545 -0.72897 -0
    outer loop
      vertex -1.27485 -1.54103 2.7
      vertex -1.45794 -1.36909 0
      vertex -1.27485 -1.54103 0
    endloop
  endfacet
  facet normal -0.951056 -0.309018 0
    outer loop
      vertex -1.85955 -0.736249 0
      vertex -1.93717 -0.497379 2.7
      vertex -1.93717 -0.497379 0
    endloop
  endfacet
  facet normal -0.951056 -0.309018 0
    outer loop
      vertex -1.93717 -0.497379 2.7
      vertex -1.85955 -0.736249 0
      vertex -1.85955 -0.736249 2.7
    endloop
  endfacet
  facet normal 0 0 1
    outer loop
      vertex 9 42 2.7
      vertex 8 42 2.7
      vertex 9 26 2.7
    endloop
  endfacet
  facet normal 0 0 1
    outer loop
      vertex 1.75261 -0.963507 2.7
      vertex 0.832491 -0.457665 2.7
      vertex 1.61803 -1.17557 2.7
    endloop
  endfacet
  facet normal -0 0 1
    outer loop
      vertex 0.768566 -0.558395 2.7
      vertex 1.61803 -1.17557 2.7
      vertex 0.832491 -0.457665 2.7
    endloop
  endfacet
  facet normal 0 0 1
    outer loop
      vertex 1.61803 -1.17557 2.7
      vertex 0.768566 -0.558395 2.7
      vertex 1.45794 -1.36909 2.7
    endloop
  endfacet
  facet normal -0 0 1
    outer loop
      vertex 0.69252 -0.650319 2.7
      vertex 1.45794 -1.36909 2.7
      vertex 0.768566 -0.558395 2.7
    endloop
  endfacet
  facet normal 0 0 1
    outer loop
      vertex 1.45794 -1.36909 2.7
      vertex 0.69252 -0.650319 2.7
      vertex 1.27485 -1.54103 2.7
    endloop
  endfacet
  facet normal -0 0 1
    outer loop
      vertex 0.605553 -0.731987 2.7
      vertex 1.27485 -1.54103 2.7
      vertex 0.69252 -0.650319 2.7
    endloop
  endfacet
  facet normal 0 0 1
    outer loop
      vertex 1.27485 -1.54103 2.7
      vertex 0.605553 -0.731987 2.7
      vertex 1.07165 -1.68865 2.7
    endloop
  endfacet
  facet normal -0 0 1
    outer loop
      vertex 0.509035 -0.802111 2.7
      vertex 1.07165 -1.68865 2.7
      vertex 0.605553 -0.731987 2.7
    endloop
  endfacet
  facet normal 0 0 1
    outer loop
      vertex 1.07165 -1.68865 2.7
      vertex 0.509035 -0.802111 2.7
      vertex 0.851558 -1.80965 2.7
    endloop
  endfacet
  facet normal -0 0 1
    outer loop
      vertex 0.40449 -0.859585 2.7
      vertex 0.851558 -1.80965 2.7
      vertex 0.509035 -0.802111 2.7
    endloop
  endfacet
  facet normal 0 0 1
    outer loop
      vertex 0.851558 -1.80965 2.7
      vertex 0.40449 -0.859585 2.7
      vertex 0.618033 -1.90211 2.7
    endloop
  endfacet
  facet normal -0 0 1
    outer loop
      vertex 0.293566 -0.903503 2.7
      vertex 0.618033 -1.90211 2.7
      vertex 0.40449 -0.859585 2.7
    endloop
  endfacet
  facet normal 0 0 1
    outer loop
      vertex 0.618033 -1.90211 2.7
      vertex 0.293566 -0.903503 2.7
      vertex 0.374763 -1.96457 2.7
    endloop
  endfacet
  facet normal -0 0 1
    outer loop
      vertex 0.178012 -0.933172 2.7
      vertex 0.374763 -1.96457 2.7
      vertex 0.293566 -0.903503 2.7
    endloop
  endfacet
  facet normal 0 0 1
    outer loop
      vertex 0.178012 -0.933172 2.7
      vertex 0.125581 -1.99605 2.7
      vertex 0.374763 -1.96457 2.7
    endloop
  endfacet
  facet normal -0 0 1
    outer loop
      vertex 0.0596504 -0.948125 2.7
      vertex 0.125581 -1.99605 2.7
      vertex 0.178012 -0.933172 2.7
    endloop
  endfacet
  facet normal -0 0 1
    outer loop
      vertex -0.0596504 -0.948125 2.7
      vertex 0.125581 -1.99605 2.7
      vertex 0.0596504 -0.948125 2.7
    endloop
  endfacet
  facet normal 0 0 1
    outer loop
      vertex -0.0596504 -0.948125 2.7
      vertex -0.125581 -1.99605 2.7
      vertex 0.125581 -1.99605 2.7
    endloop
  endfacet
  facet normal 0 0 1
    outer loop
      vertex -0.178012 -0.933172 2.7
      vertex -0.125581 -1.99605 2.7
      vertex -0.0596504 -0.948125 2.7
    endloop
  endfacet
  facet normal 0 0 1
    outer loop
      vertex -0.374763 -1.96457 2.7
      vertex -0.178012 -0.933172 2.7
      vertex -0.293566 -0.903503 2.7
    endloop
  endfacet
  facet normal 0 0 1
    outer loop
      vertex -0.178012 -0.933172 2.7
      vertex -0.374763 -1.96457 2.7
      vertex -0.125581 -1.99605 2.7
    endloop
  endfacet
  facet normal 0 0 1
    outer loop
      vertex -0.618033 -1.90211 2.7
      vertex -0.293566 -0.903503 2.7
      vertex -0.40449 -0.859585 2.7
    endloop
  endfacet
  facet normal 0 0 1
    outer loop
      vertex -0.851558 -1.80965 2.7
      vertex -0.40449 -0.859585 2.7
      vertex -0.509035 -0.802111 2.7
    endloop
  endfacet
  facet normal 0 0 1
    outer loop
      vertex -1.07165 -1.68865 2.7
      vertex -0.509035 -0.802111 2.7
      vertex -0.605553 -0.731987 2.7
    endloop
  endfacet
  facet normal 0 0 1
    outer loop
      vertex -0.293566 -0.903503 2.7
      vertex -0.618033 -1.90211 2.7
      vertex -0.374763 -1.96457 2.7
    endloop
  endfacet
  facet normal 0 0 1
    outer loop
      vertex -1.27485 -1.54103 2.7
      vertex -0.605553 -0.731987 2.7
      vertex -0.69252 -0.650319 2.7
    endloop
  endfacet
  facet normal 0 0 1
    outer loop
      vertex -1.45794 -1.36909 2.7
      vertex -0.69252 -0.650319 2.7
      vertex -0.768566 -0.558395 2.7
    endloop
  endfacet
  facet normal 0 0 1
    outer loop
      vertex -1.61803 -1.17557 2.7
      vertex -0.768566 -0.558395 2.7
      vertex -0.832491 -0.457665 2.7
    endloop
  endfacet
  facet normal 0 0 1
    outer loop
      vertex -0.40449 -0.859585 2.7
      vertex -0.851558 -1.80965 2.7
      vertex -0.618033 -1.90211 2.7
    endloop
  endfacet
  facet normal 0 0 1
    outer loop
      vertex -1.75261 -0.963507 2.7
      vertex -0.832491 -0.457665 2.7
      vertex -0.883287 -0.349718 2.7
    endloop
  endfacet
  facet normal 0 0 1
    outer loop
      vertex -1.85955 -0.736249 2.7
      vertex -0.883287 -0.349718 2.7
      vertex -0.920154 -0.236255 2.7
    endloop
  endfacet
  facet normal 0 0 1
    outer loop
      vertex -1.93717 -0.497379 2.7
      vertex -0.920154 -0.236255 2.7
      vertex -0.942509 -0.119066 2.7
    endloop
  endfacet
  facet normal 0 0 1
    outer loop
      vertex -1.98423 -0.250666 2.7
      vertex -0.942509 -0.119066 2.7
      vertex -0.95 0 2.7
    endloop
  endfacet
  facet normal 0 0 1
    outer loop
      vertex -0.509035 -0.802111 2.7
      vertex -1.07165 -1.68865 2.7
      vertex -0.851558 -1.80965 2.7
    endloop
  endfacet
  facet normal -0 0 1
    outer loop
      vertex 10.6056 18.732 2.7
      vertex 12 18 2.7
      vertex 12 26 2.7
    endloop
  endfacet
  facet normal -0 -0 1
    outer loop
      vertex 10.7686 18.5584 2.7
      vertex 12 18 2.7
      vertex 10.6925 18.6503 2.7
    endloop
  endfacet
  facet normal -0 -0 1
    outer loop
      vertex 10.8833 18.3497 2.7
      vertex 12 18 2.7
      vertex 10.8325 18.4577 2.7
    endloop
  endfacet
  facet normal -0 -0 1
    outer loop
      vertex 10.9425 18.1191 2.7
      vertex 12 18 2.7
      vertex 10.9202 18.2363 2.7
    endloop
  endfacet
  facet normal 0 -0 1
    outer loop
      vertex 10.95 18 2.7
      vertex 12 18 2.7
      vertex 10.9425 18.1191 2.7
    endloop
  endfacet
  facet normal -0 0 1
    outer loop
      vertex 10.9202 17.7637 2.7
      vertex 11.9372 17.5026 2.7
      vertex 10.9425 17.8809 2.7
    endloop
  endfacet
  facet normal 0 0 1
    outer loop
      vertex 11.9842 17.7493 2.7
      vertex 10.9425 17.8809 2.7
      vertex 11.9372 17.5026 2.7
    endloop
  endfacet
  facet normal -0 0 1
    outer loop
      vertex 10.9425 17.8809 2.7
      vertex 11.9842 17.7493 2.7
      vertex 10.95 18 2.7
    endloop
  endfacet
  facet normal 0 0 1
    outer loop
      vertex 12 18 2.7
      vertex 10.95 18 2.7
      vertex 11.9842 17.7493 2.7
    endloop
  endfacet
  facet normal -0 -0 1
    outer loop
      vertex 10.9202 18.2363 2.7
      vertex 12 18 2.7
      vertex 10.8833 18.3497 2.7
    endloop
  endfacet
  facet normal -0 -0 1
    outer loop
      vertex 10.8325 18.4577 2.7
      vertex 12 18 2.7
      vertex 10.7686 18.5584 2.7
    endloop
  endfacet
  facet normal 0 0 1
    outer loop
      vertex 12 18 2.7
      vertex 10.6056 18.732 2.7
      vertex 10.6925 18.6503 2.7
    endloop
  endfacet
  facet normal 0 0 1
    outer loop
      vertex 12 26 2.7
      vertex 10.509 18.8021 2.7
      vertex 10.6056 18.732 2.7
    endloop
  endfacet
  facet normal 0 0 1
    outer loop
      vertex 12 26 2.7
      vertex 10.4045 18.8596 2.7
      vertex 10.509 18.8021 2.7
    endloop
  endfacet
  facet normal 0 0 1
    outer loop
      vertex 12 26 2.7
      vertex 10.2936 18.9035 2.7
      vertex 10.4045 18.8596 2.7
    endloop
  endfacet
  facet normal 0 0 1
    outer loop
      vertex 12 26 2.7
      vertex 10.178 18.9332 2.7
      vertex 10.2936 18.9035 2.7
    endloop
  endfacet
  facet normal 0 0 1
    outer loop
      vertex 12 26 2.7
      vertex 10.0597 18.9481 2.7
      vertex 10.178 18.9332 2.7
    endloop
  endfacet
  facet normal -0 0 1
    outer loop
      vertex 9 26 2.7
      vertex 10.0597 18.9481 2.7
      vertex 12 26 2.7
    endloop
  endfacet
  facet normal 0 0 1
    outer loop
      vertex 10.0597 18.9481 2.7
      vertex 9 26 2.7
      vertex 9.94035 18.9481 2.7
    endloop
  endfacet
  facet normal 0 0 1
    outer loop
      vertex 9.94035 18.9481 2.7
      vertex 9 26 2.7
      vertex 9.82199 18.9332 2.7
    endloop
  endfacet
  facet normal 0 0 1
    outer loop
      vertex 9.82199 18.9332 2.7
      vertex 9 26 2.7
      vertex 9.70643 18.9035 2.7
    endloop
  endfacet
  facet normal 0 0 1
    outer loop
      vertex 9.70643 18.9035 2.7
      vertex 9 26 2.7
      vertex 9.59551 18.8596 2.7
    endloop
  endfacet
  facet normal 0 0 1
    outer loop
      vertex 8 18.5182 2.7
      vertex 9.59551 18.8596 2.7
      vertex 9 26 2.7
    endloop
  endfacet
  facet normal 0 0 1
    outer loop
      vertex 9.59551 18.8596 2.7
      vertex 8 18.5182 2.7
      vertex 9.49096 18.8021 2.7
    endloop
  endfacet
  facet normal 0 0 1
    outer loop
      vertex 9.49096 18.8021 2.7
      vertex 8 18.5182 2.7
      vertex 9.39445 18.732 2.7
    endloop
  endfacet
  facet normal 0 0 1
    outer loop
      vertex 9.39445 18.732 2.7
      vertex 8 18.5182 2.7
      vertex 9.30748 18.6503 2.7
    endloop
  endfacet
  facet normal 0 0 1
    outer loop
      vertex 9.30748 18.6503 2.7
      vertex 8 18.5182 2.7
      vertex 9.23143 18.5584 2.7
    endloop
  endfacet
  facet normal 0 0 1
    outer loop
      vertex 9.07985 18.2363 2.7
      vertex 8 18.5182 2.7
      vertex 9.05749 18.1191 2.7
    endloop
  endfacet
  facet normal 0 0 1
    outer loop
      vertex 9.11671 18.3497 2.7
      vertex 8 18.5182 2.7
      vertex 9.07985 18.2363 2.7
    endloop
  endfacet
  facet normal 0 0 1
    outer loop
      vertex 9.16751 18.4577 2.7
      vertex 8 18.5182 2.7
      vertex 9.11671 18.3497 2.7
    endloop
  endfacet
  facet normal 0 0 1
    outer loop
      vertex 9.23143 18.5584 2.7
      vertex 8 18.5182 2.7
      vertex 9.16751 18.4577 2.7
    endloop
  endfacet
  facet normal 0 0 1
    outer loop
      vertex 11.9372 17.5026 2.7
      vertex 10.9202 17.7637 2.7
      vertex 11.8596 17.2638 2.7
    endloop
  endfacet
  facet normal -0 0 1
    outer loop
      vertex 10.8833 17.6503 2.7
      vertex 11.8596 17.2638 2.7
      vertex 10.9202 17.7637 2.7
    endloop
  endfacet
  facet normal 0 0 1
    outer loop
      vertex 11.8596 17.2638 2.7
      vertex 10.8833 17.6503 2.7
      vertex 11.7526 17.0365 2.7
    endloop
  endfacet
  facet normal -0 0 1
    outer loop
      vertex 10.8325 17.5423 2.7
      vertex 11.7526 17.0365 2.7
      vertex 10.8833 17.6503 2.7
    endloop
  endfacet
  facet normal -0 0 1
    outer loop
      vertex 10.7686 17.4416 2.7
      vertex 11.7526 17.0365 2.7
      vertex 10.8325 17.5423 2.7
    endloop
  endfacet
  facet normal -0 0 1
    outer loop
      vertex 10.6925 17.3497 2.7
      vertex 11.7526 17.0365 2.7
      vertex 10.7686 17.4416 2.7
    endloop
  endfacet
  facet normal -0 0 1
    outer loop
      vertex 10.6056 17.268 2.7
      vertex 11.7526 17.0365 2.7
      vertex 10.6925 17.3497 2.7
    endloop
  endfacet
  facet normal -0 0 1
    outer loop
      vertex 10.509 17.1979 2.7
      vertex 11.7526 17.0365 2.7
      vertex 10.6056 17.268 2.7
    endloop
  endfacet
  facet normal -0 0 1
    outer loop
      vertex 10.4045 17.1404 2.7
      vertex 11.7526 17.0365 2.7
      vertex 10.509 17.1979 2.7
    endloop
  endfacet
  facet normal -0 0 1
    outer loop
      vertex 10.2936 17.0965 2.7
      vertex 11.7526 17.0365 2.7
      vertex 10.4045 17.1404 2.7
    endloop
  endfacet
  facet normal -0 0 1
    outer loop
      vertex 10.178 17.0668 2.7
      vertex 11.7526 17.0365 2.7
      vertex 10.2936 17.0965 2.7
    endloop
  endfacet
  facet normal -0 0 1
    outer loop
      vertex 10.0597 17.0519 2.7
      vertex 11.7526 17.0365 2.7
      vertex 10.178 17.0668 2.7
    endloop
  endfacet
  facet normal 0 0 1
    outer loop
      vertex 0.832491 0.457665 2.7
      vertex 10.0597 17.0519 2.7
      vertex 9.94035 17.0519 2.7
    endloop
  endfacet
  facet normal 0 0 1
    outer loop
      vertex 8 18.5182 2.7
      vertex 9 26 2.7
      vertex 8 42 2.7
    endloop
  endfacet
  facet normal 0 0 1
    outer loop
      vertex 9.05749 18.1191 2.7
      vertex 8 18.5182 2.7
      vertex 9.05 18 2.7
    endloop
  endfacet
  facet normal 0 0 1
    outer loop
      vertex 8 18.5182 2.7
      vertex 9.05749 17.8809 2.7
      vertex 9.05 18 2.7
    endloop
  endfacet
  facet normal 0 0 1
    outer loop
      vertex 8 18.5182 2.7
      vertex 9.07985 17.7637 2.7
      vertex 9.05749 17.8809 2.7
    endloop
  endfacet
  facet normal 0 0 1
    outer loop
      vertex 8 18.5182 2.7
      vertex 9.11671 17.6503 2.7
      vertex 9.07985 17.7637 2.7
    endloop
  endfacet
  facet normal 0 0 1
    outer loop
      vertex 8 18.5182 2.7
      vertex 9.16751 17.5423 2.7
      vertex 9.11671 17.6503 2.7
    endloop
  endfacet
  facet normal 0 0 1
    outer loop
      vertex 8 18.5182 2.7
      vertex 9.23143 17.4416 2.7
      vertex 9.16751 17.5423 2.7
    endloop
  endfacet
  facet normal 0 0 1
    outer loop
      vertex 8 18.5182 2.7
      vertex 9.30748 17.3497 2.7
      vertex 9.23143 17.4416 2.7
    endloop
  endfacet
  facet normal 0 0 1
    outer loop
      vertex 0.178012 0.933172 2.7
      vertex 9.30748 17.3497 2.7
      vertex 8 18.5182 2.7
    endloop
  endfacet
  facet normal 0 0 1
    outer loop
      vertex 10.0597 17.0519 2.7
      vertex 1.75261 -0.963507 2.7
      vertex 11.7526 17.0365 2.7
    endloop
  endfacet
  facet normal 0 0 1
    outer loop
      vertex 0.768566 0.558395 2.7
      vertex 9.94035 17.0519 2.7
      vertex 9.82199 17.0668 2.7
    endloop
  endfacet
  facet normal 0 0 1
    outer loop
      vertex 0.69252 0.650319 2.7
      vertex 9.82199 17.0668 2.7
      vertex 9.70643 17.0965 2.7
    endloop
  endfacet
  facet normal 0 0 1
    outer loop
      vertex 0.605553 0.731987 2.7
      vertex 9.70643 17.0965 2.7
      vertex 9.59551 17.1404 2.7
    endloop
  endfacet
  facet normal 0 0 1
    outer loop
      vertex 0.509035 0.802111 2.7
      vertex 9.59551 17.1404 2.7
      vertex 9.49096 17.1979 2.7
    endloop
  endfacet
  facet normal 0 0 1
    outer loop
      vertex 0.40449 0.859585 2.7
      vertex 9.49096 17.1979 2.7
      vertex 9.39445 17.268 2.7
    endloop
  endfacet
  facet normal 0 0 1
    outer loop
      vertex 9.30748 17.3497 2.7
      vertex 0.178012 0.933172 2.7
      vertex 9.39445 17.268 2.7
    endloop
  endfacet
  facet normal 0 0 1
    outer loop
      vertex 10.0597 17.0519 2.7
      vertex 0.832491 0.457665 2.7
      vertex 1.75261 -0.963507 2.7
    endloop
  endfacet
  facet normal -0 -0 1
    outer loop
      vertex 0.920154 0.236255 2.7
      vertex 1.75261 -0.963507 2.7
      vertex 0.883287 0.349718 2.7
    endloop
  endfacet
  facet normal -0 -0 1
    outer loop
      vertex 0.95 0 2.7
      vertex 1.75261 -0.963507 2.7
      vertex 0.942509 0.119066 2.7
    endloop
  endfacet
  facet normal -0 0 1
    outer loop
      vertex 0.920154 -0.236255 2.7
      vertex 1.75261 -0.963507 2.7
      vertex 0.942509 -0.119066 2.7
    endloop
  endfacet
  facet normal -0 0 1
    outer loop
      vertex 0.832491 -0.457665 2.7
      vertex 1.75261 -0.963507 2.7
      vertex 0.883287 -0.349718 2.7
    endloop
  endfacet
  facet normal -0 0 1
    outer loop
      vertex 0.883287 -0.349718 2.7
      vertex 1.75261 -0.963507 2.7
      vertex 0.920154 -0.236255 2.7
    endloop
  endfacet
  facet normal -0 0 1
    outer loop
      vertex 0.942509 -0.119066 2.7
      vertex 1.75261 -0.963507 2.7
      vertex 0.95 0 2.7
    endloop
  endfacet
  facet normal -0 -0 1
    outer loop
      vertex 0.942509 0.119066 2.7
      vertex 1.75261 -0.963507 2.7
      vertex 0.920154 0.236255 2.7
    endloop
  endfacet
  facet normal 0 0 1
    outer loop
      vertex 1.75261 -0.963507 2.7
      vertex 0.832491 0.457665 2.7
      vertex 0.883287 0.349718 2.7
    endloop
  endfacet
  facet normal 0 0 1
    outer loop
      vertex 9.94035 17.0519 2.7
      vertex 0.768566 0.558395 2.7
      vertex 0.832491 0.457665 2.7
    endloop
  endfacet
  facet normal 0 0 1
    outer loop
      vertex 9.82199 17.0668 2.7
      vertex 0.69252 0.650319 2.7
      vertex 0.768566 0.558395 2.7
    endloop
  endfacet
  facet normal 0 0 1
    outer loop
      vertex 9.70643 17.0965 2.7
      vertex 0.605553 0.731987 2.7
      vertex 0.69252 0.650319 2.7
    endloop
  endfacet
  facet normal 0 0 1
    outer loop
      vertex 9.59551 17.1404 2.7
      vertex 0.509035 0.802111 2.7
      vertex 0.605553 0.731987 2.7
    endloop
  endfacet
  facet normal 0 0 1
    outer loop
      vertex 9.49096 17.1979 2.7
      vertex 0.40449 0.859585 2.7
      vertex 0.509035 0.802111 2.7
    endloop
  endfacet
  facet normal 0 0 1
    outer loop
      vertex 9.39445 17.268 2.7
      vertex 0.293566 0.903503 2.7
      vertex 0.40449 0.859585 2.7
    endloop
  endfacet
  facet normal 0 0 1
    outer loop
      vertex 9.39445 17.268 2.7
      vertex 0.178012 0.933172 2.7
      vertex 0.293566 0.903503 2.7
    endloop
  endfacet
  facet normal 0 0 1
    outer loop
      vertex 8 18.5182 2.7
      vertex 0.0596504 0.948125 2.7
      vertex 0.178012 0.933172 2.7
    endloop
  endfacet
  facet normal 0 0 1
    outer loop
      vertex 8 18.5182 2.7
      vertex -0.0596504 0.948125 2.7
      vertex 0.0596504 0.948125 2.7
    endloop
  endfacet
  facet normal -0 0 1
    outer loop
      vertex -1.75261 0.963507 2.7
      vertex -0.0596504 0.948125 2.7
      vertex 8 18.5182 2.7
    endloop
  endfacet
  facet normal 0 0 1
    outer loop
      vertex -0.0596504 0.948125 2.7
      vertex -1.75261 0.963507 2.7
      vertex -0.178012 0.933172 2.7
    endloop
  endfacet
  facet normal 0 0 1
    outer loop
      vertex -0.178012 0.933172 2.7
      vertex -1.75261 0.963507 2.7
      vertex -0.293566 0.903503 2.7
    endloop
  endfacet
  facet normal 0 0 1
    outer loop
      vertex -0.293566 0.903503 2.7
      vertex -1.75261 0.963507 2.7
      vertex -0.40449 0.859585 2.7
    endloop
  endfacet
  facet normal 0 0 1
    outer loop
      vertex -0.40449 0.859585 2.7
      vertex -1.75261 0.963507 2.7
      vertex -0.509035 0.802111 2.7
    endloop
  endfacet
  facet normal 0 0 1
    outer loop
      vertex -0.509035 0.802111 2.7
      vertex -1.75261 0.963507 2.7
      vertex -0.605553 0.731987 2.7
    endloop
  endfacet
  facet normal 0 0 1
    outer loop
      vertex -0.605553 0.731987 2.7
      vertex -1.75261 0.963507 2.7
      vertex -0.69252 0.650319 2.7
    endloop
  endfacet
  facet normal 0 0 1
    outer loop
      vertex -0.69252 0.650319 2.7
      vertex -1.75261 0.963507 2.7
      vertex -0.768566 0.558395 2.7
    endloop
  endfacet
  facet normal 0 0 1
    outer loop
      vertex -2 0 2.7
      vertex -0.95 0 2.7
      vertex -0.942509 0.119066 2.7
    endloop
  endfacet
  facet normal 0 0 1
    outer loop
      vertex -0.605553 -0.731987 2.7
      vertex -1.27485 -1.54103 2.7
      vertex -1.07165 -1.68865 2.7
    endloop
  endfacet
  facet normal 0 0 1
    outer loop
      vertex -1.98423 0.250666 2.7
      vertex -0.942509 0.119066 2.7
      vertex -0.920154 0.236255 2.7
    endloop
  endfacet
  facet normal 0 0 1
    outer loop
      vertex -0.69252 -0.650319 2.7
      vertex -1.45794 -1.36909 2.7
      vertex -1.27485 -1.54103 2.7
    endloop
  endfacet
  facet normal 0 0 1
    outer loop
      vertex -1.93717 0.497379 2.7
      vertex -0.920154 0.236255 2.7
      vertex -0.883287 0.349718 2.7
    endloop
  endfacet
  facet normal 0 0 1
    outer loop
      vertex -0.768566 -0.558395 2.7
      vertex -1.61803 -1.17557 2.7
      vertex -1.45794 -1.36909 2.7
    endloop
  endfacet
  facet normal 0 0 1
    outer loop
      vertex -1.85955 0.736249 2.7
      vertex -0.883287 0.349718 2.7
      vertex -0.832491 0.457665 2.7
    endloop
  endfacet
  facet normal 0 0 1
    outer loop
      vertex -0.768566 0.558395 2.7
      vertex -1.75261 0.963507 2.7
      vertex -0.832491 0.457665 2.7
    endloop
  endfacet
  facet normal -0 0 1
    outer loop
      vertex -1.85955 0.736249 2.7
      vertex -0.832491 0.457665 2.7
      vertex -1.75261 0.963507 2.7
    endloop
  endfacet
  facet normal 0 0 1
    outer loop
      vertex -0.832491 -0.457665 2.7
      vertex -1.75261 -0.963507 2.7
      vertex -1.61803 -1.17557 2.7
    endloop
  endfacet
  facet normal 0 0 1
    outer loop
      vertex -0.883287 0.349718 2.7
      vertex -1.85955 0.736249 2.7
      vertex -1.93717 0.497379 2.7
    endloop
  endfacet
  facet normal 0 0 1
    outer loop
      vertex -0.883287 -0.349718 2.7
      vertex -1.85955 -0.736249 2.7
      vertex -1.75261 -0.963507 2.7
    endloop
  endfacet
  facet normal 0 0 1
    outer loop
      vertex -0.920154 0.236255 2.7
      vertex -1.93717 0.497379 2.7
      vertex -1.98423 0.250666 2.7
    endloop
  endfacet
  facet normal 0 0 1
    outer loop
      vertex -0.920154 -0.236255 2.7
      vertex -1.93717 -0.497379 2.7
      vertex -1.85955 -0.736249 2.7
    endloop
  endfacet
  facet normal 0 0 1
    outer loop
      vertex -0.942509 0.119066 2.7
      vertex -1.98423 0.250666 2.7
      vertex -2 0 2.7
    endloop
  endfacet
  facet normal 0 0 1
    outer loop
      vertex -0.942509 -0.119066 2.7
      vertex -1.98423 -0.250666 2.7
      vertex -1.93717 -0.497379 2.7
    endloop
  endfacet
  facet normal 0 0 1
    outer loop
      vertex -0.95 0 2.7
      vertex -2 0 2.7
      vertex -1.98423 -0.250666 2.7
    endloop
  endfacet
  facet normal -0.951056 0.309018 0
    outer loop
      vertex -1.93717 0.497379 0
      vertex -1.85955 0.736249 2.7
      vertex -1.85955 0.736249 0
    endloop
  endfacet
  facet normal -0.951056 0.309018 0
    outer loop
      vertex -1.85955 0.736249 2.7
      vertex -1.93717 0.497379 0
      vertex -1.93717 0.497379 2.7
    endloop
  endfacet
  facet normal -0.904827 0.425779 0
    outer loop
      vertex -1.85955 0.736249 0
      vertex -1.75261 0.963507 2.7
      vertex -1.75261 0.963507 0
    endloop
  endfacet
  facet normal -0.904827 0.425779 0
    outer loop
      vertex -1.75261 0.963507 2.7
      vertex -1.85955 0.736249 0
      vertex -1.85955 0.736249 2.7
    endloop
  endfacet
  facet normal 0.770514 -0.637423 0
    outer loop
      vertex 1.45794 -1.36909 2.7
      vertex 1.61803 -1.17557 0
      vertex 1.61803 -1.17557 2.7
    endloop
  endfacet
  facet normal 0.770514 -0.637423 0
    outer loop
      vertex 1.61803 -1.17557 0
      vertex 1.45794 -1.36909 2.7
      vertex 1.45794 -1.36909 0
    endloop
  endfacet
  facet normal 0.587785 -0.809017 0
    outer loop
      vertex 1.07165 -1.68865 0
      vertex 1.27485 -1.54103 2.7
      vertex 1.07165 -1.68865 2.7
    endloop
  endfacet
  facet normal 0.587785 -0.809017 0
    outer loop
      vertex 1.27485 -1.54103 2.7
      vertex 1.07165 -1.68865 0
      vertex 1.27485 -1.54103 0
    endloop
  endfacet
  facet normal 0.481753 -0.876307 0
    outer loop
      vertex 0.851558 -1.80965 0
      vertex 1.07165 -1.68865 2.7
      vertex 0.851558 -1.80965 2.7
    endloop
  endfacet
  facet normal 0.481753 -0.876307 0
    outer loop
      vertex 1.07165 -1.68865 2.7
      vertex 0.851558 -1.80965 0
      vertex 1.07165 -1.68865 0
    endloop
  endfacet
  facet normal 0.368128 -0.929775 0
    outer loop
      vertex 0.618033 -1.90211 0
      vertex 0.851558 -1.80965 2.7
      vertex 0.618033 -1.90211 2.7
    endloop
  endfacet
  facet normal 0.368128 -0.929775 0
    outer loop
      vertex 0.851558 -1.80965 2.7
      vertex 0.618033 -1.90211 0
      vertex 0.851558 -1.80965 0
    endloop
  endfacet
  facet normal -0.368128 -0.929775 0
    outer loop
      vertex -0.851558 -1.80965 0
      vertex -0.618033 -1.90211 2.7
      vertex -0.851558 -1.80965 2.7
    endloop
  endfacet
  facet normal -0.368128 -0.929775 -0
    outer loop
      vertex -0.618033 -1.90211 2.7
      vertex -0.851558 -1.80965 0
      vertex -0.618033 -1.90211 0
    endloop
  endfacet
  facet normal 0 -1 0
    outer loop
      vertex -0.125581 -1.99605 0
      vertex 0.125581 -1.99605 2.7
      vertex -0.125581 -1.99605 2.7
    endloop
  endfacet
  facet normal 0 -1 -0
    outer loop
      vertex 0.125581 -1.99605 2.7
      vertex -0.125581 -1.99605 0
      vertex 0.125581 -1.99605 0
    endloop
  endfacet
  facet normal -0.770514 -0.637423 0
    outer loop
      vertex -1.45794 -1.36909 0
      vertex -1.61803 -1.17557 2.7
      vertex -1.61803 -1.17557 0
    endloop
  endfacet
  facet normal -0.770514 -0.637423 0
    outer loop
      vertex -1.61803 -1.17557 2.7
      vertex -1.45794 -1.36909 0
      vertex -1.45794 -1.36909 2.7
    endloop
  endfacet
  facet normal -0.998027 0.062792 0
    outer loop
      vertex -2 0 0
      vertex -1.98423 0.250666 2.7
      vertex -1.98423 0.250666 0
    endloop
  endfacet
  facet normal -0.998027 0.062792 0
    outer loop
      vertex -1.98423 0.250666 2.7
      vertex -2 0 0
      vertex -2 0 2.7
    endloop
  endfacet
  facet normal -0.982287 0.18738 0
    outer loop
      vertex -1.98423 0.250666 0
      vertex -1.93717 0.497379 2.7
      vertex -1.93717 0.497379 0
    endloop
  endfacet
  facet normal -0.982287 0.18738 0
    outer loop
      vertex -1.93717 0.497379 2.7
      vertex -1.98423 0.250666 0
      vertex -1.98423 0.250666 2.7
    endloop
  endfacet
  facet normal 0.982287 -0.187382 0
    outer loop
      vertex 11.9372 17.5026 2.7
      vertex 11.9842 17.7493 0
      vertex 11.9842 17.7493 2.7
    endloop
  endfacet
  facet normal 0.982287 -0.187382 0
    outer loop
      vertex 11.9842 17.7493 0
      vertex 11.9372 17.5026 2.7
      vertex 11.9372 17.5026 0
    endloop
  endfacet
  facet normal 0.684545 -0.72897 0
    outer loop
      vertex 1.27485 -1.54103 0
      vertex 1.45794 -1.36909 2.7
      vertex 1.27485 -1.54103 2.7
    endloop
  endfacet
  facet normal 0.684545 -0.72897 0
    outer loop
      vertex 1.45794 -1.36909 2.7
      vertex 1.27485 -1.54103 0
      vertex 1.45794 -1.36909 0
    endloop
  endfacet
  facet normal 0.844328 -0.535826 0
    outer loop
      vertex 1.61803 -1.17557 2.7
      vertex 1.75261 -0.963507 0
      vertex 1.75261 -0.963507 2.7
    endloop
  endfacet
  facet normal 0.844328 -0.535826 0
    outer loop
      vertex 1.75261 -0.963507 0
      vertex 1.61803 -1.17557 2.7
      vertex 1.61803 -1.17557 0
    endloop
  endfacet
  facet normal 0.125333 -0.992115 0
    outer loop
      vertex 0.125581 -1.99605 0
      vertex 0.374763 -1.96457 2.7
      vertex 0.125581 -1.99605 2.7
    endloop
  endfacet
  facet normal 0.125333 -0.992115 0
    outer loop
      vertex 0.374763 -1.96457 2.7
      vertex 0.125581 -1.99605 0
      vertex 0.374763 -1.96457 0
    endloop
  endfacet
  facet normal 0.248688 -0.968584 0
    outer loop
      vertex 0.374763 -1.96457 0
      vertex 0.618033 -1.90211 2.7
      vertex 0.374763 -1.96457 2.7
    endloop
  endfacet
  facet normal 0.248688 -0.968584 0
    outer loop
      vertex 0.618033 -1.90211 2.7
      vertex 0.374763 -1.96457 0
      vertex 0.618033 -1.90211 0
    endloop
  endfacet
  facet normal -0.248688 -0.968584 0
    outer loop
      vertex -0.618033 -1.90211 0
      vertex -0.374763 -1.96457 2.7
      vertex -0.618033 -1.90211 2.7
    endloop
  endfacet
  facet normal -0.248688 -0.968584 -0
    outer loop
      vertex -0.374763 -1.96457 2.7
      vertex -0.618033 -1.90211 0
      vertex -0.374763 -1.96457 0
    endloop
  endfacet
  facet normal 0.998027 -0.0627915 0
    outer loop
      vertex 11.9842 17.7493 2.7
      vertex 12 18 0
      vertex 12 18 2.7
    endloop
  endfacet
  facet normal 0.998027 -0.0627915 0
    outer loop
      vertex 12 18 0
      vertex 11.9842 17.7493 2.7
      vertex 11.9842 17.7493 0
    endloop
  endfacet
  facet normal -0.125333 -0.992115 0
    outer loop
      vertex -0.374763 -1.96457 0
      vertex -0.125581 -1.99605 2.7
      vertex -0.374763 -1.96457 2.7
    endloop
  endfacet
  facet normal -0.125333 -0.992115 -0
    outer loop
      vertex -0.125581 -1.99605 2.7
      vertex -0.374763 -1.96457 0
      vertex -0.125581 -1.99605 0
    endloop
  endfacet
  facet normal -0.481753 -0.876307 0
    outer loop
      vertex -1.07165 -1.68865 0
      vertex -0.851558 -1.80965 2.7
      vertex -1.07165 -1.68865 2.7
    endloop
  endfacet
  facet normal -0.481753 -0.876307 -0
    outer loop
      vertex -0.851558 -1.80965 2.7
      vertex -1.07165 -1.68865 0
      vertex -0.851558 -1.80965 0
    endloop
  endfacet
  facet normal -0.587785 -0.809017 0
    outer loop
      vertex -1.27485 -1.54103 0
      vertex -1.07165 -1.68865 2.7
      vertex -1.27485 -1.54103 2.7
    endloop
  endfacet
  facet normal -0.587785 -0.809017 -0
    outer loop
      vertex -1.07165 -1.68865 2.7
      vertex -1.27485 -1.54103 0
      vertex -1.07165 -1.68865 0
    endloop
  endfacet
  facet normal -1 0 0
    outer loop
      vertex 8 18.5182 0
      vertex 8 42 2.7
      vertex 8 42 0
    endloop
  endfacet
  facet normal -1 -0 0
    outer loop
      vertex 8 42 2.7
      vertex 8 18.5182 0
      vertex 8 18.5182 2.7
    endloop
  endfacet
  facet normal 1 0 0
    outer loop
      vertex 12 26 2.7
      vertex 12 42 12
      vertex 12 26 12
    endloop
  endfacet
  facet normal 1 0 0
    outer loop
      vertex 12 42 12
      vertex 12 26 2.7
      vertex 12 42 0
    endloop
  endfacet
  facet normal 1 0 0
    outer loop
      vertex 12 18 0
      vertex 12 26 2.7
      vertex 12 18 2.7
    endloop
  endfacet
  facet normal 1 0 0
    outer loop
      vertex 12 26 2.7
      vertex 12 18 0
      vertex 12 42 0
    endloop
  endfacet
  facet normal 0 1 0
    outer loop
      vertex 12 42 12
      vertex 9 42 2.7
      vertex 9 42 12
    endloop
  endfacet
  facet normal 0 1 -0
    outer loop
      vertex 12 42 0
      vertex 9 42 2.7
      vertex 12 42 12
    endloop
  endfacet
  facet normal 0 1 0
    outer loop
      vertex 8 42 0
      vertex 9 42 2.7
      vertex 12 42 0
    endloop
  endfacet
  facet normal 0 1 0
    outer loop
      vertex 9 42 2.7
      vertex 8 42 0
      vertex 8 42 2.7
    endloop
  endfacet
  facet normal -1 0 0
    outer loop
      vertex 9 26 2.7
      vertex 9 42 12
      vertex 9 42 2.7
    endloop
  endfacet
  facet normal -1 -0 0
    outer loop
      vertex 9 42 12
      vertex 9 26 2.7
      vertex 9 26 12
    endloop
  endfacet
  facet normal -0 0 1
    outer loop
      vertex 9 42 12
      vertex 12 26 12
      vertex 12 42 12
    endloop
  endfacet
  facet normal 0 0 1
    outer loop
      vertex 12 26 12
      vertex 9 42 12
      vertex 9 26 12
    endloop
  endfacet
  facet normal 0 -1 0
    outer loop
      vertex 9 26 2.7
      vertex 12 26 12
      vertex 9 26 12
    endloop
  endfacet
  facet normal 0 -1 -0
    outer loop
      vertex 12 26 12
      vertex 9 26 2.7
      vertex 12 26 2.7
    endloop
  endfacet
  facet normal -0.998027 -0.0627913 0
    outer loop
      vertex 0.95 0 0
      vertex 0.942509 0.119066 2.7
      vertex 0.942509 0.119066 0
    endloop
  endfacet
  facet normal -0.998027 -0.0627913 0
    outer loop
      vertex 0.942509 0.119066 2.7
      vertex 0.95 0 0
      vertex 0.95 0 2.7
    endloop
  endfacet
  facet normal 0.998027 -0.0627913 0
    outer loop
      vertex -0.95 0 2.7
      vertex -0.942509 0.119066 0
      vertex -0.942509 0.119066 2.7
    endloop
  endfacet
  facet normal 0.998027 -0.0627913 0
    outer loop
      vertex -0.942509 0.119066 0
      vertex -0.95 0 2.7
      vertex -0.95 0 0
    endloop
  endfacet
  facet normal 0 -1 0
    outer loop
      vertex -0.0596504 0.948125 0
      vertex 0.0596504 0.948125 2.7
      vertex -0.0596504 0.948125 2.7
    endloop
  endfacet
  facet normal 0 -1 -0
    outer loop
      vertex 0.0596504 0.948125 2.7
      vertex -0.0596504 0.948125 0
      vertex 0.0596504 0.948125 0
    endloop
  endfacet
  facet normal 0 1 -0
    outer loop
      vertex 0.0596504 -0.948125 0
      vertex -0.0596504 -0.948125 2.7
      vertex 0.0596504 -0.948125 2.7
    endloop
  endfacet
  facet normal 0 1 0
    outer loop
      vertex -0.0596504 -0.948125 2.7
      vertex 0.0596504 -0.948125 0
      vertex -0.0596504 -0.948125 0
    endloop
  endfacet
  facet normal -0.684547 -0.728969 0
    outer loop
      vertex 0.605553 0.731987 0
      vertex 0.69252 0.650319 2.7
      vertex 0.605553 0.731987 2.7
    endloop
  endfacet
  facet normal -0.684547 -0.728969 -0
    outer loop
      vertex 0.69252 0.650319 2.7
      vertex 0.605553 0.731987 0
      vertex 0.69252 0.650319 0
    endloop
  endfacet
  facet normal 0.684547 -0.728969 0
    outer loop
      vertex -0.69252 0.650319 0
      vertex -0.605553 0.731987 2.7
      vertex -0.69252 0.650319 2.7
    endloop
  endfacet
  facet normal 0.684547 -0.728969 0
    outer loop
      vertex -0.605553 0.731987 2.7
      vertex -0.69252 0.650319 0
      vertex -0.605553 0.731987 0
    endloop
  endfacet
  facet normal 0.36813 -0.929774 0
    outer loop
      vertex -0.40449 0.859585 0
      vertex -0.293566 0.903503 2.7
      vertex -0.40449 0.859585 2.7
    endloop
  endfacet
  facet normal 0.36813 -0.929774 0
    outer loop
      vertex -0.293566 0.903503 2.7
      vertex -0.40449 0.859585 0
      vertex -0.293566 0.903503 0
    endloop
  endfacet
  facet normal -0.770513 0.637424 0
    outer loop
      vertex 0.69252 -0.650319 0
      vertex 0.768566 -0.558395 2.7
      vertex 0.768566 -0.558395 0
    endloop
  endfacet
  facet normal -0.770513 0.637424 0
    outer loop
      vertex 0.768566 -0.558395 2.7
      vertex 0.69252 -0.650319 0
      vertex 0.69252 -0.650319 2.7
    endloop
  endfacet
  facet normal -0.904826 -0.425782 0
    outer loop
      vertex 0.883287 0.349718 0
      vertex 0.832491 0.457665 2.7
      vertex 0.832491 0.457665 0
    endloop
  endfacet
  facet normal -0.904826 -0.425782 0
    outer loop
      vertex 0.832491 0.457665 2.7
      vertex 0.883287 0.349718 0
      vertex 0.883287 0.349718 2.7
    endloop
  endfacet
  facet normal -0.844329 -0.535825 0
    outer loop
      vertex 0.832491 0.457665 0
      vertex 0.768566 0.558395 2.7
      vertex 0.768566 0.558395 0
    endloop
  endfacet
  facet normal -0.844329 -0.535825 0
    outer loop
      vertex 0.768566 0.558395 2.7
      vertex 0.832491 0.457665 0
      vertex 0.832491 0.457665 2.7
    endloop
  endfacet
  facet normal -0.36813 -0.929774 0
    outer loop
      vertex 0.293566 0.903503 0
      vertex 0.40449 0.859585 2.7
      vertex 0.293566 0.903503 2.7
    endloop
  endfacet
  facet normal -0.36813 -0.929774 -0
    outer loop
      vertex 0.40449 0.859585 2.7
      vertex 0.293566 0.903503 0
      vertex 0.40449 0.859585 0
    endloop
  endfacet
  facet normal -0.587783 -0.809019 0
    outer loop
      vertex 0.509035 0.802111 0
      vertex 0.605553 0.731987 2.7
      vertex 0.509035 0.802111 2.7
    endloop
  endfacet
  facet normal -0.587783 -0.809019 -0
    outer loop
      vertex 0.605553 0.731987 2.7
      vertex 0.509035 0.802111 0
      vertex 0.605553 0.731987 0
    endloop
  endfacet
  facet normal 0.904826 -0.425782 0
    outer loop
      vertex -0.883287 0.349718 2.7
      vertex -0.832491 0.457665 0
      vertex -0.832491 0.457665 2.7
    endloop
  endfacet
  facet normal 0.904826 -0.425782 0
    outer loop
      vertex -0.832491 0.457665 0
      vertex -0.883287 0.349718 2.7
      vertex -0.883287 0.349718 0
    endloop
  endfacet
  facet normal 0.770513 -0.637424 0
    outer loop
      vertex -0.768566 0.558395 2.7
      vertex -0.69252 0.650319 0
      vertex -0.69252 0.650319 2.7
    endloop
  endfacet
  facet normal 0.770513 -0.637424 0
    outer loop
      vertex -0.69252 0.650319 0
      vertex -0.768566 0.558395 2.7
      vertex -0.768566 0.558395 0
    endloop
  endfacet
  facet normal 0.248687 -0.968584 0
    outer loop
      vertex -0.293566 0.903503 0
      vertex -0.178012 0.933172 2.7
      vertex -0.293566 0.903503 2.7
    endloop
  endfacet
  facet normal 0.248687 -0.968584 0
    outer loop
      vertex -0.178012 0.933172 2.7
      vertex -0.293566 0.903503 0
      vertex -0.178012 0.933172 0
    endloop
  endfacet
  facet normal -0.982287 0.187383 0
    outer loop
      vertex 0.920154 -0.236255 0
      vertex 0.942509 -0.119066 2.7
      vertex 0.942509 -0.119066 0
    endloop
  endfacet
  facet normal -0.982287 0.187383 0
    outer loop
      vertex 0.942509 -0.119066 2.7
      vertex 0.920154 -0.236255 0
      vertex 0.920154 -0.236255 2.7
    endloop
  endfacet
  facet normal -0.125334 0.992115 0
    outer loop
      vertex 0.178012 -0.933172 0
      vertex 0.0596504 -0.948125 2.7
      vertex 0.178012 -0.933172 2.7
    endloop
  endfacet
  facet normal -0.125334 0.992115 0
    outer loop
      vertex 0.0596504 -0.948125 2.7
      vertex 0.178012 -0.933172 0
      vertex 0.0596504 -0.948125 0
    endloop
  endfacet
  facet normal -0.951057 -0.309015 0
    outer loop
      vertex 0.920154 0.236255 0
      vertex 0.883287 0.349718 2.7
      vertex 0.883287 0.349718 0
    endloop
  endfacet
  facet normal -0.951057 -0.309015 0
    outer loop
      vertex 0.883287 0.349718 2.7
      vertex 0.920154 0.236255 0
      vertex 0.920154 0.236255 2.7
    endloop
  endfacet
  facet normal -0.982287 -0.187383 0
    outer loop
      vertex 0.942509 0.119066 0
      vertex 0.920154 0.236255 2.7
      vertex 0.920154 0.236255 0
    endloop
  endfacet
  facet normal -0.982287 -0.187383 0
    outer loop
      vertex 0.920154 0.236255 2.7
      vertex 0.942509 0.119066 0
      vertex 0.942509 0.119066 2.7
    endloop
  endfacet
  facet normal -0.770513 -0.637424 0
    outer loop
      vertex 0.768566 0.558395 0
      vertex 0.69252 0.650319 2.7
      vertex 0.69252 0.650319 0
    endloop
  endfacet
  facet normal -0.770513 -0.637424 0
    outer loop
      vertex 0.69252 0.650319 2.7
      vertex 0.768566 0.558395 0
      vertex 0.768566 0.558395 2.7
    endloop
  endfacet
  facet normal -0.248687 -0.968584 0
    outer loop
      vertex 0.178012 0.933172 0
      vertex 0.293566 0.903503 2.7
      vertex 0.178012 0.933172 2.7
    endloop
  endfacet
  facet normal -0.248687 -0.968584 -0
    outer loop
      vertex 0.293566 0.903503 2.7
      vertex 0.178012 0.933172 0
      vertex 0.293566 0.903503 0
    endloop
  endfacet
  facet normal -0.125334 -0.992115 0
    outer loop
      vertex 0.0596504 0.948125 0
      vertex 0.178012 0.933172 2.7
      vertex 0.0596504 0.948125 2.7
    endloop
  endfacet
  facet normal -0.125334 -0.992115 -0
    outer loop
      vertex 0.178012 0.933172 2.7
      vertex 0.0596504 0.948125 0
      vertex 0.178012 0.933172 0
    endloop
  endfacet
  facet normal -0.481752 -0.876308 0
    outer loop
      vertex 0.40449 0.859585 0
      vertex 0.509035 0.802111 2.7
      vertex 0.40449 0.859585 2.7
    endloop
  endfacet
  facet normal -0.481752 -0.876308 -0
    outer loop
      vertex 0.509035 0.802111 2.7
      vertex 0.40449 0.859585 0
      vertex 0.509035 0.802111 0
    endloop
  endfacet
  facet normal 0.844329 -0.535825 0
    outer loop
      vertex -0.832491 0.457665 2.7
      vertex -0.768566 0.558395 0
      vertex -0.768566 0.558395 2.7
    endloop
  endfacet
  facet normal 0.844329 -0.535825 0
    outer loop
      vertex -0.768566 0.558395 0
      vertex -0.832491 0.457665 2.7
      vertex -0.832491 0.457665 0
    endloop
  endfacet
  facet normal 0.951057 -0.309015 0
    outer loop
      vertex -0.920154 0.236255 2.7
      vertex -0.883287 0.349718 0
      vertex -0.883287 0.349718 2.7
    endloop
  endfacet
  facet normal 0.951057 -0.309015 0
    outer loop
      vertex -0.883287 0.349718 0
      vertex -0.920154 0.236255 2.7
      vertex -0.920154 0.236255 0
    endloop
  endfacet
  facet normal 0.982287 -0.187383 0
    outer loop
      vertex -0.942509 0.119066 2.7
      vertex -0.920154 0.236255 0
      vertex -0.920154 0.236255 2.7
    endloop
  endfacet
  facet normal 0.982287 -0.187383 0
    outer loop
      vertex -0.920154 0.236255 0
      vertex -0.942509 0.119066 2.7
      vertex -0.942509 0.119066 0
    endloop
  endfacet
  facet normal 0.481752 -0.876308 0
    outer loop
      vertex -0.509035 0.802111 0
      vertex -0.40449 0.859585 2.7
      vertex -0.509035 0.802111 2.7
    endloop
  endfacet
  facet normal 0.481752 -0.876308 0
    outer loop
      vertex -0.40449 0.859585 2.7
      vertex -0.509035 0.802111 0
      vertex -0.40449 0.859585 0
    endloop
  endfacet
  facet normal 0.587783 -0.809019 0
    outer loop
      vertex -0.605553 0.731987 0
      vertex -0.509035 0.802111 2.7
      vertex -0.605553 0.731987 2.7
    endloop
  endfacet
  facet normal 0.587783 -0.809019 0
    outer loop
      vertex -0.509035 0.802111 2.7
      vertex -0.605553 0.731987 0
      vertex -0.509035 0.802111 0
    endloop
  endfacet
  facet normal 0.125334 -0.992115 0
    outer loop
      vertex -0.178012 0.933172 0
      vertex -0.0596504 0.948125 2.7
      vertex -0.178012 0.933172 2.7
    endloop
  endfacet
  facet normal 0.125334 -0.992115 0
    outer loop
      vertex -0.0596504 0.948125 2.7
      vertex -0.178012 0.933172 0
      vertex -0.0596504 0.948125 0
    endloop
  endfacet
  facet normal -0.998027 0.0627913 0
    outer loop
      vertex 0.942509 -0.119066 0
      vertex 0.95 0 2.7
      vertex 0.95 0 0
    endloop
  endfacet
  facet normal -0.998027 0.0627913 0
    outer loop
      vertex 0.95 0 2.7
      vertex 0.942509 -0.119066 0
      vertex 0.942509 -0.119066 2.7
    endloop
  endfacet
  facet normal -0.481752 0.876308 0
    outer loop
      vertex 0.509035 -0.802111 0
      vertex 0.40449 -0.859585 2.7
      vertex 0.509035 -0.802111 2.7
    endloop
  endfacet
  facet normal -0.481752 0.876308 0
    outer loop
      vertex 0.40449 -0.859585 2.7
      vertex 0.509035 -0.802111 0
      vertex 0.40449 -0.859585 0
    endloop
  endfacet
  facet normal -0.684547 0.728969 0
    outer loop
      vertex 0.69252 -0.650319 0
      vertex 0.605553 -0.731987 2.7
      vertex 0.69252 -0.650319 2.7
    endloop
  endfacet
  facet normal -0.684547 0.728969 0
    outer loop
      vertex 0.605553 -0.731987 2.7
      vertex 0.69252 -0.650319 0
      vertex 0.605553 -0.731987 0
    endloop
  endfacet
  facet normal 0.684547 0.728969 -0
    outer loop
      vertex -0.605553 -0.731987 0
      vertex -0.69252 -0.650319 2.7
      vertex -0.605553 -0.731987 2.7
    endloop
  endfacet
  facet normal 0.684547 0.728969 0
    outer loop
      vertex -0.69252 -0.650319 2.7
      vertex -0.605553 -0.731987 0
      vertex -0.69252 -0.650319 0
    endloop
  endfacet
  facet normal 0.904826 0.425782 0
    outer loop
      vertex -0.832491 -0.457665 2.7
      vertex -0.883287 -0.349718 0
      vertex -0.883287 -0.349718 2.7
    endloop
  endfacet
  facet normal 0.904826 0.425782 0
    outer loop
      vertex -0.883287 -0.349718 0
      vertex -0.832491 -0.457665 2.7
      vertex -0.832491 -0.457665 0
    endloop
  endfacet
  facet normal 0.770513 0.637424 0
    outer loop
      vertex -0.69252 -0.650319 2.7
      vertex -0.768566 -0.558395 0
      vertex -0.768566 -0.558395 2.7
    endloop
  endfacet
  facet normal 0.770513 0.637424 0
    outer loop
      vertex -0.768566 -0.558395 0
      vertex -0.69252 -0.650319 2.7
      vertex -0.69252 -0.650319 0
    endloop
  endfacet
  facet normal 0.998027 0.0627913 0
    outer loop
      vertex -0.942509 -0.119066 2.7
      vertex -0.95 0 0
      vertex -0.95 0 2.7
    endloop
  endfacet
  facet normal 0.998027 0.0627913 0
    outer loop
      vertex -0.95 0 0
      vertex -0.942509 -0.119066 2.7
      vertex -0.942509 -0.119066 0
    endloop
  endfacet
  facet normal -0.951057 0.309015 0
    outer loop
      vertex 0.883287 -0.349718 0
      vertex 0.920154 -0.236255 2.7
      vertex 0.920154 -0.236255 0
    endloop
  endfacet
  facet normal -0.951057 0.309015 0
    outer loop
      vertex 0.920154 -0.236255 2.7
      vertex 0.883287 -0.349718 0
      vertex 0.883287 -0.349718 2.7
    endloop
  endfacet
  facet normal -0.844329 0.535825 0
    outer loop
      vertex 0.768566 -0.558395 0
      vertex 0.832491 -0.457665 2.7
      vertex 0.832491 -0.457665 0
    endloop
  endfacet
  facet normal -0.844329 0.535825 0
    outer loop
      vertex 0.832491 -0.457665 2.7
      vertex 0.768566 -0.558395 0
      vertex 0.768566 -0.558395 2.7
    endloop
  endfacet
  facet normal 0.982287 0.187383 0
    outer loop
      vertex -0.920154 -0.236255 2.7
      vertex -0.942509 -0.119066 0
      vertex -0.942509 -0.119066 2.7
    endloop
  endfacet
  facet normal 0.982287 0.187383 0
    outer loop
      vertex -0.942509 -0.119066 0
      vertex -0.920154 -0.236255 2.7
      vertex -0.920154 -0.236255 0
    endloop
  endfacet
  facet normal 0.951057 0.309015 0
    outer loop
      vertex -0.883287 -0.349718 2.7
      vertex -0.920154 -0.236255 0
      vertex -0.920154 -0.236255 2.7
    endloop
  endfacet
  facet normal 0.951057 0.309015 0
    outer loop
      vertex -0.920154 -0.236255 0
      vertex -0.883287 -0.349718 2.7
      vertex -0.883287 -0.349718 0
    endloop
  endfacet
  facet normal -0.36813 0.929774 0
    outer loop
      vertex 0.40449 -0.859585 0
      vertex 0.293566 -0.903503 2.7
      vertex 0.40449 -0.859585 2.7
    endloop
  endfacet
  facet normal -0.36813 0.929774 0
    outer loop
      vertex 0.293566 -0.903503 2.7
      vertex 0.40449 -0.859585 0
      vertex 0.293566 -0.903503 0
    endloop
  endfacet
  facet normal -0.248687 0.968584 0
    outer loop
      vertex 0.293566 -0.903503 0
      vertex 0.178012 -0.933172 2.7
      vertex 0.293566 -0.903503 2.7
    endloop
  endfacet
  facet normal -0.248687 0.968584 0
    outer loop
      vertex 0.178012 -0.933172 2.7
      vertex 0.293566 -0.903503 0
      vertex 0.178012 -0.933172 0
    endloop
  endfacet
  facet normal -0.587783 0.809019 0
    outer loop
      vertex 0.605553 -0.731987 0
      vertex 0.509035 -0.802111 2.7
      vertex 0.605553 -0.731987 2.7
    endloop
  endfacet
  facet normal -0.587783 0.809019 0
    outer loop
      vertex 0.509035 -0.802111 2.7
      vertex 0.605553 -0.731987 0
      vertex 0.509035 -0.802111 0
    endloop
  endfacet
  facet normal -0.904826 0.425782 0
    outer loop
      vertex 0.832491 -0.457665 0
      vertex 0.883287 -0.349718 2.7
      vertex 0.883287 -0.349718 0
    endloop
  endfacet
  facet normal -0.904826 0.425782 0
    outer loop
      vertex 0.883287 -0.349718 2.7
      vertex 0.832491 -0.457665 0
      vertex 0.832491 -0.457665 2.7
    endloop
  endfacet
  facet normal 0.248687 0.968584 -0
    outer loop
      vertex -0.178012 -0.933172 0
      vertex -0.293566 -0.903503 2.7
      vertex -0.178012 -0.933172 2.7
    endloop
  endfacet
  facet normal 0.248687 0.968584 0
    outer loop
      vertex -0.293566 -0.903503 2.7
      vertex -0.178012 -0.933172 0
      vertex -0.293566 -0.903503 0
    endloop
  endfacet
  facet normal 0.844329 0.535825 0
    outer loop
      vertex -0.768566 -0.558395 2.7
      vertex -0.832491 -0.457665 0
      vertex -0.832491 -0.457665 2.7
    endloop
  endfacet
  facet normal 0.844329 0.535825 0
    outer loop
      vertex -0.832491 -0.457665 0
      vertex -0.768566 -0.558395 2.7
      vertex -0.768566 -0.558395 0
    endloop
  endfacet
  facet normal 0.125334 0.992115 -0
    outer loop
      vertex -0.0596504 -0.948125 0
      vertex -0.178012 -0.933172 2.7
      vertex -0.0596504 -0.948125 2.7
    endloop
  endfacet
  facet normal 0.125334 0.992115 0
    outer loop
      vertex -0.178012 -0.933172 2.7
      vertex -0.0596504 -0.948125 0
      vertex -0.178012 -0.933172 0
    endloop
  endfacet
  facet normal 0.36813 0.929774 -0
    outer loop
      vertex -0.293566 -0.903503 0
      vertex -0.40449 -0.859585 2.7
      vertex -0.293566 -0.903503 2.7
    endloop
  endfacet
  facet normal 0.36813 0.929774 0
    outer loop
      vertex -0.40449 -0.859585 2.7
      vertex -0.293566 -0.903503 0
      vertex -0.40449 -0.859585 0
    endloop
  endfacet
  facet normal 0.481752 0.876308 -0
    outer loop
      vertex -0.40449 -0.859585 0
      vertex -0.509035 -0.802111 2.7
      vertex -0.40449 -0.859585 2.7
    endloop
  endfacet
  facet normal 0.481752 0.876308 0
    outer loop
      vertex -0.509035 -0.802111 2.7
      vertex -0.40449 -0.859585 0
      vertex -0.509035 -0.802111 0
    endloop
  endfacet
  facet normal 0.587783 0.809019 -0
    outer loop
      vertex -0.509035 -0.802111 0
      vertex -0.605553 -0.731987 2.7
      vertex -0.509035 -0.802111 2.7
    endloop
  endfacet
  facet normal 0.587783 0.809019 0
    outer loop
      vertex -0.605553 -0.731987 2.7
      vertex -0.509035 -0.802111 0
      vertex -0.605553 -0.731987 0
    endloop
  endfacet
  facet normal -0.998027 -0.0627913 0
    outer loop
      vertex 10.95 18 0
      vertex 10.9425 18.1191 2.7
      vertex 10.9425 18.1191 0
    endloop
  endfacet
  facet normal -0.998027 -0.0627913 0
    outer loop
      vertex 10.9425 18.1191 2.7
      vertex 10.95 18 0
      vertex 10.95 18 2.7
    endloop
  endfacet
  facet normal 0 -1 0
    outer loop
      vertex 9.94035 18.9481 0
      vertex 10.0597 18.9481 2.7
      vertex 9.94035 18.9481 2.7
    endloop
  endfacet
  facet normal 0 -1 -0
    outer loop
      vertex 10.0597 18.9481 2.7
      vertex 9.94035 18.9481 0
      vertex 10.0597 18.9481 0
    endloop
  endfacet
  facet normal -0.684551 -0.728965 0
    outer loop
      vertex 10.6056 18.732 0
      vertex 10.6925 18.6503 2.7
      vertex 10.6056 18.732 2.7
    endloop
  endfacet
  facet normal -0.684551 -0.728965 -0
    outer loop
      vertex 10.6925 18.6503 2.7
      vertex 10.6056 18.732 0
      vertex 10.6925 18.6503 0
    endloop
  endfacet
  facet normal 0.77051 -0.637428 0
    outer loop
      vertex 9.23143 18.5584 2.7
      vertex 9.30748 18.6503 0
      vertex 9.30748 18.6503 2.7
    endloop
  endfacet
  facet normal 0.77051 -0.637428 0
    outer loop
      vertex 9.30748 18.6503 0
      vertex 9.23143 18.5584 2.7
      vertex 9.23143 18.5584 0
    endloop
  endfacet
  facet normal 0.481752 -0.876308 0
    outer loop
      vertex 9.49096 18.8021 0
      vertex 9.59551 18.8596 2.7
      vertex 9.49096 18.8021 2.7
    endloop
  endfacet
  facet normal 0.481752 -0.876308 0
    outer loop
      vertex 9.59551 18.8596 2.7
      vertex 9.49096 18.8021 0
      vertex 9.59551 18.8596 0
    endloop
  endfacet
  facet normal -0.904824 0.425785 0
    outer loop
      vertex 10.8325 17.5423 0
      vertex 10.8833 17.6503 2.7
      vertex 10.8833 17.6503 0
    endloop
  endfacet
  facet normal -0.904824 0.425785 0
    outer loop
      vertex 10.8833 17.6503 2.7
      vertex 10.8325 17.5423 0
      vertex 10.8325 17.5423 2.7
    endloop
  endfacet
  facet normal -0.904824 -0.425785 0
    outer loop
      vertex 10.8833 18.3497 0
      vertex 10.8325 18.4577 2.7
      vertex 10.8325 18.4577 0
    endloop
  endfacet
  facet normal -0.904824 -0.425785 0
    outer loop
      vertex 10.8325 18.4577 2.7
      vertex 10.8833 18.3497 0
      vertex 10.8833 18.3497 2.7
    endloop
  endfacet
  facet normal -0.844332 -0.535821 0
    outer loop
      vertex 10.8325 18.4577 0
      vertex 10.7686 18.5584 2.7
      vertex 10.7686 18.5584 0
    endloop
  endfacet
  facet normal -0.844332 -0.535821 0
    outer loop
      vertex 10.7686 18.5584 2.7
      vertex 10.8325 18.4577 0
      vertex 10.8325 18.4577 2.7
    endloop
  endfacet
  facet normal -0.36813 -0.929774 0
    outer loop
      vertex 10.2936 18.9035 0
      vertex 10.4045 18.8596 2.7
      vertex 10.2936 18.9035 2.7
    endloop
  endfacet
  facet normal -0.36813 -0.929774 -0
    outer loop
      vertex 10.4045 18.8596 2.7
      vertex 10.2936 18.9035 0
      vertex 10.4045 18.8596 0
    endloop
  endfacet
  facet normal -0.587783 -0.809019 0
    outer loop
      vertex 10.509 18.8021 0
      vertex 10.6056 18.732 2.7
      vertex 10.509 18.8021 2.7
    endloop
  endfacet
  facet normal -0.587783 -0.809019 -0
    outer loop
      vertex 10.6056 18.732 2.7
      vertex 10.509 18.8021 0
      vertex 10.6056 18.732 0
    endloop
  endfacet
  facet normal 0.951057 -0.309017 0
    outer loop
      vertex 9.07985 18.2363 2.7
      vertex 9.11671 18.3497 0
      vertex 9.11671 18.3497 2.7
    endloop
  endfacet
  facet normal 0.951057 -0.309017 0
    outer loop
      vertex 9.11671 18.3497 0
      vertex 9.07985 18.2363 2.7
      vertex 9.07985 18.2363 0
    endloop
  endfacet
  facet normal 0.904824 -0.425785 0
    outer loop
      vertex 9.11671 18.3497 2.7
      vertex 9.16751 18.4577 0
      vertex 9.16751 18.4577 2.7
    endloop
  endfacet
  facet normal 0.904824 -0.425785 0
    outer loop
      vertex 9.16751 18.4577 0
      vertex 9.11671 18.3497 2.7
      vertex 9.11671 18.3497 0
    endloop
  endfacet
  facet normal 0.587783 -0.809019 0
    outer loop
      vertex 9.39445 18.732 0
      vertex 9.49096 18.8021 2.7
      vertex 9.39445 18.732 2.7
    endloop
  endfacet
  facet normal 0.587783 -0.809019 0
    outer loop
      vertex 9.49096 18.8021 2.7
      vertex 9.39445 18.732 0
      vertex 9.49096 18.8021 0
    endloop
  endfacet
  facet normal 0.248687 -0.968584 0
    outer loop
      vertex 9.70643 18.9035 0
      vertex 9.82199 18.9332 2.7
      vertex 9.70643 18.9035 2.7
    endloop
  endfacet
  facet normal 0.248687 -0.968584 0
    outer loop
      vertex 9.82199 18.9332 2.7
      vertex 9.70643 18.9035 0
      vertex 9.82199 18.9332 0
    endloop
  endfacet
  facet normal -0.36813 0.929774 0
    outer loop
      vertex 10.4045 17.1404 0
      vertex 10.2936 17.0965 2.7
      vertex 10.4045 17.1404 2.7
    endloop
  endfacet
  facet normal -0.36813 0.929774 0
    outer loop
      vertex 10.2936 17.0965 2.7
      vertex 10.4045 17.1404 0
      vertex 10.2936 17.0965 0
    endloop
  endfacet
  facet normal -0.770516 0.63742 0
    outer loop
      vertex 10.6925 17.3497 0
      vertex 10.7686 17.4416 2.7
      vertex 10.7686 17.4416 0
    endloop
  endfacet
  facet normal -0.770516 0.63742 0
    outer loop
      vertex 10.7686 17.4416 2.7
      vertex 10.6925 17.3497 0
      vertex 10.6925 17.3497 2.7
    endloop
  endfacet
  facet normal -0.587793 0.809011 0
    outer loop
      vertex 10.6056 17.268 0
      vertex 10.509 17.1979 2.7
      vertex 10.6056 17.268 2.7
    endloop
  endfacet
  facet normal -0.587793 0.809011 0
    outer loop
      vertex 10.509 17.1979 2.7
      vertex 10.6056 17.268 0
      vertex 10.509 17.1979 0
    endloop
  endfacet
  facet normal 0.587793 0.809011 -0
    outer loop
      vertex 9.49096 17.1979 0
      vertex 9.39445 17.268 2.7
      vertex 9.49096 17.1979 2.7
    endloop
  endfacet
  facet normal 0.587793 0.809011 0
    outer loop
      vertex 9.39445 17.268 2.7
      vertex 9.49096 17.1979 0
      vertex 9.39445 17.268 0
    endloop
  endfacet
  facet normal 0.248702 0.96858 -0
    outer loop
      vertex 9.82199 17.0668 0
      vertex 9.70643 17.0965 2.7
      vertex 9.82199 17.0668 2.7
    endloop
  endfacet
  facet normal 0.248702 0.96858 0
    outer loop
      vertex 9.70643 17.0965 2.7
      vertex 9.82199 17.0668 0
      vertex 9.70643 17.0965 0
    endloop
  endfacet
  facet normal 0.844327 0.535828 0
    outer loop
      vertex 9.23143 17.4416 2.7
      vertex 9.16751 17.5423 0
      vertex 9.16751 17.5423 2.7
    endloop
  endfacet
  facet normal 0.844327 0.535828 0
    outer loop
      vertex 9.16751 17.5423 0
      vertex 9.23143 17.4416 2.7
      vertex 9.23143 17.4416 0
    endloop
  endfacet
  facet normal 0.770516 0.63742 0
    outer loop
      vertex 9.30748 17.3497 2.7
      vertex 9.23143 17.4416 0
      vertex 9.23143 17.4416 2.7
    endloop
  endfacet
  facet normal 0.770516 0.63742 0
    outer loop
      vertex 9.23143 17.4416 0
      vertex 9.30748 17.3497 2.7
      vertex 9.30748 17.3497 0
    endloop
  endfacet
  facet normal -0.951057 -0.309017 0
    outer loop
      vertex 10.9202 18.2363 0
      vertex 10.8833 18.3497 2.7
      vertex 10.8833 18.3497 0
    endloop
  endfacet
  facet normal -0.951057 -0.309017 0
    outer loop
      vertex 10.8833 18.3497 2.7
      vertex 10.9202 18.2363 0
      vertex 10.9202 18.2363 2.7
    endloop
  endfacet
  facet normal -0.982287 -0.187381 0
    outer loop
      vertex 10.9425 18.1191 0
      vertex 10.9202 18.2363 2.7
      vertex 10.9202 18.2363 0
    endloop
  endfacet
  facet normal -0.982287 -0.187381 0
    outer loop
      vertex 10.9202 18.2363 2.7
      vertex 10.9425 18.1191 0
      vertex 10.9425 18.1191 2.7
    endloop
  endfacet
  facet normal -0.77051 -0.637428 0
    outer loop
      vertex 10.7686 18.5584 0
      vertex 10.6925 18.6503 2.7
      vertex 10.6925 18.6503 0
    endloop
  endfacet
  facet normal -0.77051 -0.637428 0
    outer loop
      vertex 10.6925 18.6503 2.7
      vertex 10.7686 18.5584 0
      vertex 10.7686 18.5584 2.7
    endloop
  endfacet
  facet normal -0.248687 -0.968584 0
    outer loop
      vertex 10.178 18.9332 0
      vertex 10.2936 18.9035 2.7
      vertex 10.178 18.9332 2.7
    endloop
  endfacet
  facet normal -0.248687 -0.968584 -0
    outer loop
      vertex 10.2936 18.9035 2.7
      vertex 10.178 18.9332 0
      vertex 10.2936 18.9035 0
    endloop
  endfacet
  facet normal -0.125326 -0.992116 0
    outer loop
      vertex 10.0597 18.9481 0
      vertex 10.178 18.9332 2.7
      vertex 10.0597 18.9481 2.7
    endloop
  endfacet
  facet normal -0.125326 -0.992116 -0
    outer loop
      vertex 10.178 18.9332 2.7
      vertex 10.0597 18.9481 0
      vertex 10.178 18.9332 0
    endloop
  endfacet
  facet normal -0.481752 -0.876308 0
    outer loop
      vertex 10.4045 18.8596 0
      vertex 10.509 18.8021 2.7
      vertex 10.4045 18.8596 2.7
    endloop
  endfacet
  facet normal -0.481752 -0.876308 -0
    outer loop
      vertex 10.509 18.8021 2.7
      vertex 10.4045 18.8596 0
      vertex 10.509 18.8021 0
    endloop
  endfacet
  facet normal 0.844332 -0.535821 0
    outer loop
      vertex 9.16751 18.4577 2.7
      vertex 9.23143 18.5584 0
      vertex 9.23143 18.5584 2.7
    endloop
  endfacet
  facet normal 0.844332 -0.535821 0
    outer loop
      vertex 9.23143 18.5584 0
      vertex 9.16751 18.4577 2.7
      vertex 9.16751 18.4577 0
    endloop
  endfacet
  facet normal 0.982287 -0.187381 0
    outer loop
      vertex 9.05749 18.1191 2.7
      vertex 9.07985 18.2363 0
      vertex 9.07985 18.2363 2.7
    endloop
  endfacet
  facet normal 0.982287 -0.187381 0
    outer loop
      vertex 9.07985 18.2363 0
      vertex 9.05749 18.1191 2.7
      vertex 9.05749 18.1191 0
    endloop
  endfacet
  facet normal 0.998027 -0.0627913 0
    outer loop
      vertex 9.05 18 2.7
      vertex 9.05749 18.1191 0
      vertex 9.05749 18.1191 2.7
    endloop
  endfacet
  facet normal 0.998027 -0.0627913 0
    outer loop
      vertex 9.05749 18.1191 0
      vertex 9.05 18 2.7
      vertex 9.05 18 0
    endloop
  endfacet
  facet normal 0.998027 0.0627903 0
    outer loop
      vertex 9.05749 17.8809 2.7
      vertex 9.05 18 0
      vertex 9.05 18 2.7
    endloop
  endfacet
  facet normal 0.998027 0.0627903 0
    outer loop
      vertex 9.05 18 0
      vertex 9.05749 17.8809 2.7
      vertex 9.05749 17.8809 0
    endloop
  endfacet
  facet normal 0.684551 -0.728965 0
    outer loop
      vertex 9.30748 18.6503 0
      vertex 9.39445 18.732 2.7
      vertex 9.30748 18.6503 2.7
    endloop
  endfacet
  facet normal 0.684551 -0.728965 0
    outer loop
      vertex 9.39445 18.732 2.7
      vertex 9.30748 18.6503 0
      vertex 9.39445 18.732 0
    endloop
  endfacet
  facet normal 0.36813 -0.929774 0
    outer loop
      vertex 9.59551 18.8596 0
      vertex 9.70643 18.9035 2.7
      vertex 9.59551 18.8596 2.7
    endloop
  endfacet
  facet normal 0.36813 -0.929774 0
    outer loop
      vertex 9.70643 18.9035 2.7
      vertex 9.59551 18.8596 0
      vertex 9.70643 18.9035 0
    endloop
  endfacet
  facet normal 0.125326 -0.992116 0
    outer loop
      vertex 9.82199 18.9332 0
      vertex 9.94035 18.9481 2.7
      vertex 9.82199 18.9332 2.7
    endloop
  endfacet
  facet normal 0.125326 -0.992116 0
    outer loop
      vertex 9.94035 18.9481 2.7
      vertex 9.82199 18.9332 0
      vertex 9.94035 18.9481 0
    endloop
  endfacet
  facet normal -0.998027 0.0627903 0
    outer loop
      vertex 10.9425 17.8809 0
      vertex 10.95 18 2.7
      vertex 10.95 18 0
    endloop
  endfacet
  facet normal -0.998027 0.0627903 0
    outer loop
      vertex 10.95 18 2.7
      vertex 10.9425 17.8809 0
      vertex 10.9425 17.8809 2.7
    endloop
  endfacet
  facet normal -0.982287 0.187384 0
    outer loop
      vertex 10.9202 17.7637 0
      vertex 10.9425 17.8809 2.7
      vertex 10.9425 17.8809 0
    endloop
  endfacet
  facet normal -0.982287 0.187384 0
    outer loop
      vertex 10.9425 17.8809 2.7
      vertex 10.9202 17.7637 0
      vertex 10.9202 17.7637 2.7
    endloop
  endfacet
  facet normal -0.125326 0.992116 0
    outer loop
      vertex 10.178 17.0668 0
      vertex 10.0597 17.0519 2.7
      vertex 10.178 17.0668 2.7
    endloop
  endfacet
  facet normal -0.125326 0.992116 0
    outer loop
      vertex 10.0597 17.0519 2.7
      vertex 10.178 17.0668 0
      vertex 10.0597 17.0519 0
    endloop
  endfacet
  facet normal -0.684543 0.728973 0
    outer loop
      vertex 10.6925 17.3497 0
      vertex 10.6056 17.268 2.7
      vertex 10.6925 17.3497 2.7
    endloop
  endfacet
  facet normal -0.684543 0.728973 0
    outer loop
      vertex 10.6056 17.268 2.7
      vertex 10.6925 17.3497 0
      vertex 10.6056 17.268 0
    endloop
  endfacet
  facet normal -0.844327 0.535828 0
    outer loop
      vertex 10.7686 17.4416 0
      vertex 10.8325 17.5423 2.7
      vertex 10.8325 17.5423 0
    endloop
  endfacet
  facet normal -0.844327 0.535828 0
    outer loop
      vertex 10.8325 17.5423 2.7
      vertex 10.7686 17.4416 0
      vertex 10.7686 17.4416 2.7
    endloop
  endfacet
  facet normal 0.48174 0.876314 -0
    outer loop
      vertex 9.59551 17.1404 0
      vertex 9.49096 17.1979 2.7
      vertex 9.59551 17.1404 2.7
    endloop
  endfacet
  facet normal 0.48174 0.876314 0
    outer loop
      vertex 9.49096 17.1979 2.7
      vertex 9.59551 17.1404 0
      vertex 9.49096 17.1979 0
    endloop
  endfacet
  facet normal 0 1 -0
    outer loop
      vertex 10.0597 17.0519 0
      vertex 9.94035 17.0519 2.7
      vertex 10.0597 17.0519 2.7
    endloop
  endfacet
  facet normal 0 1 0
    outer loop
      vertex 9.94035 17.0519 2.7
      vertex 10.0597 17.0519 0
      vertex 9.94035 17.0519 0
    endloop
  endfacet
  facet normal 0.684543 0.728973 -0
    outer loop
      vertex 9.39445 17.268 0
      vertex 9.30748 17.3497 2.7
      vertex 9.39445 17.268 2.7
    endloop
  endfacet
  facet normal 0.684543 0.728973 0
    outer loop
      vertex 9.30748 17.3497 2.7
      vertex 9.39445 17.268 0
      vertex 9.30748 17.3497 0
    endloop
  endfacet
  facet normal 0.904824 0.425785 0
    outer loop
      vertex 9.16751 17.5423 2.7
      vertex 9.11671 17.6503 0
      vertex 9.11671 17.6503 2.7
    endloop
  endfacet
  facet normal 0.904824 0.425785 0
    outer loop
      vertex 9.11671 17.6503 0
      vertex 9.16751 17.5423 2.7
      vertex 9.16751 17.5423 0
    endloop
  endfacet
  facet normal 0.982287 0.187384 0
    outer loop
      vertex 9.07985 17.7637 2.7
      vertex 9.05749 17.8809 0
      vertex 9.05749 17.8809 2.7
    endloop
  endfacet
  facet normal 0.982287 0.187384 0
    outer loop
      vertex 9.05749 17.8809 0
      vertex 9.07985 17.7637 2.7
      vertex 9.07985 17.7637 0
    endloop
  endfacet
  facet normal -0.951058 0.309012 0
    outer loop
      vertex 10.8833 17.6503 0
      vertex 10.9202 17.7637 2.7
      vertex 10.9202 17.7637 0
    endloop
  endfacet
  facet normal -0.951058 0.309012 0
    outer loop
      vertex 10.9202 17.7637 2.7
      vertex 10.8833 17.6503 0
      vertex 10.8833 17.6503 2.7
    endloop
  endfacet
  facet normal -0.248702 0.96858 0
    outer loop
      vertex 10.2936 17.0965 0
      vertex 10.178 17.0668 2.7
      vertex 10.2936 17.0965 2.7
    endloop
  endfacet
  facet normal -0.248702 0.96858 0
    outer loop
      vertex 10.178 17.0668 2.7
      vertex 10.2936 17.0965 0
      vertex 10.178 17.0668 0
    endloop
  endfacet
  facet normal -0.48174 0.876314 0
    outer loop
      vertex 10.509 17.1979 0
      vertex 10.4045 17.1404 2.7
      vertex 10.509 17.1979 2.7
    endloop
  endfacet
  facet normal -0.48174 0.876314 0
    outer loop
      vertex 10.4045 17.1404 2.7
      vertex 10.509 17.1979 0
      vertex 10.4045 17.1404 0
    endloop
  endfacet
  facet normal 0.36813 0.929774 -0
    outer loop
      vertex 9.70643 17.0965 0
      vertex 9.59551 17.1404 2.7
      vertex 9.70643 17.0965 2.7
    endloop
  endfacet
  facet normal 0.36813 0.929774 0
    outer loop
      vertex 9.59551 17.1404 2.7
      vertex 9.70643 17.0965 0
      vertex 9.59551 17.1404 0
    endloop
  endfacet
  facet normal 0.125326 0.992116 -0
    outer loop
      vertex 9.94035 17.0519 0
      vertex 9.82199 17.0668 2.7
      vertex 9.94035 17.0519 2.7
    endloop
  endfacet
  facet normal 0.125326 0.992116 0
    outer loop
      vertex 9.82199 17.0668 2.7
      vertex 9.94035 17.0519 0
      vertex 9.82199 17.0668 0
    endloop
  endfacet
  facet normal 0.951058 0.309012 0
    outer loop
      vertex 9.11671 17.6503 2.7
      vertex 9.07985 17.7637 0
      vertex 9.07985 17.7637 2.7
    endloop
  endfacet
  facet normal 0.951058 0.309012 0
    outer loop
      vertex 9.07985 17.7637 0
      vertex 9.11671 17.6503 2.7
      vertex 9.11671 17.6503 0
    endloop
  endfacet
endsolid OpenSCAD_Model
