solid OpenSCAD_Model
  facet normal -0.998027 -0.0627911 0
    outer loop
      vertex -2.48029 -0.313333 0
      vertex -2.5 0 2.7
      vertex -2.5 0 0
    endloop
  endfacet
  facet normal -0.998027 -0.0627911 0
    outer loop
      vertex -2.5 0 2.7
      vertex -2.48029 -0.313333 0
      vertex -2.48029 -0.313333 2.7
    endloop
  endfacet
  facet normal 0.982287 -0.187383 0
    outer loop
      vertex 10.4215 17.3783 2.7
      vertex 10.4803 17.6867 0
      vertex 10.4803 17.6867 2.7
    endloop
  endfacet
  facet normal 0.982287 -0.187383 0
    outer loop
      vertex 10.4803 17.6867 0
      vertex 10.4215 17.3783 2.7
      vertex 10.4215 17.3783 0
    endloop
  endfacet
  facet normal 0 0 -1
    outer loop
      vertex 9.5 18 0
      vertex 10.5 18 0
      vertex 10.4803 17.6867 0
    endloop
  endfacet
  facet normal 0 0 -1
    outer loop
      vertex 10.5 23 0
      vertex 13.3 43 0
      vertex 13.3 23 0
    endloop
  endfacet
  facet normal 0 0 -1
    outer loop
      vertex 9.48817 17.812 0
      vertex 10.4803 17.6867 0
      vertex 10.4215 17.3783 0
    endloop
  endfacet
  facet normal 0 0 -1
    outer loop
      vertex 9.45287 17.627 0
      vertex 10.4215 17.3783 0
      vertex 10.3244 17.0797 0
    endloop
  endfacet
  facet normal 0 0 -1
    outer loop
      vertex 10.5 18 0
      vertex 9.5 18 0
      vertex 9.48817 18.188 0
    endloop
  endfacet
  facet normal 0 0 -1
    outer loop
      vertex 10.5 18 0
      vertex 9.48817 18.188 0
      vertex 9.45287 18.373 0
    endloop
  endfacet
  facet normal 0 0 -1
    outer loop
      vertex 10.5 18 0
      vertex 9.45287 18.373 0
      vertex 9.39466 18.5522 0
    endloop
  endfacet
  facet normal 0 0 -1
    outer loop
      vertex 10.5 18 0
      vertex 9.39466 18.5522 0
      vertex 9.31446 18.7226 0
    endloop
  endfacet
  facet normal 0 0 -1
    outer loop
      vertex 9.21352 18.8817 0
      vertex 10.5 18 0
      vertex 9.31446 18.7226 0
    endloop
  endfacet
  facet normal 0 0 -1
    outer loop
      vertex 10.5 18 0
      vertex 9.21352 18.8817 0
      vertex 10.5 23 0
    endloop
  endfacet
  facet normal 0 0 -1
    outer loop
      vertex 9.09345 19.0268 0
      vertex 10.5 23 0
      vertex 9.21352 18.8817 0
    endloop
  endfacet
  facet normal 0 0 -1
    outer loop
      vertex 8.95614 19.1558 0
      vertex 10.5 23 0
      vertex 9.09345 19.0268 0
    endloop
  endfacet
  facet normal 0 0 -1
    outer loop
      vertex 8.80374 19.2665 0
      vertex 10.5 23 0
      vertex 8.95614 19.1558 0
    endloop
  endfacet
  facet normal 0 0 -1
    outer loop
      vertex 8.63867 19.3572 0
      vertex 10.5 23 0
      vertex 8.80374 19.2665 0
    endloop
  endfacet
  facet normal 0 0 -1
    outer loop
      vertex 8.46352 19.4266 0
      vertex 10.5 23 0
      vertex 8.63867 19.3572 0
    endloop
  endfacet
  facet normal 0 0 -1
    outer loop
      vertex 8.28107 19.4734 0
      vertex 10.5 23 0
      vertex 8.46352 19.4266 0
    endloop
  endfacet
  facet normal 0 0 -1
    outer loop
      vertex 8.09418 19.497 0
      vertex 10.5 23 0
      vertex 8.28107 19.4734 0
    endloop
  endfacet
  facet normal 0 0 -1
    outer loop
      vertex 7.90581 19.497 0
      vertex 10.5 23 0
      vertex 8.09418 19.497 0
    endloop
  endfacet
  facet normal 0 0 -1
    outer loop
      vertex 7.71893 19.4734 0
      vertex 10.5 23 0
      vertex 7.90581 19.497 0
    endloop
  endfacet
  facet normal 0 0 -1
    outer loop
      vertex 7.53647 19.4266 0
      vertex 10.5 23 0
      vertex 7.71893 19.4734 0
    endloop
  endfacet
  facet normal 0 0 -1
    outer loop
      vertex 7.36133 19.3572 0
      vertex 10.5 23 0
      vertex 7.53647 19.4266 0
    endloop
  endfacet
  facet normal 0 0 -1
    outer loop
      vertex 7.19626 19.2665 0
      vertex 10.5 23 0
      vertex 7.36133 19.3572 0
    endloop
  endfacet
  facet normal 0 0 -1
    outer loop
      vertex 10.5 23 0
      vertex 7.19626 19.2665 0
      vertex 5.5 18.5253 0
    endloop
  endfacet
  facet normal 0 0 -1
    outer loop
      vertex 5.5 18.5253 0
      vertex 7.19626 19.2665 0
      vertex 7.04386 19.1558 0
    endloop
  endfacet
  facet normal 0 0 -1
    outer loop
      vertex 5.5 18.5253 0
      vertex 7.04386 19.1558 0
      vertex 6.90655 19.0268 0
    endloop
  endfacet
  facet normal 0 0 -1
    outer loop
      vertex 5.5 18.5253 0
      vertex 6.90655 19.0268 0
      vertex 6.78647 18.8817 0
    endloop
  endfacet
  facet normal 0 0 -1
    outer loop
      vertex 5.5 18.5253 0
      vertex 6.78647 18.8817 0
      vertex 6.68554 18.7226 0
    endloop
  endfacet
  facet normal 0 0 -1
    outer loop
      vertex 5.5 18.5253 0
      vertex 6.68554 18.7226 0
      vertex 6.60534 18.5522 0
    endloop
  endfacet
  facet normal 0 0 -1
    outer loop
      vertex 5.5 18.5253 0
      vertex 6.60534 18.5522 0
      vertex 6.54712 18.373 0
    endloop
  endfacet
  facet normal 0 0 -1
    outer loop
      vertex 5.5 18.5253 0
      vertex 6.51183 18.188 0
      vertex 6.5 18 0
    endloop
  endfacet
  facet normal 0 0 -1
    outer loop
      vertex 5.5 18.5253 0
      vertex 6.54712 18.373 0
      vertex 6.51183 18.188 0
    endloop
  endfacet
  facet normal -0 0 -1
    outer loop
      vertex 10.5 23 0
      vertex 5.5 18.5253 0
      vertex 5.5 43 0
    endloop
  endfacet
  facet normal 0 0 -1
    outer loop
      vertex 10.5 23 0
      vertex 5.5 43 0
      vertex 13.3 43 0
    endloop
  endfacet
  facet normal 0 0 -1
    outer loop
      vertex 2.32444 -0.920311 0
      vertex 1.48817 -0.188 0
      vertex 1.5 0 0
    endloop
  endfacet
  facet normal 0 0 -1
    outer loop
      vertex 1.82242 -1.71137 0
      vertex 1.45287 -0.373034 0
      vertex 1.48817 -0.188 0
    endloop
  endfacet
  facet normal 0 0 -1
    outer loop
      vertex 1.82242 -1.71137 0
      vertex 1.39466 -0.552186 0
      vertex 1.45287 -0.373034 0
    endloop
  endfacet
  facet normal 0 0 -1
    outer loop
      vertex 0.956136 -1.15577 0
      vertex 1.59356 -1.92628 0
      vertex 1.33957 -2.11082 0
    endloop
  endfacet
  facet normal 0 0 -1
    outer loop
      vertex 1.82242 -1.71137 0
      vertex 1.31446 -0.722631 0
      vertex 1.39466 -0.552186 0
    endloop
  endfacet
  facet normal 0 0 -1
    outer loop
      vertex 1.82242 -1.71137 0
      vertex 1.21352 -0.881678 0
      vertex 1.31446 -0.722631 0
    endloop
  endfacet
  facet normal 0 0 -1
    outer loop
      vertex 1.82242 -1.71137 0
      vertex 1.09345 -1.02682 0
      vertex 1.21352 -0.881678 0
    endloop
  endfacet
  facet normal 0 0 -1
    outer loop
      vertex 0.80374 -1.26649 0
      vertex 1.33957 -2.11082 0
      vertex 1.06445 -2.26207 0
    endloop
  endfacet
  facet normal 0 0 -1
    outer loop
      vertex 1.59356 -1.92628 0
      vertex 0.956136 -1.15577 0
      vertex 1.09345 -1.02682 0
    endloop
  endfacet
  facet normal 0 0 -1
    outer loop
      vertex 1.33957 -2.11082 0
      vertex 0.80374 -1.26649 0
      vertex 0.956136 -1.15577 0
    endloop
  endfacet
  facet normal 0 0 -1
    outer loop
      vertex 0.638668 -1.35724 0
      vertex 1.06445 -2.26207 0
      vertex 0.772542 -2.37764 0
    endloop
  endfacet
  facet normal 0 0 -1
    outer loop
      vertex 1.06445 -2.26207 0
      vertex 0.638668 -1.35724 0
      vertex 0.80374 -1.26649 0
    endloop
  endfacet
  facet normal 0 0 -1
    outer loop
      vertex 0.463525 -1.42658 0
      vertex 0.772542 -2.37764 0
      vertex 0.468452 -2.45572 0
    endloop
  endfacet
  facet normal 0 0 -1
    outer loop
      vertex 0.772542 -2.37764 0
      vertex 0.463525 -1.42658 0
      vertex 0.638668 -1.35724 0
    endloop
  endfacet
  facet normal 0 0 -1
    outer loop
      vertex 0.468452 -2.45572 0
      vertex 0.281072 -1.47343 0
      vertex 0.463525 -1.42658 0
    endloop
  endfacet
  facet normal 0 0 -1
    outer loop
      vertex 0.156976 -2.49507 0
      vertex 0.281072 -1.47343 0
      vertex 0.468452 -2.45572 0
    endloop
  endfacet
  facet normal 0 0 -1
    outer loop
      vertex 0.156976 -2.49507 0
      vertex 0.0941849 -1.49704 0
      vertex 0.281072 -1.47343 0
    endloop
  endfacet
  facet normal 0 0 -1
    outer loop
      vertex 0.156976 -2.49507 0
      vertex -0.0941849 -1.49704 0
      vertex 0.0941849 -1.49704 0
    endloop
  endfacet
  facet normal 0 0 -1
    outer loop
      vertex -0.156976 -2.49507 0
      vertex -0.0941849 -1.49704 0
      vertex 0.156976 -2.49507 0
    endloop
  endfacet
  facet normal 0 0 -1
    outer loop
      vertex -0.156976 -2.49507 0
      vertex -0.281072 -1.47343 0
      vertex -0.0941849 -1.49704 0
    endloop
  endfacet
  facet normal 0 0 -1
    outer loop
      vertex -0.468452 -2.45572 0
      vertex -0.281072 -1.47343 0
      vertex -0.156976 -2.49507 0
    endloop
  endfacet
  facet normal -0 0 -1
    outer loop
      vertex -0.281072 -1.47343 0
      vertex -0.468452 -2.45572 0
      vertex -0.463525 -1.42658 0
    endloop
  endfacet
  facet normal 0 0 -1
    outer loop
      vertex -0.772542 -2.37764 0
      vertex -0.463525 -1.42658 0
      vertex -0.468452 -2.45572 0
    endloop
  endfacet
  facet normal -0 0 -1
    outer loop
      vertex -0.463525 -1.42658 0
      vertex -0.772542 -2.37764 0
      vertex -0.638668 -1.35724 0
    endloop
  endfacet
  facet normal 0 0 -1
    outer loop
      vertex -1.06445 -2.26207 0
      vertex -0.638668 -1.35724 0
      vertex -0.772542 -2.37764 0
    endloop
  endfacet
  facet normal -0 0 -1
    outer loop
      vertex -0.638668 -1.35724 0
      vertex -1.06445 -2.26207 0
      vertex -0.80374 -1.26649 0
    endloop
  endfacet
  facet normal 0 0 -1
    outer loop
      vertex -1.33957 -2.11082 0
      vertex -0.80374 -1.26649 0
      vertex -1.06445 -2.26207 0
    endloop
  endfacet
  facet normal -0 0 -1
    outer loop
      vertex -0.80374 -1.26649 0
      vertex -1.33957 -2.11082 0
      vertex -0.956136 -1.15577 0
    endloop
  endfacet
  facet normal 0 0 -1
    outer loop
      vertex -1.59356 -1.92628 0
      vertex -0.956136 -1.15577 0
      vertex -1.33957 -2.11082 0
    endloop
  endfacet
  facet normal -0 0 -1
    outer loop
      vertex -0.956136 -1.15577 0
      vertex -1.59356 -1.92628 0
      vertex -1.09345 -1.02682 0
    endloop
  endfacet
  facet normal 0 0 -1
    outer loop
      vertex -1.82242 -1.71137 0
      vertex -1.09345 -1.02682 0
      vertex -1.59356 -1.92628 0
    endloop
  endfacet
  facet normal -0 0 -1
    outer loop
      vertex -1.09345 -1.02682 0
      vertex -1.82242 -1.71137 0
      vertex -1.21352 -0.881678 0
    endloop
  endfacet
  facet normal 0 0 -1
    outer loop
      vertex -2.02254 -1.46946 0
      vertex -1.21352 -0.881678 0
      vertex -1.82242 -1.71137 0
    endloop
  endfacet
  facet normal -0 0 -1
    outer loop
      vertex -1.21352 -0.881678 0
      vertex -2.02254 -1.46946 0
      vertex -1.31446 -0.722631 0
    endloop
  endfacet
  facet normal -0 0 -1
    outer loop
      vertex -1.31446 -0.722631 0
      vertex -2.19077 -1.20438 0
      vertex -1.39466 -0.552186 0
    endloop
  endfacet
  facet normal 0 0 -1
    outer loop
      vertex -2.19077 -1.20438 0
      vertex -1.31446 -0.722631 0
      vertex -2.02254 -1.46946 0
    endloop
  endfacet
  facet normal 0 0 -1
    outer loop
      vertex 10.4803 17.6867 0
      vertex 9.48817 17.812 0
      vertex 9.5 18 0
    endloop
  endfacet
  facet normal 0 0 -1
    outer loop
      vertex 10.4215 17.3783 0
      vertex 9.45287 17.627 0
      vertex 9.48817 17.812 0
    endloop
  endfacet
  facet normal 0 0 -1
    outer loop
      vertex 10.3244 17.0797 0
      vertex 9.39466 17.4478 0
      vertex 9.45287 17.627 0
    endloop
  endfacet
  facet normal 0 0 -1
    outer loop
      vertex 10.3244 17.0797 0
      vertex 9.31446 17.2774 0
      vertex 9.39466 17.4478 0
    endloop
  endfacet
  facet normal 0 0 -1
    outer loop
      vertex 10.3244 17.0797 0
      vertex 9.21352 17.1183 0
      vertex 9.31446 17.2774 0
    endloop
  endfacet
  facet normal -0 0 -1
    outer loop
      vertex 10.3244 17.0797 0
      vertex 9.09345 16.9732 0
      vertex 9.21352 17.1183 0
    endloop
  endfacet
  facet normal 0 0 -1
    outer loop
      vertex 10.3244 17.0797 0
      vertex 8.95614 16.8442 0
      vertex 9.09345 16.9732 0
    endloop
  endfacet
  facet normal 0 0 -1
    outer loop
      vertex 10.3244 17.0797 0
      vertex 8.80374 16.7335 0
      vertex 8.95614 16.8442 0
    endloop
  endfacet
  facet normal 0 0 -1
    outer loop
      vertex 10.3244 17.0797 0
      vertex 8.63867 16.6428 0
      vertex 8.80374 16.7335 0
    endloop
  endfacet
  facet normal 0 0 -1
    outer loop
      vertex 10.3244 17.0797 0
      vertex 8.46352 16.5734 0
      vertex 8.63867 16.6428 0
    endloop
  endfacet
  facet normal 0 0 -1
    outer loop
      vertex 6.51183 17.812 0
      vertex 5.5 18.5253 0
      vertex 6.5 18 0
    endloop
  endfacet
  facet normal 0 0 -1
    outer loop
      vertex 6.54712 17.627 0
      vertex 5.5 18.5253 0
      vertex 6.51183 17.812 0
    endloop
  endfacet
  facet normal 0 0 -1
    outer loop
      vertex 6.60534 17.4478 0
      vertex 5.5 18.5253 0
      vertex 6.54712 17.627 0
    endloop
  endfacet
  facet normal 0 0 -1
    outer loop
      vertex 6.68554 17.2774 0
      vertex 5.5 18.5253 0
      vertex 6.60534 17.4478 0
    endloop
  endfacet
  facet normal 0 0 -1
    outer loop
      vertex 6.78647 17.1183 0
      vertex 5.5 18.5253 0
      vertex 6.68554 17.2774 0
    endloop
  endfacet
  facet normal 0 0 -1
    outer loop
      vertex -0.0941849 1.49704 0
      vertex 6.78647 17.1183 0
      vertex 6.90655 16.9732 0
    endloop
  endfacet
  facet normal 0 0 -1
    outer loop
      vertex 2.32444 -0.920311 0
      vertex 8.46352 16.5734 0
      vertex 10.3244 17.0797 0
    endloop
  endfacet
  facet normal 0 0 -1
    outer loop
      vertex 1.31446 0.722631 0
      vertex 8.46352 16.5734 0
      vertex 2.32444 -0.920311 0
    endloop
  endfacet
  facet normal 0 0 -1
    outer loop
      vertex 8.46352 16.5734 0
      vertex 1.31446 0.722631 0
      vertex 8.28107 16.5266 0
    endloop
  endfacet
  facet normal 0 0 -1
    outer loop
      vertex 1.21352 0.881678 0
      vertex 8.28107 16.5266 0
      vertex 1.31446 0.722631 0
    endloop
  endfacet
  facet normal 0 0 -1
    outer loop
      vertex 8.28107 16.5266 0
      vertex 1.21352 0.881678 0
      vertex 8.09418 16.503 0
    endloop
  endfacet
  facet normal 0 0 -1
    outer loop
      vertex 1.09345 1.02682 0
      vertex 8.09418 16.503 0
      vertex 1.21352 0.881678 0
    endloop
  endfacet
  facet normal -0 0 -1
    outer loop
      vertex 8.09418 16.503 0
      vertex 1.09345 1.02682 0
      vertex 7.90581 16.503 0
    endloop
  endfacet
  facet normal 0 0 -1
    outer loop
      vertex 0.956136 1.15577 0
      vertex 7.90581 16.503 0
      vertex 1.09345 1.02682 0
    endloop
  endfacet
  facet normal -0 0 -1
    outer loop
      vertex 7.90581 16.503 0
      vertex 0.956136 1.15577 0
      vertex 7.71893 16.5266 0
    endloop
  endfacet
  facet normal 0 0 -1
    outer loop
      vertex 0.80374 1.26649 0
      vertex 7.71893 16.5266 0
      vertex 0.956136 1.15577 0
    endloop
  endfacet
  facet normal -0 0 -1
    outer loop
      vertex 7.71893 16.5266 0
      vertex 0.80374 1.26649 0
      vertex 7.53647 16.5734 0
    endloop
  endfacet
  facet normal 0 0 -1
    outer loop
      vertex 1.48817 -0.188 0
      vertex 2.32444 -0.920311 0
      vertex 2.19077 -1.20438 0
    endloop
  endfacet
  facet normal 0 0 -1
    outer loop
      vertex 1.48817 -0.188 0
      vertex 2.19077 -1.20438 0
      vertex 2.02254 -1.46946 0
    endloop
  endfacet
  facet normal 0 0 -1
    outer loop
      vertex 1.48817 -0.188 0
      vertex 2.02254 -1.46946 0
      vertex 1.82242 -1.71137 0
    endloop
  endfacet
  facet normal 0 0 -1
    outer loop
      vertex 1.09345 -1.02682 0
      vertex 1.82242 -1.71137 0
      vertex 1.59356 -1.92628 0
    endloop
  endfacet
  facet normal 0 0 -1
    outer loop
      vertex 2.32444 -0.920311 0
      vertex 1.5 0 0
      vertex 1.48817 0.188 0
    endloop
  endfacet
  facet normal 0 0 -1
    outer loop
      vertex 2.32444 -0.920311 0
      vertex 1.48817 0.188 0
      vertex 1.45287 0.373034 0
    endloop
  endfacet
  facet normal 0 0 -1
    outer loop
      vertex 2.32444 -0.920311 0
      vertex 1.45287 0.373034 0
      vertex 1.39466 0.552186 0
    endloop
  endfacet
  facet normal 0 0 -1
    outer loop
      vertex 1.31446 0.722631 0
      vertex 2.32444 -0.920311 0
      vertex 1.39466 0.552186 0
    endloop
  endfacet
  facet normal 0 0 -1
    outer loop
      vertex 0.638668 1.35724 0
      vertex 7.53647 16.5734 0
      vertex 0.80374 1.26649 0
    endloop
  endfacet
  facet normal -0 0 -1
    outer loop
      vertex 7.53647 16.5734 0
      vertex 0.638668 1.35724 0
      vertex 7.36133 16.6428 0
    endloop
  endfacet
  facet normal 0 0 -1
    outer loop
      vertex 0.463525 1.42658 0
      vertex 7.36133 16.6428 0
      vertex 0.638668 1.35724 0
    endloop
  endfacet
  facet normal -0 0 -1
    outer loop
      vertex 7.36133 16.6428 0
      vertex 0.463525 1.42658 0
      vertex 7.19626 16.7335 0
    endloop
  endfacet
  facet normal 0 0 -1
    outer loop
      vertex 0.281072 1.47343 0
      vertex 7.19626 16.7335 0
      vertex 0.463525 1.42658 0
    endloop
  endfacet
  facet normal -0 0 -1
    outer loop
      vertex 7.19626 16.7335 0
      vertex 0.281072 1.47343 0
      vertex 7.04386 16.8442 0
    endloop
  endfacet
  facet normal 0 0 -1
    outer loop
      vertex 0.0941849 1.49704 0
      vertex 7.04386 16.8442 0
      vertex 0.281072 1.47343 0
    endloop
  endfacet
  facet normal -0 0 -1
    outer loop
      vertex 7.04386 16.8442 0
      vertex 0.0941849 1.49704 0
      vertex 6.90655 16.9732 0
    endloop
  endfacet
  facet normal 0 0 -1
    outer loop
      vertex -0.0941849 1.49704 0
      vertex 6.90655 16.9732 0
      vertex 0.0941849 1.49704 0
    endloop
  endfacet
  facet normal -0 0 -1
    outer loop
      vertex 6.78647 17.1183 0
      vertex -0.0941849 1.49704 0
      vertex 5.5 18.5253 0
    endloop
  endfacet
  facet normal 0 0 -1
    outer loop
      vertex -0.281072 1.47343 0
      vertex 5.5 18.5253 0
      vertex -0.0941849 1.49704 0
    endloop
  endfacet
  facet normal 0 0 -1
    outer loop
      vertex -0.463525 1.42658 0
      vertex 5.5 18.5253 0
      vertex -0.281072 1.47343 0
    endloop
  endfacet
  facet normal 0 0 -1
    outer loop
      vertex -2.32444 0.920311 0
      vertex -0.463525 1.42658 0
      vertex -0.638668 1.35724 0
    endloop
  endfacet
  facet normal 0 0 -1
    outer loop
      vertex -2.32444 0.920311 0
      vertex -0.638668 1.35724 0
      vertex -0.80374 1.26649 0
    endloop
  endfacet
  facet normal 0 0 -1
    outer loop
      vertex -2.32444 0.920311 0
      vertex -0.80374 1.26649 0
      vertex -0.956136 1.15577 0
    endloop
  endfacet
  facet normal 0 0 -1
    outer loop
      vertex -2.32444 0.920311 0
      vertex -0.956136 1.15577 0
      vertex -1.09345 1.02682 0
    endloop
  endfacet
  facet normal 0 0 -1
    outer loop
      vertex -2.32444 0.920311 0
      vertex -1.09345 1.02682 0
      vertex -1.21352 0.881678 0
    endloop
  endfacet
  facet normal 0 0 -1
    outer loop
      vertex -2.32444 0.920311 0
      vertex -1.21352 0.881678 0
      vertex -1.31446 0.722631 0
    endloop
  endfacet
  facet normal 0 0 -1
    outer loop
      vertex -2.32444 0.920311 0
      vertex -1.31446 0.722631 0
      vertex -1.39466 0.552186 0
    endloop
  endfacet
  facet normal 0 0 -1
    outer loop
      vertex -2.32444 -0.920311 0
      vertex -1.39466 -0.552186 0
      vertex -2.19077 -1.20438 0
    endloop
  endfacet
  facet normal -0 0 -1
    outer loop
      vertex -1.39466 -0.552186 0
      vertex -2.32444 -0.920311 0
      vertex -1.45287 -0.373034 0
    endloop
  endfacet
  facet normal 0 0 -1
    outer loop
      vertex -2.42146 -0.621724 0
      vertex -1.45287 -0.373034 0
      vertex -2.32444 -0.920311 0
    endloop
  endfacet
  facet normal -0 0 -1
    outer loop
      vertex -1.45287 -0.373034 0
      vertex -2.42146 -0.621724 0
      vertex -1.48817 -0.188 0
    endloop
  endfacet
  facet normal 0 0 -1
    outer loop
      vertex -2.48029 -0.313333 0
      vertex -1.48817 -0.188 0
      vertex -2.42146 -0.621724 0
    endloop
  endfacet
  facet normal -0 0 -1
    outer loop
      vertex -1.48817 -0.188 0
      vertex -2.48029 -0.313333 0
      vertex -1.5 0 0
    endloop
  endfacet
  facet normal 0 0 -1
    outer loop
      vertex -2.5 0 0
      vertex -1.5 0 0
      vertex -2.48029 -0.313333 0
    endloop
  endfacet
  facet normal 0 0 -1
    outer loop
      vertex -1.5 0 0
      vertex -2.5 0 0
      vertex -1.48817 0.188 0
    endloop
  endfacet
  facet normal -0 0 -1
    outer loop
      vertex -0.463525 1.42658 0
      vertex -2.32444 0.920311 0
      vertex 5.5 18.5253 0
    endloop
  endfacet
  facet normal 0 -0 -1
    outer loop
      vertex -2.48029 0.313333 0
      vertex -1.48817 0.188 0
      vertex -2.5 0 0
    endloop
  endfacet
  facet normal 0 0 -1
    outer loop
      vertex -1.39466 0.552186 0
      vertex -2.42146 0.621724 0
      vertex -2.32444 0.920311 0
    endloop
  endfacet
  facet normal 0 0 -1
    outer loop
      vertex -1.48817 0.188 0
      vertex -2.48029 0.313333 0
      vertex -1.45287 0.373034 0
    endloop
  endfacet
  facet normal 0 0 -1
    outer loop
      vertex -1.45287 0.373034 0
      vertex -2.42146 0.621724 0
      vertex -1.39466 0.552186 0
    endloop
  endfacet
  facet normal 0 -0 -1
    outer loop
      vertex -2.42146 0.621724 0
      vertex -1.45287 0.373034 0
      vertex -2.48029 0.313333 0
    endloop
  endfacet
  facet normal -0.913812 0.406138 0
    outer loop
      vertex -2.32444 0.920311 0
      vertex 5.5 18.5253 2.7
      vertex 5.5 18.5253 0
    endloop
  endfacet
  facet normal -0.913812 0.406138 0
    outer loop
      vertex 5.5 18.5253 2.7
      vertex -2.32444 0.920311 0
      vertex -2.32444 0.920311 2.7
    endloop
  endfacet
  facet normal 0.770514 -0.637423 0
    outer loop
      vertex 1.82242 -1.71137 2.7
      vertex 2.02254 -1.46946 0
      vertex 2.02254 -1.46946 2.7
    endloop
  endfacet
  facet normal 0.770514 -0.637423 0
    outer loop
      vertex 2.02254 -1.46946 0
      vertex 1.82242 -1.71137 2.7
      vertex 1.82242 -1.71137 0
    endloop
  endfacet
  facet normal 0.481754 -0.876307 0
    outer loop
      vertex 1.06445 -2.26207 0
      vertex 1.33957 -2.11082 2.7
      vertex 1.06445 -2.26207 2.7
    endloop
  endfacet
  facet normal 0.481754 -0.876307 0
    outer loop
      vertex 1.33957 -2.11082 2.7
      vertex 1.06445 -2.26207 0
      vertex 1.33957 -2.11082 0
    endloop
  endfacet
  facet normal 0.368126 -0.929776 0
    outer loop
      vertex 0.772542 -2.37764 0
      vertex 1.06445 -2.26207 2.7
      vertex 0.772542 -2.37764 2.7
    endloop
  endfacet
  facet normal 0.368126 -0.929776 0
    outer loop
      vertex 1.06445 -2.26207 2.7
      vertex 0.772542 -2.37764 0
      vertex 1.06445 -2.26207 0
    endloop
  endfacet
  facet normal -0.844327 -0.535828 0
    outer loop
      vertex -2.02254 -1.46946 0
      vertex -2.19077 -1.20438 2.7
      vertex -2.19077 -1.20438 0
    endloop
  endfacet
  facet normal -0.844327 -0.535828 0
    outer loop
      vertex -2.19077 -1.20438 2.7
      vertex -2.02254 -1.46946 0
      vertex -2.02254 -1.46946 2.7
    endloop
  endfacet
  facet normal -0.684547 -0.728969 0
    outer loop
      vertex -1.82242 -1.71137 0
      vertex -1.59356 -1.92628 2.7
      vertex -1.82242 -1.71137 2.7
    endloop
  endfacet
  facet normal -0.684547 -0.728969 -0
    outer loop
      vertex -1.59356 -1.92628 2.7
      vertex -1.82242 -1.71137 0
      vertex -1.59356 -1.92628 0
    endloop
  endfacet
  facet normal -0.904827 -0.425779 0
    outer loop
      vertex -2.19077 -1.20438 0
      vertex -2.32444 -0.920311 2.7
      vertex -2.32444 -0.920311 0
    endloop
  endfacet
  facet normal -0.904827 -0.425779 0
    outer loop
      vertex -2.32444 -0.920311 2.7
      vertex -2.19077 -1.20438 0
      vertex -2.19077 -1.20438 2.7
    endloop
  endfacet
  facet normal -0.982287 -0.187383 0
    outer loop
      vertex -2.42146 -0.621724 0
      vertex -2.48029 -0.313333 2.7
      vertex -2.48029 -0.313333 0
    endloop
  endfacet
  facet normal -0.982287 -0.187383 0
    outer loop
      vertex -2.48029 -0.313333 2.7
      vertex -2.42146 -0.621724 0
      vertex -2.42146 -0.621724 2.7
    endloop
  endfacet
  facet normal -0.982287 0.187383 0
    outer loop
      vertex -2.48029 0.313333 0
      vertex -2.42146 0.621724 2.7
      vertex -2.42146 0.621724 0
    endloop
  endfacet
  facet normal -0.982287 0.187383 0
    outer loop
      vertex -2.42146 0.621724 2.7
      vertex -2.48029 0.313333 0
      vertex -2.48029 0.313333 2.7
    endloop
  endfacet
  facet normal -0.951057 0.309016 0
    outer loop
      vertex -2.42146 0.621724 0
      vertex -2.32444 0.920311 2.7
      vertex -2.32444 0.920311 0
    endloop
  endfacet
  facet normal -0.951057 0.309016 0
    outer loop
      vertex -2.32444 0.920311 2.7
      vertex -2.42146 0.621724 0
      vertex -2.42146 0.621724 2.7
    endloop
  endfacet
  facet normal -0.998027 0.0627911 0
    outer loop
      vertex -2.5 0 0
      vertex -2.48029 0.313333 2.7
      vertex -2.48029 0.313333 0
    endloop
  endfacet
  facet normal -0.998027 0.0627911 0
    outer loop
      vertex -2.48029 0.313333 2.7
      vertex -2.5 0 0
      vertex -2.5 0 2.7
    endloop
  endfacet
  facet normal -0 0 1
    outer loop
      vertex 1.31446 -0.722631 2.7
      vertex 2.19077 -1.20438 2.7
      vertex 1.39466 -0.552186 2.7
    endloop
  endfacet
  facet normal 0 0 1
    outer loop
      vertex 2.19077 -1.20438 2.7
      vertex 1.31446 -0.722631 2.7
      vertex 2.02254 -1.46946 2.7
    endloop
  endfacet
  facet normal -0 0 1
    outer loop
      vertex 1.21352 -0.881678 2.7
      vertex 2.02254 -1.46946 2.7
      vertex 1.31446 -0.722631 2.7
    endloop
  endfacet
  facet normal 0 0 1
    outer loop
      vertex 2.02254 -1.46946 2.7
      vertex 1.21352 -0.881678 2.7
      vertex 1.82242 -1.71137 2.7
    endloop
  endfacet
  facet normal -0 0 1
    outer loop
      vertex 1.09345 -1.02682 2.7
      vertex 1.82242 -1.71137 2.7
      vertex 1.21352 -0.881678 2.7
    endloop
  endfacet
  facet normal 0 0 1
    outer loop
      vertex 1.82242 -1.71137 2.7
      vertex 1.09345 -1.02682 2.7
      vertex 1.59356 -1.92628 2.7
    endloop
  endfacet
  facet normal -0 0 1
    outer loop
      vertex 0.956136 -1.15577 2.7
      vertex 1.59356 -1.92628 2.7
      vertex 1.09345 -1.02682 2.7
    endloop
  endfacet
  facet normal 0 0 1
    outer loop
      vertex 1.59356 -1.92628 2.7
      vertex 0.956136 -1.15577 2.7
      vertex 1.33957 -2.11082 2.7
    endloop
  endfacet
  facet normal -0 0 1
    outer loop
      vertex 0.80374 -1.26649 2.7
      vertex 1.33957 -2.11082 2.7
      vertex 0.956136 -1.15577 2.7
    endloop
  endfacet
  facet normal 0 0 1
    outer loop
      vertex 1.33957 -2.11082 2.7
      vertex 0.80374 -1.26649 2.7
      vertex 1.06445 -2.26207 2.7
    endloop
  endfacet
  facet normal -0 0 1
    outer loop
      vertex 0.638668 -1.35724 2.7
      vertex 1.06445 -2.26207 2.7
      vertex 0.80374 -1.26649 2.7
    endloop
  endfacet
  facet normal 0 0 1
    outer loop
      vertex 1.06445 -2.26207 2.7
      vertex 0.638668 -1.35724 2.7
      vertex 0.772542 -2.37764 2.7
    endloop
  endfacet
  facet normal -0 0 1
    outer loop
      vertex 0.463525 -1.42658 2.7
      vertex 0.772542 -2.37764 2.7
      vertex 0.638668 -1.35724 2.7
    endloop
  endfacet
  facet normal 0 0 1
    outer loop
      vertex 0.772542 -2.37764 2.7
      vertex 0.463525 -1.42658 2.7
      vertex 0.468452 -2.45572 2.7
    endloop
  endfacet
  facet normal -0 0 1
    outer loop
      vertex 0.281072 -1.47343 2.7
      vertex 0.468452 -2.45572 2.7
      vertex 0.463525 -1.42658 2.7
    endloop
  endfacet
  facet normal 0 0 1
    outer loop
      vertex 0.281072 -1.47343 2.7
      vertex 0.156976 -2.49507 2.7
      vertex 0.468452 -2.45572 2.7
    endloop
  endfacet
  facet normal -0 0 1
    outer loop
      vertex 0.0941849 -1.49704 2.7
      vertex 0.156976 -2.49507 2.7
      vertex 0.281072 -1.47343 2.7
    endloop
  endfacet
  facet normal -0 0 1
    outer loop
      vertex -0.0941849 -1.49704 2.7
      vertex 0.156976 -2.49507 2.7
      vertex 0.0941849 -1.49704 2.7
    endloop
  endfacet
  facet normal 0 0 1
    outer loop
      vertex -0.0941849 -1.49704 2.7
      vertex -0.156976 -2.49507 2.7
      vertex 0.156976 -2.49507 2.7
    endloop
  endfacet
  facet normal 0 0 1
    outer loop
      vertex -0.281072 -1.47343 2.7
      vertex -0.156976 -2.49507 2.7
      vertex -0.0941849 -1.49704 2.7
    endloop
  endfacet
  facet normal 0 0 1
    outer loop
      vertex -0.468452 -2.45572 2.7
      vertex -0.281072 -1.47343 2.7
      vertex -0.463525 -1.42658 2.7
    endloop
  endfacet
  facet normal 0 0 1
    outer loop
      vertex -0.281072 -1.47343 2.7
      vertex -0.468452 -2.45572 2.7
      vertex -0.156976 -2.49507 2.7
    endloop
  endfacet
  facet normal 0 0 1
    outer loop
      vertex -0.772542 -2.37764 2.7
      vertex -0.463525 -1.42658 2.7
      vertex -0.638668 -1.35724 2.7
    endloop
  endfacet
  facet normal 0 0 1
    outer loop
      vertex -0.463525 -1.42658 2.7
      vertex -0.772542 -2.37764 2.7
      vertex -0.468452 -2.45572 2.7
    endloop
  endfacet
  facet normal 0 0 1
    outer loop
      vertex -1.06445 -2.26207 2.7
      vertex -0.638668 -1.35724 2.7
      vertex -0.80374 -1.26649 2.7
    endloop
  endfacet
  facet normal 0 0 1
    outer loop
      vertex -1.33957 -2.11082 2.7
      vertex -0.80374 -1.26649 2.7
      vertex -0.956136 -1.15577 2.7
    endloop
  endfacet
  facet normal 0 0 1
    outer loop
      vertex -0.638668 -1.35724 2.7
      vertex -1.06445 -2.26207 2.7
      vertex -0.772542 -2.37764 2.7
    endloop
  endfacet
  facet normal 0 0 1
    outer loop
      vertex -1.59356 -1.92628 2.7
      vertex -0.956136 -1.15577 2.7
      vertex -1.09345 -1.02682 2.7
    endloop
  endfacet
  facet normal 0 0 1
    outer loop
      vertex -1.82242 -1.71137 2.7
      vertex -1.09345 -1.02682 2.7
      vertex -1.21352 -0.881678 2.7
    endloop
  endfacet
  facet normal 0 0 1
    outer loop
      vertex -2.02254 -1.46946 2.7
      vertex -1.21352 -0.881678 2.7
      vertex -1.31446 -0.722631 2.7
    endloop
  endfacet
  facet normal 0 0 1
    outer loop
      vertex -0.80374 -1.26649 2.7
      vertex -1.33957 -2.11082 2.7
      vertex -1.06445 -2.26207 2.7
    endloop
  endfacet
  facet normal 0 0 1
    outer loop
      vertex -2.19077 -1.20438 2.7
      vertex -1.31446 -0.722631 2.7
      vertex -1.39466 -0.552186 2.7
    endloop
  endfacet
  facet normal 0 0 1
    outer loop
      vertex -2.32444 -0.920311 2.7
      vertex -1.39466 -0.552186 2.7
      vertex -1.45287 -0.373034 2.7
    endloop
  endfacet
  facet normal 0 0 1
    outer loop
      vertex -2.42146 -0.621724 2.7
      vertex -1.45287 -0.373034 2.7
      vertex -1.48817 -0.188 2.7
    endloop
  endfacet
  facet normal 0 0 1
    outer loop
      vertex -0.956136 -1.15577 2.7
      vertex -1.59356 -1.92628 2.7
      vertex -1.33957 -2.11082 2.7
    endloop
  endfacet
  facet normal 0 0 1
    outer loop
      vertex -2.48029 -0.313333 2.7
      vertex -1.48817 -0.188 2.7
      vertex -1.5 0 2.7
    endloop
  endfacet
  facet normal -0 0 1
    outer loop
      vertex 5.5 43 2.7
      vertex 10.5 23 2.7
      vertex 10.5 43 2.7
    endloop
  endfacet
  facet normal 0 -0 1
    outer loop
      vertex 9.09345 19.0268 2.7
      vertex 10.5 23 2.7
      vertex 8.95614 19.1558 2.7
    endloop
  endfacet
  facet normal 0 0 1
    outer loop
      vertex 10.5 23 2.7
      vertex 9.21352 18.8817 2.7
      vertex 10.5 18 2.7
    endloop
  endfacet
  facet normal -0 -0 1
    outer loop
      vertex 9.39466 18.5522 2.7
      vertex 10.5 18 2.7
      vertex 9.31446 18.7226 2.7
    endloop
  endfacet
  facet normal -0 -0 1
    outer loop
      vertex 9.48817 18.188 2.7
      vertex 10.5 18 2.7
      vertex 9.45287 18.373 2.7
    endloop
  endfacet
  facet normal 0 0 1
    outer loop
      vertex 10.4803 17.6867 2.7
      vertex 9.48817 17.812 2.7
      vertex 10.4215 17.3783 2.7
    endloop
  endfacet
  facet normal -0 0 1
    outer loop
      vertex 9.48817 17.812 2.7
      vertex 10.4803 17.6867 2.7
      vertex 9.5 18 2.7
    endloop
  endfacet
  facet normal 0 0 1
    outer loop
      vertex 10.5 18 2.7
      vertex 9.5 18 2.7
      vertex 10.4803 17.6867 2.7
    endloop
  endfacet
  facet normal 0 -0 1
    outer loop
      vertex 9.5 18 2.7
      vertex 10.5 18 2.7
      vertex 9.48817 18.188 2.7
    endloop
  endfacet
  facet normal -0 -0 1
    outer loop
      vertex 9.45287 18.373 2.7
      vertex 10.5 18 2.7
      vertex 9.39466 18.5522 2.7
    endloop
  endfacet
  facet normal -0 -0 1
    outer loop
      vertex 9.31446 18.7226 2.7
      vertex 10.5 18 2.7
      vertex 9.21352 18.8817 2.7
    endloop
  endfacet
  facet normal 0 -0 1
    outer loop
      vertex 9.21352 18.8817 2.7
      vertex 10.5 23 2.7
      vertex 9.09345 19.0268 2.7
    endloop
  endfacet
  facet normal 0 0 1
    outer loop
      vertex 10.5 23 2.7
      vertex 8.80374 19.2665 2.7
      vertex 8.95614 19.1558 2.7
    endloop
  endfacet
  facet normal 0 0 1
    outer loop
      vertex 10.5 23 2.7
      vertex 8.63867 19.3572 2.7
      vertex 8.80374 19.2665 2.7
    endloop
  endfacet
  facet normal 0 0 1
    outer loop
      vertex 10.5 23 2.7
      vertex 8.46352 19.4266 2.7
      vertex 8.63867 19.3572 2.7
    endloop
  endfacet
  facet normal 0 0 1
    outer loop
      vertex 10.5 23 2.7
      vertex 8.28107 19.4734 2.7
      vertex 8.46352 19.4266 2.7
    endloop
  endfacet
  facet normal 0 0 1
    outer loop
      vertex 10.5 23 2.7
      vertex 8.09418 19.497 2.7
      vertex 8.28107 19.4734 2.7
    endloop
  endfacet
  facet normal 0 0 1
    outer loop
      vertex 10.5 23 2.7
      vertex 7.90581 19.497 2.7
      vertex 8.09418 19.497 2.7
    endloop
  endfacet
  facet normal 0 0 1
    outer loop
      vertex 5.5 18.5253 2.7
      vertex 10.5 23 2.7
      vertex 5.5 43 2.7
    endloop
  endfacet
  facet normal 0 0 1
    outer loop
      vertex 10.5 23 2.7
      vertex 7.71893 19.4734 2.7
      vertex 7.90581 19.497 2.7
    endloop
  endfacet
  facet normal 0 0 1
    outer loop
      vertex 10.5 23 2.7
      vertex 7.53647 19.4266 2.7
      vertex 7.71893 19.4734 2.7
    endloop
  endfacet
  facet normal 0 0 1
    outer loop
      vertex 10.5 23 2.7
      vertex 7.36133 19.3572 2.7
      vertex 7.53647 19.4266 2.7
    endloop
  endfacet
  facet normal 0 -0 1
    outer loop
      vertex 7.19626 19.2665 2.7
      vertex 10.5 23 2.7
      vertex 5.5 18.5253 2.7
    endloop
  endfacet
  facet normal 0 0 1
    outer loop
      vertex 10.5 23 2.7
      vertex 7.19626 19.2665 2.7
      vertex 7.36133 19.3572 2.7
    endloop
  endfacet
  facet normal 0 0 1
    outer loop
      vertex 7.19626 19.2665 2.7
      vertex 5.5 18.5253 2.7
      vertex 7.04386 19.1558 2.7
    endloop
  endfacet
  facet normal 0 0 1
    outer loop
      vertex 7.04386 19.1558 2.7
      vertex 5.5 18.5253 2.7
      vertex 6.90655 19.0268 2.7
    endloop
  endfacet
  facet normal 0 0 1
    outer loop
      vertex 6.90655 19.0268 2.7
      vertex 5.5 18.5253 2.7
      vertex 6.78647 18.8817 2.7
    endloop
  endfacet
  facet normal 0 0 1
    outer loop
      vertex 6.78647 18.8817 2.7
      vertex 5.5 18.5253 2.7
      vertex 6.68554 18.7226 2.7
    endloop
  endfacet
  facet normal 0 0 1
    outer loop
      vertex 6.68554 18.7226 2.7
      vertex 5.5 18.5253 2.7
      vertex 6.60534 18.5522 2.7
    endloop
  endfacet
  facet normal 0 0 1
    outer loop
      vertex 6.54712 18.373 2.7
      vertex 5.5 18.5253 2.7
      vertex 6.51183 18.188 2.7
    endloop
  endfacet
  facet normal 0 0 1
    outer loop
      vertex 6.60534 18.5522 2.7
      vertex 5.5 18.5253 2.7
      vertex 6.54712 18.373 2.7
    endloop
  endfacet
  facet normal -0 0 1
    outer loop
      vertex 9.45287 17.627 2.7
      vertex 10.4215 17.3783 2.7
      vertex 9.48817 17.812 2.7
    endloop
  endfacet
  facet normal 0 0 1
    outer loop
      vertex 10.4215 17.3783 2.7
      vertex 9.45287 17.627 2.7
      vertex 10.3244 17.0797 2.7
    endloop
  endfacet
  facet normal -0 0 1
    outer loop
      vertex 9.39466 17.4478 2.7
      vertex 10.3244 17.0797 2.7
      vertex 9.45287 17.627 2.7
    endloop
  endfacet
  facet normal -0 0 1
    outer loop
      vertex 9.31446 17.2774 2.7
      vertex 10.3244 17.0797 2.7
      vertex 9.39466 17.4478 2.7
    endloop
  endfacet
  facet normal -0 0 1
    outer loop
      vertex 9.21352 17.1183 2.7
      vertex 10.3244 17.0797 2.7
      vertex 9.31446 17.2774 2.7
    endloop
  endfacet
  facet normal 0 0 1
    outer loop
      vertex 9.09345 16.9732 2.7
      vertex 10.3244 17.0797 2.7
      vertex 9.21352 17.1183 2.7
    endloop
  endfacet
  facet normal 0 0 1
    outer loop
      vertex 8.95614 16.8442 2.7
      vertex 10.3244 17.0797 2.7
      vertex 9.09345 16.9732 2.7
    endloop
  endfacet
  facet normal 0 0 1
    outer loop
      vertex 8.80374 16.7335 2.7
      vertex 10.3244 17.0797 2.7
      vertex 8.95614 16.8442 2.7
    endloop
  endfacet
  facet normal 0 0 1
    outer loop
      vertex 8.63867 16.6428 2.7
      vertex 10.3244 17.0797 2.7
      vertex 8.80374 16.7335 2.7
    endloop
  endfacet
  facet normal 0 0 1
    outer loop
      vertex 8.46352 16.5734 2.7
      vertex 10.3244 17.0797 2.7
      vertex 8.63867 16.6428 2.7
    endloop
  endfacet
  facet normal 0 0 1
    outer loop
      vertex 6.51183 18.188 2.7
      vertex 5.5 18.5253 2.7
      vertex 6.5 18 2.7
    endloop
  endfacet
  facet normal 0 0 1
    outer loop
      vertex 5.5 18.5253 2.7
      vertex 6.51183 17.812 2.7
      vertex 6.5 18 2.7
    endloop
  endfacet
  facet normal 0 0 1
    outer loop
      vertex 5.5 18.5253 2.7
      vertex 6.54712 17.627 2.7
      vertex 6.51183 17.812 2.7
    endloop
  endfacet
  facet normal 0 0 1
    outer loop
      vertex 5.5 18.5253 2.7
      vertex 6.60534 17.4478 2.7
      vertex 6.54712 17.627 2.7
    endloop
  endfacet
  facet normal 0 0 1
    outer loop
      vertex 5.5 18.5253 2.7
      vertex 6.68554 17.2774 2.7
      vertex 6.60534 17.4478 2.7
    endloop
  endfacet
  facet normal 0 0 1
    outer loop
      vertex 5.5 18.5253 2.7
      vertex 6.78647 17.1183 2.7
      vertex 6.68554 17.2774 2.7
    endloop
  endfacet
  facet normal 0 0 1
    outer loop
      vertex -0.0941849 1.49704 2.7
      vertex 6.78647 17.1183 2.7
      vertex 5.5 18.5253 2.7
    endloop
  endfacet
  facet normal -0 0 1
    outer loop
      vertex 8.46352 16.5734 2.7
      vertex 2.32444 -0.920311 2.7
      vertex 10.3244 17.0797 2.7
    endloop
  endfacet
  facet normal 0 0 1
    outer loop
      vertex 1.31446 0.722631 2.7
      vertex 8.46352 16.5734 2.7
      vertex 8.28107 16.5266 2.7
    endloop
  endfacet
  facet normal 0 0 1
    outer loop
      vertex 1.21352 0.881678 2.7
      vertex 8.28107 16.5266 2.7
      vertex 8.09418 16.503 2.7
    endloop
  endfacet
  facet normal 0 0 1
    outer loop
      vertex 1.09345 1.02682 2.7
      vertex 8.09418 16.503 2.7
      vertex 7.90581 16.503 2.7
    endloop
  endfacet
  facet normal 0 0 1
    outer loop
      vertex 0.956136 1.15577 2.7
      vertex 7.90581 16.503 2.7
      vertex 7.71893 16.5266 2.7
    endloop
  endfacet
  facet normal 0 0 1
    outer loop
      vertex 0.80374 1.26649 2.7
      vertex 7.71893 16.5266 2.7
      vertex 7.53647 16.5734 2.7
    endloop
  endfacet
  facet normal 0 0 1
    outer loop
      vertex 0.638668 1.35724 2.7
      vertex 7.53647 16.5734 2.7
      vertex 7.36133 16.6428 2.7
    endloop
  endfacet
  facet normal 0 0 1
    outer loop
      vertex 0.463525 1.42658 2.7
      vertex 7.36133 16.6428 2.7
      vertex 7.19626 16.7335 2.7
    endloop
  endfacet
  facet normal 0 0 1
    outer loop
      vertex 0.281072 1.47343 2.7
      vertex 7.19626 16.7335 2.7
      vertex 7.04386 16.8442 2.7
    endloop
  endfacet
  facet normal 0 0 1
    outer loop
      vertex 0.0941849 1.49704 2.7
      vertex 7.04386 16.8442 2.7
      vertex 6.90655 16.9732 2.7
    endloop
  endfacet
  facet normal 0 0 1
    outer loop
      vertex 6.78647 17.1183 2.7
      vertex -0.0941849 1.49704 2.7
      vertex 6.90655 16.9732 2.7
    endloop
  endfacet
  facet normal 0 0 1
    outer loop
      vertex 8.46352 16.5734 2.7
      vertex 1.31446 0.722631 2.7
      vertex 2.32444 -0.920311 2.7
    endloop
  endfacet
  facet normal -0 -0 1
    outer loop
      vertex 1.45287 0.373034 2.7
      vertex 2.32444 -0.920311 2.7
      vertex 1.39466 0.552186 2.7
    endloop
  endfacet
  facet normal -0 -0 1
    outer loop
      vertex 1.5 0 2.7
      vertex 2.32444 -0.920311 2.7
      vertex 1.48817 0.188 2.7
    endloop
  endfacet
  facet normal -0 0 1
    outer loop
      vertex 1.45287 -0.373034 2.7
      vertex 2.32444 -0.920311 2.7
      vertex 1.48817 -0.188 2.7
    endloop
  endfacet
  facet normal 0 0 1
    outer loop
      vertex 2.32444 -0.920311 2.7
      vertex 1.39466 -0.552186 2.7
      vertex 2.19077 -1.20438 2.7
    endloop
  endfacet
  facet normal -0 0 1
    outer loop
      vertex 1.39466 -0.552186 2.7
      vertex 2.32444 -0.920311 2.7
      vertex 1.45287 -0.373034 2.7
    endloop
  endfacet
  facet normal -0 0 1
    outer loop
      vertex 1.48817 -0.188 2.7
      vertex 2.32444 -0.920311 2.7
      vertex 1.5 0 2.7
    endloop
  endfacet
  facet normal -0 -0 1
    outer loop
      vertex 1.48817 0.188 2.7
      vertex 2.32444 -0.920311 2.7
      vertex 1.45287 0.373034 2.7
    endloop
  endfacet
  facet normal 0 0 1
    outer loop
      vertex 2.32444 -0.920311 2.7
      vertex 1.31446 0.722631 2.7
      vertex 1.39466 0.552186 2.7
    endloop
  endfacet
  facet normal 0 0 1
    outer loop
      vertex 8.28107 16.5266 2.7
      vertex 1.21352 0.881678 2.7
      vertex 1.31446 0.722631 2.7
    endloop
  endfacet
  facet normal 0 0 1
    outer loop
      vertex 8.09418 16.503 2.7
      vertex 1.09345 1.02682 2.7
      vertex 1.21352 0.881678 2.7
    endloop
  endfacet
  facet normal 0 0 1
    outer loop
      vertex 7.90581 16.503 2.7
      vertex 0.956136 1.15577 2.7
      vertex 1.09345 1.02682 2.7
    endloop
  endfacet
  facet normal 0 0 1
    outer loop
      vertex 7.71893 16.5266 2.7
      vertex 0.80374 1.26649 2.7
      vertex 0.956136 1.15577 2.7
    endloop
  endfacet
  facet normal 0 0 1
    outer loop
      vertex 7.53647 16.5734 2.7
      vertex 0.638668 1.35724 2.7
      vertex 0.80374 1.26649 2.7
    endloop
  endfacet
  facet normal 0 0 1
    outer loop
      vertex 7.36133 16.6428 2.7
      vertex 0.463525 1.42658 2.7
      vertex 0.638668 1.35724 2.7
    endloop
  endfacet
  facet normal 0 0 1
    outer loop
      vertex 7.19626 16.7335 2.7
      vertex 0.281072 1.47343 2.7
      vertex 0.463525 1.42658 2.7
    endloop
  endfacet
  facet normal 0 0 1
    outer loop
      vertex 7.04386 16.8442 2.7
      vertex 0.0941849 1.49704 2.7
      vertex 0.281072 1.47343 2.7
    endloop
  endfacet
  facet normal 0 0 1
    outer loop
      vertex 6.90655 16.9732 2.7
      vertex -0.0941849 1.49704 2.7
      vertex 0.0941849 1.49704 2.7
    endloop
  endfacet
  facet normal 0 0 1
    outer loop
      vertex 5.5 18.5253 2.7
      vertex -0.281072 1.47343 2.7
      vertex -0.0941849 1.49704 2.7
    endloop
  endfacet
  facet normal 0 0 1
    outer loop
      vertex 5.5 18.5253 2.7
      vertex -0.463525 1.42658 2.7
      vertex -0.281072 1.47343 2.7
    endloop
  endfacet
  facet normal 0 0 1
    outer loop
      vertex -2.32444 0.920311 2.7
      vertex -0.463525 1.42658 2.7
      vertex 5.5 18.5253 2.7
    endloop
  endfacet
  facet normal 0 0 1
    outer loop
      vertex -0.463525 1.42658 2.7
      vertex -2.32444 0.920311 2.7
      vertex -0.638668 1.35724 2.7
    endloop
  endfacet
  facet normal 0 0 1
    outer loop
      vertex -0.638668 1.35724 2.7
      vertex -2.32444 0.920311 2.7
      vertex -0.80374 1.26649 2.7
    endloop
  endfacet
  facet normal 0 0 1
    outer loop
      vertex -0.80374 1.26649 2.7
      vertex -2.32444 0.920311 2.7
      vertex -0.956136 1.15577 2.7
    endloop
  endfacet
  facet normal 0 0 1
    outer loop
      vertex -0.956136 1.15577 2.7
      vertex -2.32444 0.920311 2.7
      vertex -1.09345 1.02682 2.7
    endloop
  endfacet
  facet normal 0 0 1
    outer loop
      vertex -1.09345 1.02682 2.7
      vertex -2.32444 0.920311 2.7
      vertex -1.21352 0.881678 2.7
    endloop
  endfacet
  facet normal 0 0 1
    outer loop
      vertex -1.21352 0.881678 2.7
      vertex -2.32444 0.920311 2.7
      vertex -1.31446 0.722631 2.7
    endloop
  endfacet
  facet normal 0 0 1
    outer loop
      vertex -1.09345 -1.02682 2.7
      vertex -1.82242 -1.71137 2.7
      vertex -1.59356 -1.92628 2.7
    endloop
  endfacet
  facet normal 0 0 1
    outer loop
      vertex -2.5 0 2.7
      vertex -1.5 0 2.7
      vertex -1.48817 0.188 2.7
    endloop
  endfacet
  facet normal 0 0 1
    outer loop
      vertex -1.21352 -0.881678 2.7
      vertex -2.02254 -1.46946 2.7
      vertex -1.82242 -1.71137 2.7
    endloop
  endfacet
  facet normal -0 0 1
    outer loop
      vertex -2.48029 0.313333 2.7
      vertex -1.48817 0.188 2.7
      vertex -1.45287 0.373034 2.7
    endloop
  endfacet
  facet normal 0 0 1
    outer loop
      vertex -1.31446 -0.722631 2.7
      vertex -2.19077 -1.20438 2.7
      vertex -2.02254 -1.46946 2.7
    endloop
  endfacet
  facet normal 0 0 1
    outer loop
      vertex -2.42146 0.621724 2.7
      vertex -1.45287 0.373034 2.7
      vertex -1.39466 0.552186 2.7
    endloop
  endfacet
  facet normal 0 0 1
    outer loop
      vertex -1.31446 0.722631 2.7
      vertex -2.32444 0.920311 2.7
      vertex -1.39466 0.552186 2.7
    endloop
  endfacet
  facet normal -0 0 1
    outer loop
      vertex -2.42146 0.621724 2.7
      vertex -1.39466 0.552186 2.7
      vertex -2.32444 0.920311 2.7
    endloop
  endfacet
  facet normal 0 0 1
    outer loop
      vertex -1.39466 -0.552186 2.7
      vertex -2.32444 -0.920311 2.7
      vertex -2.19077 -1.20438 2.7
    endloop
  endfacet
  facet normal 0 0 1
    outer loop
      vertex -1.45287 0.373034 2.7
      vertex -2.42146 0.621724 2.7
      vertex -2.48029 0.313333 2.7
    endloop
  endfacet
  facet normal 0 0 1
    outer loop
      vertex -1.45287 -0.373034 2.7
      vertex -2.42146 -0.621724 2.7
      vertex -2.32444 -0.920311 2.7
    endloop
  endfacet
  facet normal 0 0 1
    outer loop
      vertex -1.48817 0.188 2.7
      vertex -2.48029 0.313333 2.7
      vertex -2.5 0 2.7
    endloop
  endfacet
  facet normal 0 0 1
    outer loop
      vertex -1.48817 -0.188 2.7
      vertex -2.48029 -0.313333 2.7
      vertex -2.42146 -0.621724 2.7
    endloop
  endfacet
  facet normal 0 0 1
    outer loop
      vertex -1.5 0 2.7
      vertex -2.5 0 2.7
      vertex -2.48029 -0.313333 2.7
    endloop
  endfacet
  facet normal 0.998027 -0.0627909 0
    outer loop
      vertex 10.4803 17.6867 2.7
      vertex 10.5 18 0
      vertex 10.5 18 2.7
    endloop
  endfacet
  facet normal 0.998027 -0.0627909 0
    outer loop
      vertex 10.5 18 0
      vertex 10.4803 17.6867 2.7
      vertex 10.4803 17.6867 0
    endloop
  endfacet
  facet normal 0.951057 -0.309017 0
    outer loop
      vertex 10.3244 17.0797 2.7
      vertex 10.4215 17.3783 0
      vertex 10.4215 17.3783 2.7
    endloop
  endfacet
  facet normal 0.951057 -0.309017 0
    outer loop
      vertex 10.4215 17.3783 0
      vertex 10.3244 17.0797 2.7
      vertex 10.3244 17.0797 0
    endloop
  endfacet
  facet normal 0.684547 -0.728969 0
    outer loop
      vertex 1.59356 -1.92628 0
      vertex 1.82242 -1.71137 2.7
      vertex 1.59356 -1.92628 2.7
    endloop
  endfacet
  facet normal 0.684547 -0.728969 0
    outer loop
      vertex 1.82242 -1.71137 2.7
      vertex 1.59356 -1.92628 0
      vertex 1.82242 -1.71137 0
    endloop
  endfacet
  facet normal 0.904827 -0.425779 0
    outer loop
      vertex 2.19077 -1.20438 2.7
      vertex 2.32444 -0.920311 0
      vertex 2.32444 -0.920311 2.7
    endloop
  endfacet
  facet normal 0.904827 -0.425779 0
    outer loop
      vertex 2.32444 -0.920311 0
      vertex 2.19077 -1.20438 2.7
      vertex 2.19077 -1.20438 0
    endloop
  endfacet
  facet normal -0.125333 -0.992115 0
    outer loop
      vertex -0.468452 -2.45572 0
      vertex -0.156976 -2.49507 2.7
      vertex -0.468452 -2.45572 2.7
    endloop
  endfacet
  facet normal -0.125333 -0.992115 -0
    outer loop
      vertex -0.156976 -2.49507 2.7
      vertex -0.468452 -2.45572 0
      vertex -0.156976 -2.49507 0
    endloop
  endfacet
  facet normal 0.248691 -0.968583 0
    outer loop
      vertex 0.468452 -2.45572 0
      vertex 0.772542 -2.37764 2.7
      vertex 0.468452 -2.45572 2.7
    endloop
  endfacet
  facet normal 0.248691 -0.968583 0
    outer loop
      vertex 0.772542 -2.37764 2.7
      vertex 0.468452 -2.45572 0
      vertex 0.772542 -2.37764 0
    endloop
  endfacet
  facet normal -0.770514 -0.637423 0
    outer loop
      vertex -1.82242 -1.71137 0
      vertex -2.02254 -1.46946 2.7
      vertex -2.02254 -1.46946 0
    endloop
  endfacet
  facet normal -0.770514 -0.637423 0
    outer loop
      vertex -2.02254 -1.46946 2.7
      vertex -1.82242 -1.71137 0
      vertex -1.82242 -1.71137 2.7
    endloop
  endfacet
  facet normal -0.951057 -0.309016 0
    outer loop
      vertex -2.32444 -0.920311 0
      vertex -2.42146 -0.621724 2.7
      vertex -2.42146 -0.621724 0
    endloop
  endfacet
  facet normal -0.951057 -0.309016 0
    outer loop
      vertex -2.42146 -0.621724 2.7
      vertex -2.32444 -0.920311 0
      vertex -2.32444 -0.920311 2.7
    endloop
  endfacet
  facet normal 0.913812 -0.406138 0
    outer loop
      vertex 2.32444 -0.920311 2.7
      vertex 10.3244 17.0797 0
      vertex 10.3244 17.0797 2.7
    endloop
  endfacet
  facet normal 0.913812 -0.406138 0
    outer loop
      vertex 10.3244 17.0797 0
      vertex 2.32444 -0.920311 2.7
      vertex 2.32444 -0.920311 0
    endloop
  endfacet
  facet normal 0.844327 -0.535828 0
    outer loop
      vertex 2.02254 -1.46946 2.7
      vertex 2.19077 -1.20438 0
      vertex 2.19077 -1.20438 2.7
    endloop
  endfacet
  facet normal 0.844327 -0.535828 0
    outer loop
      vertex 2.19077 -1.20438 0
      vertex 2.02254 -1.46946 2.7
      vertex 2.02254 -1.46946 0
    endloop
  endfacet
  facet normal 0.587784 -0.809018 0
    outer loop
      vertex 1.33957 -2.11082 0
      vertex 1.59356 -1.92628 2.7
      vertex 1.33957 -2.11082 2.7
    endloop
  endfacet
  facet normal 0.587784 -0.809018 0
    outer loop
      vertex 1.59356 -1.92628 2.7
      vertex 1.33957 -2.11082 0
      vertex 1.59356 -1.92628 0
    endloop
  endfacet
  facet normal -0.368126 -0.929776 0
    outer loop
      vertex -1.06445 -2.26207 0
      vertex -0.772542 -2.37764 2.7
      vertex -1.06445 -2.26207 2.7
    endloop
  endfacet
  facet normal -0.368126 -0.929776 -0
    outer loop
      vertex -0.772542 -2.37764 2.7
      vertex -1.06445 -2.26207 0
      vertex -0.772542 -2.37764 0
    endloop
  endfacet
  facet normal 0 -1 0
    outer loop
      vertex -0.156976 -2.49507 0
      vertex 0.156976 -2.49507 2.7
      vertex -0.156976 -2.49507 2.7
    endloop
  endfacet
  facet normal 0 -1 -0
    outer loop
      vertex 0.156976 -2.49507 2.7
      vertex -0.156976 -2.49507 0
      vertex 0.156976 -2.49507 0
    endloop
  endfacet
  facet normal 0.125333 -0.992115 0
    outer loop
      vertex 0.156976 -2.49507 0
      vertex 0.468452 -2.45572 2.7
      vertex 0.156976 -2.49507 2.7
    endloop
  endfacet
  facet normal 0.125333 -0.992115 0
    outer loop
      vertex 0.468452 -2.45572 2.7
      vertex 0.156976 -2.49507 0
      vertex 0.468452 -2.45572 0
    endloop
  endfacet
  facet normal -0.248691 -0.968583 0
    outer loop
      vertex -0.772542 -2.37764 0
      vertex -0.468452 -2.45572 2.7
      vertex -0.772542 -2.37764 2.7
    endloop
  endfacet
  facet normal -0.248691 -0.968583 -0
    outer loop
      vertex -0.468452 -2.45572 2.7
      vertex -0.772542 -2.37764 0
      vertex -0.468452 -2.45572 0
    endloop
  endfacet
  facet normal -0.481754 -0.876307 0
    outer loop
      vertex -1.33957 -2.11082 0
      vertex -1.06445 -2.26207 2.7
      vertex -1.33957 -2.11082 2.7
    endloop
  endfacet
  facet normal -0.481754 -0.876307 -0
    outer loop
      vertex -1.06445 -2.26207 2.7
      vertex -1.33957 -2.11082 0
      vertex -1.06445 -2.26207 0
    endloop
  endfacet
  facet normal -0.587784 -0.809018 0
    outer loop
      vertex -1.59356 -1.92628 0
      vertex -1.33957 -2.11082 2.7
      vertex -1.59356 -1.92628 2.7
    endloop
  endfacet
  facet normal -0.587784 -0.809018 -0
    outer loop
      vertex -1.33957 -2.11082 2.7
      vertex -1.59356 -1.92628 0
      vertex -1.33957 -2.11082 0
    endloop
  endfacet
  facet normal -1 0 0
    outer loop
      vertex 5.5 18.5253 0
      vertex 5.5 43 2.7
      vertex 5.5 43 0
    endloop
  endfacet
  facet normal -1 -0 0
    outer loop
      vertex 5.5 43 2.7
      vertex 5.5 18.5253 0
      vertex 5.5 18.5253 2.7
    endloop
  endfacet
  facet normal -1 0 0
    outer loop
      vertex 10.5 23 2.7
      vertex 10.5 43 5
      vertex 10.5 43 2.7
    endloop
  endfacet
  facet normal -1 -0 0
    outer loop
      vertex 10.5 43 5
      vertex 10.5 23 2.7
      vertex 10.5 23 5
    endloop
  endfacet
  facet normal 1 -0 0
    outer loop
      vertex 10.5 18 2.7
      vertex 10.5 23 0
      vertex 10.5 23 2.7
    endloop
  endfacet
  facet normal 1 0 0
    outer loop
      vertex 10.5 23 0
      vertex 10.5 18 2.7
      vertex 10.5 18 0
    endloop
  endfacet
  facet normal 0 1 0
    outer loop
      vertex 13.3 43 5
      vertex 10.5 43 2.7
      vertex 10.5 43 5
    endloop
  endfacet
  facet normal 0 1 -0
    outer loop
      vertex 13.3 43 0
      vertex 10.5 43 2.7
      vertex 13.3 43 5
    endloop
  endfacet
  facet normal 0 1 0
    outer loop
      vertex 5.5 43 0
      vertex 10.5 43 2.7
      vertex 13.3 43 0
    endloop
  endfacet
  facet normal 0 1 0
    outer loop
      vertex 10.5 43 2.7
      vertex 5.5 43 0
      vertex 5.5 43 2.7
    endloop
  endfacet
  facet normal -0 0 1
    outer loop
      vertex 10.5 43 5
      vertex 13.3 23 5
      vertex 13.3 43 5
    endloop
  endfacet
  facet normal 0 0 1
    outer loop
      vertex 13.3 23 5
      vertex 10.5 43 5
      vertex 10.5 23 5
    endloop
  endfacet
  facet normal 1 -0 0
    outer loop
      vertex 13.3 23 5
      vertex 13.3 43 0
      vertex 13.3 43 5
    endloop
  endfacet
  facet normal 1 0 0
    outer loop
      vertex 13.3 43 0
      vertex 13.3 23 5
      vertex 13.3 23 0
    endloop
  endfacet
  facet normal 0 -1 0
    outer loop
      vertex 10.5 23 2.7
      vertex 13.3 23 5
      vertex 10.5 23 5
    endloop
  endfacet
  facet normal 0 -1 0
    outer loop
      vertex 13.3 23 0
      vertex 10.5 23 2.7
      vertex 10.5 23 0
    endloop
  endfacet
  facet normal 0 -1 0
    outer loop
      vertex 10.5 23 2.7
      vertex 13.3 23 0
      vertex 13.3 23 5
    endloop
  endfacet
  facet normal -0.998027 -0.0627931 0
    outer loop
      vertex 1.5 0 0
      vertex 1.48817 0.188 2.7
      vertex 1.48817 0.188 0
    endloop
  endfacet
  facet normal -0.998027 -0.0627931 0
    outer loop
      vertex 1.48817 0.188 2.7
      vertex 1.5 0 0
      vertex 1.5 0 2.7
    endloop
  endfacet
  facet normal 0.998027 -0.0627931 0
    outer loop
      vertex -1.5 0 2.7
      vertex -1.48817 0.188 0
      vertex -1.48817 0.188 2.7
    endloop
  endfacet
  facet normal 0.998027 -0.0627931 0
    outer loop
      vertex -1.48817 0.188 0
      vertex -1.5 0 2.7
      vertex -1.5 0 0
    endloop
  endfacet
  facet normal 0 -1 0
    outer loop
      vertex -0.0941849 1.49704 0
      vertex 0.0941849 1.49704 2.7
      vertex -0.0941849 1.49704 2.7
    endloop
  endfacet
  facet normal 0 -1 -0
    outer loop
      vertex 0.0941849 1.49704 2.7
      vertex -0.0941849 1.49704 0
      vertex 0.0941849 1.49704 0
    endloop
  endfacet
  facet normal 0 1 -0
    outer loop
      vertex 0.0941849 -1.49704 0
      vertex -0.0941849 -1.49704 2.7
      vertex 0.0941849 -1.49704 2.7
    endloop
  endfacet
  facet normal 0 1 0
    outer loop
      vertex -0.0941849 -1.49704 2.7
      vertex 0.0941849 -1.49704 0
      vertex -0.0941849 -1.49704 0
    endloop
  endfacet
  facet normal -0.684548 -0.728968 0
    outer loop
      vertex 0.956136 1.15577 0
      vertex 1.09345 1.02682 2.7
      vertex 0.956136 1.15577 2.7
    endloop
  endfacet
  facet normal -0.684548 -0.728968 -0
    outer loop
      vertex 1.09345 1.02682 2.7
      vertex 0.956136 1.15577 0
      vertex 1.09345 1.02682 0
    endloop
  endfacet
  facet normal 0.684548 -0.728968 0
    outer loop
      vertex -1.09345 1.02682 0
      vertex -0.956136 1.15577 2.7
      vertex -1.09345 1.02682 2.7
    endloop
  endfacet
  facet normal 0.684548 -0.728968 0
    outer loop
      vertex -0.956136 1.15577 2.7
      vertex -1.09345 1.02682 0
      vertex -0.956136 1.15577 0
    endloop
  endfacet
  facet normal 0.368126 -0.929776 0
    outer loop
      vertex -0.638668 1.35724 0
      vertex -0.463525 1.42658 2.7
      vertex -0.638668 1.35724 2.7
    endloop
  endfacet
  facet normal 0.368126 -0.929776 0
    outer loop
      vertex -0.463525 1.42658 2.7
      vertex -0.638668 1.35724 0
      vertex -0.463525 1.42658 0
    endloop
  endfacet
  facet normal -0.904829 -0.425775 0
    outer loop
      vertex 1.39466 0.552186 0
      vertex 1.31446 0.722631 2.7
      vertex 1.31446 0.722631 0
    endloop
  endfacet
  facet normal -0.904829 -0.425775 0
    outer loop
      vertex 1.31446 0.722631 2.7
      vertex 1.39466 0.552186 0
      vertex 1.39466 0.552186 2.7
    endloop
  endfacet
  facet normal -0.982287 -0.187382 0
    outer loop
      vertex 1.48817 0.188 0
      vertex 1.45287 0.373034 2.7
      vertex 1.45287 0.373034 0
    endloop
  endfacet
  facet normal -0.982287 -0.187382 0
    outer loop
      vertex 1.45287 0.373034 2.7
      vertex 1.48817 0.188 0
      vertex 1.48817 0.188 2.7
    endloop
  endfacet
  facet normal -0.368126 -0.929776 0
    outer loop
      vertex 0.463525 1.42658 0
      vertex 0.638668 1.35724 2.7
      vertex 0.463525 1.42658 2.7
    endloop
  endfacet
  facet normal -0.368126 -0.929776 -0
    outer loop
      vertex 0.638668 1.35724 2.7
      vertex 0.463525 1.42658 0
      vertex 0.638668 1.35724 0
    endloop
  endfacet
  facet normal -0.248692 -0.968583 0
    outer loop
      vertex 0.281072 1.47343 0
      vertex 0.463525 1.42658 2.7
      vertex 0.281072 1.47343 2.7
    endloop
  endfacet
  facet normal -0.248692 -0.968583 -0
    outer loop
      vertex 0.463525 1.42658 2.7
      vertex 0.281072 1.47343 0
      vertex 0.463525 1.42658 0
    endloop
  endfacet
  facet normal -0.481754 -0.876307 0
    outer loop
      vertex 0.638668 1.35724 0
      vertex 0.80374 1.26649 2.7
      vertex 0.638668 1.35724 2.7
    endloop
  endfacet
  facet normal -0.481754 -0.876307 -0
    outer loop
      vertex 0.80374 1.26649 2.7
      vertex 0.638668 1.35724 0
      vertex 0.80374 1.26649 0
    endloop
  endfacet
  facet normal 0.904829 -0.425775 0
    outer loop
      vertex -1.39466 0.552186 2.7
      vertex -1.31446 0.722631 0
      vertex -1.31446 0.722631 2.7
    endloop
  endfacet
  facet normal 0.904829 -0.425775 0
    outer loop
      vertex -1.31446 0.722631 0
      vertex -1.39466 0.552186 2.7
      vertex -1.39466 0.552186 0
    endloop
  endfacet
  facet normal 0.951056 -0.309019 0
    outer loop
      vertex -1.45287 0.373034 2.7
      vertex -1.39466 0.552186 0
      vertex -1.39466 0.552186 2.7
    endloop
  endfacet
  facet normal 0.951056 -0.309019 0
    outer loop
      vertex -1.39466 0.552186 0
      vertex -1.45287 0.373034 2.7
      vertex -1.45287 0.373034 0
    endloop
  endfacet
  facet normal 0.125333 -0.992115 0
    outer loop
      vertex -0.281072 1.47343 0
      vertex -0.0941849 1.49704 2.7
      vertex -0.281072 1.47343 2.7
    endloop
  endfacet
  facet normal 0.125333 -0.992115 0
    outer loop
      vertex -0.0941849 1.49704 2.7
      vertex -0.281072 1.47343 0
      vertex -0.0941849 1.49704 0
    endloop
  endfacet
  facet normal -0.125333 0.992115 0
    outer loop
      vertex 0.281072 -1.47343 0
      vertex 0.0941849 -1.49704 2.7
      vertex 0.281072 -1.47343 2.7
    endloop
  endfacet
  facet normal -0.125333 0.992115 0
    outer loop
      vertex 0.0941849 -1.49704 2.7
      vertex 0.281072 -1.47343 0
      vertex 0.0941849 -1.49704 0
    endloop
  endfacet
  facet normal -0.368126 0.929776 0
    outer loop
      vertex 0.638668 -1.35724 0
      vertex 0.463525 -1.42658 2.7
      vertex 0.638668 -1.35724 2.7
    endloop
  endfacet
  facet normal -0.368126 0.929776 0
    outer loop
      vertex 0.463525 -1.42658 2.7
      vertex 0.638668 -1.35724 0
      vertex 0.463525 -1.42658 0
    endloop
  endfacet
  facet normal -0.951056 -0.309019 0
    outer loop
      vertex 1.45287 0.373034 0
      vertex 1.39466 0.552186 2.7
      vertex 1.39466 0.552186 0
    endloop
  endfacet
  facet normal -0.951056 -0.309019 0
    outer loop
      vertex 1.39466 0.552186 2.7
      vertex 1.45287 0.373034 0
      vertex 1.45287 0.373034 2.7
    endloop
  endfacet
  facet normal -0.770513 -0.637424 0
    outer loop
      vertex 1.21352 0.881678 0
      vertex 1.09345 1.02682 2.7
      vertex 1.09345 1.02682 0
    endloop
  endfacet
  facet normal -0.770513 -0.637424 0
    outer loop
      vertex 1.09345 1.02682 2.7
      vertex 1.21352 0.881678 0
      vertex 1.21352 0.881678 2.7
    endloop
  endfacet
  facet normal -0.844326 -0.535829 0
    outer loop
      vertex 1.31446 0.722631 0
      vertex 1.21352 0.881678 2.7
      vertex 1.21352 0.881678 0
    endloop
  endfacet
  facet normal -0.844326 -0.535829 0
    outer loop
      vertex 1.21352 0.881678 2.7
      vertex 1.31446 0.722631 0
      vertex 1.31446 0.722631 2.7
    endloop
  endfacet
  facet normal -0.125333 -0.992115 0
    outer loop
      vertex 0.0941849 1.49704 0
      vertex 0.281072 1.47343 2.7
      vertex 0.0941849 1.49704 2.7
    endloop
  endfacet
  facet normal -0.125333 -0.992115 -0
    outer loop
      vertex 0.281072 1.47343 2.7
      vertex 0.0941849 1.49704 0
      vertex 0.281072 1.47343 0
    endloop
  endfacet
  facet normal -0.587783 -0.809019 0
    outer loop
      vertex 0.80374 1.26649 0
      vertex 0.956136 1.15577 2.7
      vertex 0.80374 1.26649 2.7
    endloop
  endfacet
  facet normal -0.587783 -0.809019 -0
    outer loop
      vertex 0.956136 1.15577 2.7
      vertex 0.80374 1.26649 0
      vertex 0.956136 1.15577 0
    endloop
  endfacet
  facet normal 0.844326 -0.535829 0
    outer loop
      vertex -1.31446 0.722631 2.7
      vertex -1.21352 0.881678 0
      vertex -1.21352 0.881678 2.7
    endloop
  endfacet
  facet normal 0.844326 -0.535829 0
    outer loop
      vertex -1.21352 0.881678 0
      vertex -1.31446 0.722631 2.7
      vertex -1.31446 0.722631 0
    endloop
  endfacet
  facet normal 0.770513 -0.637424 0
    outer loop
      vertex -1.21352 0.881678 2.7
      vertex -1.09345 1.02682 0
      vertex -1.09345 1.02682 2.7
    endloop
  endfacet
  facet normal 0.770513 -0.637424 0
    outer loop
      vertex -1.09345 1.02682 0
      vertex -1.21352 0.881678 2.7
      vertex -1.21352 0.881678 0
    endloop
  endfacet
  facet normal 0.982287 -0.187382 0
    outer loop
      vertex -1.48817 0.188 2.7
      vertex -1.45287 0.373034 0
      vertex -1.45287 0.373034 2.7
    endloop
  endfacet
  facet normal 0.982287 -0.187382 0
    outer loop
      vertex -1.45287 0.373034 0
      vertex -1.48817 0.188 2.7
      vertex -1.48817 0.188 0
    endloop
  endfacet
  facet normal 0.481754 -0.876307 0
    outer loop
      vertex -0.80374 1.26649 0
      vertex -0.638668 1.35724 2.7
      vertex -0.80374 1.26649 2.7
    endloop
  endfacet
  facet normal 0.481754 -0.876307 0
    outer loop
      vertex -0.638668 1.35724 2.7
      vertex -0.80374 1.26649 0
      vertex -0.638668 1.35724 0
    endloop
  endfacet
  facet normal 0.587783 -0.809019 0
    outer loop
      vertex -0.956136 1.15577 0
      vertex -0.80374 1.26649 2.7
      vertex -0.956136 1.15577 2.7
    endloop
  endfacet
  facet normal 0.587783 -0.809019 0
    outer loop
      vertex -0.80374 1.26649 2.7
      vertex -0.956136 1.15577 0
      vertex -0.80374 1.26649 0
    endloop
  endfacet
  facet normal 0.248692 -0.968583 0
    outer loop
      vertex -0.463525 1.42658 0
      vertex -0.281072 1.47343 2.7
      vertex -0.463525 1.42658 2.7
    endloop
  endfacet
  facet normal 0.248692 -0.968583 0
    outer loop
      vertex -0.281072 1.47343 2.7
      vertex -0.463525 1.42658 0
      vertex -0.281072 1.47343 0
    endloop
  endfacet
  facet normal -0.998027 0.0627931 0
    outer loop
      vertex 1.48817 -0.188 0
      vertex 1.5 0 2.7
      vertex 1.5 0 0
    endloop
  endfacet
  facet normal -0.998027 0.0627931 0
    outer loop
      vertex 1.5 0 2.7
      vertex 1.48817 -0.188 0
      vertex 1.48817 -0.188 2.7
    endloop
  endfacet
  facet normal -0.481754 0.876307 0
    outer loop
      vertex 0.80374 -1.26649 0
      vertex 0.638668 -1.35724 2.7
      vertex 0.80374 -1.26649 2.7
    endloop
  endfacet
  facet normal -0.481754 0.876307 0
    outer loop
      vertex 0.638668 -1.35724 2.7
      vertex 0.80374 -1.26649 0
      vertex 0.638668 -1.35724 0
    endloop
  endfacet
  facet normal -0.684548 0.728968 0
    outer loop
      vertex 1.09345 -1.02682 0
      vertex 0.956136 -1.15577 2.7
      vertex 1.09345 -1.02682 2.7
    endloop
  endfacet
  facet normal -0.684548 0.728968 0
    outer loop
      vertex 0.956136 -1.15577 2.7
      vertex 1.09345 -1.02682 0
      vertex 0.956136 -1.15577 0
    endloop
  endfacet
  facet normal -0.982287 0.187382 0
    outer loop
      vertex 1.45287 -0.373034 0
      vertex 1.48817 -0.188 2.7
      vertex 1.48817 -0.188 0
    endloop
  endfacet
  facet normal -0.982287 0.187382 0
    outer loop
      vertex 1.48817 -0.188 2.7
      vertex 1.45287 -0.373034 0
      vertex 1.45287 -0.373034 2.7
    endloop
  endfacet
  facet normal -0.904829 0.425775 0
    outer loop
      vertex 1.31446 -0.722631 0
      vertex 1.39466 -0.552186 2.7
      vertex 1.39466 -0.552186 0
    endloop
  endfacet
  facet normal -0.904829 0.425775 0
    outer loop
      vertex 1.39466 -0.552186 2.7
      vertex 1.31446 -0.722631 0
      vertex 1.31446 -0.722631 2.7
    endloop
  endfacet
  facet normal -0.770513 0.637424 0
    outer loop
      vertex 1.09345 -1.02682 0
      vertex 1.21352 -0.881678 2.7
      vertex 1.21352 -0.881678 0
    endloop
  endfacet
  facet normal -0.770513 0.637424 0
    outer loop
      vertex 1.21352 -0.881678 2.7
      vertex 1.09345 -1.02682 0
      vertex 1.09345 -1.02682 2.7
    endloop
  endfacet
  facet normal 0.684548 0.728968 -0
    outer loop
      vertex -0.956136 -1.15577 0
      vertex -1.09345 -1.02682 2.7
      vertex -0.956136 -1.15577 2.7
    endloop
  endfacet
  facet normal 0.684548 0.728968 0
    outer loop
      vertex -1.09345 -1.02682 2.7
      vertex -0.956136 -1.15577 0
      vertex -1.09345 -1.02682 0
    endloop
  endfacet
  facet normal 0.844326 0.535829 0
    outer loop
      vertex -1.21352 -0.881678 2.7
      vertex -1.31446 -0.722631 0
      vertex -1.31446 -0.722631 2.7
    endloop
  endfacet
  facet normal 0.844326 0.535829 0
    outer loop
      vertex -1.31446 -0.722631 0
      vertex -1.21352 -0.881678 2.7
      vertex -1.21352 -0.881678 0
    endloop
  endfacet
  facet normal 0.951056 0.309019 0
    outer loop
      vertex -1.39466 -0.552186 2.7
      vertex -1.45287 -0.373034 0
      vertex -1.45287 -0.373034 2.7
    endloop
  endfacet
  facet normal 0.951056 0.309019 0
    outer loop
      vertex -1.45287 -0.373034 0
      vertex -1.39466 -0.552186 2.7
      vertex -1.39466 -0.552186 0
    endloop
  endfacet
  facet normal -0.248692 0.968583 0
    outer loop
      vertex 0.463525 -1.42658 0
      vertex 0.281072 -1.47343 2.7
      vertex 0.463525 -1.42658 2.7
    endloop
  endfacet
  facet normal -0.248692 0.968583 0
    outer loop
      vertex 0.281072 -1.47343 2.7
      vertex 0.463525 -1.42658 0
      vertex 0.281072 -1.47343 0
    endloop
  endfacet
  facet normal -0.587783 0.809019 0
    outer loop
      vertex 0.956136 -1.15577 0
      vertex 0.80374 -1.26649 2.7
      vertex 0.956136 -1.15577 2.7
    endloop
  endfacet
  facet normal -0.587783 0.809019 0
    outer loop
      vertex 0.80374 -1.26649 2.7
      vertex 0.956136 -1.15577 0
      vertex 0.80374 -1.26649 0
    endloop
  endfacet
  facet normal -0.951056 0.309019 0
    outer loop
      vertex 1.39466 -0.552186 0
      vertex 1.45287 -0.373034 2.7
      vertex 1.45287 -0.373034 0
    endloop
  endfacet
  facet normal -0.951056 0.309019 0
    outer loop
      vertex 1.45287 -0.373034 2.7
      vertex 1.39466 -0.552186 0
      vertex 1.39466 -0.552186 2.7
    endloop
  endfacet
  facet normal -0.844326 0.535829 0
    outer loop
      vertex 1.21352 -0.881678 0
      vertex 1.31446 -0.722631 2.7
      vertex 1.31446 -0.722631 0
    endloop
  endfacet
  facet normal -0.844326 0.535829 0
    outer loop
      vertex 1.31446 -0.722631 2.7
      vertex 1.21352 -0.881678 0
      vertex 1.21352 -0.881678 2.7
    endloop
  endfacet
  facet normal 0.125333 0.992115 -0
    outer loop
      vertex -0.0941849 -1.49704 0
      vertex -0.281072 -1.47343 2.7
      vertex -0.0941849 -1.49704 2.7
    endloop
  endfacet
  facet normal 0.125333 0.992115 0
    outer loop
      vertex -0.281072 -1.47343 2.7
      vertex -0.0941849 -1.49704 0
      vertex -0.281072 -1.47343 0
    endloop
  endfacet
  facet normal 0.368126 0.929776 -0
    outer loop
      vertex -0.463525 -1.42658 0
      vertex -0.638668 -1.35724 2.7
      vertex -0.463525 -1.42658 2.7
    endloop
  endfacet
  facet normal 0.368126 0.929776 0
    outer loop
      vertex -0.638668 -1.35724 2.7
      vertex -0.463525 -1.42658 0
      vertex -0.638668 -1.35724 0
    endloop
  endfacet
  facet normal 0.248692 0.968583 -0
    outer loop
      vertex -0.281072 -1.47343 0
      vertex -0.463525 -1.42658 2.7
      vertex -0.281072 -1.47343 2.7
    endloop
  endfacet
  facet normal 0.248692 0.968583 0
    outer loop
      vertex -0.463525 -1.42658 2.7
      vertex -0.281072 -1.47343 0
      vertex -0.463525 -1.42658 0
    endloop
  endfacet
  facet normal 0.770513 0.637424 0
    outer loop
      vertex -1.09345 -1.02682 2.7
      vertex -1.21352 -0.881678 0
      vertex -1.21352 -0.881678 2.7
    endloop
  endfacet
  facet normal 0.770513 0.637424 0
    outer loop
      vertex -1.21352 -0.881678 0
      vertex -1.09345 -1.02682 2.7
      vertex -1.09345 -1.02682 0
    endloop
  endfacet
  facet normal 0.904829 0.425775 0
    outer loop
      vertex -1.31446 -0.722631 2.7
      vertex -1.39466 -0.552186 0
      vertex -1.39466 -0.552186 2.7
    endloop
  endfacet
  facet normal 0.904829 0.425775 0
    outer loop
      vertex -1.39466 -0.552186 0
      vertex -1.31446 -0.722631 2.7
      vertex -1.31446 -0.722631 0
    endloop
  endfacet
  facet normal 0.982287 0.187382 0
    outer loop
      vertex -1.45287 -0.373034 2.7
      vertex -1.48817 -0.188 0
      vertex -1.48817 -0.188 2.7
    endloop
  endfacet
  facet normal 0.982287 0.187382 0
    outer loop
      vertex -1.48817 -0.188 0
      vertex -1.45287 -0.373034 2.7
      vertex -1.45287 -0.373034 0
    endloop
  endfacet
  facet normal 0.998027 0.0627931 0
    outer loop
      vertex -1.48817 -0.188 2.7
      vertex -1.5 0 0
      vertex -1.5 0 2.7
    endloop
  endfacet
  facet normal 0.998027 0.0627931 0
    outer loop
      vertex -1.5 0 0
      vertex -1.48817 -0.188 2.7
      vertex -1.48817 -0.188 0
    endloop
  endfacet
  facet normal 0.481754 0.876307 -0
    outer loop
      vertex -0.638668 -1.35724 0
      vertex -0.80374 -1.26649 2.7
      vertex -0.638668 -1.35724 2.7
    endloop
  endfacet
  facet normal 0.481754 0.876307 0
    outer loop
      vertex -0.80374 -1.26649 2.7
      vertex -0.638668 -1.35724 0
      vertex -0.80374 -1.26649 0
    endloop
  endfacet
  facet normal 0.587783 0.809019 -0
    outer loop
      vertex -0.80374 -1.26649 0
      vertex -0.956136 -1.15577 2.7
      vertex -0.80374 -1.26649 2.7
    endloop
  endfacet
  facet normal 0.587783 0.809019 0
    outer loop
      vertex -0.956136 -1.15577 2.7
      vertex -0.80374 -1.26649 0
      vertex -0.956136 -1.15577 0
    endloop
  endfacet
  facet normal -0.998027 -0.0627931 0
    outer loop
      vertex 9.5 18 0
      vertex 9.48817 18.188 2.7
      vertex 9.48817 18.188 0
    endloop
  endfacet
  facet normal -0.998027 -0.0627931 0
    outer loop
      vertex 9.48817 18.188 2.7
      vertex 9.5 18 0
      vertex 9.5 18 2.7
    endloop
  endfacet
  facet normal 0.125333 -0.992115 0
    outer loop
      vertex 7.71893 19.4734 0
      vertex 7.90581 19.497 2.7
      vertex 7.71893 19.4734 2.7
    endloop
  endfacet
  facet normal 0.125333 -0.992115 0
    outer loop
      vertex 7.90581 19.497 2.7
      vertex 7.71893 19.4734 0
      vertex 7.90581 19.497 0
    endloop
  endfacet
  facet normal -0.125333 0.992115 0
    outer loop
      vertex 8.28107 16.5266 0
      vertex 8.09418 16.503 2.7
      vertex 8.28107 16.5266 2.7
    endloop
  endfacet
  facet normal -0.125333 0.992115 0
    outer loop
      vertex 8.09418 16.503 2.7
      vertex 8.28107 16.5266 0
      vertex 8.09418 16.503 0
    endloop
  endfacet
  facet normal -0.684545 -0.728971 0
    outer loop
      vertex 8.95614 19.1558 0
      vertex 9.09345 19.0268 2.7
      vertex 8.95614 19.1558 2.7
    endloop
  endfacet
  facet normal -0.684545 -0.728971 -0
    outer loop
      vertex 9.09345 19.0268 2.7
      vertex 8.95614 19.1558 0
      vertex 9.09345 19.0268 0
    endloop
  endfacet
  facet normal 0.770515 -0.637422 0
    outer loop
      vertex 6.78647 18.8817 2.7
      vertex 6.90655 19.0268 0
      vertex 6.90655 19.0268 2.7
    endloop
  endfacet
  facet normal 0.770515 -0.637422 0
    outer loop
      vertex 6.90655 19.0268 0
      vertex 6.78647 18.8817 2.7
      vertex 6.78647 18.8817 0
    endloop
  endfacet
  facet normal 0.48175 -0.876309 0
    outer loop
      vertex 7.19626 19.2665 0
      vertex 7.36133 19.3572 2.7
      vertex 7.19626 19.2665 2.7
    endloop
  endfacet
  facet normal 0.48175 -0.876309 0
    outer loop
      vertex 7.36133 19.3572 2.7
      vertex 7.19626 19.2665 0
      vertex 7.36133 19.3572 0
    endloop
  endfacet
  facet normal -0.844328 0.535827 0
    outer loop
      vertex 9.21352 17.1183 0
      vertex 9.31446 17.2774 2.7
      vertex 9.31446 17.2774 0
    endloop
  endfacet
  facet normal -0.844328 0.535827 0
    outer loop
      vertex 9.31446 17.2774 2.7
      vertex 9.21352 17.1183 0
      vertex 9.21352 17.1183 2.7
    endloop
  endfacet
  facet normal -0.904829 -0.425775 0
    outer loop
      vertex 9.39466 18.5522 0
      vertex 9.31446 18.7226 2.7
      vertex 9.31446 18.7226 0
    endloop
  endfacet
  facet normal -0.904829 -0.425775 0
    outer loop
      vertex 9.31446 18.7226 2.7
      vertex 9.39466 18.5522 0
      vertex 9.39466 18.5522 2.7
    endloop
  endfacet
  facet normal -0.982287 -0.187381 0
    outer loop
      vertex 9.48817 18.188 0
      vertex 9.45287 18.373 2.7
      vertex 9.45287 18.373 0
    endloop
  endfacet
  facet normal -0.982287 -0.187381 0
    outer loop
      vertex 9.45287 18.373 2.7
      vertex 9.48817 18.188 0
      vertex 9.48817 18.188 2.7
    endloop
  endfacet
  facet normal -0.248692 -0.968583 0
    outer loop
      vertex 8.28107 19.4734 0
      vertex 8.46352 19.4266 2.7
      vertex 8.28107 19.4734 2.7
    endloop
  endfacet
  facet normal -0.248692 -0.968583 -0
    outer loop
      vertex 8.46352 19.4266 2.7
      vertex 8.28107 19.4734 0
      vertex 8.46352 19.4266 0
    endloop
  endfacet
  facet normal -0.125333 -0.992115 0
    outer loop
      vertex 8.09418 19.497 0
      vertex 8.28107 19.4734 2.7
      vertex 8.09418 19.497 2.7
    endloop
  endfacet
  facet normal -0.125333 -0.992115 -0
    outer loop
      vertex 8.28107 19.4734 2.7
      vertex 8.09418 19.497 0
      vertex 8.28107 19.4734 0
    endloop
  endfacet
  facet normal -0.48175 -0.876309 0
    outer loop
      vertex 8.63867 19.3572 0
      vertex 8.80374 19.2665 2.7
      vertex 8.63867 19.3572 2.7
    endloop
  endfacet
  facet normal -0.48175 -0.876309 -0
    outer loop
      vertex 8.80374 19.2665 2.7
      vertex 8.63867 19.3572 0
      vertex 8.80374 19.2665 0
    endloop
  endfacet
  facet normal 0.904829 -0.425775 0
    outer loop
      vertex 6.60534 18.5522 2.7
      vertex 6.68554 18.7226 0
      vertex 6.68554 18.7226 2.7
    endloop
  endfacet
  facet normal 0.904829 -0.425775 0
    outer loop
      vertex 6.68554 18.7226 0
      vertex 6.60534 18.5522 2.7
      vertex 6.60534 18.5522 0
    endloop
  endfacet
  facet normal 0.844328 -0.535827 0
    outer loop
      vertex 6.68554 18.7226 2.7
      vertex 6.78647 18.8817 0
      vertex 6.78647 18.8817 2.7
    endloop
  endfacet
  facet normal 0.844328 -0.535827 0
    outer loop
      vertex 6.78647 18.8817 0
      vertex 6.68554 18.7226 2.7
      vertex 6.68554 18.7226 0
    endloop
  endfacet
  facet normal 0.982287 -0.187381 0
    outer loop
      vertex 6.51183 18.188 2.7
      vertex 6.54712 18.373 0
      vertex 6.54712 18.373 2.7
    endloop
  endfacet
  facet normal 0.982287 -0.187381 0
    outer loop
      vertex 6.54712 18.373 0
      vertex 6.51183 18.188 2.7
      vertex 6.51183 18.188 0
    endloop
  endfacet
  facet normal 0.587783 -0.809019 0
    outer loop
      vertex 7.04386 19.1558 0
      vertex 7.19626 19.2665 2.7
      vertex 7.04386 19.1558 2.7
    endloop
  endfacet
  facet normal 0.587783 -0.809019 0
    outer loop
      vertex 7.19626 19.2665 2.7
      vertex 7.04386 19.1558 0
      vertex 7.19626 19.2665 0
    endloop
  endfacet
  facet normal 0.248692 -0.968583 0
    outer loop
      vertex 7.53647 19.4266 0
      vertex 7.71893 19.4734 2.7
      vertex 7.53647 19.4266 2.7
    endloop
  endfacet
  facet normal 0.248692 -0.968583 0
    outer loop
      vertex 7.71893 19.4734 2.7
      vertex 7.53647 19.4266 0
      vertex 7.71893 19.4734 0
    endloop
  endfacet
  facet normal -0.248682 0.968585 0
    outer loop
      vertex 8.46352 16.5734 0
      vertex 8.28107 16.5266 2.7
      vertex 8.46352 16.5734 2.7
    endloop
  endfacet
  facet normal -0.248682 0.968585 0
    outer loop
      vertex 8.28107 16.5266 2.7
      vertex 8.46352 16.5734 0
      vertex 8.28107 16.5266 0
    endloop
  endfacet
  facet normal -0.951055 -0.309022 0
    outer loop
      vertex 9.45287 18.373 0
      vertex 9.39466 18.5522 2.7
      vertex 9.39466 18.5522 0
    endloop
  endfacet
  facet normal -0.951055 -0.309022 0
    outer loop
      vertex 9.39466 18.5522 2.7
      vertex 9.45287 18.373 0
      vertex 9.45287 18.373 2.7
    endloop
  endfacet
  facet normal -0.770515 -0.637422 0
    outer loop
      vertex 9.21352 18.8817 0
      vertex 9.09345 19.0268 2.7
      vertex 9.09345 19.0268 0
    endloop
  endfacet
  facet normal -0.770515 -0.637422 0
    outer loop
      vertex 9.09345 19.0268 2.7
      vertex 9.21352 18.8817 0
      vertex 9.21352 18.8817 2.7
    endloop
  endfacet
  facet normal -0.844328 -0.535827 0
    outer loop
      vertex 9.31446 18.7226 0
      vertex 9.21352 18.8817 2.7
      vertex 9.21352 18.8817 0
    endloop
  endfacet
  facet normal -0.844328 -0.535827 0
    outer loop
      vertex 9.21352 18.8817 2.7
      vertex 9.31446 18.7226 0
      vertex 9.31446 18.7226 2.7
    endloop
  endfacet
  facet normal 0 -1 0
    outer loop
      vertex 7.90581 19.497 0
      vertex 8.09418 19.497 2.7
      vertex 7.90581 19.497 2.7
    endloop
  endfacet
  facet normal 0 -1 -0
    outer loop
      vertex 8.09418 19.497 2.7
      vertex 7.90581 19.497 0
      vertex 8.09418 19.497 0
    endloop
  endfacet
  facet normal -0.587783 -0.809019 0
    outer loop
      vertex 8.80374 19.2665 0
      vertex 8.95614 19.1558 2.7
      vertex 8.80374 19.2665 2.7
    endloop
  endfacet
  facet normal -0.587783 -0.809019 -0
    outer loop
      vertex 8.95614 19.1558 2.7
      vertex 8.80374 19.2665 0
      vertex 8.95614 19.1558 0
    endloop
  endfacet
  facet normal 0.951055 -0.309022 0
    outer loop
      vertex 6.54712 18.373 2.7
      vertex 6.60534 18.5522 0
      vertex 6.60534 18.5522 2.7
    endloop
  endfacet
  facet normal 0.951055 -0.309022 0
    outer loop
      vertex 6.60534 18.5522 0
      vertex 6.54712 18.373 2.7
      vertex 6.54712 18.373 0
    endloop
  endfacet
  facet normal 0.998027 -0.062788 0
    outer loop
      vertex 6.5 18 2.7
      vertex 6.51183 18.188 0
      vertex 6.51183 18.188 2.7
    endloop
  endfacet
  facet normal 0.998027 -0.062788 0
    outer loop
      vertex 6.51183 18.188 0
      vertex 6.5 18 2.7
      vertex 6.5 18 0
    endloop
  endfacet
  facet normal 0.684545 -0.728971 0
    outer loop
      vertex 6.90655 19.0268 0
      vertex 7.04386 19.1558 2.7
      vertex 6.90655 19.0268 2.7
    endloop
  endfacet
  facet normal 0.684545 -0.728971 0
    outer loop
      vertex 7.04386 19.1558 2.7
      vertex 6.90655 19.0268 0
      vertex 7.04386 19.1558 0
    endloop
  endfacet
  facet normal -0.998027 0.0627931 0
    outer loop
      vertex 9.48817 17.812 0
      vertex 9.5 18 2.7
      vertex 9.5 18 0
    endloop
  endfacet
  facet normal -0.998027 0.0627931 0
    outer loop
      vertex 9.5 18 2.7
      vertex 9.48817 17.812 0
      vertex 9.48817 17.812 2.7
    endloop
  endfacet
  facet normal -0.770511 0.637426 0
    outer loop
      vertex 9.09345 16.9732 0
      vertex 9.21352 17.1183 2.7
      vertex 9.21352 17.1183 0
    endloop
  endfacet
  facet normal -0.770511 0.637426 0
    outer loop
      vertex 9.21352 17.1183 2.7
      vertex 9.09345 16.9732 0
      vertex 9.09345 16.9732 2.7
    endloop
  endfacet
  facet normal -0.982287 0.187381 0
    outer loop
      vertex 9.45287 17.627 0
      vertex 9.48817 17.812 2.7
      vertex 9.48817 17.812 0
    endloop
  endfacet
  facet normal -0.982287 0.187381 0
    outer loop
      vertex 9.48817 17.812 2.7
      vertex 9.45287 17.627 0
      vertex 9.45287 17.627 2.7
    endloop
  endfacet
  facet normal 0.248682 0.968585 -0
    outer loop
      vertex 7.71893 16.5266 0
      vertex 7.53647 16.5734 2.7
      vertex 7.71893 16.5266 2.7
    endloop
  endfacet
  facet normal 0.248682 0.968585 0
    outer loop
      vertex 7.53647 16.5734 2.7
      vertex 7.71893 16.5266 0
      vertex 7.53647 16.5734 0
    endloop
  endfacet
  facet normal -0.481757 0.876305 0
    outer loop
      vertex 8.80374 16.7335 0
      vertex 8.63867 16.6428 2.7
      vertex 8.80374 16.7335 2.7
    endloop
  endfacet
  facet normal -0.481757 0.876305 0
    outer loop
      vertex 8.63867 16.6428 2.7
      vertex 8.80374 16.7335 0
      vertex 8.63867 16.6428 0
    endloop
  endfacet
  facet normal -0.368131 -0.929774 0
    outer loop
      vertex 8.46352 19.4266 0
      vertex 8.63867 19.3572 2.7
      vertex 8.46352 19.4266 2.7
    endloop
  endfacet
  facet normal -0.368131 -0.929774 -0
    outer loop
      vertex 8.63867 19.3572 2.7
      vertex 8.46352 19.4266 0
      vertex 8.63867 19.3572 0
    endloop
  endfacet
  facet normal 0.998027 0.062788 0
    outer loop
      vertex 6.51183 17.812 2.7
      vertex 6.5 18 0
      vertex 6.5 18 2.7
    endloop
  endfacet
  facet normal 0.998027 0.062788 0
    outer loop
      vertex 6.5 18 0
      vertex 6.51183 17.812 2.7
      vertex 6.51183 17.812 0
    endloop
  endfacet
  facet normal 0.368131 -0.929774 0
    outer loop
      vertex 7.36133 19.3572 0
      vertex 7.53647 19.4266 2.7
      vertex 7.36133 19.3572 2.7
    endloop
  endfacet
  facet normal 0.368131 -0.929774 0
    outer loop
      vertex 7.53647 19.4266 2.7
      vertex 7.36133 19.3572 0
      vertex 7.53647 19.4266 0
    endloop
  endfacet
  facet normal -0.587783 0.809019 0
    outer loop
      vertex 8.95614 16.8442 0
      vertex 8.80374 16.7335 2.7
      vertex 8.95614 16.8442 2.7
    endloop
  endfacet
  facet normal -0.587783 0.809019 0
    outer loop
      vertex 8.80374 16.7335 2.7
      vertex 8.95614 16.8442 0
      vertex 8.80374 16.7335 0
    endloop
  endfacet
  facet normal -0.684545 0.728971 0
    outer loop
      vertex 9.09345 16.9732 0
      vertex 8.95614 16.8442 2.7
      vertex 9.09345 16.9732 2.7
    endloop
  endfacet
  facet normal -0.684545 0.728971 0
    outer loop
      vertex 8.95614 16.8442 2.7
      vertex 9.09345 16.9732 0
      vertex 8.95614 16.8442 0
    endloop
  endfacet
  facet normal -0.904829 0.425775 0
    outer loop
      vertex 9.31446 17.2774 0
      vertex 9.39466 17.4478 2.7
      vertex 9.39466 17.4478 0
    endloop
  endfacet
  facet normal -0.904829 0.425775 0
    outer loop
      vertex 9.39466 17.4478 2.7
      vertex 9.31446 17.2774 0
      vertex 9.31446 17.2774 2.7
    endloop
  endfacet
  facet normal 0.684545 0.728971 -0
    outer loop
      vertex 7.04386 16.8442 0
      vertex 6.90655 16.9732 2.7
      vertex 7.04386 16.8442 2.7
    endloop
  endfacet
  facet normal 0.684545 0.728971 0
    outer loop
      vertex 6.90655 16.9732 2.7
      vertex 7.04386 16.8442 0
      vertex 6.90655 16.9732 0
    endloop
  endfacet
  facet normal 0.844328 0.535827 0
    outer loop
      vertex 6.78647 17.1183 2.7
      vertex 6.68554 17.2774 0
      vertex 6.68554 17.2774 2.7
    endloop
  endfacet
  facet normal 0.844328 0.535827 0
    outer loop
      vertex 6.68554 17.2774 0
      vertex 6.78647 17.1183 2.7
      vertex 6.78647 17.1183 0
    endloop
  endfacet
  facet normal 0.982287 0.187381 0
    outer loop
      vertex 6.54712 17.627 2.7
      vertex 6.51183 17.812 0
      vertex 6.51183 17.812 2.7
    endloop
  endfacet
  facet normal 0.982287 0.187381 0
    outer loop
      vertex 6.51183 17.812 0
      vertex 6.54712 17.627 2.7
      vertex 6.54712 17.627 0
    endloop
  endfacet
  facet normal 0.951056 0.309019 0
    outer loop
      vertex 6.60534 17.4478 2.7
      vertex 6.54712 17.627 0
      vertex 6.54712 17.627 2.7
    endloop
  endfacet
  facet normal 0.951056 0.309019 0
    outer loop
      vertex 6.54712 17.627 0
      vertex 6.60534 17.4478 2.7
      vertex 6.60534 17.4478 0
    endloop
  endfacet
  facet normal 0.904829 0.425775 0
    outer loop
      vertex 6.68554 17.2774 2.7
      vertex 6.60534 17.4478 0
      vertex 6.60534 17.4478 2.7
    endloop
  endfacet
  facet normal 0.904829 0.425775 0
    outer loop
      vertex 6.60534 17.4478 0
      vertex 6.68554 17.2774 2.7
      vertex 6.68554 17.2774 0
    endloop
  endfacet
  facet normal -0.368131 0.929774 0
    outer loop
      vertex 8.63867 16.6428 0
      vertex 8.46352 16.5734 2.7
      vertex 8.63867 16.6428 2.7
    endloop
  endfacet
  facet normal -0.368131 0.929774 0
    outer loop
      vertex 8.46352 16.5734 2.7
      vertex 8.63867 16.6428 0
      vertex 8.46352 16.5734 0
    endloop
  endfacet
  facet normal -0.951056 0.309019 0
    outer loop
      vertex 9.39466 17.4478 0
      vertex 9.45287 17.627 2.7
      vertex 9.45287 17.627 0
    endloop
  endfacet
  facet normal -0.951056 0.309019 0
    outer loop
      vertex 9.45287 17.627 2.7
      vertex 9.39466 17.4478 0
      vertex 9.39466 17.4478 2.7
    endloop
  endfacet
  facet normal 0 1 -0
    outer loop
      vertex 8.09418 16.503 0
      vertex 7.90581 16.503 2.7
      vertex 8.09418 16.503 2.7
    endloop
  endfacet
  facet normal 0 1 0
    outer loop
      vertex 7.90581 16.503 2.7
      vertex 8.09418 16.503 0
      vertex 7.90581 16.503 0
    endloop
  endfacet
  facet normal 0.368131 0.929774 -0
    outer loop
      vertex 7.53647 16.5734 0
      vertex 7.36133 16.6428 2.7
      vertex 7.53647 16.5734 2.7
    endloop
  endfacet
  facet normal 0.368131 0.929774 0
    outer loop
      vertex 7.36133 16.6428 2.7
      vertex 7.53647 16.5734 0
      vertex 7.36133 16.6428 0
    endloop
  endfacet
  facet normal 0.125333 0.992115 -0
    outer loop
      vertex 7.90581 16.503 0
      vertex 7.71893 16.5266 2.7
      vertex 7.90581 16.503 2.7
    endloop
  endfacet
  facet normal 0.125333 0.992115 0
    outer loop
      vertex 7.71893 16.5266 2.7
      vertex 7.90581 16.503 0
      vertex 7.71893 16.5266 0
    endloop
  endfacet
  facet normal 0.770511 0.637426 0
    outer loop
      vertex 6.90655 16.9732 2.7
      vertex 6.78647 17.1183 0
      vertex 6.78647 17.1183 2.7
    endloop
  endfacet
  facet normal 0.770511 0.637426 0
    outer loop
      vertex 6.78647 17.1183 0
      vertex 6.90655 16.9732 2.7
      vertex 6.90655 16.9732 0
    endloop
  endfacet
  facet normal 0.481757 0.876305 -0
    outer loop
      vertex 7.36133 16.6428 0
      vertex 7.19626 16.7335 2.7
      vertex 7.36133 16.6428 2.7
    endloop
  endfacet
  facet normal 0.481757 0.876305 0
    outer loop
      vertex 7.19626 16.7335 2.7
      vertex 7.36133 16.6428 0
      vertex 7.19626 16.7335 0
    endloop
  endfacet
  facet normal 0.587783 0.809019 -0
    outer loop
      vertex 7.19626 16.7335 0
      vertex 7.04386 16.8442 2.7
      vertex 7.19626 16.7335 2.7
    endloop
  endfacet
  facet normal 0.587783 0.809019 0
    outer loop
      vertex 7.04386 16.8442 2.7
      vertex 7.19626 16.7335 0
      vertex 7.04386 16.8442 0
    endloop
  endfacet
endsolid OpenSCAD_Model
