solid OpenSCAD_Model
  facet normal -1 0 0
    outer loop
      vertex 0 0 0
      vertex 0 18 5
      vertex 0 18 0
    endloop
  endfacet
  facet normal -1 -0 0
    outer loop
      vertex 0 18 5
      vertex 0 0 0
      vertex 0 0 5
    endloop
  endfacet
  facet normal 0 0 1
    outer loop
      vertex 4.46722 4.31187 5
      vertex 49.5328 4.31187 5
      vertex 4.46722 13.6881 5
    endloop
  endfacet
  facet normal 0 0 1
    outer loop
      vertex 49.5328 4.31187 5
      vertex 4.46722 4.31187 5
      vertex 4.5 4 5
    endloop
  endfacet
  facet normal -0 0 1
    outer loop
      vertex 4.37032 13.3899 5
      vertex 4.46722 4.31187 5
      vertex 4.46722 13.6881 5
    endloop
  endfacet
  facet normal 0 0 1
    outer loop
      vertex 4.37032 13.3899 5
      vertex 4.37032 4.6101 5
      vertex 4.46722 4.31187 5
    endloop
  endfacet
  facet normal -0 0 1
    outer loop
      vertex 4.21352 13.1183 5
      vertex 4.37032 4.6101 5
      vertex 4.37032 13.3899 5
    endloop
  endfacet
  facet normal 0 0 1
    outer loop
      vertex 4.21352 13.1183 5
      vertex 4.21352 4.88168 5
      vertex 4.37032 4.6101 5
    endloop
  endfacet
  facet normal -0 0 1
    outer loop
      vertex 4.0037 12.8853 5
      vertex 4.21352 4.88168 5
      vertex 4.21352 13.1183 5
    endloop
  endfacet
  facet normal 0 0 1
    outer loop
      vertex 4.0037 12.8853 5
      vertex 4.0037 5.11472 5
      vertex 4.21352 4.88168 5
    endloop
  endfacet
  facet normal -0 0 1
    outer loop
      vertex 3.75 12.701 5
      vertex 4.0037 5.11472 5
      vertex 4.0037 12.8853 5
    endloop
  endfacet
  facet normal 0 0 1
    outer loop
      vertex 3.75 12.701 5
      vertex 3.75 5.29904 5
      vertex 4.0037 5.11472 5
    endloop
  endfacet
  facet normal -0 0 1
    outer loop
      vertex 3.46352 12.5734 5
      vertex 3.75 5.29904 5
      vertex 3.75 12.701 5
    endloop
  endfacet
  facet normal 0 0 1
    outer loop
      vertex 3.46352 12.5734 5
      vertex 3.46352 5.42658 5
      vertex 3.75 5.29904 5
    endloop
  endfacet
  facet normal -0 0 1
    outer loop
      vertex 3.15679 12.5082 5
      vertex 3.46352 5.42658 5
      vertex 3.46352 12.5734 5
    endloop
  endfacet
  facet normal 0 0 1
    outer loop
      vertex 3.15679 12.5082 5
      vertex 3.15679 5.49178 5
      vertex 3.46352 5.42658 5
    endloop
  endfacet
  facet normal -0 0 1
    outer loop
      vertex 2.84321 12.5082 5
      vertex 3.15679 5.49178 5
      vertex 3.15679 12.5082 5
    endloop
  endfacet
  facet normal 0 0 1
    outer loop
      vertex 2.84321 12.5082 5
      vertex 2.84321 5.49178 5
      vertex 3.15679 5.49178 5
    endloop
  endfacet
  facet normal 0 0 1
    outer loop
      vertex 2.53647 12.5734 5
      vertex 2.84321 5.49178 5
      vertex 2.84321 12.5082 5
    endloop
  endfacet
  facet normal 0 0 1
    outer loop
      vertex 2.53647 12.5734 5
      vertex 2.53647 5.42658 5
      vertex 2.84321 5.49178 5
    endloop
  endfacet
  facet normal 0 0 1
    outer loop
      vertex 2.53647 12.5734 5
      vertex 2.25 5.29904 5
      vertex 2.53647 5.42658 5
    endloop
  endfacet
  facet normal 0 0 1
    outer loop
      vertex 2.25 12.701 5
      vertex 2.25 5.29904 5
      vertex 2.53647 12.5734 5
    endloop
  endfacet
  facet normal 0 0 1
    outer loop
      vertex 1.9963 12.8853 5
      vertex 2.25 5.29904 5
      vertex 2.25 12.701 5
    endloop
  endfacet
  facet normal 0 0 1
    outer loop
      vertex 1.9963 12.8853 5
      vertex 1.9963 5.11472 5
      vertex 2.25 5.29904 5
    endloop
  endfacet
  facet normal 0 0 1
    outer loop
      vertex 1.78647 13.1183 5
      vertex 1.9963 5.11472 5
      vertex 1.9963 12.8853 5
    endloop
  endfacet
  facet normal 0 0 1
    outer loop
      vertex 1.78647 13.1183 5
      vertex 1.78647 4.88168 5
      vertex 1.9963 5.11472 5
    endloop
  endfacet
  facet normal 0 0 1
    outer loop
      vertex 1.62968 13.3899 5
      vertex 1.78647 4.88168 5
      vertex 1.78647 13.1183 5
    endloop
  endfacet
  facet normal 0 0 1
    outer loop
      vertex 1.62968 13.3899 5
      vertex 1.62968 4.6101 5
      vertex 1.78647 4.88168 5
    endloop
  endfacet
  facet normal 0 0 1
    outer loop
      vertex 1.53278 13.6881 5
      vertex 1.62968 4.6101 5
      vertex 1.62968 13.3899 5
    endloop
  endfacet
  facet normal 0 0 1
    outer loop
      vertex 1.53278 13.6881 5
      vertex 1.53278 4.31187 5
      vertex 1.62968 4.6101 5
    endloop
  endfacet
  facet normal 0 0 1
    outer loop
      vertex 0 18 5
      vertex 1.53278 13.6881 5
      vertex 1.5 14 5
    endloop
  endfacet
  facet normal 0 0 1
    outer loop
      vertex 1.53278 13.6881 5
      vertex 0 18 5
      vertex 1.53278 4.31187 5
    endloop
  endfacet
  facet normal -0 0 1
    outer loop
      vertex 52.4672 4.31187 5
      vertex 54 0 5
      vertex 52.4672 13.6881 5
    endloop
  endfacet
  facet normal 0 0 1
    outer loop
      vertex 54 0 5
      vertex 52.4672 4.31187 5
      vertex 52.5 4 5
    endloop
  endfacet
  facet normal -0 0 1
    outer loop
      vertex 52.3703 13.3899 5
      vertex 52.4672 4.31187 5
      vertex 52.4672 13.6881 5
    endloop
  endfacet
  facet normal 0 0 1
    outer loop
      vertex 52.3703 13.3899 5
      vertex 52.3703 4.6101 5
      vertex 52.4672 4.31187 5
    endloop
  endfacet
  facet normal -0 0 1
    outer loop
      vertex 52.2135 13.1183 5
      vertex 52.3703 4.6101 5
      vertex 52.3703 13.3899 5
    endloop
  endfacet
  facet normal 0 0 1
    outer loop
      vertex 52.2135 13.1183 5
      vertex 52.2135 4.88168 5
      vertex 52.3703 4.6101 5
    endloop
  endfacet
  facet normal -0 0 1
    outer loop
      vertex 52.0037 12.8853 5
      vertex 52.2135 4.88168 5
      vertex 52.2135 13.1183 5
    endloop
  endfacet
  facet normal 0 0 1
    outer loop
      vertex 52.0037 12.8853 5
      vertex 52.0037 5.11472 5
      vertex 52.2135 4.88168 5
    endloop
  endfacet
  facet normal -0 0 1
    outer loop
      vertex 51.75 12.701 5
      vertex 52.0037 5.11472 5
      vertex 52.0037 12.8853 5
    endloop
  endfacet
  facet normal 0 0 1
    outer loop
      vertex 51.75 12.701 5
      vertex 51.75 5.29904 5
      vertex 52.0037 5.11472 5
    endloop
  endfacet
  facet normal -0 0 1
    outer loop
      vertex 51.4635 12.5734 5
      vertex 51.75 5.29904 5
      vertex 51.75 12.701 5
    endloop
  endfacet
  facet normal 0 0 1
    outer loop
      vertex 51.4635 12.5734 5
      vertex 51.4635 5.42658 5
      vertex 51.75 5.29904 5
    endloop
  endfacet
  facet normal -0 0 1
    outer loop
      vertex 51.1568 12.5082 5
      vertex 51.4635 5.42658 5
      vertex 51.4635 12.5734 5
    endloop
  endfacet
  facet normal 0 0 1
    outer loop
      vertex 51.1568 12.5082 5
      vertex 51.1568 5.49178 5
      vertex 51.4635 5.42658 5
    endloop
  endfacet
  facet normal -0 0 1
    outer loop
      vertex 50.8432 12.5082 5
      vertex 51.1568 5.49178 5
      vertex 51.1568 12.5082 5
    endloop
  endfacet
  facet normal 0 0 1
    outer loop
      vertex 50.8432 12.5082 5
      vertex 50.8432 5.49178 5
      vertex 51.1568 5.49178 5
    endloop
  endfacet
  facet normal 0 0 1
    outer loop
      vertex 50.5365 12.5734 5
      vertex 50.8432 5.49178 5
      vertex 50.8432 12.5082 5
    endloop
  endfacet
  facet normal 0 0 1
    outer loop
      vertex 50.5365 12.5734 5
      vertex 50.5365 5.42658 5
      vertex 50.8432 5.49178 5
    endloop
  endfacet
  facet normal 0 0 1
    outer loop
      vertex 50.25 12.701 5
      vertex 50.5365 5.42658 5
      vertex 50.5365 12.5734 5
    endloop
  endfacet
  facet normal 0 0 1
    outer loop
      vertex 50.25 12.701 5
      vertex 50.25 5.29904 5
      vertex 50.5365 5.42658 5
    endloop
  endfacet
  facet normal 0 0 1
    outer loop
      vertex 49.9963 12.8853 5
      vertex 50.25 5.29904 5
      vertex 50.25 12.701 5
    endloop
  endfacet
  facet normal 0 0 1
    outer loop
      vertex 49.9963 12.8853 5
      vertex 49.9963 5.11472 5
      vertex 50.25 5.29904 5
    endloop
  endfacet
  facet normal 0 0 1
    outer loop
      vertex 49.7865 13.1183 5
      vertex 49.9963 5.11472 5
      vertex 49.9963 12.8853 5
    endloop
  endfacet
  facet normal 0 0 1
    outer loop
      vertex 49.7865 13.1183 5
      vertex 49.7865 4.88168 5
      vertex 49.9963 5.11472 5
    endloop
  endfacet
  facet normal 0 0 1
    outer loop
      vertex 49.6297 13.3899 5
      vertex 49.7865 4.88168 5
      vertex 49.7865 13.1183 5
    endloop
  endfacet
  facet normal 0 0 1
    outer loop
      vertex 49.6297 13.3899 5
      vertex 49.6297 4.6101 5
      vertex 49.7865 4.88168 5
    endloop
  endfacet
  facet normal 0 0 1
    outer loop
      vertex 49.5328 13.6881 5
      vertex 49.6297 4.6101 5
      vertex 49.6297 13.3899 5
    endloop
  endfacet
  facet normal 0 0 1
    outer loop
      vertex 49.5328 13.6881 5
      vertex 49.5328 4.31187 5
      vertex 49.6297 4.6101 5
    endloop
  endfacet
  facet normal -0 0 1
    outer loop
      vertex 4.5 14 5
      vertex 49.5328 13.6881 5
      vertex 49.5 14 5
    endloop
  endfacet
  facet normal 0 0 1
    outer loop
      vertex 4.46722 13.6881 5
      vertex 49.5328 13.6881 5
      vertex 4.5 14 5
    endloop
  endfacet
  facet normal 0 0 1
    outer loop
      vertex 52.4672 13.6881 5
      vertex 54 18 5
      vertex 52.5 14 5
    endloop
  endfacet
  facet normal 0 0 1
    outer loop
      vertex 54 18 5
      vertex 52.4672 14.3119 5
      vertex 52.5 14 5
    endloop
  endfacet
  facet normal 0 0 1
    outer loop
      vertex 54 18 5
      vertex 52.3703 14.6101 5
      vertex 52.4672 14.3119 5
    endloop
  endfacet
  facet normal 0 0 1
    outer loop
      vertex 54 18 5
      vertex 52.2135 14.8817 5
      vertex 52.3703 14.6101 5
    endloop
  endfacet
  facet normal 0 0 1
    outer loop
      vertex 54 18 5
      vertex 52.0037 15.1147 5
      vertex 52.2135 14.8817 5
    endloop
  endfacet
  facet normal 0 0 1
    outer loop
      vertex 54 18 5
      vertex 51.75 15.299 5
      vertex 52.0037 15.1147 5
    endloop
  endfacet
  facet normal 0 0 1
    outer loop
      vertex 54 18 5
      vertex 51.4635 15.4266 5
      vertex 51.75 15.299 5
    endloop
  endfacet
  facet normal 0 0 1
    outer loop
      vertex 54 18 5
      vertex 51.1568 15.4918 5
      vertex 51.4635 15.4266 5
    endloop
  endfacet
  facet normal 0 0 1
    outer loop
      vertex 54 18 5
      vertex 50.8432 15.4918 5
      vertex 51.1568 15.4918 5
    endloop
  endfacet
  facet normal 0 0 1
    outer loop
      vertex 54 18 5
      vertex 50.5365 15.4266 5
      vertex 50.8432 15.4918 5
    endloop
  endfacet
  facet normal 0 0 1
    outer loop
      vertex 54 18 5
      vertex 50.25 15.299 5
      vertex 50.5365 15.4266 5
    endloop
  endfacet
  facet normal 0 0 1
    outer loop
      vertex 49.5328 13.6881 5
      vertex 4.46722 13.6881 5
      vertex 49.5328 4.31187 5
    endloop
  endfacet
  facet normal 0 0 1
    outer loop
      vertex 49.5328 14.3119 5
      vertex 4.5 14 5
      vertex 49.5 14 5
    endloop
  endfacet
  facet normal 0 0 1
    outer loop
      vertex 4.46722 14.3119 5
      vertex 49.5328 14.3119 5
      vertex 49.6297 14.6101 5
    endloop
  endfacet
  facet normal 0 0 1
    outer loop
      vertex 4.37032 14.6101 5
      vertex 49.6297 14.6101 5
      vertex 49.7865 14.8817 5
    endloop
  endfacet
  facet normal 0 0 1
    outer loop
      vertex 4.21352 14.8817 5
      vertex 49.7865 14.8817 5
      vertex 49.9963 15.1147 5
    endloop
  endfacet
  facet normal 0 0 1
    outer loop
      vertex 4.0037 15.1147 5
      vertex 49.9963 15.1147 5
      vertex 50.25 15.299 5
    endloop
  endfacet
  facet normal 0 0 1
    outer loop
      vertex 3.75 15.299 5
      vertex 50.25 15.299 5
      vertex 54 18 5
    endloop
  endfacet
  facet normal 0 0 1
    outer loop
      vertex 49.5328 14.3119 5
      vertex 4.46722 14.3119 5
      vertex 4.5 14 5
    endloop
  endfacet
  facet normal 0 0 1
    outer loop
      vertex 49.6297 14.6101 5
      vertex 4.37032 14.6101 5
      vertex 4.46722 14.3119 5
    endloop
  endfacet
  facet normal 0 0 1
    outer loop
      vertex 49.7865 14.8817 5
      vertex 4.21352 14.8817 5
      vertex 4.37032 14.6101 5
    endloop
  endfacet
  facet normal 0 0 1
    outer loop
      vertex 49.9963 15.1147 5
      vertex 4.0037 15.1147 5
      vertex 4.21352 14.8817 5
    endloop
  endfacet
  facet normal 0 0 1
    outer loop
      vertex 50.25 15.299 5
      vertex 3.75 15.299 5
      vertex 4.0037 15.1147 5
    endloop
  endfacet
  facet normal -0 0 1
    outer loop
      vertex 0 18 5
      vertex 3.75 15.299 5
      vertex 54 18 5
    endloop
  endfacet
  facet normal 0 0 1
    outer loop
      vertex 3.75 15.299 5
      vertex 0 18 5
      vertex 3.46352 15.4266 5
    endloop
  endfacet
  facet normal 0 0 1
    outer loop
      vertex 3.46352 15.4266 5
      vertex 0 18 5
      vertex 3.15679 15.4918 5
    endloop
  endfacet
  facet normal 0 0 1
    outer loop
      vertex 0 0 5
      vertex 1.53278 4.31187 5
      vertex 0 18 5
    endloop
  endfacet
  facet normal 0 0 1
    outer loop
      vertex 1.53278 14.3119 5
      vertex 0 18 5
      vertex 1.5 14 5
    endloop
  endfacet
  facet normal 0 0 1
    outer loop
      vertex 1.62968 14.6101 5
      vertex 0 18 5
      vertex 1.53278 14.3119 5
    endloop
  endfacet
  facet normal 0 0 1
    outer loop
      vertex 1.78647 14.8817 5
      vertex 0 18 5
      vertex 1.62968 14.6101 5
    endloop
  endfacet
  facet normal 0 0 1
    outer loop
      vertex 1.9963 15.1147 5
      vertex 0 18 5
      vertex 1.78647 14.8817 5
    endloop
  endfacet
  facet normal 0 0 1
    outer loop
      vertex 2.25 15.299 5
      vertex 0 18 5
      vertex 1.9963 15.1147 5
    endloop
  endfacet
  facet normal 0 0 1
    outer loop
      vertex 2.53647 15.4266 5
      vertex 0 18 5
      vertex 2.25 15.299 5
    endloop
  endfacet
  facet normal 0 0 1
    outer loop
      vertex 2.84321 15.4918 5
      vertex 0 18 5
      vertex 2.53647 15.4266 5
    endloop
  endfacet
  facet normal 0 0 1
    outer loop
      vertex 3.15679 15.4918 5
      vertex 0 18 5
      vertex 2.84321 15.4918 5
    endloop
  endfacet
  facet normal 0 0 1
    outer loop
      vertex 54 18 5
      vertex 52.4672 13.6881 5
      vertex 54 0 5
    endloop
  endfacet
  facet normal -0 0 1
    outer loop
      vertex 52.4672 3.68813 5
      vertex 54 0 5
      vertex 52.5 4 5
    endloop
  endfacet
  facet normal -0 0 1
    outer loop
      vertex 52.3703 3.38989 5
      vertex 54 0 5
      vertex 52.4672 3.68813 5
    endloop
  endfacet
  facet normal -0 0 1
    outer loop
      vertex 52.2135 3.11832 5
      vertex 54 0 5
      vertex 52.3703 3.38989 5
    endloop
  endfacet
  facet normal -0 0 1
    outer loop
      vertex 52.0037 2.88528 5
      vertex 54 0 5
      vertex 52.2135 3.11832 5
    endloop
  endfacet
  facet normal -0 0 1
    outer loop
      vertex 51.75 2.70096 5
      vertex 54 0 5
      vertex 52.0037 2.88528 5
    endloop
  endfacet
  facet normal -0 0 1
    outer loop
      vertex 51.4635 2.57341 5
      vertex 54 0 5
      vertex 51.75 2.70096 5
    endloop
  endfacet
  facet normal -0 0 1
    outer loop
      vertex 51.1568 2.50822 5
      vertex 54 0 5
      vertex 51.4635 2.57341 5
    endloop
  endfacet
  facet normal -0 0 1
    outer loop
      vertex 50.8432 2.50822 5
      vertex 54 0 5
      vertex 51.1568 2.50822 5
    endloop
  endfacet
  facet normal 0 0 1
    outer loop
      vertex 50.5365 2.57341 5
      vertex 54 0 5
      vertex 50.8432 2.50822 5
    endloop
  endfacet
  facet normal 0 0 1
    outer loop
      vertex 50.25 2.70096 5
      vertex 54 0 5
      vertex 50.5365 2.57341 5
    endloop
  endfacet
  facet normal 0 0 1
    outer loop
      vertex 49.5328 4.31187 5
      vertex 4.5 4 5
      vertex 49.5 4 5
    endloop
  endfacet
  facet normal 0 0 1
    outer loop
      vertex 49.5 4 5
      vertex 4.5 4 5
      vertex 49.5328 3.68813 5
    endloop
  endfacet
  facet normal 0 0 1
    outer loop
      vertex 4.46722 3.68813 5
      vertex 49.5328 3.68813 5
      vertex 4.5 4 5
    endloop
  endfacet
  facet normal 0 0 1
    outer loop
      vertex 49.5328 3.68813 5
      vertex 4.46722 3.68813 5
      vertex 49.6297 3.38989 5
    endloop
  endfacet
  facet normal 0 0 1
    outer loop
      vertex 4.37032 3.38989 5
      vertex 49.6297 3.38989 5
      vertex 4.46722 3.68813 5
    endloop
  endfacet
  facet normal 0 0 1
    outer loop
      vertex 49.6297 3.38989 5
      vertex 4.37032 3.38989 5
      vertex 49.7865 3.11832 5
    endloop
  endfacet
  facet normal 0 0 1
    outer loop
      vertex 4.21352 3.11832 5
      vertex 49.7865 3.11832 5
      vertex 4.37032 3.38989 5
    endloop
  endfacet
  facet normal 0 0 1
    outer loop
      vertex 49.7865 3.11832 5
      vertex 4.21352 3.11832 5
      vertex 49.9963 2.88528 5
    endloop
  endfacet
  facet normal 0 0 1
    outer loop
      vertex 4.0037 2.88528 5
      vertex 49.9963 2.88528 5
      vertex 4.21352 3.11832 5
    endloop
  endfacet
  facet normal 0 0 1
    outer loop
      vertex 49.9963 2.88528 5
      vertex 4.0037 2.88528 5
      vertex 50.25 2.70096 5
    endloop
  endfacet
  facet normal 0 0 1
    outer loop
      vertex 3.75 2.70096 5
      vertex 50.25 2.70096 5
      vertex 4.0037 2.88528 5
    endloop
  endfacet
  facet normal 0 0 1
    outer loop
      vertex 50.25 2.70096 5
      vertex 3.75 2.70096 5
      vertex 54 0 5
    endloop
  endfacet
  facet normal 0 0 1
    outer loop
      vertex 0 0 5
      vertex 3.75 2.70096 5
      vertex 3.46352 2.57341 5
    endloop
  endfacet
  facet normal 0 0 1
    outer loop
      vertex 0 0 5
      vertex 3.46352 2.57341 5
      vertex 3.15679 2.50822 5
    endloop
  endfacet
  facet normal 0 0 1
    outer loop
      vertex 0 0 5
      vertex 3.15679 2.50822 5
      vertex 2.84321 2.50822 5
    endloop
  endfacet
  facet normal 0 0 1
    outer loop
      vertex 1.53278 4.31187 5
      vertex 0 0 5
      vertex 1.5 4 5
    endloop
  endfacet
  facet normal 0 0 1
    outer loop
      vertex 3.75 2.70096 5
      vertex 0 0 5
      vertex 54 0 5
    endloop
  endfacet
  facet normal 0 0 1
    outer loop
      vertex 2.53647 2.57341 5
      vertex 0 0 5
      vertex 2.84321 2.50822 5
    endloop
  endfacet
  facet normal 0 0 1
    outer loop
      vertex 2.25 2.70096 5
      vertex 0 0 5
      vertex 2.53647 2.57341 5
    endloop
  endfacet
  facet normal 0 0 1
    outer loop
      vertex 1.9963 2.88528 5
      vertex 0 0 5
      vertex 2.25 2.70096 5
    endloop
  endfacet
  facet normal 0 0 1
    outer loop
      vertex 1.78647 3.11832 5
      vertex 0 0 5
      vertex 1.9963 2.88528 5
    endloop
  endfacet
  facet normal 0 0 1
    outer loop
      vertex 1.62968 3.38989 5
      vertex 0 0 5
      vertex 1.78647 3.11832 5
    endloop
  endfacet
  facet normal 0 0 1
    outer loop
      vertex 1.53278 3.68813 5
      vertex 0 0 5
      vertex 1.62968 3.38989 5
    endloop
  endfacet
  facet normal 0 0 1
    outer loop
      vertex 1.5 4 5
      vertex 0 0 5
      vertex 1.53278 3.68813 5
    endloop
  endfacet
  facet normal 1 -0 0
    outer loop
      vertex 54 0 5
      vertex 54 18 0
      vertex 54 18 5
    endloop
  endfacet
  facet normal 1 0 0
    outer loop
      vertex 54 18 0
      vertex 54 0 5
      vertex 54 0 0
    endloop
  endfacet
  facet normal 0 0 -1
    outer loop
      vertex 4.46722 13.6881 0
      vertex 49.5328 13.6881 0
      vertex 4.46722 4.31187 0
    endloop
  endfacet
  facet normal 0 0 -1
    outer loop
      vertex 49.5328 13.6881 0
      vertex 4.46722 13.6881 0
      vertex 4.5 14 0
    endloop
  endfacet
  facet normal 0 0 -1
    outer loop
      vertex 4.37032 4.6101 0
      vertex 4.46722 13.6881 0
      vertex 4.46722 4.31187 0
    endloop
  endfacet
  facet normal 0 0 -1
    outer loop
      vertex 4.37032 4.6101 0
      vertex 4.37032 13.3899 0
      vertex 4.46722 13.6881 0
    endloop
  endfacet
  facet normal 0 0 -1
    outer loop
      vertex 4.21352 4.88168 0
      vertex 4.37032 13.3899 0
      vertex 4.37032 4.6101 0
    endloop
  endfacet
  facet normal 0 0 -1
    outer loop
      vertex 4.21352 4.88168 0
      vertex 4.21352 13.1183 0
      vertex 4.37032 13.3899 0
    endloop
  endfacet
  facet normal 0 0 -1
    outer loop
      vertex 4.0037 5.11472 0
      vertex 4.21352 13.1183 0
      vertex 4.21352 4.88168 0
    endloop
  endfacet
  facet normal 0 0 -1
    outer loop
      vertex 4.0037 5.11472 0
      vertex 4.0037 12.8853 0
      vertex 4.21352 13.1183 0
    endloop
  endfacet
  facet normal 0 0 -1
    outer loop
      vertex 3.75 5.29904 0
      vertex 4.0037 12.8853 0
      vertex 4.0037 5.11472 0
    endloop
  endfacet
  facet normal 0 0 -1
    outer loop
      vertex 3.75 5.29904 0
      vertex 3.75 12.701 0
      vertex 4.0037 12.8853 0
    endloop
  endfacet
  facet normal 0 0 -1
    outer loop
      vertex 3.46352 5.42658 0
      vertex 3.75 12.701 0
      vertex 3.75 5.29904 0
    endloop
  endfacet
  facet normal 0 0 -1
    outer loop
      vertex 3.46352 5.42658 0
      vertex 3.46352 12.5734 0
      vertex 3.75 12.701 0
    endloop
  endfacet
  facet normal 0 0 -1
    outer loop
      vertex 3.15679 5.49178 0
      vertex 3.46352 12.5734 0
      vertex 3.46352 5.42658 0
    endloop
  endfacet
  facet normal 0 0 -1
    outer loop
      vertex 3.15679 5.49178 0
      vertex 3.15679 12.5082 0
      vertex 3.46352 12.5734 0
    endloop
  endfacet
  facet normal 0 0 -1
    outer loop
      vertex 2.84321 5.49178 0
      vertex 3.15679 12.5082 0
      vertex 3.15679 5.49178 0
    endloop
  endfacet
  facet normal 0 0 -1
    outer loop
      vertex 2.84321 5.49178 0
      vertex 2.84321 12.5082 0
      vertex 3.15679 12.5082 0
    endloop
  endfacet
  facet normal 0 0 -1
    outer loop
      vertex 2.53647 5.42658 0
      vertex 2.84321 12.5082 0
      vertex 2.84321 5.49178 0
    endloop
  endfacet
  facet normal 0 0 -1
    outer loop
      vertex 2.53647 5.42658 0
      vertex 2.53647 12.5734 0
      vertex 2.84321 12.5082 0
    endloop
  endfacet
  facet normal 0 0 -1
    outer loop
      vertex 2.25 5.29904 0
      vertex 2.53647 12.5734 0
      vertex 2.53647 5.42658 0
    endloop
  endfacet
  facet normal 0 0 -1
    outer loop
      vertex 2.25 5.29904 0
      vertex 2.25 12.701 0
      vertex 2.53647 12.5734 0
    endloop
  endfacet
  facet normal 0 0 -1
    outer loop
      vertex 1.9963 5.11472 0
      vertex 2.25 12.701 0
      vertex 2.25 5.29904 0
    endloop
  endfacet
  facet normal 0 0 -1
    outer loop
      vertex 1.9963 5.11472 0
      vertex 1.9963 12.8853 0
      vertex 2.25 12.701 0
    endloop
  endfacet
  facet normal 0 0 -1
    outer loop
      vertex 1.78647 4.88168 0
      vertex 1.9963 12.8853 0
      vertex 1.9963 5.11472 0
    endloop
  endfacet
  facet normal 0 0 -1
    outer loop
      vertex 1.78647 4.88168 0
      vertex 1.78647 13.1183 0
      vertex 1.9963 12.8853 0
    endloop
  endfacet
  facet normal 0 0 -1
    outer loop
      vertex 1.62968 4.6101 0
      vertex 1.78647 13.1183 0
      vertex 1.78647 4.88168 0
    endloop
  endfacet
  facet normal 0 0 -1
    outer loop
      vertex 1.62968 4.6101 0
      vertex 1.62968 13.3899 0
      vertex 1.78647 13.1183 0
    endloop
  endfacet
  facet normal 0 0 -1
    outer loop
      vertex 1.53278 4.31187 0
      vertex 1.62968 13.3899 0
      vertex 1.62968 4.6101 0
    endloop
  endfacet
  facet normal 0 0 -1
    outer loop
      vertex 1.53278 4.31187 0
      vertex 1.53278 13.6881 0
      vertex 1.62968 13.3899 0
    endloop
  endfacet
  facet normal 0 0 -1
    outer loop
      vertex 0 0 0
      vertex 1.53278 4.31187 0
      vertex 1.5 4 0
    endloop
  endfacet
  facet normal -0 0 -1
    outer loop
      vertex 1.53278 4.31187 0
      vertex 0 0 0
      vertex 1.53278 13.6881 0
    endloop
  endfacet
  facet normal 0 0 -1
    outer loop
      vertex 52.4672 13.6881 0
      vertex 54 18 0
      vertex 52.4672 4.31187 0
    endloop
  endfacet
  facet normal 0 0 -1
    outer loop
      vertex 54 18 0
      vertex 52.4672 13.6881 0
      vertex 52.5 14 0
    endloop
  endfacet
  facet normal 0 0 -1
    outer loop
      vertex 52.3703 4.6101 0
      vertex 52.4672 13.6881 0
      vertex 52.4672 4.31187 0
    endloop
  endfacet
  facet normal 0 0 -1
    outer loop
      vertex 52.3703 4.6101 0
      vertex 52.3703 13.3899 0
      vertex 52.4672 13.6881 0
    endloop
  endfacet
  facet normal 0 0 -1
    outer loop
      vertex 52.2135 4.88168 0
      vertex 52.3703 13.3899 0
      vertex 52.3703 4.6101 0
    endloop
  endfacet
  facet normal 0 0 -1
    outer loop
      vertex 52.2135 4.88168 0
      vertex 52.2135 13.1183 0
      vertex 52.3703 13.3899 0
    endloop
  endfacet
  facet normal 0 0 -1
    outer loop
      vertex 52.0037 5.11472 0
      vertex 52.2135 13.1183 0
      vertex 52.2135 4.88168 0
    endloop
  endfacet
  facet normal 0 0 -1
    outer loop
      vertex 52.0037 5.11472 0
      vertex 52.0037 12.8853 0
      vertex 52.2135 13.1183 0
    endloop
  endfacet
  facet normal 0 0 -1
    outer loop
      vertex 51.75 5.29904 0
      vertex 52.0037 12.8853 0
      vertex 52.0037 5.11472 0
    endloop
  endfacet
  facet normal 0 0 -1
    outer loop
      vertex 51.75 5.29904 0
      vertex 51.75 12.701 0
      vertex 52.0037 12.8853 0
    endloop
  endfacet
  facet normal 0 0 -1
    outer loop
      vertex 51.4635 5.42658 0
      vertex 51.75 12.701 0
      vertex 51.75 5.29904 0
    endloop
  endfacet
  facet normal 0 0 -1
    outer loop
      vertex 51.4635 5.42658 0
      vertex 51.4635 12.5734 0
      vertex 51.75 12.701 0
    endloop
  endfacet
  facet normal 0 0 -1
    outer loop
      vertex 51.1568 5.49178 0
      vertex 51.4635 12.5734 0
      vertex 51.4635 5.42658 0
    endloop
  endfacet
  facet normal 0 0 -1
    outer loop
      vertex 51.1568 5.49178 0
      vertex 51.1568 12.5082 0
      vertex 51.4635 12.5734 0
    endloop
  endfacet
  facet normal 0 0 -1
    outer loop
      vertex 50.8432 5.49178 0
      vertex 51.1568 12.5082 0
      vertex 51.1568 5.49178 0
    endloop
  endfacet
  facet normal 0 0 -1
    outer loop
      vertex 50.8432 5.49178 0
      vertex 50.8432 12.5082 0
      vertex 51.1568 12.5082 0
    endloop
  endfacet
  facet normal 0 0 -1
    outer loop
      vertex 50.5365 5.42658 0
      vertex 50.8432 12.5082 0
      vertex 50.8432 5.49178 0
    endloop
  endfacet
  facet normal 0 0 -1
    outer loop
      vertex 50.5365 5.42658 0
      vertex 50.5365 12.5734 0
      vertex 50.8432 12.5082 0
    endloop
  endfacet
  facet normal 0 0 -1
    outer loop
      vertex 50.25 5.29904 0
      vertex 50.5365 12.5734 0
      vertex 50.5365 5.42658 0
    endloop
  endfacet
  facet normal 0 0 -1
    outer loop
      vertex 50.25 5.29904 0
      vertex 50.25 12.701 0
      vertex 50.5365 12.5734 0
    endloop
  endfacet
  facet normal 0 0 -1
    outer loop
      vertex 49.9963 5.11472 0
      vertex 50.25 12.701 0
      vertex 50.25 5.29904 0
    endloop
  endfacet
  facet normal 0 0 -1
    outer loop
      vertex 49.9963 5.11472 0
      vertex 49.9963 12.8853 0
      vertex 50.25 12.701 0
    endloop
  endfacet
  facet normal 0 0 -1
    outer loop
      vertex 49.7865 4.88168 0
      vertex 49.9963 12.8853 0
      vertex 49.9963 5.11472 0
    endloop
  endfacet
  facet normal 0 0 -1
    outer loop
      vertex 49.7865 4.88168 0
      vertex 49.7865 13.1183 0
      vertex 49.9963 12.8853 0
    endloop
  endfacet
  facet normal 0 0 -1
    outer loop
      vertex 49.6297 4.6101 0
      vertex 49.7865 13.1183 0
      vertex 49.7865 4.88168 0
    endloop
  endfacet
  facet normal 0 0 -1
    outer loop
      vertex 49.6297 4.6101 0
      vertex 49.6297 13.3899 0
      vertex 49.7865 13.1183 0
    endloop
  endfacet
  facet normal 0 0 -1
    outer loop
      vertex 49.5328 4.31187 0
      vertex 49.6297 13.3899 0
      vertex 49.6297 4.6101 0
    endloop
  endfacet
  facet normal 0 0 -1
    outer loop
      vertex 49.5328 4.31187 0
      vertex 49.5328 13.6881 0
      vertex 49.6297 13.3899 0
    endloop
  endfacet
  facet normal 0 0 -1
    outer loop
      vertex 4.5 4 0
      vertex 49.5328 4.31187 0
      vertex 49.5 4 0
    endloop
  endfacet
  facet normal 0 0 -1
    outer loop
      vertex 4.46722 4.31187 0
      vertex 49.5328 4.31187 0
      vertex 4.5 4 0
    endloop
  endfacet
  facet normal 0 0 -1
    outer loop
      vertex 52.4672 4.31187 0
      vertex 54 0 0
      vertex 52.5 4 0
    endloop
  endfacet
  facet normal 0 0 -1
    outer loop
      vertex 54 0 0
      vertex 52.4672 3.68813 0
      vertex 52.5 4 0
    endloop
  endfacet
  facet normal 0 0 -1
    outer loop
      vertex 54 0 0
      vertex 52.3703 3.38989 0
      vertex 52.4672 3.68813 0
    endloop
  endfacet
  facet normal 0 0 -1
    outer loop
      vertex 54 0 0
      vertex 52.2135 3.11832 0
      vertex 52.3703 3.38989 0
    endloop
  endfacet
  facet normal 0 0 -1
    outer loop
      vertex 54 0 0
      vertex 52.0037 2.88528 0
      vertex 52.2135 3.11832 0
    endloop
  endfacet
  facet normal 0 0 -1
    outer loop
      vertex 54 0 0
      vertex 51.75 2.70096 0
      vertex 52.0037 2.88528 0
    endloop
  endfacet
  facet normal 0 0 -1
    outer loop
      vertex 54 0 0
      vertex 51.4635 2.57341 0
      vertex 51.75 2.70096 0
    endloop
  endfacet
  facet normal 0 0 -1
    outer loop
      vertex 54 0 0
      vertex 51.1568 2.50822 0
      vertex 51.4635 2.57341 0
    endloop
  endfacet
  facet normal 0 0 -1
    outer loop
      vertex 54 0 0
      vertex 50.8432 2.50822 0
      vertex 51.1568 2.50822 0
    endloop
  endfacet
  facet normal 0 0 -1
    outer loop
      vertex 54 0 0
      vertex 50.5365 2.57341 0
      vertex 50.8432 2.50822 0
    endloop
  endfacet
  facet normal 0 0 -1
    outer loop
      vertex 54 0 0
      vertex 50.25 2.70096 0
      vertex 50.5365 2.57341 0
    endloop
  endfacet
  facet normal 0 0 -1
    outer loop
      vertex 49.5328 4.31187 0
      vertex 4.46722 4.31187 0
      vertex 49.5328 13.6881 0
    endloop
  endfacet
  facet normal 0 0 -1
    outer loop
      vertex 49.5328 3.68813 0
      vertex 4.5 4 0
      vertex 49.5 4 0
    endloop
  endfacet
  facet normal 0 0 -1
    outer loop
      vertex 4.46722 3.68813 0
      vertex 49.5328 3.68813 0
      vertex 49.6297 3.38989 0
    endloop
  endfacet
  facet normal 0 0 -1
    outer loop
      vertex 4.37032 3.38989 0
      vertex 49.6297 3.38989 0
      vertex 49.7865 3.11832 0
    endloop
  endfacet
  facet normal 0 0 -1
    outer loop
      vertex 4.21352 3.11832 0
      vertex 49.7865 3.11832 0
      vertex 49.9963 2.88528 0
    endloop
  endfacet
  facet normal 0 0 -1
    outer loop
      vertex 4.0037 2.88528 0
      vertex 49.9963 2.88528 0
      vertex 50.25 2.70096 0
    endloop
  endfacet
  facet normal 0 0 -1
    outer loop
      vertex 3.75 2.70096 0
      vertex 50.25 2.70096 0
      vertex 54 0 0
    endloop
  endfacet
  facet normal 0 0 -1
    outer loop
      vertex 49.5328 3.68813 0
      vertex 4.46722 3.68813 0
      vertex 4.5 4 0
    endloop
  endfacet
  facet normal 0 0 -1
    outer loop
      vertex 49.6297 3.38989 0
      vertex 4.37032 3.38989 0
      vertex 4.46722 3.68813 0
    endloop
  endfacet
  facet normal 0 0 -1
    outer loop
      vertex 49.7865 3.11832 0
      vertex 4.21352 3.11832 0
      vertex 4.37032 3.38989 0
    endloop
  endfacet
  facet normal 0 0 -1
    outer loop
      vertex 49.9963 2.88528 0
      vertex 4.0037 2.88528 0
      vertex 4.21352 3.11832 0
    endloop
  endfacet
  facet normal 0 0 -1
    outer loop
      vertex 50.25 2.70096 0
      vertex 3.75 2.70096 0
      vertex 4.0037 2.88528 0
    endloop
  endfacet
  facet normal 0 0 -1
    outer loop
      vertex 0 0 0
      vertex 3.75 2.70096 0
      vertex 54 0 0
    endloop
  endfacet
  facet normal 0 0 -1
    outer loop
      vertex 3.75 2.70096 0
      vertex 0 0 0
      vertex 3.46352 2.57341 0
    endloop
  endfacet
  facet normal 0 0 -1
    outer loop
      vertex 3.46352 2.57341 0
      vertex 0 0 0
      vertex 3.15679 2.50822 0
    endloop
  endfacet
  facet normal 0 0 -1
    outer loop
      vertex 0 18 0
      vertex 1.53278 13.6881 0
      vertex 0 0 0
    endloop
  endfacet
  facet normal -0 0 -1
    outer loop
      vertex 1.53278 3.68813 0
      vertex 0 0 0
      vertex 1.5 4 0
    endloop
  endfacet
  facet normal -0 0 -1
    outer loop
      vertex 1.62968 3.38989 0
      vertex 0 0 0
      vertex 1.53278 3.68813 0
    endloop
  endfacet
  facet normal -0 0 -1
    outer loop
      vertex 1.78647 3.11832 0
      vertex 0 0 0
      vertex 1.62968 3.38989 0
    endloop
  endfacet
  facet normal -0 0 -1
    outer loop
      vertex 1.9963 2.88528 0
      vertex 0 0 0
      vertex 1.78647 3.11832 0
    endloop
  endfacet
  facet normal -0 0 -1
    outer loop
      vertex 2.25 2.70096 0
      vertex 0 0 0
      vertex 1.9963 2.88528 0
    endloop
  endfacet
  facet normal -0 0 -1
    outer loop
      vertex 2.53647 2.57341 0
      vertex 0 0 0
      vertex 2.25 2.70096 0
    endloop
  endfacet
  facet normal -0 0 -1
    outer loop
      vertex 2.84321 2.50822 0
      vertex 0 0 0
      vertex 2.53647 2.57341 0
    endloop
  endfacet
  facet normal -0 0 -1
    outer loop
      vertex 3.15679 2.50822 0
      vertex 0 0 0
      vertex 2.84321 2.50822 0
    endloop
  endfacet
  facet normal 0 0 -1
    outer loop
      vertex 54 0 0
      vertex 52.4672 4.31187 0
      vertex 54 18 0
    endloop
  endfacet
  facet normal 0 0 -1
    outer loop
      vertex 52.4672 14.3119 0
      vertex 54 18 0
      vertex 52.5 14 0
    endloop
  endfacet
  facet normal 0 0 -1
    outer loop
      vertex 52.3703 14.6101 0
      vertex 54 18 0
      vertex 52.4672 14.3119 0
    endloop
  endfacet
  facet normal 0 0 -1
    outer loop
      vertex 52.2135 14.8817 0
      vertex 54 18 0
      vertex 52.3703 14.6101 0
    endloop
  endfacet
  facet normal 0 0 -1
    outer loop
      vertex 52.0037 15.1147 0
      vertex 54 18 0
      vertex 52.2135 14.8817 0
    endloop
  endfacet
  facet normal 0 0 -1
    outer loop
      vertex 51.75 15.299 0
      vertex 54 18 0
      vertex 52.0037 15.1147 0
    endloop
  endfacet
  facet normal 0 0 -1
    outer loop
      vertex 51.4635 15.4266 0
      vertex 54 18 0
      vertex 51.75 15.299 0
    endloop
  endfacet
  facet normal 0 0 -1
    outer loop
      vertex 51.1568 15.4918 0
      vertex 54 18 0
      vertex 51.4635 15.4266 0
    endloop
  endfacet
  facet normal 0 0 -1
    outer loop
      vertex 50.8432 15.4918 0
      vertex 54 18 0
      vertex 51.1568 15.4918 0
    endloop
  endfacet
  facet normal 0 0 -1
    outer loop
      vertex 50.5365 15.4266 0
      vertex 54 18 0
      vertex 50.8432 15.4918 0
    endloop
  endfacet
  facet normal 0 0 -1
    outer loop
      vertex 50.25 15.299 0
      vertex 54 18 0
      vertex 50.5365 15.4266 0
    endloop
  endfacet
  facet normal 0 0 -1
    outer loop
      vertex 49.5328 13.6881 0
      vertex 4.5 14 0
      vertex 49.5 14 0
    endloop
  endfacet
  facet normal 0 0 -1
    outer loop
      vertex 49.5 14 0
      vertex 4.5 14 0
      vertex 49.5328 14.3119 0
    endloop
  endfacet
  facet normal 0 0 -1
    outer loop
      vertex 4.46722 14.3119 0
      vertex 49.5328 14.3119 0
      vertex 4.5 14 0
    endloop
  endfacet
  facet normal 0 0 -1
    outer loop
      vertex 49.5328 14.3119 0
      vertex 4.46722 14.3119 0
      vertex 49.6297 14.6101 0
    endloop
  endfacet
  facet normal 0 0 -1
    outer loop
      vertex 4.37032 14.6101 0
      vertex 49.6297 14.6101 0
      vertex 4.46722 14.3119 0
    endloop
  endfacet
  facet normal 0 0 -1
    outer loop
      vertex 49.6297 14.6101 0
      vertex 4.37032 14.6101 0
      vertex 49.7865 14.8817 0
    endloop
  endfacet
  facet normal 0 0 -1
    outer loop
      vertex 4.21352 14.8817 0
      vertex 49.7865 14.8817 0
      vertex 4.37032 14.6101 0
    endloop
  endfacet
  facet normal 0 0 -1
    outer loop
      vertex 49.7865 14.8817 0
      vertex 4.21352 14.8817 0
      vertex 49.9963 15.1147 0
    endloop
  endfacet
  facet normal 0 0 -1
    outer loop
      vertex 4.0037 15.1147 0
      vertex 49.9963 15.1147 0
      vertex 4.21352 14.8817 0
    endloop
  endfacet
  facet normal 0 0 -1
    outer loop
      vertex 49.9963 15.1147 0
      vertex 4.0037 15.1147 0
      vertex 50.25 15.299 0
    endloop
  endfacet
  facet normal 0 0 -1
    outer loop
      vertex 3.75 15.299 0
      vertex 50.25 15.299 0
      vertex 4.0037 15.1147 0
    endloop
  endfacet
  facet normal 0 0 -1
    outer loop
      vertex 50.25 15.299 0
      vertex 3.75 15.299 0
      vertex 54 18 0
    endloop
  endfacet
  facet normal 0 0 -1
    outer loop
      vertex 0 18 0
      vertex 3.75 15.299 0
      vertex 3.46352 15.4266 0
    endloop
  endfacet
  facet normal 0 0 -1
    outer loop
      vertex 0 18 0
      vertex 3.46352 15.4266 0
      vertex 3.15679 15.4918 0
    endloop
  endfacet
  facet normal 0 0 -1
    outer loop
      vertex 0 18 0
      vertex 3.15679 15.4918 0
      vertex 2.84321 15.4918 0
    endloop
  endfacet
  facet normal 0 0 -1
    outer loop
      vertex 1.53278 13.6881 0
      vertex 0 18 0
      vertex 1.5 14 0
    endloop
  endfacet
  facet normal 0 0 -1
    outer loop
      vertex 3.75 15.299 0
      vertex 0 18 0
      vertex 54 18 0
    endloop
  endfacet
  facet normal 0 0 -1
    outer loop
      vertex 2.53647 15.4266 0
      vertex 0 18 0
      vertex 2.84321 15.4918 0
    endloop
  endfacet
  facet normal 0 0 -1
    outer loop
      vertex 2.25 15.299 0
      vertex 0 18 0
      vertex 2.53647 15.4266 0
    endloop
  endfacet
  facet normal 0 0 -1
    outer loop
      vertex 1.9963 15.1147 0
      vertex 0 18 0
      vertex 2.25 15.299 0
    endloop
  endfacet
  facet normal 0 0 -1
    outer loop
      vertex 1.78647 14.8817 0
      vertex 0 18 0
      vertex 1.9963 15.1147 0
    endloop
  endfacet
  facet normal 0 0 -1
    outer loop
      vertex 1.62968 14.6101 0
      vertex 0 18 0
      vertex 1.78647 14.8817 0
    endloop
  endfacet
  facet normal 0 0 -1
    outer loop
      vertex 1.53278 14.3119 0
      vertex 0 18 0
      vertex 1.62968 14.6101 0
    endloop
  endfacet
  facet normal 0 0 -1
    outer loop
      vertex 1.5 14 0
      vertex 0 18 0
      vertex 1.53278 14.3119 0
    endloop
  endfacet
  facet normal 0 -1 0
    outer loop
      vertex 0 0 0
      vertex 54 0 5
      vertex 0 0 5
    endloop
  endfacet
  facet normal 0 -1 -0
    outer loop
      vertex 54 0 5
      vertex 0 0 0
      vertex 54 0 0
    endloop
  endfacet
  facet normal 0 1 -0
    outer loop
      vertex 54 18 0
      vertex 0 18 5
      vertex 54 18 5
    endloop
  endfacet
  facet normal 0 1 0
    outer loop
      vertex 0 18 5
      vertex 54 18 0
      vertex 0 18 0
    endloop
  endfacet
  facet normal -0.994522 -0.104529 0
    outer loop
      vertex 4.5 4 0
      vertex 4.46722 4.31187 5
      vertex 4.46722 4.31187 0
    endloop
  endfacet
  facet normal -0.994522 -0.104529 0
    outer loop
      vertex 4.46722 4.31187 5
      vertex 4.5 4 0
      vertex 4.5 4 5
    endloop
  endfacet
  facet normal 0 -1 0
    outer loop
      vertex 2.84321 5.49178 0
      vertex 3.15679 5.49178 5
      vertex 2.84321 5.49178 5
    endloop
  endfacet
  facet normal 0 -1 -0
    outer loop
      vertex 3.15679 5.49178 5
      vertex 2.84321 5.49178 0
      vertex 3.15679 5.49178 0
    endloop
  endfacet
  facet normal -0.587787 -0.809016 0
    outer loop
      vertex 3.75 5.29904 0
      vertex 4.0037 5.11472 5
      vertex 3.75 5.29904 5
    endloop
  endfacet
  facet normal -0.587787 -0.809016 -0
    outer loop
      vertex 4.0037 5.11472 5
      vertex 3.75 5.29904 0
      vertex 4.0037 5.11472 0
    endloop
  endfacet
  facet normal 0.743145 -0.669131 0
    outer loop
      vertex 1.78647 4.88168 5
      vertex 1.9963 5.11472 0
      vertex 1.9963 5.11472 5
    endloop
  endfacet
  facet normal 0.743145 -0.669131 0
    outer loop
      vertex 1.9963 5.11472 0
      vertex 1.78647 4.88168 5
      vertex 1.78647 4.88168 0
    endloop
  endfacet
  facet normal 0.406736 -0.913546 0
    outer loop
      vertex 2.25 5.29904 0
      vertex 2.53647 5.42658 5
      vertex 2.25 5.29904 5
    endloop
  endfacet
  facet normal 0.406736 -0.913546 0
    outer loop
      vertex 2.53647 5.42658 5
      vertex 2.25 5.29904 0
      vertex 2.53647 5.42658 0
    endloop
  endfacet
  facet normal -0.743145 0.669131 0
    outer loop
      vertex 4.0037 2.88528 0
      vertex 4.21352 3.11832 5
      vertex 4.21352 3.11832 0
    endloop
  endfacet
  facet normal -0.743145 0.669131 0
    outer loop
      vertex 4.21352 3.11832 5
      vertex 4.0037 2.88528 0
      vertex 4.0037 2.88528 5
    endloop
  endfacet
  facet normal -0.866026 -0.5 0
    outer loop
      vertex 4.37032 4.6101 0
      vertex 4.21352 4.88168 5
      vertex 4.21352 4.88168 0
    endloop
  endfacet
  facet normal -0.866026 -0.5 0
    outer loop
      vertex 4.21352 4.88168 5
      vertex 4.37032 4.6101 0
      vertex 4.37032 4.6101 5
    endloop
  endfacet
  facet normal -0.951056 -0.309018 0
    outer loop
      vertex 4.46722 4.31187 0
      vertex 4.37032 4.6101 5
      vertex 4.37032 4.6101 0
    endloop
  endfacet
  facet normal -0.951056 -0.309018 0
    outer loop
      vertex 4.37032 4.6101 5
      vertex 4.46722 4.31187 0
      vertex 4.46722 4.31187 5
    endloop
  endfacet
  facet normal -0.743145 -0.669131 0
    outer loop
      vertex 4.21352 4.88168 0
      vertex 4.0037 5.11472 5
      vertex 4.0037 5.11472 0
    endloop
  endfacet
  facet normal -0.743145 -0.669131 0
    outer loop
      vertex 4.0037 5.11472 5
      vertex 4.21352 4.88168 0
      vertex 4.21352 4.88168 5
    endloop
  endfacet
  facet normal -0.207912 -0.978148 0
    outer loop
      vertex 3.15679 5.49178 0
      vertex 3.46352 5.42658 5
      vertex 3.15679 5.49178 5
    endloop
  endfacet
  facet normal -0.207912 -0.978148 -0
    outer loop
      vertex 3.46352 5.42658 5
      vertex 3.15679 5.49178 0
      vertex 3.46352 5.42658 0
    endloop
  endfacet
  facet normal -0.406735 -0.913546 0
    outer loop
      vertex 3.46352 5.42658 0
      vertex 3.75 5.29904 5
      vertex 3.46352 5.42658 5
    endloop
  endfacet
  facet normal -0.406735 -0.913546 -0
    outer loop
      vertex 3.75 5.29904 5
      vertex 3.46352 5.42658 0
      vertex 3.75 5.29904 0
    endloop
  endfacet
  facet normal 0.951056 -0.309018 0
    outer loop
      vertex 1.53278 4.31187 5
      vertex 1.62968 4.6101 0
      vertex 1.62968 4.6101 5
    endloop
  endfacet
  facet normal 0.951056 -0.309018 0
    outer loop
      vertex 1.62968 4.6101 0
      vertex 1.53278 4.31187 5
      vertex 1.53278 4.31187 0
    endloop
  endfacet
  facet normal 0.866026 -0.5 0
    outer loop
      vertex 1.62968 4.6101 5
      vertex 1.78647 4.88168 0
      vertex 1.78647 4.88168 5
    endloop
  endfacet
  facet normal 0.866026 -0.5 0
    outer loop
      vertex 1.78647 4.88168 0
      vertex 1.62968 4.6101 5
      vertex 1.62968 4.6101 0
    endloop
  endfacet
  facet normal 0.994522 -0.104526 0
    outer loop
      vertex 1.5 4 5
      vertex 1.53278 4.31187 0
      vertex 1.53278 4.31187 5
    endloop
  endfacet
  facet normal 0.994522 -0.104526 0
    outer loop
      vertex 1.53278 4.31187 0
      vertex 1.5 4 5
      vertex 1.5 4 0
    endloop
  endfacet
  facet normal 0.587786 -0.809017 0
    outer loop
      vertex 1.9963 5.11472 0
      vertex 2.25 5.29904 5
      vertex 1.9963 5.11472 5
    endloop
  endfacet
  facet normal 0.587786 -0.809017 0
    outer loop
      vertex 2.25 5.29904 5
      vertex 1.9963 5.11472 0
      vertex 2.25 5.29904 0
    endloop
  endfacet
  facet normal 0.207912 -0.978148 0
    outer loop
      vertex 2.53647 5.42658 0
      vertex 2.84321 5.49178 5
      vertex 2.53647 5.42658 5
    endloop
  endfacet
  facet normal 0.207912 -0.978148 0
    outer loop
      vertex 2.84321 5.49178 5
      vertex 2.53647 5.42658 0
      vertex 2.84321 5.49178 0
    endloop
  endfacet
  facet normal -0.994522 0.104529 0
    outer loop
      vertex 4.46722 3.68813 0
      vertex 4.5 4 5
      vertex 4.5 4 0
    endloop
  endfacet
  facet normal -0.994522 0.104529 0
    outer loop
      vertex 4.5 4 5
      vertex 4.46722 3.68813 0
      vertex 4.46722 3.68813 5
    endloop
  endfacet
  facet normal -0.207912 0.978148 0
    outer loop
      vertex 3.46352 2.57341 0
      vertex 3.15679 2.50822 5
      vertex 3.46352 2.57341 5
    endloop
  endfacet
  facet normal -0.207912 0.978148 0
    outer loop
      vertex 3.15679 2.50822 5
      vertex 3.46352 2.57341 0
      vertex 3.15679 2.50822 0
    endloop
  endfacet
  facet normal -0.587787 0.809016 0
    outer loop
      vertex 4.0037 2.88528 0
      vertex 3.75 2.70096 5
      vertex 4.0037 2.88528 5
    endloop
  endfacet
  facet normal -0.587787 0.809016 0
    outer loop
      vertex 3.75 2.70096 5
      vertex 4.0037 2.88528 0
      vertex 3.75 2.70096 0
    endloop
  endfacet
  facet normal 0.406735 0.913546 -0
    outer loop
      vertex 2.53647 2.57341 0
      vertex 2.25 2.70096 5
      vertex 2.53647 2.57341 5
    endloop
  endfacet
  facet normal 0.406735 0.913546 0
    outer loop
      vertex 2.25 2.70096 5
      vertex 2.53647 2.57341 0
      vertex 2.25 2.70096 0
    endloop
  endfacet
  facet normal 0 1 -0
    outer loop
      vertex 3.15679 2.50822 0
      vertex 2.84321 2.50822 5
      vertex 3.15679 2.50822 5
    endloop
  endfacet
  facet normal 0 1 0
    outer loop
      vertex 2.84321 2.50822 5
      vertex 3.15679 2.50822 0
      vertex 2.84321 2.50822 0
    endloop
  endfacet
  facet normal 0.743145 0.669131 0
    outer loop
      vertex 1.9963 2.88528 5
      vertex 1.78647 3.11832 0
      vertex 1.78647 3.11832 5
    endloop
  endfacet
  facet normal 0.743145 0.669131 0
    outer loop
      vertex 1.78647 3.11832 0
      vertex 1.9963 2.88528 5
      vertex 1.9963 2.88528 0
    endloop
  endfacet
  facet normal 0.951056 0.309018 0
    outer loop
      vertex 1.62968 3.38989 5
      vertex 1.53278 3.68813 0
      vertex 1.53278 3.68813 5
    endloop
  endfacet
  facet normal 0.951056 0.309018 0
    outer loop
      vertex 1.53278 3.68813 0
      vertex 1.62968 3.38989 5
      vertex 1.62968 3.38989 0
    endloop
  endfacet
  facet normal 0.994522 0.104526 0
    outer loop
      vertex 1.53278 3.68813 5
      vertex 1.5 4 0
      vertex 1.5 4 5
    endloop
  endfacet
  facet normal 0.994522 0.104526 0
    outer loop
      vertex 1.5 4 0
      vertex 1.53278 3.68813 5
      vertex 1.53278 3.68813 0
    endloop
  endfacet
  facet normal -0.406735 0.913546 0
    outer loop
      vertex 3.75 2.70096 0
      vertex 3.46352 2.57341 5
      vertex 3.75 2.70096 5
    endloop
  endfacet
  facet normal -0.406735 0.913546 0
    outer loop
      vertex 3.46352 2.57341 5
      vertex 3.75 2.70096 0
      vertex 3.46352 2.57341 0
    endloop
  endfacet
  facet normal -0.951056 0.309018 0
    outer loop
      vertex 4.37032 3.38989 0
      vertex 4.46722 3.68813 5
      vertex 4.46722 3.68813 0
    endloop
  endfacet
  facet normal -0.951056 0.309018 0
    outer loop
      vertex 4.46722 3.68813 5
      vertex 4.37032 3.38989 0
      vertex 4.37032 3.38989 5
    endloop
  endfacet
  facet normal -0.866026 0.5 0
    outer loop
      vertex 4.21352 3.11832 0
      vertex 4.37032 3.38989 5
      vertex 4.37032 3.38989 0
    endloop
  endfacet
  facet normal -0.866026 0.5 0
    outer loop
      vertex 4.37032 3.38989 5
      vertex 4.21352 3.11832 0
      vertex 4.21352 3.11832 5
    endloop
  endfacet
  facet normal 0.207912 0.978148 -0
    outer loop
      vertex 2.84321 2.50822 0
      vertex 2.53647 2.57341 5
      vertex 2.84321 2.50822 5
    endloop
  endfacet
  facet normal 0.207912 0.978148 0
    outer loop
      vertex 2.53647 2.57341 5
      vertex 2.84321 2.50822 0
      vertex 2.53647 2.57341 0
    endloop
  endfacet
  facet normal 0.587787 0.809016 -0
    outer loop
      vertex 2.25 2.70096 0
      vertex 1.9963 2.88528 5
      vertex 2.25 2.70096 5
    endloop
  endfacet
  facet normal 0.587787 0.809016 0
    outer loop
      vertex 1.9963 2.88528 5
      vertex 2.25 2.70096 0
      vertex 1.9963 2.88528 0
    endloop
  endfacet
  facet normal 0.866026 0.5 0
    outer loop
      vertex 1.78647 3.11832 5
      vertex 1.62968 3.38989 0
      vertex 1.62968 3.38989 5
    endloop
  endfacet
  facet normal 0.866026 0.5 0
    outer loop
      vertex 1.62968 3.38989 0
      vertex 1.78647 3.11832 5
      vertex 1.78647 3.11832 0
    endloop
  endfacet
  facet normal -0.994522 -0.104529 0
    outer loop
      vertex 4.5 14 0
      vertex 4.46722 14.3119 5
      vertex 4.46722 14.3119 0
    endloop
  endfacet
  facet normal -0.994522 -0.104529 0
    outer loop
      vertex 4.46722 14.3119 5
      vertex 4.5 14 0
      vertex 4.5 14 5
    endloop
  endfacet
  facet normal 0 -1 0
    outer loop
      vertex 2.84321 15.4918 0
      vertex 3.15679 15.4918 5
      vertex 2.84321 15.4918 5
    endloop
  endfacet
  facet normal 0 -1 -0
    outer loop
      vertex 3.15679 15.4918 5
      vertex 2.84321 15.4918 0
      vertex 3.15679 15.4918 0
    endloop
  endfacet
  facet normal 0.587787 0.809016 -0
    outer loop
      vertex 2.25 12.701 0
      vertex 1.9963 12.8853 5
      vertex 2.25 12.701 5
    endloop
  endfacet
  facet normal 0.587787 0.809016 0
    outer loop
      vertex 1.9963 12.8853 5
      vertex 2.25 12.701 0
      vertex 1.9963 12.8853 0
    endloop
  endfacet
  facet normal -0.587787 -0.809016 0
    outer loop
      vertex 3.75 15.299 0
      vertex 4.0037 15.1147 5
      vertex 3.75 15.299 5
    endloop
  endfacet
  facet normal -0.587787 -0.809016 -0
    outer loop
      vertex 4.0037 15.1147 5
      vertex 3.75 15.299 0
      vertex 4.0037 15.1147 0
    endloop
  endfacet
  facet normal 0.743145 -0.669131 0
    outer loop
      vertex 1.78647 14.8817 5
      vertex 1.9963 15.1147 0
      vertex 1.9963 15.1147 5
    endloop
  endfacet
  facet normal 0.743145 -0.669131 0
    outer loop
      vertex 1.9963 15.1147 0
      vertex 1.78647 14.8817 5
      vertex 1.78647 14.8817 0
    endloop
  endfacet
  facet normal 0.406736 -0.913546 0
    outer loop
      vertex 2.25 15.299 0
      vertex 2.53647 15.4266 5
      vertex 2.25 15.299 5
    endloop
  endfacet
  facet normal 0.406736 -0.913546 0
    outer loop
      vertex 2.53647 15.4266 5
      vertex 2.25 15.299 0
      vertex 2.53647 15.4266 0
    endloop
  endfacet
  facet normal -0.866026 0.5 0
    outer loop
      vertex 4.21352 13.1183 0
      vertex 4.37032 13.3899 5
      vertex 4.37032 13.3899 0
    endloop
  endfacet
  facet normal -0.866026 0.5 0
    outer loop
      vertex 4.37032 13.3899 5
      vertex 4.21352 13.1183 0
      vertex 4.21352 13.1183 5
    endloop
  endfacet
  facet normal -0.866026 -0.5 0
    outer loop
      vertex 4.37032 14.6101 0
      vertex 4.21352 14.8817 5
      vertex 4.21352 14.8817 0
    endloop
  endfacet
  facet normal -0.866026 -0.5 0
    outer loop
      vertex 4.21352 14.8817 5
      vertex 4.37032 14.6101 0
      vertex 4.37032 14.6101 5
    endloop
  endfacet
  facet normal -0.951056 -0.309018 0
    outer loop
      vertex 4.46722 14.3119 0
      vertex 4.37032 14.6101 5
      vertex 4.37032 14.6101 0
    endloop
  endfacet
  facet normal -0.951056 -0.309018 0
    outer loop
      vertex 4.37032 14.6101 5
      vertex 4.46722 14.3119 0
      vertex 4.46722 14.3119 5
    endloop
  endfacet
  facet normal -0.743145 -0.669131 0
    outer loop
      vertex 4.21352 14.8817 0
      vertex 4.0037 15.1147 5
      vertex 4.0037 15.1147 0
    endloop
  endfacet
  facet normal -0.743145 -0.669131 0
    outer loop
      vertex 4.0037 15.1147 5
      vertex 4.21352 14.8817 0
      vertex 4.21352 14.8817 5
    endloop
  endfacet
  facet normal -0.207912 -0.978148 0
    outer loop
      vertex 3.15679 15.4918 0
      vertex 3.46352 15.4266 5
      vertex 3.15679 15.4918 5
    endloop
  endfacet
  facet normal -0.207912 -0.978148 -0
    outer loop
      vertex 3.46352 15.4266 5
      vertex 3.15679 15.4918 0
      vertex 3.46352 15.4266 0
    endloop
  endfacet
  facet normal -0.406735 -0.913546 0
    outer loop
      vertex 3.46352 15.4266 0
      vertex 3.75 15.299 5
      vertex 3.46352 15.4266 5
    endloop
  endfacet
  facet normal -0.406735 -0.913546 -0
    outer loop
      vertex 3.75 15.299 5
      vertex 3.46352 15.4266 0
      vertex 3.75 15.299 0
    endloop
  endfacet
  facet normal 0.951056 -0.309018 0
    outer loop
      vertex 1.53278 14.3119 5
      vertex 1.62968 14.6101 0
      vertex 1.62968 14.6101 5
    endloop
  endfacet
  facet normal 0.951056 -0.309018 0
    outer loop
      vertex 1.62968 14.6101 0
      vertex 1.53278 14.3119 5
      vertex 1.53278 14.3119 0
    endloop
  endfacet
  facet normal 0.866026 -0.5 0
    outer loop
      vertex 1.62968 14.6101 5
      vertex 1.78647 14.8817 0
      vertex 1.78647 14.8817 5
    endloop
  endfacet
  facet normal 0.866026 -0.5 0
    outer loop
      vertex 1.78647 14.8817 0
      vertex 1.62968 14.6101 5
      vertex 1.62968 14.6101 0
    endloop
  endfacet
  facet normal 0.994522 -0.104526 0
    outer loop
      vertex 1.5 14 5
      vertex 1.53278 14.3119 0
      vertex 1.53278 14.3119 5
    endloop
  endfacet
  facet normal 0.994522 -0.104526 0
    outer loop
      vertex 1.53278 14.3119 0
      vertex 1.5 14 5
      vertex 1.5 14 0
    endloop
  endfacet
  facet normal 0.587786 -0.809017 0
    outer loop
      vertex 1.9963 15.1147 0
      vertex 2.25 15.299 5
      vertex 1.9963 15.1147 5
    endloop
  endfacet
  facet normal 0.587786 -0.809017 0
    outer loop
      vertex 2.25 15.299 5
      vertex 1.9963 15.1147 0
      vertex 2.25 15.299 0
    endloop
  endfacet
  facet normal 0.207912 -0.978148 0
    outer loop
      vertex 2.53647 15.4266 0
      vertex 2.84321 15.4918 5
      vertex 2.53647 15.4266 5
    endloop
  endfacet
  facet normal 0.207912 -0.978148 0
    outer loop
      vertex 2.84321 15.4918 5
      vertex 2.53647 15.4266 0
      vertex 2.84321 15.4918 0
    endloop
  endfacet
  facet normal -0.994522 0.104529 0
    outer loop
      vertex 4.46722 13.6881 0
      vertex 4.5 14 5
      vertex 4.5 14 0
    endloop
  endfacet
  facet normal -0.994522 0.104529 0
    outer loop
      vertex 4.5 14 5
      vertex 4.46722 13.6881 0
      vertex 4.46722 13.6881 5
    endloop
  endfacet
  facet normal -0.207912 0.978148 0
    outer loop
      vertex 3.46352 12.5734 0
      vertex 3.15679 12.5082 5
      vertex 3.46352 12.5734 5
    endloop
  endfacet
  facet normal -0.207912 0.978148 0
    outer loop
      vertex 3.15679 12.5082 5
      vertex 3.46352 12.5734 0
      vertex 3.15679 12.5082 0
    endloop
  endfacet
  facet normal -0.587787 0.809016 0
    outer loop
      vertex 4.0037 12.8853 0
      vertex 3.75 12.701 5
      vertex 4.0037 12.8853 5
    endloop
  endfacet
  facet normal -0.587787 0.809016 0
    outer loop
      vertex 3.75 12.701 5
      vertex 4.0037 12.8853 0
      vertex 3.75 12.701 0
    endloop
  endfacet
  facet normal 0.406735 0.913546 -0
    outer loop
      vertex 2.53647 12.5734 0
      vertex 2.25 12.701 5
      vertex 2.53647 12.5734 5
    endloop
  endfacet
  facet normal 0.406735 0.913546 0
    outer loop
      vertex 2.25 12.701 5
      vertex 2.53647 12.5734 0
      vertex 2.25 12.701 0
    endloop
  endfacet
  facet normal 0 1 -0
    outer loop
      vertex 3.15679 12.5082 0
      vertex 2.84321 12.5082 5
      vertex 3.15679 12.5082 5
    endloop
  endfacet
  facet normal 0 1 0
    outer loop
      vertex 2.84321 12.5082 5
      vertex 3.15679 12.5082 0
      vertex 2.84321 12.5082 0
    endloop
  endfacet
  facet normal 0.743145 0.669131 0
    outer loop
      vertex 1.9963 12.8853 5
      vertex 1.78647 13.1183 0
      vertex 1.78647 13.1183 5
    endloop
  endfacet
  facet normal 0.743145 0.669131 0
    outer loop
      vertex 1.78647 13.1183 0
      vertex 1.9963 12.8853 5
      vertex 1.9963 12.8853 0
    endloop
  endfacet
  facet normal 0.951056 0.309018 0
    outer loop
      vertex 1.62968 13.3899 5
      vertex 1.53278 13.6881 0
      vertex 1.53278 13.6881 5
    endloop
  endfacet
  facet normal 0.951056 0.309018 0
    outer loop
      vertex 1.53278 13.6881 0
      vertex 1.62968 13.3899 5
      vertex 1.62968 13.3899 0
    endloop
  endfacet
  facet normal 0.994522 0.104526 0
    outer loop
      vertex 1.53278 13.6881 5
      vertex 1.5 14 0
      vertex 1.5 14 5
    endloop
  endfacet
  facet normal 0.994522 0.104526 0
    outer loop
      vertex 1.5 14 0
      vertex 1.53278 13.6881 5
      vertex 1.53278 13.6881 0
    endloop
  endfacet
  facet normal -0.406735 0.913546 0
    outer loop
      vertex 3.75 12.701 0
      vertex 3.46352 12.5734 5
      vertex 3.75 12.701 5
    endloop
  endfacet
  facet normal -0.406735 0.913546 0
    outer loop
      vertex 3.46352 12.5734 5
      vertex 3.75 12.701 0
      vertex 3.46352 12.5734 0
    endloop
  endfacet
  facet normal -0.743145 0.669131 0
    outer loop
      vertex 4.0037 12.8853 0
      vertex 4.21352 13.1183 5
      vertex 4.21352 13.1183 0
    endloop
  endfacet
  facet normal -0.743145 0.669131 0
    outer loop
      vertex 4.21352 13.1183 5
      vertex 4.0037 12.8853 0
      vertex 4.0037 12.8853 5
    endloop
  endfacet
  facet normal -0.951056 0.309018 0
    outer loop
      vertex 4.37032 13.3899 0
      vertex 4.46722 13.6881 5
      vertex 4.46722 13.6881 0
    endloop
  endfacet
  facet normal -0.951056 0.309018 0
    outer loop
      vertex 4.46722 13.6881 5
      vertex 4.37032 13.3899 0
      vertex 4.37032 13.3899 5
    endloop
  endfacet
  facet normal 0.207912 0.978148 -0
    outer loop
      vertex 2.84321 12.5082 0
      vertex 2.53647 12.5734 5
      vertex 2.84321 12.5082 5
    endloop
  endfacet
  facet normal 0.207912 0.978148 0
    outer loop
      vertex 2.53647 12.5734 5
      vertex 2.84321 12.5082 0
      vertex 2.53647 12.5734 0
    endloop
  endfacet
  facet normal 0.866026 0.5 0
    outer loop
      vertex 1.78647 13.1183 5
      vertex 1.62968 13.3899 0
      vertex 1.62968 13.3899 5
    endloop
  endfacet
  facet normal 0.866026 0.5 0
    outer loop
      vertex 1.62968 13.3899 0
      vertex 1.78647 13.1183 5
      vertex 1.78647 13.1183 0
    endloop
  endfacet
  facet normal -0.994522 -0.104532 0
    outer loop
      vertex 52.5 4 0
      vertex 52.4672 4.31187 5
      vertex 52.4672 4.31187 0
    endloop
  endfacet
  facet normal -0.994522 -0.104532 0
    outer loop
      vertex 52.4672 4.31187 5
      vertex 52.5 4 0
      vertex 52.5 4 5
    endloop
  endfacet
  facet normal 0 -1 0
    outer loop
      vertex 50.8432 5.49178 0
      vertex 51.1568 5.49178 5
      vertex 50.8432 5.49178 5
    endloop
  endfacet
  facet normal 0 -1 -0
    outer loop
      vertex 51.1568 5.49178 5
      vertex 50.8432 5.49178 0
      vertex 51.1568 5.49178 0
    endloop
  endfacet
  facet normal 0.587786 0.809017 -0
    outer loop
      vertex 50.25 2.70096 0
      vertex 49.9963 2.88528 5
      vertex 50.25 2.70096 5
    endloop
  endfacet
  facet normal 0.587786 0.809017 0
    outer loop
      vertex 49.9963 2.88528 5
      vertex 50.25 2.70096 0
      vertex 49.9963 2.88528 0
    endloop
  endfacet
  facet normal -0.587786 -0.809017 0
    outer loop
      vertex 51.75 5.29904 0
      vertex 52.0037 5.11472 5
      vertex 51.75 5.29904 5
    endloop
  endfacet
  facet normal -0.587786 -0.809017 -0
    outer loop
      vertex 52.0037 5.11472 5
      vertex 51.75 5.29904 0
      vertex 52.0037 5.11472 0
    endloop
  endfacet
  facet normal 0.743148 -0.669128 0
    outer loop
      vertex 49.7865 4.88168 5
      vertex 49.9963 5.11472 0
      vertex 49.9963 5.11472 5
    endloop
  endfacet
  facet normal 0.743148 -0.669128 0
    outer loop
      vertex 49.9963 5.11472 0
      vertex 49.7865 4.88168 5
      vertex 49.7865 4.88168 0
    endloop
  endfacet
  facet normal 0.406734 -0.913547 0
    outer loop
      vertex 50.25 5.29904 0
      vertex 50.5365 5.42658 5
      vertex 50.25 5.29904 5
    endloop
  endfacet
  facet normal 0.406734 -0.913547 0
    outer loop
      vertex 50.5365 5.42658 5
      vertex 50.25 5.29904 0
      vertex 50.5365 5.42658 0
    endloop
  endfacet
  facet normal -0.866027 -0.499997 0
    outer loop
      vertex 52.3703 4.6101 0
      vertex 52.2135 4.88168 5
      vertex 52.2135 4.88168 0
    endloop
  endfacet
  facet normal -0.866027 -0.499997 0
    outer loop
      vertex 52.2135 4.88168 5
      vertex 52.3703 4.6101 0
      vertex 52.3703 4.6101 5
    endloop
  endfacet
  facet normal -0.951055 -0.309021 0
    outer loop
      vertex 52.4672 4.31187 0
      vertex 52.3703 4.6101 5
      vertex 52.3703 4.6101 0
    endloop
  endfacet
  facet normal -0.951055 -0.309021 0
    outer loop
      vertex 52.3703 4.6101 5
      vertex 52.4672 4.31187 0
      vertex 52.4672 4.31187 5
    endloop
  endfacet
  facet normal -0.743148 -0.669128 0
    outer loop
      vertex 52.2135 4.88168 0
      vertex 52.0037 5.11472 5
      vertex 52.0037 5.11472 0
    endloop
  endfacet
  facet normal -0.743148 -0.669128 0
    outer loop
      vertex 52.0037 5.11472 5
      vertex 52.2135 4.88168 0
      vertex 52.2135 4.88168 5
    endloop
  endfacet
  facet normal -0.207912 -0.978148 0
    outer loop
      vertex 51.1568 5.49178 0
      vertex 51.4635 5.42658 5
      vertex 51.1568 5.49178 5
    endloop
  endfacet
  facet normal -0.207912 -0.978148 -0
    outer loop
      vertex 51.4635 5.42658 5
      vertex 51.1568 5.49178 0
      vertex 51.4635 5.42658 0
    endloop
  endfacet
  facet normal -0.406734 -0.913547 0
    outer loop
      vertex 51.4635 5.42658 0
      vertex 51.75 5.29904 5
      vertex 51.4635 5.42658 5
    endloop
  endfacet
  facet normal -0.406734 -0.913547 -0
    outer loop
      vertex 51.75 5.29904 5
      vertex 51.4635 5.42658 0
      vertex 51.75 5.29904 0
    endloop
  endfacet
  facet normal 0.951055 -0.309021 0
    outer loop
      vertex 49.5328 4.31187 5
      vertex 49.6297 4.6101 0
      vertex 49.6297 4.6101 5
    endloop
  endfacet
  facet normal 0.951055 -0.309021 0
    outer loop
      vertex 49.6297 4.6101 0
      vertex 49.5328 4.31187 5
      vertex 49.5328 4.31187 0
    endloop
  endfacet
  facet normal 0.866022 -0.500007 0
    outer loop
      vertex 49.6297 4.6101 5
      vertex 49.7865 4.88168 0
      vertex 49.7865 4.88168 5
    endloop
  endfacet
  facet normal 0.866022 -0.500007 0
    outer loop
      vertex 49.7865 4.88168 0
      vertex 49.6297 4.6101 5
      vertex 49.6297 4.6101 0
    endloop
  endfacet
  facet normal 0.994523 -0.10452 0
    outer loop
      vertex 49.5 4 5
      vertex 49.5328 4.31187 0
      vertex 49.5328 4.31187 5
    endloop
  endfacet
  facet normal 0.994523 -0.10452 0
    outer loop
      vertex 49.5328 4.31187 0
      vertex 49.5 4 5
      vertex 49.5 4 0
    endloop
  endfacet
  facet normal 0.587786 -0.809017 0
    outer loop
      vertex 49.9963 5.11472 0
      vertex 50.25 5.29904 5
      vertex 49.9963 5.11472 5
    endloop
  endfacet
  facet normal 0.587786 -0.809017 0
    outer loop
      vertex 50.25 5.29904 5
      vertex 49.9963 5.11472 0
      vertex 50.25 5.29904 0
    endloop
  endfacet
  facet normal 0.207912 -0.978148 0
    outer loop
      vertex 50.5365 5.42658 0
      vertex 50.8432 5.49178 5
      vertex 50.5365 5.42658 5
    endloop
  endfacet
  facet normal 0.207912 -0.978148 0
    outer loop
      vertex 50.8432 5.49178 5
      vertex 50.5365 5.42658 0
      vertex 50.8432 5.49178 0
    endloop
  endfacet
  facet normal -0.994522 0.104532 0
    outer loop
      vertex 52.4672 3.68813 0
      vertex 52.5 4 5
      vertex 52.5 4 0
    endloop
  endfacet
  facet normal -0.994522 0.104532 0
    outer loop
      vertex 52.5 4 5
      vertex 52.4672 3.68813 0
      vertex 52.4672 3.68813 5
    endloop
  endfacet
  facet normal -0.207912 0.978148 0
    outer loop
      vertex 51.4635 2.57341 0
      vertex 51.1568 2.50822 5
      vertex 51.4635 2.57341 5
    endloop
  endfacet
  facet normal -0.207912 0.978148 0
    outer loop
      vertex 51.1568 2.50822 5
      vertex 51.4635 2.57341 0
      vertex 51.1568 2.50822 0
    endloop
  endfacet
  facet normal -0.587786 0.809017 0
    outer loop
      vertex 52.0037 2.88528 0
      vertex 51.75 2.70096 5
      vertex 52.0037 2.88528 5
    endloop
  endfacet
  facet normal -0.587786 0.809017 0
    outer loop
      vertex 51.75 2.70096 5
      vertex 52.0037 2.88528 0
      vertex 51.75 2.70096 0
    endloop
  endfacet
  facet normal 0.406734 0.913547 -0
    outer loop
      vertex 50.5365 2.57341 0
      vertex 50.25 2.70096 5
      vertex 50.5365 2.57341 5
    endloop
  endfacet
  facet normal 0.406734 0.913547 0
    outer loop
      vertex 50.25 2.70096 5
      vertex 50.5365 2.57341 0
      vertex 50.25 2.70096 0
    endloop
  endfacet
  facet normal 0 1 -0
    outer loop
      vertex 51.1568 2.50822 0
      vertex 50.8432 2.50822 5
      vertex 51.1568 2.50822 5
    endloop
  endfacet
  facet normal 0 1 0
    outer loop
      vertex 50.8432 2.50822 5
      vertex 51.1568 2.50822 0
      vertex 50.8432 2.50822 0
    endloop
  endfacet
  facet normal 0.743148 0.669128 0
    outer loop
      vertex 49.9963 2.88528 5
      vertex 49.7865 3.11832 0
      vertex 49.7865 3.11832 5
    endloop
  endfacet
  facet normal 0.743148 0.669128 0
    outer loop
      vertex 49.7865 3.11832 0
      vertex 49.9963 2.88528 5
      vertex 49.9963 2.88528 0
    endloop
  endfacet
  facet normal 0.951055 0.309021 0
    outer loop
      vertex 49.6297 3.38989 5
      vertex 49.5328 3.68813 0
      vertex 49.5328 3.68813 5
    endloop
  endfacet
  facet normal 0.951055 0.309021 0
    outer loop
      vertex 49.5328 3.68813 0
      vertex 49.6297 3.38989 5
      vertex 49.6297 3.38989 0
    endloop
  endfacet
  facet normal 0.994523 0.10452 0
    outer loop
      vertex 49.5328 3.68813 5
      vertex 49.5 4 0
      vertex 49.5 4 5
    endloop
  endfacet
  facet normal 0.994523 0.10452 0
    outer loop
      vertex 49.5 4 0
      vertex 49.5328 3.68813 5
      vertex 49.5328 3.68813 0
    endloop
  endfacet
  facet normal -0.406734 0.913547 0
    outer loop
      vertex 51.75 2.70096 0
      vertex 51.4635 2.57341 5
      vertex 51.75 2.70096 5
    endloop
  endfacet
  facet normal -0.406734 0.913547 0
    outer loop
      vertex 51.4635 2.57341 5
      vertex 51.75 2.70096 0
      vertex 51.4635 2.57341 0
    endloop
  endfacet
  facet normal -0.743148 0.669128 0
    outer loop
      vertex 52.0037 2.88528 0
      vertex 52.2135 3.11832 5
      vertex 52.2135 3.11832 0
    endloop
  endfacet
  facet normal -0.743148 0.669128 0
    outer loop
      vertex 52.2135 3.11832 5
      vertex 52.0037 2.88528 0
      vertex 52.0037 2.88528 5
    endloop
  endfacet
  facet normal -0.951055 0.309021 0
    outer loop
      vertex 52.3703 3.38989 0
      vertex 52.4672 3.68813 5
      vertex 52.4672 3.68813 0
    endloop
  endfacet
  facet normal -0.951055 0.309021 0
    outer loop
      vertex 52.4672 3.68813 5
      vertex 52.3703 3.38989 0
      vertex 52.3703 3.38989 5
    endloop
  endfacet
  facet normal -0.866027 0.499997 0
    outer loop
      vertex 52.2135 3.11832 0
      vertex 52.3703 3.38989 5
      vertex 52.3703 3.38989 0
    endloop
  endfacet
  facet normal -0.866027 0.499997 0
    outer loop
      vertex 52.3703 3.38989 5
      vertex 52.2135 3.11832 0
      vertex 52.2135 3.11832 5
    endloop
  endfacet
  facet normal 0.207912 0.978148 -0
    outer loop
      vertex 50.8432 2.50822 0
      vertex 50.5365 2.57341 5
      vertex 50.8432 2.50822 5
    endloop
  endfacet
  facet normal 0.207912 0.978148 0
    outer loop
      vertex 50.5365 2.57341 5
      vertex 50.8432 2.50822 0
      vertex 50.5365 2.57341 0
    endloop
  endfacet
  facet normal 0.866022 0.500007 0
    outer loop
      vertex 49.7865 3.11832 5
      vertex 49.6297 3.38989 0
      vertex 49.6297 3.38989 5
    endloop
  endfacet
  facet normal 0.866022 0.500007 0
    outer loop
      vertex 49.6297 3.38989 0
      vertex 49.7865 3.11832 5
      vertex 49.7865 3.11832 0
    endloop
  endfacet
  facet normal -0.994522 -0.104532 0
    outer loop
      vertex 52.5 14 0
      vertex 52.4672 14.3119 5
      vertex 52.4672 14.3119 0
    endloop
  endfacet
  facet normal -0.994522 -0.104532 0
    outer loop
      vertex 52.4672 14.3119 5
      vertex 52.5 14 0
      vertex 52.5 14 5
    endloop
  endfacet
  facet normal 0 -1 0
    outer loop
      vertex 50.8432 15.4918 0
      vertex 51.1568 15.4918 5
      vertex 50.8432 15.4918 5
    endloop
  endfacet
  facet normal 0 -1 -0
    outer loop
      vertex 51.1568 15.4918 5
      vertex 50.8432 15.4918 0
      vertex 51.1568 15.4918 0
    endloop
  endfacet
  facet normal -0.587786 -0.809017 0
    outer loop
      vertex 51.75 15.299 0
      vertex 52.0037 15.1147 5
      vertex 51.75 15.299 5
    endloop
  endfacet
  facet normal -0.587786 -0.809017 -0
    outer loop
      vertex 52.0037 15.1147 5
      vertex 51.75 15.299 0
      vertex 52.0037 15.1147 0
    endloop
  endfacet
  facet normal 0.743148 -0.669128 0
    outer loop
      vertex 49.7865 14.8817 5
      vertex 49.9963 15.1147 0
      vertex 49.9963 15.1147 5
    endloop
  endfacet
  facet normal 0.743148 -0.669128 0
    outer loop
      vertex 49.9963 15.1147 0
      vertex 49.7865 14.8817 5
      vertex 49.7865 14.8817 0
    endloop
  endfacet
  facet normal 0.406734 -0.913547 0
    outer loop
      vertex 50.25 15.299 0
      vertex 50.5365 15.4266 5
      vertex 50.25 15.299 5
    endloop
  endfacet
  facet normal 0.406734 -0.913547 0
    outer loop
      vertex 50.5365 15.4266 5
      vertex 50.25 15.299 0
      vertex 50.5365 15.4266 0
    endloop
  endfacet
  facet normal -0.866027 0.499997 0
    outer loop
      vertex 52.2135 13.1183 0
      vertex 52.3703 13.3899 5
      vertex 52.3703 13.3899 0
    endloop
  endfacet
  facet normal -0.866027 0.499997 0
    outer loop
      vertex 52.3703 13.3899 5
      vertex 52.2135 13.1183 0
      vertex 52.2135 13.1183 5
    endloop
  endfacet
  facet normal -0.866027 -0.499997 0
    outer loop
      vertex 52.3703 14.6101 0
      vertex 52.2135 14.8817 5
      vertex 52.2135 14.8817 0
    endloop
  endfacet
  facet normal -0.866027 -0.499997 0
    outer loop
      vertex 52.2135 14.8817 5
      vertex 52.3703 14.6101 0
      vertex 52.3703 14.6101 5
    endloop
  endfacet
  facet normal -0.951055 -0.309021 0
    outer loop
      vertex 52.4672 14.3119 0
      vertex 52.3703 14.6101 5
      vertex 52.3703 14.6101 0
    endloop
  endfacet
  facet normal -0.951055 -0.309021 0
    outer loop
      vertex 52.3703 14.6101 5
      vertex 52.4672 14.3119 0
      vertex 52.4672 14.3119 5
    endloop
  endfacet
  facet normal -0.743148 -0.669128 0
    outer loop
      vertex 52.2135 14.8817 0
      vertex 52.0037 15.1147 5
      vertex 52.0037 15.1147 0
    endloop
  endfacet
  facet normal -0.743148 -0.669128 0
    outer loop
      vertex 52.0037 15.1147 5
      vertex 52.2135 14.8817 0
      vertex 52.2135 14.8817 5
    endloop
  endfacet
  facet normal -0.207912 -0.978148 0
    outer loop
      vertex 51.1568 15.4918 0
      vertex 51.4635 15.4266 5
      vertex 51.1568 15.4918 5
    endloop
  endfacet
  facet normal -0.207912 -0.978148 -0
    outer loop
      vertex 51.4635 15.4266 5
      vertex 51.1568 15.4918 0
      vertex 51.4635 15.4266 0
    endloop
  endfacet
  facet normal -0.406734 -0.913547 0
    outer loop
      vertex 51.4635 15.4266 0
      vertex 51.75 15.299 5
      vertex 51.4635 15.4266 5
    endloop
  endfacet
  facet normal -0.406734 -0.913547 -0
    outer loop
      vertex 51.75 15.299 5
      vertex 51.4635 15.4266 0
      vertex 51.75 15.299 0
    endloop
  endfacet
  facet normal 0.951055 -0.309021 0
    outer loop
      vertex 49.5328 14.3119 5
      vertex 49.6297 14.6101 0
      vertex 49.6297 14.6101 5
    endloop
  endfacet
  facet normal 0.951055 -0.309021 0
    outer loop
      vertex 49.6297 14.6101 0
      vertex 49.5328 14.3119 5
      vertex 49.5328 14.3119 0
    endloop
  endfacet
  facet normal 0.866022 -0.500007 0
    outer loop
      vertex 49.6297 14.6101 5
      vertex 49.7865 14.8817 0
      vertex 49.7865 14.8817 5
    endloop
  endfacet
  facet normal 0.866022 -0.500007 0
    outer loop
      vertex 49.7865 14.8817 0
      vertex 49.6297 14.6101 5
      vertex 49.6297 14.6101 0
    endloop
  endfacet
  facet normal 0.994523 -0.10452 0
    outer loop
      vertex 49.5 14 5
      vertex 49.5328 14.3119 0
      vertex 49.5328 14.3119 5
    endloop
  endfacet
  facet normal 0.994523 -0.10452 0
    outer loop
      vertex 49.5328 14.3119 0
      vertex 49.5 14 5
      vertex 49.5 14 0
    endloop
  endfacet
  facet normal 0.587786 -0.809017 0
    outer loop
      vertex 49.9963 15.1147 0
      vertex 50.25 15.299 5
      vertex 49.9963 15.1147 5
    endloop
  endfacet
  facet normal 0.587786 -0.809017 0
    outer loop
      vertex 50.25 15.299 5
      vertex 49.9963 15.1147 0
      vertex 50.25 15.299 0
    endloop
  endfacet
  facet normal 0.207912 -0.978148 0
    outer loop
      vertex 50.5365 15.4266 0
      vertex 50.8432 15.4918 5
      vertex 50.5365 15.4266 5
    endloop
  endfacet
  facet normal 0.207912 -0.978148 0
    outer loop
      vertex 50.8432 15.4918 5
      vertex 50.5365 15.4266 0
      vertex 50.8432 15.4918 0
    endloop
  endfacet
  facet normal -0.207912 0.978148 0
    outer loop
      vertex 51.4635 12.5734 0
      vertex 51.1568 12.5082 5
      vertex 51.4635 12.5734 5
    endloop
  endfacet
  facet normal -0.207912 0.978148 0
    outer loop
      vertex 51.1568 12.5082 5
      vertex 51.4635 12.5734 0
      vertex 51.1568 12.5082 0
    endloop
  endfacet
  facet normal -0.587786 0.809017 0
    outer loop
      vertex 52.0037 12.8853 0
      vertex 51.75 12.701 5
      vertex 52.0037 12.8853 5
    endloop
  endfacet
  facet normal -0.587786 0.809017 0
    outer loop
      vertex 51.75 12.701 5
      vertex 52.0037 12.8853 0
      vertex 51.75 12.701 0
    endloop
  endfacet
  facet normal 0.406734 0.913547 -0
    outer loop
      vertex 50.5365 12.5734 0
      vertex 50.25 12.701 5
      vertex 50.5365 12.5734 5
    endloop
  endfacet
  facet normal 0.406734 0.913547 0
    outer loop
      vertex 50.25 12.701 5
      vertex 50.5365 12.5734 0
      vertex 50.25 12.701 0
    endloop
  endfacet
  facet normal 0 1 -0
    outer loop
      vertex 51.1568 12.5082 0
      vertex 50.8432 12.5082 5
      vertex 51.1568 12.5082 5
    endloop
  endfacet
  facet normal 0 1 0
    outer loop
      vertex 50.8432 12.5082 5
      vertex 51.1568 12.5082 0
      vertex 50.8432 12.5082 0
    endloop
  endfacet
  facet normal 0.743148 0.669128 0
    outer loop
      vertex 49.9963 12.8853 5
      vertex 49.7865 13.1183 0
      vertex 49.7865 13.1183 5
    endloop
  endfacet
  facet normal 0.743148 0.669128 0
    outer loop
      vertex 49.7865 13.1183 0
      vertex 49.9963 12.8853 5
      vertex 49.9963 12.8853 0
    endloop
  endfacet
  facet normal 0.951055 0.309021 0
    outer loop
      vertex 49.6297 13.3899 5
      vertex 49.5328 13.6881 0
      vertex 49.5328 13.6881 5
    endloop
  endfacet
  facet normal 0.951055 0.309021 0
    outer loop
      vertex 49.5328 13.6881 0
      vertex 49.6297 13.3899 5
      vertex 49.6297 13.3899 0
    endloop
  endfacet
  facet normal 0.994523 0.10452 0
    outer loop
      vertex 49.5328 13.6881 5
      vertex 49.5 14 0
      vertex 49.5 14 5
    endloop
  endfacet
  facet normal 0.994523 0.10452 0
    outer loop
      vertex 49.5 14 0
      vertex 49.5328 13.6881 5
      vertex 49.5328 13.6881 0
    endloop
  endfacet
  facet normal -0.406734 0.913547 0
    outer loop
      vertex 51.75 12.701 0
      vertex 51.4635 12.5734 5
      vertex 51.75 12.701 5
    endloop
  endfacet
  facet normal -0.406734 0.913547 0
    outer loop
      vertex 51.4635 12.5734 5
      vertex 51.75 12.701 0
      vertex 51.4635 12.5734 0
    endloop
  endfacet
  facet normal -0.743148 0.669128 0
    outer loop
      vertex 52.0037 12.8853 0
      vertex 52.2135 13.1183 5
      vertex 52.2135 13.1183 0
    endloop
  endfacet
  facet normal -0.743148 0.669128 0
    outer loop
      vertex 52.2135 13.1183 5
      vertex 52.0037 12.8853 0
      vertex 52.0037 12.8853 5
    endloop
  endfacet
  facet normal -0.951055 0.309021 0
    outer loop
      vertex 52.3703 13.3899 0
      vertex 52.4672 13.6881 5
      vertex 52.4672 13.6881 0
    endloop
  endfacet
  facet normal -0.951055 0.309021 0
    outer loop
      vertex 52.4672 13.6881 5
      vertex 52.3703 13.3899 0
      vertex 52.3703 13.3899 5
    endloop
  endfacet
  facet normal -0.994522 0.104532 0
    outer loop
      vertex 52.4672 13.6881 0
      vertex 52.5 14 5
      vertex 52.5 14 0
    endloop
  endfacet
  facet normal -0.994522 0.104532 0
    outer loop
      vertex 52.5 14 5
      vertex 52.4672 13.6881 0
      vertex 52.4672 13.6881 5
    endloop
  endfacet
  facet normal 0.207912 0.978148 -0
    outer loop
      vertex 50.8432 12.5082 0
      vertex 50.5365 12.5734 5
      vertex 50.8432 12.5082 5
    endloop
  endfacet
  facet normal 0.207912 0.978148 0
    outer loop
      vertex 50.5365 12.5734 5
      vertex 50.8432 12.5082 0
      vertex 50.5365 12.5734 0
    endloop
  endfacet
  facet normal 0.587786 0.809017 -0
    outer loop
      vertex 50.25 12.701 0
      vertex 49.9963 12.8853 5
      vertex 50.25 12.701 5
    endloop
  endfacet
  facet normal 0.587786 0.809017 0
    outer loop
      vertex 49.9963 12.8853 5
      vertex 50.25 12.701 0
      vertex 49.9963 12.8853 0
    endloop
  endfacet
  facet normal 0.866022 0.500007 0
    outer loop
      vertex 49.7865 13.1183 5
      vertex 49.6297 13.3899 0
      vertex 49.6297 13.3899 5
    endloop
  endfacet
  facet normal 0.866022 0.500007 0
    outer loop
      vertex 49.6297 13.3899 0
      vertex 49.7865 13.1183 5
      vertex 49.7865 13.1183 0
    endloop
  endfacet
endsolid OpenSCAD_Model
