solid OpenSCAD_Model
  facet normal -0.99863 0.0523363 0
    outer loop
      vertex -25 0 0
      vertex -24.863 2.61321 8
      vertex -24.863 2.61321 0
    endloop
  endfacet
  facet normal -0.99863 0.0523363 0
    outer loop
      vertex -24.863 2.61321 8
      vertex -25 0 0
      vertex -25 0 8
    endloop
  endfacet
  facet normal -0.0523363 -0.99863 0
    outer loop
      vertex -2.61321 -24.863 0
      vertex 0 -25 8
      vertex -2.61321 -24.863 8
    endloop
  endfacet
  facet normal -0.0523363 -0.99863 -0
    outer loop
      vertex 0 -25 8
      vertex -2.61321 -24.863 0
      vertex 0 -25 0
    endloop
  endfacet
  facet normal -0.629321 0.777146 0
    outer loop
      vertex -14.6946 20.2254 0
      vertex -16.7283 18.5786 8
      vertex -14.6946 20.2254 8
    endloop
  endfacet
  facet normal -0.629321 0.777146 0
    outer loop
      vertex -16.7283 18.5786 8
      vertex -14.6946 20.2254 0
      vertex -16.7283 18.5786 0
    endloop
  endfacet
  facet normal -0.358368 0.93358 0
    outer loop
      vertex -7.72542 23.7764 0
      vertex -10.1684 22.8386 8
      vertex -7.72542 23.7764 8
    endloop
  endfacet
  facet normal -0.358368 0.93358 0
    outer loop
      vertex -10.1684 22.8386 8
      vertex -7.72542 23.7764 0
      vertex -10.1684 22.8386 0
    endloop
  endfacet
  facet normal -0.965926 -0.258819 0
    outer loop
      vertex -23.7764 -7.72542 0
      vertex -24.4537 -5.19779 8
      vertex -24.4537 -5.19779 0
    endloop
  endfacet
  facet normal -0.965926 -0.258819 0
    outer loop
      vertex -24.4537 -5.19779 8
      vertex -23.7764 -7.72542 0
      vertex -23.7764 -7.72542 8
    endloop
  endfacet
  facet normal -0.838671 0.544639 0
    outer loop
      vertex -21.6506 12.5 0
      vertex -20.2254 14.6946 8
      vertex -20.2254 14.6946 0
    endloop
  endfacet
  facet normal -0.838671 0.544639 0
    outer loop
      vertex -20.2254 14.6946 8
      vertex -21.6506 12.5 0
      vertex -21.6506 12.5 8
    endloop
  endfacet
  facet normal -0.777146 0.629321 0
    outer loop
      vertex -20.2254 14.6946 0
      vertex -18.5786 16.7283 8
      vertex -18.5786 16.7283 0
    endloop
  endfacet
  facet normal -0.777146 0.629321 0
    outer loop
      vertex -18.5786 16.7283 8
      vertex -20.2254 14.6946 0
      vertex -20.2254 14.6946 8
    endloop
  endfacet
  facet normal -0.544639 0.838671 0
    outer loop
      vertex -12.5 21.6506 0
      vertex -14.6946 20.2254 8
      vertex -12.5 21.6506 8
    endloop
  endfacet
  facet normal -0.544639 0.838671 0
    outer loop
      vertex -14.6946 20.2254 8
      vertex -12.5 21.6506 0
      vertex -14.6946 20.2254 0
    endloop
  endfacet
  facet normal -0.156434 0.987688 0
    outer loop
      vertex -2.61321 24.863 0
      vertex -5.19779 24.4537 8
      vertex -2.61321 24.863 8
    endloop
  endfacet
  facet normal -0.156434 0.987688 0
    outer loop
      vertex -5.19779 24.4537 8
      vertex -2.61321 24.863 0
      vertex -5.19779 24.4537 0
    endloop
  endfacet
  facet normal -0.358368 -0.93358 0
    outer loop
      vertex -10.1684 -22.8386 0
      vertex -7.72542 -23.7764 8
      vertex -10.1684 -22.8386 8
    endloop
  endfacet
  facet normal -0.358368 -0.93358 -0
    outer loop
      vertex -7.72542 -23.7764 8
      vertex -10.1684 -22.8386 0
      vertex -7.72542 -23.7764 0
    endloop
  endfacet
  facet normal -0.777146 -0.629321 0
    outer loop
      vertex -18.5786 -16.7283 0
      vertex -20.2254 -14.6946 8
      vertex -20.2254 -14.6946 0
    endloop
  endfacet
  facet normal -0.777146 -0.629321 0
    outer loop
      vertex -20.2254 -14.6946 8
      vertex -18.5786 -16.7283 0
      vertex -18.5786 -16.7283 8
    endloop
  endfacet
  facet normal 0 0 -1
    outer loop
      vertex 0 -25 0
      vertex -1.88151 -17.9014 0
      vertex 0 -18 0
    endloop
  endfacet
  facet normal 0 0 -1
    outer loop
      vertex -2.61321 -24.863 0
      vertex -1.88151 -17.9014 0
      vertex 0 -25 0
    endloop
  endfacet
  facet normal 0 0 -1
    outer loop
      vertex -2.61321 -24.863 0
      vertex -3.74241 -17.6067 0
      vertex -1.88151 -17.9014 0
    endloop
  endfacet
  facet normal 0 0 -1
    outer loop
      vertex -5.19779 -24.4537 0
      vertex -3.74241 -17.6067 0
      vertex -2.61321 -24.863 0
    endloop
  endfacet
  facet normal 0 0 -1
    outer loop
      vertex -5.19779 -24.4537 0
      vertex -5.56231 -17.119 0
      vertex -3.74241 -17.6067 0
    endloop
  endfacet
  facet normal 0 0 -1
    outer loop
      vertex -7.72542 -23.7764 0
      vertex -5.56231 -17.119 0
      vertex -5.19779 -24.4537 0
    endloop
  endfacet
  facet normal -0 0 -1
    outer loop
      vertex -5.56231 -17.119 0
      vertex -7.72542 -23.7764 0
      vertex -7.32126 -16.4438 0
    endloop
  endfacet
  facet normal 0 0 -1
    outer loop
      vertex -10.1684 -22.8386 0
      vertex -7.32126 -16.4438 0
      vertex -7.72542 -23.7764 0
    endloop
  endfacet
  facet normal -0 0 -1
    outer loop
      vertex -7.32126 -16.4438 0
      vertex -10.1684 -22.8386 0
      vertex -9 -15.5885 0
    endloop
  endfacet
  facet normal 0 0 -1
    outer loop
      vertex -12.5 -21.6506 0
      vertex -9 -15.5885 0
      vertex -10.1684 -22.8386 0
    endloop
  endfacet
  facet normal -0 0 -1
    outer loop
      vertex -9 -15.5885 0
      vertex -12.5 -21.6506 0
      vertex -10.5801 -14.5623 0
    endloop
  endfacet
  facet normal 0 0 -1
    outer loop
      vertex -14.6946 -20.2254 0
      vertex -10.5801 -14.5623 0
      vertex -12.5 -21.6506 0
    endloop
  endfacet
  facet normal -0 0 -1
    outer loop
      vertex -10.5801 -14.5623 0
      vertex -14.6946 -20.2254 0
      vertex -12.0444 -13.3766 0
    endloop
  endfacet
  facet normal 0 0 -1
    outer loop
      vertex -16.7283 -18.5786 0
      vertex -12.0444 -13.3766 0
      vertex -14.6946 -20.2254 0
    endloop
  endfacet
  facet normal -0 0 -1
    outer loop
      vertex -12.0444 -13.3766 0
      vertex -16.7283 -18.5786 0
      vertex -13.3766 -12.0444 0
    endloop
  endfacet
  facet normal 0 0 -1
    outer loop
      vertex -18.5786 -16.7283 0
      vertex -13.3766 -12.0444 0
      vertex -16.7283 -18.5786 0
    endloop
  endfacet
  facet normal -0 0 -1
    outer loop
      vertex -13.3766 -12.0444 0
      vertex -18.5786 -16.7283 0
      vertex -14.5623 -10.5801 0
    endloop
  endfacet
  facet normal 0 0 -1
    outer loop
      vertex -20.2254 -14.6946 0
      vertex -14.5623 -10.5801 0
      vertex -18.5786 -16.7283 0
    endloop
  endfacet
  facet normal -0 0 -1
    outer loop
      vertex -14.5623 -10.5801 0
      vertex -20.2254 -14.6946 0
      vertex -15.5885 -9 0
    endloop
  endfacet
  facet normal 0 0 -1
    outer loop
      vertex -21.6506 -12.5 0
      vertex -15.5885 -9 0
      vertex -20.2254 -14.6946 0
    endloop
  endfacet
  facet normal -0 0 -1
    outer loop
      vertex -15.5885 -9 0
      vertex -21.6506 -12.5 0
      vertex -16.4438 -7.32126 0
    endloop
  endfacet
  facet normal -0 0 -1
    outer loop
      vertex -16.4438 -7.32126 0
      vertex -22.8386 -10.1684 0
      vertex -17.119 -5.56231 0
    endloop
  endfacet
  facet normal 0 0 -1
    outer loop
      vertex -22.8386 -10.1684 0
      vertex -16.4438 -7.32126 0
      vertex -21.6506 -12.5 0
    endloop
  endfacet
  facet normal 0 0 -1
    outer loop
      vertex -1.88151 17.9014 0
      vertex 0 25 0
      vertex 0 18 0
    endloop
  endfacet
  facet normal 0 0 -1
    outer loop
      vertex -1.88151 17.9014 0
      vertex -2.61321 24.863 0
      vertex 0 25 0
    endloop
  endfacet
  facet normal 0 0 -1
    outer loop
      vertex -3.74241 17.6067 0
      vertex -2.61321 24.863 0
      vertex -1.88151 17.9014 0
    endloop
  endfacet
  facet normal 0 0 -1
    outer loop
      vertex -3.74241 17.6067 0
      vertex -5.19779 24.4537 0
      vertex -2.61321 24.863 0
    endloop
  endfacet
  facet normal 0 0 -1
    outer loop
      vertex -5.56231 17.119 0
      vertex -5.19779 24.4537 0
      vertex -3.74241 17.6067 0
    endloop
  endfacet
  facet normal 0 0 -1
    outer loop
      vertex -7.72542 23.7764 0
      vertex -5.56231 17.119 0
      vertex -7.32126 16.4438 0
    endloop
  endfacet
  facet normal 0 0 -1
    outer loop
      vertex -5.56231 17.119 0
      vertex -7.72542 23.7764 0
      vertex -5.19779 24.4537 0
    endloop
  endfacet
  facet normal 0 0 -1
    outer loop
      vertex -10.1684 22.8386 0
      vertex -7.32126 16.4438 0
      vertex -9 15.5885 0
    endloop
  endfacet
  facet normal 0 0 -1
    outer loop
      vertex -7.32126 16.4438 0
      vertex -10.1684 22.8386 0
      vertex -7.72542 23.7764 0
    endloop
  endfacet
  facet normal 0 0 -1
    outer loop
      vertex -12.5 21.6506 0
      vertex -9 15.5885 0
      vertex -10.5801 14.5623 0
    endloop
  endfacet
  facet normal 0 0 -1
    outer loop
      vertex -14.6946 20.2254 0
      vertex -10.5801 14.5623 0
      vertex -12.0444 13.3766 0
    endloop
  endfacet
  facet normal 0 0 -1
    outer loop
      vertex -9 15.5885 0
      vertex -12.5 21.6506 0
      vertex -10.1684 22.8386 0
    endloop
  endfacet
  facet normal 0 0 -1
    outer loop
      vertex -16.7283 18.5786 0
      vertex -12.0444 13.3766 0
      vertex -13.3766 12.0444 0
    endloop
  endfacet
  facet normal 0 0 -1
    outer loop
      vertex -18.5786 16.7283 0
      vertex -13.3766 12.0444 0
      vertex -14.5623 10.5801 0
    endloop
  endfacet
  facet normal 0 0 -1
    outer loop
      vertex -10.5801 14.5623 0
      vertex -14.6946 20.2254 0
      vertex -12.5 21.6506 0
    endloop
  endfacet
  facet normal 0 0 -1
    outer loop
      vertex -20.2254 14.6946 0
      vertex -14.5623 10.5801 0
      vertex -15.5885 9 0
    endloop
  endfacet
  facet normal 0 0 -1
    outer loop
      vertex -21.6506 12.5 0
      vertex -15.5885 9 0
      vertex -16.4438 7.32126 0
    endloop
  endfacet
  facet normal 0 0 -1
    outer loop
      vertex -12.0444 13.3766 0
      vertex -16.7283 18.5786 0
      vertex -14.6946 20.2254 0
    endloop
  endfacet
  facet normal 0 0 -1
    outer loop
      vertex -22.8386 10.1684 0
      vertex -16.4438 7.32126 0
      vertex -17.119 5.56231 0
    endloop
  endfacet
  facet normal 0 0 -1
    outer loop
      vertex -23.7764 7.72542 0
      vertex -17.119 5.56231 0
      vertex -17.6067 3.74241 0
    endloop
  endfacet
  facet normal 0 0 -1
    outer loop
      vertex -24.4537 5.19779 0
      vertex -17.6067 3.74241 0
      vertex -17.9014 1.88151 0
    endloop
  endfacet
  facet normal 0 0 -1
    outer loop
      vertex -13.3766 12.0444 0
      vertex -18.5786 16.7283 0
      vertex -16.7283 18.5786 0
    endloop
  endfacet
  facet normal 0 0 -1
    outer loop
      vertex -24.863 2.61321 0
      vertex -17.9014 1.88151 0
      vertex -18 0 0
    endloop
  endfacet
  facet normal 0 0 -1
    outer loop
      vertex -23.7764 -7.72542 0
      vertex -17.119 -5.56231 0
      vertex -22.8386 -10.1684 0
    endloop
  endfacet
  facet normal -0 0 -1
    outer loop
      vertex -17.119 -5.56231 0
      vertex -23.7764 -7.72542 0
      vertex -17.6067 -3.74241 0
    endloop
  endfacet
  facet normal 0 0 -1
    outer loop
      vertex -14.5623 10.5801 0
      vertex -20.2254 14.6946 0
      vertex -18.5786 16.7283 0
    endloop
  endfacet
  facet normal 0 0 -1
    outer loop
      vertex -24.4537 -5.19779 0
      vertex -17.6067 -3.74241 0
      vertex -23.7764 -7.72542 0
    endloop
  endfacet
  facet normal 0 0 -1
    outer loop
      vertex -15.5885 9 0
      vertex -21.6506 12.5 0
      vertex -20.2254 14.6946 0
    endloop
  endfacet
  facet normal -0 0 -1
    outer loop
      vertex -17.6067 -3.74241 0
      vertex -24.4537 -5.19779 0
      vertex -17.9014 -1.88151 0
    endloop
  endfacet
  facet normal 0 0 -1
    outer loop
      vertex -16.4438 7.32126 0
      vertex -22.8386 10.1684 0
      vertex -21.6506 12.5 0
    endloop
  endfacet
  facet normal 0 0 -1
    outer loop
      vertex -24.863 -2.61321 0
      vertex -17.9014 -1.88151 0
      vertex -24.4537 -5.19779 0
    endloop
  endfacet
  facet normal 0 0 -1
    outer loop
      vertex -17.119 5.56231 0
      vertex -23.7764 7.72542 0
      vertex -22.8386 10.1684 0
    endloop
  endfacet
  facet normal -0 0 -1
    outer loop
      vertex -17.9014 -1.88151 0
      vertex -24.863 -2.61321 0
      vertex -18 0 0
    endloop
  endfacet
  facet normal 0 0 -1
    outer loop
      vertex -17.6067 3.74241 0
      vertex -24.4537 5.19779 0
      vertex -23.7764 7.72542 0
    endloop
  endfacet
  facet normal 0 0 -1
    outer loop
      vertex -25 0 0
      vertex -18 0 0
      vertex -24.863 -2.61321 0
    endloop
  endfacet
  facet normal 0 0 -1
    outer loop
      vertex -17.9014 1.88151 0
      vertex -24.863 2.61321 0
      vertex -24.4537 5.19779 0
    endloop
  endfacet
  facet normal 0 0 -1
    outer loop
      vertex -18 0 0
      vertex -25 0 0
      vertex -24.863 2.61321 0
    endloop
  endfacet
  facet normal -0.965926 0.258819 0
    outer loop
      vertex -24.4537 5.19779 0
      vertex -23.7764 7.72542 8
      vertex -23.7764 7.72542 0
    endloop
  endfacet
  facet normal -0.965926 0.258819 0
    outer loop
      vertex -23.7764 7.72542 8
      vertex -24.4537 5.19779 0
      vertex -24.4537 5.19779 8
    endloop
  endfacet
  facet normal -0.891006 0.453991 0
    outer loop
      vertex -22.8386 10.1684 0
      vertex -21.6506 12.5 8
      vertex -21.6506 12.5 0
    endloop
  endfacet
  facet normal -0.891006 0.453991 0
    outer loop
      vertex -21.6506 12.5 8
      vertex -22.8386 10.1684 0
      vertex -22.8386 10.1684 8
    endloop
  endfacet
  facet normal -0.93358 0.358368 0
    outer loop
      vertex -23.7764 7.72542 0
      vertex -22.8386 10.1684 8
      vertex -22.8386 10.1684 0
    endloop
  endfacet
  facet normal -0.93358 0.358368 0
    outer loop
      vertex -22.8386 10.1684 8
      vertex -23.7764 7.72542 0
      vertex -23.7764 7.72542 8
    endloop
  endfacet
  facet normal -0.987688 0.156434 0
    outer loop
      vertex -24.863 2.61321 0
      vertex -24.4537 5.19779 8
      vertex -24.4537 5.19779 0
    endloop
  endfacet
  facet normal -0.987688 0.156434 0
    outer loop
      vertex -24.4537 5.19779 8
      vertex -24.863 2.61321 0
      vertex -24.863 2.61321 8
    endloop
  endfacet
  facet normal 0 0 1
    outer loop
      vertex 0 25 8
      vertex -1.88151 17.9014 8
      vertex 0 18 8
    endloop
  endfacet
  facet normal -0 0 1
    outer loop
      vertex -2.61321 24.863 8
      vertex -1.88151 17.9014 8
      vertex 0 25 8
    endloop
  endfacet
  facet normal 0 0 1
    outer loop
      vertex -2.61321 24.863 8
      vertex -3.74241 17.6067 8
      vertex -1.88151 17.9014 8
    endloop
  endfacet
  facet normal -0 0 1
    outer loop
      vertex -5.19779 24.4537 8
      vertex -3.74241 17.6067 8
      vertex -2.61321 24.863 8
    endloop
  endfacet
  facet normal 0 0 1
    outer loop
      vertex -5.19779 24.4537 8
      vertex -5.56231 17.119 8
      vertex -3.74241 17.6067 8
    endloop
  endfacet
  facet normal -0 0 1
    outer loop
      vertex -7.72542 23.7764 8
      vertex -5.56231 17.119 8
      vertex -5.19779 24.4537 8
    endloop
  endfacet
  facet normal 0 0 1
    outer loop
      vertex -5.56231 17.119 8
      vertex -7.72542 23.7764 8
      vertex -7.32126 16.4438 8
    endloop
  endfacet
  facet normal -0 0 1
    outer loop
      vertex -10.1684 22.8386 8
      vertex -7.32126 16.4438 8
      vertex -7.72542 23.7764 8
    endloop
  endfacet
  facet normal 0 0 1
    outer loop
      vertex -7.32126 16.4438 8
      vertex -10.1684 22.8386 8
      vertex -9 15.5885 8
    endloop
  endfacet
  facet normal -0 0 1
    outer loop
      vertex -12.5 21.6506 8
      vertex -9 15.5885 8
      vertex -10.1684 22.8386 8
    endloop
  endfacet
  facet normal 0 0 1
    outer loop
      vertex -9 15.5885 8
      vertex -12.5 21.6506 8
      vertex -10.5801 14.5623 8
    endloop
  endfacet
  facet normal -0 0 1
    outer loop
      vertex -14.6946 20.2254 8
      vertex -10.5801 14.5623 8
      vertex -12.5 21.6506 8
    endloop
  endfacet
  facet normal 0 0 1
    outer loop
      vertex -10.5801 14.5623 8
      vertex -14.6946 20.2254 8
      vertex -12.0444 13.3766 8
    endloop
  endfacet
  facet normal -0 0 1
    outer loop
      vertex -16.7283 18.5786 8
      vertex -12.0444 13.3766 8
      vertex -14.6946 20.2254 8
    endloop
  endfacet
  facet normal 0 0 1
    outer loop
      vertex -12.0444 13.3766 8
      vertex -16.7283 18.5786 8
      vertex -13.3766 12.0444 8
    endloop
  endfacet
  facet normal -0 0 1
    outer loop
      vertex -18.5786 16.7283 8
      vertex -13.3766 12.0444 8
      vertex -16.7283 18.5786 8
    endloop
  endfacet
  facet normal 0 0 1
    outer loop
      vertex -13.3766 12.0444 8
      vertex -18.5786 16.7283 8
      vertex -14.5623 10.5801 8
    endloop
  endfacet
  facet normal -0 0 1
    outer loop
      vertex -20.2254 14.6946 8
      vertex -14.5623 10.5801 8
      vertex -18.5786 16.7283 8
    endloop
  endfacet
  facet normal 0 0 1
    outer loop
      vertex -14.5623 10.5801 8
      vertex -20.2254 14.6946 8
      vertex -15.5885 9 8
    endloop
  endfacet
  facet normal -0 0 1
    outer loop
      vertex -21.6506 12.5 8
      vertex -15.5885 9 8
      vertex -20.2254 14.6946 8
    endloop
  endfacet
  facet normal 0 0 1
    outer loop
      vertex -15.5885 9 8
      vertex -21.6506 12.5 8
      vertex -16.4438 7.32126 8
    endloop
  endfacet
  facet normal 0 0 1
    outer loop
      vertex -16.4438 7.32126 8
      vertex -22.8386 10.1684 8
      vertex -17.119 5.56231 8
    endloop
  endfacet
  facet normal -0 0 1
    outer loop
      vertex -22.8386 10.1684 8
      vertex -16.4438 7.32126 8
      vertex -21.6506 12.5 8
    endloop
  endfacet
  facet normal 0 0 1
    outer loop
      vertex -1.88151 -17.9014 8
      vertex 0 -25 8
      vertex 0 -18 8
    endloop
  endfacet
  facet normal 0 0 1
    outer loop
      vertex -1.88151 -17.9014 8
      vertex -2.61321 -24.863 8
      vertex 0 -25 8
    endloop
  endfacet
  facet normal 0 0 1
    outer loop
      vertex -3.74241 -17.6067 8
      vertex -2.61321 -24.863 8
      vertex -1.88151 -17.9014 8
    endloop
  endfacet
  facet normal 0 0 1
    outer loop
      vertex -3.74241 -17.6067 8
      vertex -5.19779 -24.4537 8
      vertex -2.61321 -24.863 8
    endloop
  endfacet
  facet normal 0 0 1
    outer loop
      vertex -5.56231 -17.119 8
      vertex -5.19779 -24.4537 8
      vertex -3.74241 -17.6067 8
    endloop
  endfacet
  facet normal 0 0 1
    outer loop
      vertex -7.72542 -23.7764 8
      vertex -5.56231 -17.119 8
      vertex -7.32126 -16.4438 8
    endloop
  endfacet
  facet normal 0 0 1
    outer loop
      vertex -5.56231 -17.119 8
      vertex -7.72542 -23.7764 8
      vertex -5.19779 -24.4537 8
    endloop
  endfacet
  facet normal 0 0 1
    outer loop
      vertex -10.1684 -22.8386 8
      vertex -7.32126 -16.4438 8
      vertex -9 -15.5885 8
    endloop
  endfacet
  facet normal 0 0 1
    outer loop
      vertex -7.32126 -16.4438 8
      vertex -10.1684 -22.8386 8
      vertex -7.72542 -23.7764 8
    endloop
  endfacet
  facet normal 0 0 1
    outer loop
      vertex -12.5 -21.6506 8
      vertex -9 -15.5885 8
      vertex -10.5801 -14.5623 8
    endloop
  endfacet
  facet normal 0 0 1
    outer loop
      vertex -14.6946 -20.2254 8
      vertex -10.5801 -14.5623 8
      vertex -12.0444 -13.3766 8
    endloop
  endfacet
  facet normal 0 0 1
    outer loop
      vertex -9 -15.5885 8
      vertex -12.5 -21.6506 8
      vertex -10.1684 -22.8386 8
    endloop
  endfacet
  facet normal 0 0 1
    outer loop
      vertex -16.7283 -18.5786 8
      vertex -12.0444 -13.3766 8
      vertex -13.3766 -12.0444 8
    endloop
  endfacet
  facet normal 0 0 1
    outer loop
      vertex -18.5786 -16.7283 8
      vertex -13.3766 -12.0444 8
      vertex -14.5623 -10.5801 8
    endloop
  endfacet
  facet normal 0 0 1
    outer loop
      vertex -10.5801 -14.5623 8
      vertex -14.6946 -20.2254 8
      vertex -12.5 -21.6506 8
    endloop
  endfacet
  facet normal 0 0 1
    outer loop
      vertex -20.2254 -14.6946 8
      vertex -14.5623 -10.5801 8
      vertex -15.5885 -9 8
    endloop
  endfacet
  facet normal 0 0 1
    outer loop
      vertex -21.6506 -12.5 8
      vertex -15.5885 -9 8
      vertex -16.4438 -7.32126 8
    endloop
  endfacet
  facet normal 0 0 1
    outer loop
      vertex -12.0444 -13.3766 8
      vertex -16.7283 -18.5786 8
      vertex -14.6946 -20.2254 8
    endloop
  endfacet
  facet normal 0 0 1
    outer loop
      vertex -22.8386 -10.1684 8
      vertex -16.4438 -7.32126 8
      vertex -17.119 -5.56231 8
    endloop
  endfacet
  facet normal 0 0 1
    outer loop
      vertex -23.7764 -7.72542 8
      vertex -17.119 -5.56231 8
      vertex -17.6067 -3.74241 8
    endloop
  endfacet
  facet normal 0 0 1
    outer loop
      vertex -24.4537 -5.19779 8
      vertex -17.6067 -3.74241 8
      vertex -17.9014 -1.88151 8
    endloop
  endfacet
  facet normal 0 0 1
    outer loop
      vertex -13.3766 -12.0444 8
      vertex -18.5786 -16.7283 8
      vertex -16.7283 -18.5786 8
    endloop
  endfacet
  facet normal 0 0 1
    outer loop
      vertex -24.863 -2.61321 8
      vertex -17.9014 -1.88151 8
      vertex -18 0 8
    endloop
  endfacet
  facet normal -0 0 1
    outer loop
      vertex -23.7764 7.72542 8
      vertex -17.119 5.56231 8
      vertex -22.8386 10.1684 8
    endloop
  endfacet
  facet normal 0 0 1
    outer loop
      vertex -17.119 5.56231 8
      vertex -23.7764 7.72542 8
      vertex -17.6067 3.74241 8
    endloop
  endfacet
  facet normal 0 0 1
    outer loop
      vertex -14.5623 -10.5801 8
      vertex -20.2254 -14.6946 8
      vertex -18.5786 -16.7283 8
    endloop
  endfacet
  facet normal -0 0 1
    outer loop
      vertex -24.4537 5.19779 8
      vertex -17.6067 3.74241 8
      vertex -23.7764 7.72542 8
    endloop
  endfacet
  facet normal 0 0 1
    outer loop
      vertex -15.5885 -9 8
      vertex -21.6506 -12.5 8
      vertex -20.2254 -14.6946 8
    endloop
  endfacet
  facet normal 0 0 1
    outer loop
      vertex -17.6067 3.74241 8
      vertex -24.4537 5.19779 8
      vertex -17.9014 1.88151 8
    endloop
  endfacet
  facet normal 0 0 1
    outer loop
      vertex -16.4438 -7.32126 8
      vertex -22.8386 -10.1684 8
      vertex -21.6506 -12.5 8
    endloop
  endfacet
  facet normal -0 0 1
    outer loop
      vertex -24.863 2.61321 8
      vertex -17.9014 1.88151 8
      vertex -24.4537 5.19779 8
    endloop
  endfacet
  facet normal 0 0 1
    outer loop
      vertex -17.119 -5.56231 8
      vertex -23.7764 -7.72542 8
      vertex -22.8386 -10.1684 8
    endloop
  endfacet
  facet normal 0 0 1
    outer loop
      vertex -17.9014 1.88151 8
      vertex -24.863 2.61321 8
      vertex -18 0 8
    endloop
  endfacet
  facet normal 0 0 1
    outer loop
      vertex -17.6067 -3.74241 8
      vertex -24.4537 -5.19779 8
      vertex -23.7764 -7.72542 8
    endloop
  endfacet
  facet normal 0 0 1
    outer loop
      vertex -25 0 8
      vertex -18 0 8
      vertex -24.863 2.61321 8
    endloop
  endfacet
  facet normal 0 0 1
    outer loop
      vertex -17.9014 -1.88151 8
      vertex -24.863 -2.61321 8
      vertex -24.4537 -5.19779 8
    endloop
  endfacet
  facet normal 0 0 1
    outer loop
      vertex -18 0 8
      vertex -25 0 8
      vertex -24.863 -2.61321 8
    endloop
  endfacet
  facet normal -0.258819 0.965926 0
    outer loop
      vertex -5.19779 24.4537 0
      vertex -7.72542 23.7764 8
      vertex -5.19779 24.4537 8
    endloop
  endfacet
  facet normal -0.258819 0.965926 0
    outer loop
      vertex -7.72542 23.7764 8
      vertex -5.19779 24.4537 0
      vertex -7.72542 23.7764 0
    endloop
  endfacet
  facet normal -0.0523363 0.99863 0
    outer loop
      vertex 0 25 0
      vertex -2.61321 24.863 8
      vertex 0 25 8
    endloop
  endfacet
  facet normal -0.0523363 0.99863 0
    outer loop
      vertex -2.61321 24.863 8
      vertex 0 25 0
      vertex -2.61321 24.863 0
    endloop
  endfacet
  facet normal -0.707107 -0.707107 0
    outer loop
      vertex -16.7283 -18.5786 0
      vertex -18.5786 -16.7283 8
      vertex -18.5786 -16.7283 0
    endloop
  endfacet
  facet normal -0.707107 -0.707107 0
    outer loop
      vertex -18.5786 -16.7283 8
      vertex -16.7283 -18.5786 0
      vertex -16.7283 -18.5786 8
    endloop
  endfacet
  facet normal -0.629321 -0.777146 0
    outer loop
      vertex -16.7283 -18.5786 0
      vertex -14.6946 -20.2254 8
      vertex -16.7283 -18.5786 8
    endloop
  endfacet
  facet normal -0.629321 -0.777146 -0
    outer loop
      vertex -14.6946 -20.2254 8
      vertex -16.7283 -18.5786 0
      vertex -14.6946 -20.2254 0
    endloop
  endfacet
  facet normal -0.544639 -0.838671 0
    outer loop
      vertex -14.6946 -20.2254 0
      vertex -12.5 -21.6506 8
      vertex -14.6946 -20.2254 8
    endloop
  endfacet
  facet normal -0.544639 -0.838671 -0
    outer loop
      vertex -12.5 -21.6506 8
      vertex -14.6946 -20.2254 0
      vertex -12.5 -21.6506 0
    endloop
  endfacet
  facet normal -0.156434 -0.987688 0
    outer loop
      vertex -5.19779 -24.4537 0
      vertex -2.61321 -24.863 8
      vertex -5.19779 -24.4537 8
    endloop
  endfacet
  facet normal -0.156434 -0.987688 -0
    outer loop
      vertex -2.61321 -24.863 8
      vertex -5.19779 -24.4537 0
      vertex -2.61321 -24.863 0
    endloop
  endfacet
  facet normal -0.891006 -0.453991 0
    outer loop
      vertex -21.6506 -12.5 0
      vertex -22.8386 -10.1684 8
      vertex -22.8386 -10.1684 0
    endloop
  endfacet
  facet normal -0.891006 -0.453991 0
    outer loop
      vertex -22.8386 -10.1684 8
      vertex -21.6506 -12.5 0
      vertex -21.6506 -12.5 8
    endloop
  endfacet
  facet normal -0.99863 -0.0523363 0
    outer loop
      vertex -24.863 -2.61321 0
      vertex -25 0 8
      vertex -25 0 0
    endloop
  endfacet
  facet normal -0.99863 -0.0523363 0
    outer loop
      vertex -25 0 8
      vertex -24.863 -2.61321 0
      vertex -24.863 -2.61321 8
    endloop
  endfacet
  facet normal -0.707107 0.707107 0
    outer loop
      vertex -18.5786 16.7283 0
      vertex -16.7283 18.5786 8
      vertex -16.7283 18.5786 0
    endloop
  endfacet
  facet normal -0.707107 0.707107 0
    outer loop
      vertex -16.7283 18.5786 8
      vertex -18.5786 16.7283 0
      vertex -18.5786 16.7283 8
    endloop
  endfacet
  facet normal -0.453991 0.891006 0
    outer loop
      vertex -10.1684 22.8386 0
      vertex -12.5 21.6506 8
      vertex -10.1684 22.8386 8
    endloop
  endfacet
  facet normal -0.453991 0.891006 0
    outer loop
      vertex -12.5 21.6506 8
      vertex -10.1684 22.8386 0
      vertex -12.5 21.6506 0
    endloop
  endfacet
  facet normal -0.453991 -0.891006 0
    outer loop
      vertex -12.5 -21.6506 0
      vertex -10.1684 -22.8386 8
      vertex -12.5 -21.6506 8
    endloop
  endfacet
  facet normal -0.453991 -0.891006 -0
    outer loop
      vertex -10.1684 -22.8386 8
      vertex -12.5 -21.6506 0
      vertex -10.1684 -22.8386 0
    endloop
  endfacet
  facet normal -0.258819 -0.965926 0
    outer loop
      vertex -7.72542 -23.7764 0
      vertex -5.19779 -24.4537 8
      vertex -7.72542 -23.7764 8
    endloop
  endfacet
  facet normal -0.258819 -0.965926 -0
    outer loop
      vertex -5.19779 -24.4537 8
      vertex -7.72542 -23.7764 0
      vertex -5.19779 -24.4537 0
    endloop
  endfacet
  facet normal -0.838671 -0.544639 0
    outer loop
      vertex -20.2254 -14.6946 0
      vertex -21.6506 -12.5 8
      vertex -21.6506 -12.5 0
    endloop
  endfacet
  facet normal -0.838671 -0.544639 0
    outer loop
      vertex -21.6506 -12.5 8
      vertex -20.2254 -14.6946 0
      vertex -20.2254 -14.6946 8
    endloop
  endfacet
  facet normal -0.93358 -0.358368 0
    outer loop
      vertex -22.8386 -10.1684 0
      vertex -23.7764 -7.72542 8
      vertex -23.7764 -7.72542 0
    endloop
  endfacet
  facet normal -0.93358 -0.358368 0
    outer loop
      vertex -23.7764 -7.72542 8
      vertex -22.8386 -10.1684 0
      vertex -22.8386 -10.1684 8
    endloop
  endfacet
  facet normal -0.987688 -0.156434 0
    outer loop
      vertex -24.4537 -5.19779 0
      vertex -24.863 -2.61321 8
      vertex -24.863 -2.61321 0
    endloop
  endfacet
  facet normal -0.987688 -0.156434 0
    outer loop
      vertex -24.863 -2.61321 8
      vertex -24.4537 -5.19779 0
      vertex -24.4537 -5.19779 8
    endloop
  endfacet
  facet normal 0.99863 -0.0523361 0
    outer loop
      vertex -18 0 8
      vertex -17.9014 1.88151 0
      vertex -17.9014 1.88151 8
    endloop
  endfacet
  facet normal 0.99863 -0.0523361 0
    outer loop
      vertex -17.9014 1.88151 0
      vertex -18 0 8
      vertex -18 0 0
    endloop
  endfacet
  facet normal 0.629321 -0.777146 0
    outer loop
      vertex -12.0444 13.3766 0
      vertex -10.5801 14.5623 8
      vertex -12.0444 13.3766 8
    endloop
  endfacet
  facet normal 0.629321 -0.777146 0
    outer loop
      vertex -10.5801 14.5623 8
      vertex -12.0444 13.3766 0
      vertex -10.5801 14.5623 0
    endloop
  endfacet
  facet normal 0.358368 -0.93358 0
    outer loop
      vertex -7.32126 16.4438 0
      vertex -5.56231 17.119 8
      vertex -7.32126 16.4438 8
    endloop
  endfacet
  facet normal 0.358368 -0.93358 0
    outer loop
      vertex -5.56231 17.119 8
      vertex -7.32126 16.4438 0
      vertex -5.56231 17.119 0
    endloop
  endfacet
  facet normal 0.891007 -0.45399 0
    outer loop
      vertex -16.4438 7.32126 8
      vertex -15.5885 9 0
      vertex -15.5885 9 8
    endloop
  endfacet
  facet normal 0.891007 -0.45399 0
    outer loop
      vertex -15.5885 9 0
      vertex -16.4438 7.32126 8
      vertex -16.4438 7.32126 0
    endloop
  endfacet
  facet normal 0.156435 -0.987688 0
    outer loop
      vertex -3.74241 17.6067 0
      vertex -1.88151 17.9014 8
      vertex -3.74241 17.6067 8
    endloop
  endfacet
  facet normal 0.156435 -0.987688 0
    outer loop
      vertex -1.88151 17.9014 8
      vertex -3.74241 17.6067 0
      vertex -1.88151 17.9014 0
    endloop
  endfacet
  facet normal 0.965926 -0.258818 0
    outer loop
      vertex -17.6067 3.74241 8
      vertex -17.119 5.56231 0
      vertex -17.119 5.56231 8
    endloop
  endfacet
  facet normal 0.965926 -0.258818 0
    outer loop
      vertex -17.119 5.56231 0
      vertex -17.6067 3.74241 8
      vertex -17.6067 3.74241 0
    endloop
  endfacet
  facet normal 0.777146 -0.629321 0
    outer loop
      vertex -14.5623 10.5801 8
      vertex -13.3766 12.0444 0
      vertex -13.3766 12.0444 8
    endloop
  endfacet
  facet normal 0.777146 -0.629321 0
    outer loop
      vertex -13.3766 12.0444 0
      vertex -14.5623 10.5801 8
      vertex -14.5623 10.5801 0
    endloop
  endfacet
  facet normal 0.707107 -0.707107 0
    outer loop
      vertex -13.3766 12.0444 8
      vertex -12.0444 13.3766 0
      vertex -12.0444 13.3766 8
    endloop
  endfacet
  facet normal 0.707107 -0.707107 0
    outer loop
      vertex -12.0444 13.3766 0
      vertex -13.3766 12.0444 8
      vertex -13.3766 12.0444 0
    endloop
  endfacet
  facet normal 0.838671 -0.544639 0
    outer loop
      vertex -15.5885 9 8
      vertex -14.5623 10.5801 0
      vertex -14.5623 10.5801 8
    endloop
  endfacet
  facet normal 0.838671 -0.544639 0
    outer loop
      vertex -14.5623 10.5801 0
      vertex -15.5885 9 8
      vertex -15.5885 9 0
    endloop
  endfacet
  facet normal 0.93358 -0.358368 0
    outer loop
      vertex -17.119 5.56231 8
      vertex -16.4438 7.32126 0
      vertex -16.4438 7.32126 8
    endloop
  endfacet
  facet normal 0.93358 -0.358368 0
    outer loop
      vertex -16.4438 7.32126 0
      vertex -17.119 5.56231 8
      vertex -17.119 5.56231 0
    endloop
  endfacet
  facet normal 0.987688 -0.156435 0
    outer loop
      vertex -17.9014 1.88151 8
      vertex -17.6067 3.74241 0
      vertex -17.6067 3.74241 8
    endloop
  endfacet
  facet normal 0.987688 -0.156435 0
    outer loop
      vertex -17.6067 3.74241 0
      vertex -17.9014 1.88151 8
      vertex -17.9014 1.88151 0
    endloop
  endfacet
  facet normal 0.45399 -0.891007 0
    outer loop
      vertex -9 15.5885 0
      vertex -7.32126 16.4438 8
      vertex -9 15.5885 8
    endloop
  endfacet
  facet normal 0.45399 -0.891007 0
    outer loop
      vertex -7.32126 16.4438 8
      vertex -9 15.5885 0
      vertex -7.32126 16.4438 0
    endloop
  endfacet
  facet normal 0.544639 -0.838671 0
    outer loop
      vertex -10.5801 14.5623 0
      vertex -9 15.5885 8
      vertex -10.5801 14.5623 8
    endloop
  endfacet
  facet normal 0.544639 -0.838671 0
    outer loop
      vertex -9 15.5885 8
      vertex -10.5801 14.5623 0
      vertex -9 15.5885 0
    endloop
  endfacet
  facet normal 0.258818 -0.965926 0
    outer loop
      vertex -5.56231 17.119 0
      vertex -3.74241 17.6067 8
      vertex -5.56231 17.119 8
    endloop
  endfacet
  facet normal 0.258818 -0.965926 0
    outer loop
      vertex -3.74241 17.6067 8
      vertex -5.56231 17.119 0
      vertex -3.74241 17.6067 0
    endloop
  endfacet
  facet normal 0.0523361 -0.99863 0
    outer loop
      vertex -1.88151 17.9014 0
      vertex 0 18 8
      vertex -1.88151 17.9014 8
    endloop
  endfacet
  facet normal 0.0523361 -0.99863 0
    outer loop
      vertex 0 18 8
      vertex -1.88151 17.9014 0
      vertex 0 18 0
    endloop
  endfacet
  facet normal 0.707107 0.707107 0
    outer loop
      vertex -12.0444 -13.3766 8
      vertex -13.3766 -12.0444 0
      vertex -13.3766 -12.0444 8
    endloop
  endfacet
  facet normal 0.707107 0.707107 0
    outer loop
      vertex -13.3766 -12.0444 0
      vertex -12.0444 -13.3766 8
      vertex -12.0444 -13.3766 0
    endloop
  endfacet
  facet normal 0.544639 0.83867 -0
    outer loop
      vertex -9 -15.5885 0
      vertex -10.5801 -14.5623 8
      vertex -9 -15.5885 8
    endloop
  endfacet
  facet normal 0.544639 0.83867 0
    outer loop
      vertex -10.5801 -14.5623 8
      vertex -9 -15.5885 0
      vertex -10.5801 -14.5623 0
    endloop
  endfacet
  facet normal 0.358368 0.93358 -0
    outer loop
      vertex -5.56231 -17.119 0
      vertex -7.32126 -16.4438 8
      vertex -5.56231 -17.119 8
    endloop
  endfacet
  facet normal 0.358368 0.93358 0
    outer loop
      vertex -7.32126 -16.4438 8
      vertex -5.56231 -17.119 0
      vertex -7.32126 -16.4438 0
    endloop
  endfacet
  facet normal 0.156435 0.987688 -0
    outer loop
      vertex -1.88151 -17.9014 0
      vertex -3.74241 -17.6067 8
      vertex -1.88151 -17.9014 8
    endloop
  endfacet
  facet normal 0.156435 0.987688 0
    outer loop
      vertex -3.74241 -17.6067 8
      vertex -1.88151 -17.9014 0
      vertex -3.74241 -17.6067 0
    endloop
  endfacet
  facet normal 0.891007 0.45399 0
    outer loop
      vertex -15.5885 -9 8
      vertex -16.4438 -7.32126 0
      vertex -16.4438 -7.32126 8
    endloop
  endfacet
  facet normal 0.891007 0.45399 0
    outer loop
      vertex -16.4438 -7.32126 0
      vertex -15.5885 -9 8
      vertex -15.5885 -9 0
    endloop
  endfacet
  facet normal 0.777146 0.629321 0
    outer loop
      vertex -13.3766 -12.0444 8
      vertex -14.5623 -10.5801 0
      vertex -14.5623 -10.5801 8
    endloop
  endfacet
  facet normal 0.777146 0.629321 0
    outer loop
      vertex -14.5623 -10.5801 0
      vertex -13.3766 -12.0444 8
      vertex -13.3766 -12.0444 0
    endloop
  endfacet
  facet normal 0.965926 0.258818 0
    outer loop
      vertex -17.119 -5.56231 8
      vertex -17.6067 -3.74241 0
      vertex -17.6067 -3.74241 8
    endloop
  endfacet
  facet normal 0.965926 0.258818 0
    outer loop
      vertex -17.6067 -3.74241 0
      vertex -17.119 -5.56231 8
      vertex -17.119 -5.56231 0
    endloop
  endfacet
  facet normal 0.99863 0.0523361 0
    outer loop
      vertex -17.9014 -1.88151 8
      vertex -18 0 0
      vertex -18 0 8
    endloop
  endfacet
  facet normal 0.99863 0.0523361 0
    outer loop
      vertex -18 0 0
      vertex -17.9014 -1.88151 8
      vertex -17.9014 -1.88151 0
    endloop
  endfacet
  facet normal 0.629321 0.777146 -0
    outer loop
      vertex -10.5801 -14.5623 0
      vertex -12.0444 -13.3766 8
      vertex -10.5801 -14.5623 8
    endloop
  endfacet
  facet normal 0.629321 0.777146 0
    outer loop
      vertex -12.0444 -13.3766 8
      vertex -10.5801 -14.5623 0
      vertex -12.0444 -13.3766 0
    endloop
  endfacet
  facet normal 0.45399 0.891007 -0
    outer loop
      vertex -7.32126 -16.4438 0
      vertex -9 -15.5885 8
      vertex -7.32126 -16.4438 8
    endloop
  endfacet
  facet normal 0.45399 0.891007 0
    outer loop
      vertex -9 -15.5885 8
      vertex -7.32126 -16.4438 0
      vertex -9 -15.5885 0
    endloop
  endfacet
  facet normal 0.258818 0.965926 -0
    outer loop
      vertex -3.74241 -17.6067 0
      vertex -5.56231 -17.119 8
      vertex -3.74241 -17.6067 8
    endloop
  endfacet
  facet normal 0.258818 0.965926 0
    outer loop
      vertex -5.56231 -17.119 8
      vertex -3.74241 -17.6067 0
      vertex -5.56231 -17.119 0
    endloop
  endfacet
  facet normal 0.0523361 0.99863 -0
    outer loop
      vertex 0 -18 0
      vertex -1.88151 -17.9014 8
      vertex 0 -18 8
    endloop
  endfacet
  facet normal 0.0523361 0.99863 0
    outer loop
      vertex -1.88151 -17.9014 8
      vertex 0 -18 0
      vertex -1.88151 -17.9014 0
    endloop
  endfacet
  facet normal 0.838671 0.544639 0
    outer loop
      vertex -14.5623 -10.5801 8
      vertex -15.5885 -9 0
      vertex -15.5885 -9 8
    endloop
  endfacet
  facet normal 0.838671 0.544639 0
    outer loop
      vertex -15.5885 -9 0
      vertex -14.5623 -10.5801 8
      vertex -14.5623 -10.5801 0
    endloop
  endfacet
  facet normal 0.93358 0.358368 0
    outer loop
      vertex -16.4438 -7.32126 8
      vertex -17.119 -5.56231 0
      vertex -17.119 -5.56231 8
    endloop
  endfacet
  facet normal 0.93358 0.358368 0
    outer loop
      vertex -17.119 -5.56231 0
      vertex -16.4438 -7.32126 8
      vertex -16.4438 -7.32126 0
    endloop
  endfacet
  facet normal 0.987688 0.156435 0
    outer loop
      vertex -17.6067 -3.74241 8
      vertex -17.9014 -1.88151 0
      vertex -17.9014 -1.88151 8
    endloop
  endfacet
  facet normal 0.987688 0.156435 0
    outer loop
      vertex -17.9014 -1.88151 0
      vertex -17.6067 -3.74241 8
      vertex -17.6067 -3.74241 0
    endloop
  endfacet
  facet normal 1 -0 0
    outer loop
      vertex 0 18 8
      vertex 0 25 0
      vertex 0 25 8
    endloop
  endfacet
  facet normal 1 0 0
    outer loop
      vertex 0 25 0
      vertex 0 18 8
      vertex 0 18 0
    endloop
  endfacet
  facet normal 1 -0 0
    outer loop
      vertex 0 -25 8
      vertex 0 -18 0
      vertex 0 -18 8
    endloop
  endfacet
  facet normal 1 0 0
    outer loop
      vertex 0 -18 0
      vertex 0 -25 8
      vertex 0 -25 0
    endloop
  endfacet
endsolid OpenSCAD_Model
