solid OpenSCAD_Model
  facet normal -1 0 0
    outer loop
      vertex 0 0 26
      vertex 0 20 28.5
      vertex 0 20 26
    endloop
  endfacet
  facet normal -1 -0 0
    outer loop
      vertex 0 20 28.5
      vertex 0 0 26
      vertex 0 0 28.5
    endloop
  endfacet
  facet normal -0 0 1
    outer loop
      vertex 4.67658 5.46352 28.5
      vertex 6.5 0 28.5
      vertex 4.67658 14.5365 28.5
    endloop
  endfacet
  facet normal 0 0 1
    outer loop
      vertex 6.5 0 28.5
      vertex 4.67658 5.46352 28.5
      vertex 4.75 5 28.5
    endloop
  endfacet
  facet normal -0 0 1
    outer loop
      vertex 4.46352 14.1183 28.5
      vertex 4.67658 5.46352 28.5
      vertex 4.67658 14.5365 28.5
    endloop
  endfacet
  facet normal 0 0 1
    outer loop
      vertex 4.46352 14.1183 28.5
      vertex 4.46352 5.88168 28.5
      vertex 4.67658 5.46352 28.5
    endloop
  endfacet
  facet normal -0 0 1
    outer loop
      vertex 4.13168 13.7865 28.5
      vertex 4.46352 5.88168 28.5
      vertex 4.46352 14.1183 28.5
    endloop
  endfacet
  facet normal 0 0 1
    outer loop
      vertex 4.13168 13.7865 28.5
      vertex 4.13168 6.21352 28.5
      vertex 4.46352 5.88168 28.5
    endloop
  endfacet
  facet normal -0 0 1
    outer loop
      vertex 3.71352 13.5734 28.5
      vertex 4.13168 6.21352 28.5
      vertex 4.13168 13.7865 28.5
    endloop
  endfacet
  facet normal 0 0 1
    outer loop
      vertex 3.71352 13.5734 28.5
      vertex 3.71352 6.42658 28.5
      vertex 4.13168 6.21352 28.5
    endloop
  endfacet
  facet normal 0 0 1
    outer loop
      vertex 3.71352 13.5734 28.5
      vertex 3.25 6.5 28.5
      vertex 3.71352 6.42658 28.5
    endloop
  endfacet
  facet normal -0 0 1
    outer loop
      vertex 3.25 13.5 28.5
      vertex 3.25 6.5 28.5
      vertex 3.71352 13.5734 28.5
    endloop
  endfacet
  facet normal 0 0 1
    outer loop
      vertex 2.78647 13.5734 28.5
      vertex 3.25 6.5 28.5
      vertex 3.25 13.5 28.5
    endloop
  endfacet
  facet normal 0 0 1
    outer loop
      vertex 2.78647 13.5734 28.5
      vertex 2.78647 6.42658 28.5
      vertex 3.25 6.5 28.5
    endloop
  endfacet
  facet normal 0 0 1
    outer loop
      vertex 2.36832 13.7865 28.5
      vertex 2.78647 6.42658 28.5
      vertex 2.78647 13.5734 28.5
    endloop
  endfacet
  facet normal 0 0 1
    outer loop
      vertex 2.36832 13.7865 28.5
      vertex 2.36832 6.21352 28.5
      vertex 2.78647 6.42658 28.5
    endloop
  endfacet
  facet normal 0 0 1
    outer loop
      vertex 2.03647 14.1183 28.5
      vertex 2.36832 6.21352 28.5
      vertex 2.36832 13.7865 28.5
    endloop
  endfacet
  facet normal 0 0 1
    outer loop
      vertex 2.03647 14.1183 28.5
      vertex 2.03647 5.88168 28.5
      vertex 2.36832 6.21352 28.5
    endloop
  endfacet
  facet normal 0 0 1
    outer loop
      vertex 1.82341 14.5365 28.5
      vertex 2.03647 5.88168 28.5
      vertex 2.03647 14.1183 28.5
    endloop
  endfacet
  facet normal 0 0 1
    outer loop
      vertex 1.82341 14.5365 28.5
      vertex 1.82341 5.46352 28.5
      vertex 2.03647 5.88168 28.5
    endloop
  endfacet
  facet normal 0 0 1
    outer loop
      vertex 0 20 28.5
      vertex 1.82341 14.5365 28.5
      vertex 1.75 15 28.5
    endloop
  endfacet
  facet normal 0 0 1
    outer loop
      vertex 1.82341 14.5365 28.5
      vertex 0 20 28.5
      vertex 1.82341 5.46352 28.5
    endloop
  endfacet
  facet normal 0 0 1
    outer loop
      vertex 4.67658 14.5365 28.5
      vertex 6.5 20 28.5
      vertex 4.75 15 28.5
    endloop
  endfacet
  facet normal 0 0 1
    outer loop
      vertex 6.5 20 28.5
      vertex 4.67658 15.4635 28.5
      vertex 4.75 15 28.5
    endloop
  endfacet
  facet normal 0 0 1
    outer loop
      vertex 6.5 20 28.5
      vertex 4.46352 15.8817 28.5
      vertex 4.67658 15.4635 28.5
    endloop
  endfacet
  facet normal 0 0 1
    outer loop
      vertex 6.5 20 28.5
      vertex 4.13168 16.2135 28.5
      vertex 4.46352 15.8817 28.5
    endloop
  endfacet
  facet normal 0 0 1
    outer loop
      vertex 6.5 20 28.5
      vertex 3.71352 16.4266 28.5
      vertex 4.13168 16.2135 28.5
    endloop
  endfacet
  facet normal 0 0 1
    outer loop
      vertex 6.5 20 28.5
      vertex 3.25 16.5 28.5
      vertex 3.71352 16.4266 28.5
    endloop
  endfacet
  facet normal -0 0 1
    outer loop
      vertex 0 20 28.5
      vertex 3.25 16.5 28.5
      vertex 6.5 20 28.5
    endloop
  endfacet
  facet normal 0 0 1
    outer loop
      vertex 3.25 16.5 28.5
      vertex 0 20 28.5
      vertex 2.78647 16.4266 28.5
    endloop
  endfacet
  facet normal 0 0 1
    outer loop
      vertex 0 0 28.5
      vertex 1.82341 5.46352 28.5
      vertex 0 20 28.5
    endloop
  endfacet
  facet normal 0 0 1
    outer loop
      vertex 1.82341 15.4635 28.5
      vertex 0 20 28.5
      vertex 1.75 15 28.5
    endloop
  endfacet
  facet normal 0 0 1
    outer loop
      vertex 2.03647 15.8817 28.5
      vertex 0 20 28.5
      vertex 1.82341 15.4635 28.5
    endloop
  endfacet
  facet normal 0 0 1
    outer loop
      vertex 2.36832 16.2135 28.5
      vertex 0 20 28.5
      vertex 2.03647 15.8817 28.5
    endloop
  endfacet
  facet normal 0 0 1
    outer loop
      vertex 2.78647 16.4266 28.5
      vertex 0 20 28.5
      vertex 2.36832 16.2135 28.5
    endloop
  endfacet
  facet normal 0 0 1
    outer loop
      vertex 6.5 20 28.5
      vertex 4.67658 14.5365 28.5
      vertex 6.5 0 28.5
    endloop
  endfacet
  facet normal -0 0 1
    outer loop
      vertex 4.67658 4.53647 28.5
      vertex 6.5 0 28.5
      vertex 4.75 5 28.5
    endloop
  endfacet
  facet normal -0 0 1
    outer loop
      vertex 4.46352 4.11832 28.5
      vertex 6.5 0 28.5
      vertex 4.67658 4.53647 28.5
    endloop
  endfacet
  facet normal -0 0 1
    outer loop
      vertex 4.13168 3.78647 28.5
      vertex 6.5 0 28.5
      vertex 4.46352 4.11832 28.5
    endloop
  endfacet
  facet normal -0 0 1
    outer loop
      vertex 3.71352 3.57341 28.5
      vertex 6.5 0 28.5
      vertex 4.13168 3.78647 28.5
    endloop
  endfacet
  facet normal -0 0 1
    outer loop
      vertex 3.25 3.5 28.5
      vertex 6.5 0 28.5
      vertex 3.71352 3.57341 28.5
    endloop
  endfacet
  facet normal 0 0 1
    outer loop
      vertex 0 0 28.5
      vertex 3.25 3.5 28.5
      vertex 2.78647 3.57341 28.5
    endloop
  endfacet
  facet normal 0 0 1
    outer loop
      vertex 0 0 28.5
      vertex 2.78647 3.57341 28.5
      vertex 2.36832 3.78647 28.5
    endloop
  endfacet
  facet normal 0 0 1
    outer loop
      vertex 3.25 3.5 28.5
      vertex 0 0 28.5
      vertex 6.5 0 28.5
    endloop
  endfacet
  facet normal 0 0 1
    outer loop
      vertex 2.03647 4.11832 28.5
      vertex 0 0 28.5
      vertex 2.36832 3.78647 28.5
    endloop
  endfacet
  facet normal 0 0 1
    outer loop
      vertex 1.82341 4.53647 28.5
      vertex 0 0 28.5
      vertex 2.03647 4.11832 28.5
    endloop
  endfacet
  facet normal 0 0 1
    outer loop
      vertex 1.75 5 28.5
      vertex 0 0 28.5
      vertex 1.82341 4.53647 28.5
    endloop
  endfacet
  facet normal 0 0 1
    outer loop
      vertex 1.82341 5.46352 28.5
      vertex 0 0 28.5
      vertex 1.75 5 28.5
    endloop
  endfacet
  facet normal -1 0 0
    outer loop
      vertex 6.5 0 28.5
      vertex 6.5 20 37
      vertex 6.5 20 28.5
    endloop
  endfacet
  facet normal -1 -0 0
    outer loop
      vertex 6.5 20 37
      vertex 6.5 0 28.5
      vertex 6.5 0 37
    endloop
  endfacet
  facet normal -1 0 0
    outer loop
      vertex 6.5 0 0
      vertex 6.5 20 26
      vertex 6.5 20 0
    endloop
  endfacet
  facet normal -1 -0 0
    outer loop
      vertex 6.5 20 26
      vertex 6.5 0 0
      vertex 6.5 0 26
    endloop
  endfacet
  facet normal 0 0 -1
    outer loop
      vertex 4.67658 14.5365 26
      vertex 6.5 20 26
      vertex 4.67658 5.46352 26
    endloop
  endfacet
  facet normal 0 0 -1
    outer loop
      vertex 6.5 20 26
      vertex 4.67658 14.5365 26
      vertex 4.75 15 26
    endloop
  endfacet
  facet normal 0 0 -1
    outer loop
      vertex 4.46352 5.88168 26
      vertex 4.67658 14.5365 26
      vertex 4.67658 5.46352 26
    endloop
  endfacet
  facet normal 0 0 -1
    outer loop
      vertex 4.46352 5.88168 26
      vertex 4.46352 14.1183 26
      vertex 4.67658 14.5365 26
    endloop
  endfacet
  facet normal 0 0 -1
    outer loop
      vertex 4.13168 6.21352 26
      vertex 4.46352 14.1183 26
      vertex 4.46352 5.88168 26
    endloop
  endfacet
  facet normal 0 0 -1
    outer loop
      vertex 4.13168 6.21352 26
      vertex 4.13168 13.7865 26
      vertex 4.46352 14.1183 26
    endloop
  endfacet
  facet normal 0 0 -1
    outer loop
      vertex 3.71352 6.42658 26
      vertex 4.13168 13.7865 26
      vertex 4.13168 6.21352 26
    endloop
  endfacet
  facet normal 0 0 -1
    outer loop
      vertex 3.71352 6.42658 26
      vertex 3.71352 13.5734 26
      vertex 4.13168 13.7865 26
    endloop
  endfacet
  facet normal 0 0 -1
    outer loop
      vertex 3.25 6.5 26
      vertex 3.71352 13.5734 26
      vertex 3.71352 6.42658 26
    endloop
  endfacet
  facet normal 0 0 -1
    outer loop
      vertex 3.25 6.5 26
      vertex 3.25 13.5 26
      vertex 3.71352 13.5734 26
    endloop
  endfacet
  facet normal 0 0 -1
    outer loop
      vertex 2.78647 6.42658 26
      vertex 3.25 13.5 26
      vertex 3.25 6.5 26
    endloop
  endfacet
  facet normal 0 0 -1
    outer loop
      vertex 2.78647 6.42658 26
      vertex 2.78647 13.5734 26
      vertex 3.25 13.5 26
    endloop
  endfacet
  facet normal 0 0 -1
    outer loop
      vertex 2.36832 6.21352 26
      vertex 2.78647 13.5734 26
      vertex 2.78647 6.42658 26
    endloop
  endfacet
  facet normal 0 0 -1
    outer loop
      vertex 2.36832 6.21352 26
      vertex 2.36832 13.7865 26
      vertex 2.78647 13.5734 26
    endloop
  endfacet
  facet normal 0 0 -1
    outer loop
      vertex 2.03647 5.88168 26
      vertex 2.36832 13.7865 26
      vertex 2.36832 6.21352 26
    endloop
  endfacet
  facet normal 0 0 -1
    outer loop
      vertex 2.03647 5.88168 26
      vertex 2.03647 14.1183 26
      vertex 2.36832 13.7865 26
    endloop
  endfacet
  facet normal 0 0 -1
    outer loop
      vertex 1.82341 5.46352 26
      vertex 2.03647 14.1183 26
      vertex 2.03647 5.88168 26
    endloop
  endfacet
  facet normal 0 0 -1
    outer loop
      vertex 1.82341 5.46352 26
      vertex 1.82341 14.5365 26
      vertex 2.03647 14.1183 26
    endloop
  endfacet
  facet normal 0 0 -1
    outer loop
      vertex 0 0 26
      vertex 1.82341 5.46352 26
      vertex 1.75 5 26
    endloop
  endfacet
  facet normal -0 0 -1
    outer loop
      vertex 1.82341 5.46352 26
      vertex 0 0 26
      vertex 1.82341 14.5365 26
    endloop
  endfacet
  facet normal 0 0 -1
    outer loop
      vertex 4.67658 5.46352 26
      vertex 6.5 0 26
      vertex 4.75 5 26
    endloop
  endfacet
  facet normal 0 0 -1
    outer loop
      vertex 6.5 0 26
      vertex 4.67658 4.53647 26
      vertex 4.75 5 26
    endloop
  endfacet
  facet normal 0 0 -1
    outer loop
      vertex 6.5 0 26
      vertex 4.46352 4.11832 26
      vertex 4.67658 4.53647 26
    endloop
  endfacet
  facet normal 0 0 -1
    outer loop
      vertex 6.5 0 26
      vertex 4.13168 3.78647 26
      vertex 4.46352 4.11832 26
    endloop
  endfacet
  facet normal 0 0 -1
    outer loop
      vertex 6.5 0 26
      vertex 3.71352 3.57341 26
      vertex 4.13168 3.78647 26
    endloop
  endfacet
  facet normal 0 0 -1
    outer loop
      vertex 6.5 0 26
      vertex 3.25 3.5 26
      vertex 3.71352 3.57341 26
    endloop
  endfacet
  facet normal 0 0 -1
    outer loop
      vertex 0 0 26
      vertex 3.25 3.5 26
      vertex 6.5 0 26
    endloop
  endfacet
  facet normal -0 0 -1
    outer loop
      vertex 3.25 3.5 26
      vertex 0 0 26
      vertex 2.78647 3.57341 26
    endloop
  endfacet
  facet normal 0 0 -1
    outer loop
      vertex 0 20 26
      vertex 1.82341 14.5365 26
      vertex 0 0 26
    endloop
  endfacet
  facet normal -0 0 -1
    outer loop
      vertex 1.82341 4.53647 26
      vertex 0 0 26
      vertex 1.75 5 26
    endloop
  endfacet
  facet normal -0 0 -1
    outer loop
      vertex 2.03647 4.11832 26
      vertex 0 0 26
      vertex 1.82341 4.53647 26
    endloop
  endfacet
  facet normal -0 0 -1
    outer loop
      vertex 2.36832 3.78647 26
      vertex 0 0 26
      vertex 2.03647 4.11832 26
    endloop
  endfacet
  facet normal -0 0 -1
    outer loop
      vertex 2.78647 3.57341 26
      vertex 0 0 26
      vertex 2.36832 3.78647 26
    endloop
  endfacet
  facet normal 0 0 -1
    outer loop
      vertex 6.5 0 26
      vertex 4.67658 5.46352 26
      vertex 6.5 20 26
    endloop
  endfacet
  facet normal 0 0 -1
    outer loop
      vertex 4.67658 15.4635 26
      vertex 6.5 20 26
      vertex 4.75 15 26
    endloop
  endfacet
  facet normal 0 0 -1
    outer loop
      vertex 4.46352 15.8817 26
      vertex 6.5 20 26
      vertex 4.67658 15.4635 26
    endloop
  endfacet
  facet normal 0 0 -1
    outer loop
      vertex 4.13168 16.2135 26
      vertex 6.5 20 26
      vertex 4.46352 15.8817 26
    endloop
  endfacet
  facet normal 0 0 -1
    outer loop
      vertex 3.71352 16.4266 26
      vertex 6.5 20 26
      vertex 4.13168 16.2135 26
    endloop
  endfacet
  facet normal 0 0 -1
    outer loop
      vertex 3.25 16.5 26
      vertex 6.5 20 26
      vertex 3.71352 16.4266 26
    endloop
  endfacet
  facet normal 0 0 -1
    outer loop
      vertex 0 20 26
      vertex 3.25 16.5 26
      vertex 2.78647 16.4266 26
    endloop
  endfacet
  facet normal 0 0 -1
    outer loop
      vertex 0 20 26
      vertex 2.78647 16.4266 26
      vertex 2.36832 16.2135 26
    endloop
  endfacet
  facet normal 0 0 -1
    outer loop
      vertex 3.25 16.5 26
      vertex 0 20 26
      vertex 6.5 20 26
    endloop
  endfacet
  facet normal 0 0 -1
    outer loop
      vertex 2.03647 15.8817 26
      vertex 0 20 26
      vertex 2.36832 16.2135 26
    endloop
  endfacet
  facet normal 0 0 -1
    outer loop
      vertex 1.82341 15.4635 26
      vertex 0 20 26
      vertex 2.03647 15.8817 26
    endloop
  endfacet
  facet normal 0 0 -1
    outer loop
      vertex 1.75 15 26
      vertex 0 20 26
      vertex 1.82341 15.4635 26
    endloop
  endfacet
  facet normal 0 0 -1
    outer loop
      vertex 1.82341 14.5365 26
      vertex 0 20 26
      vertex 1.75 15 26
    endloop
  endfacet
  facet normal 0 -1 0
    outer loop
      vertex 0 0 28.5
      vertex 0 0 26
      vertex 6.5 0 28.5
    endloop
  endfacet
  facet normal 0 -1 0
    outer loop
      vertex 6.5 0 28.5
      vertex 46.8 0 37
      vertex 6.5 0 37
    endloop
  endfacet
  facet normal 0 -1 0
    outer loop
      vertex 6.5 0 26
      vertex 6.5 0 28.5
      vertex 0 0 26
    endloop
  endfacet
  facet normal 0 -1 0
    outer loop
      vertex 6.5 0 28.5
      vertex 6.5 0 26
      vertex 46.8 0 37
    endloop
  endfacet
  facet normal 0 -1 0
    outer loop
      vertex 46.8 0 0
      vertex 6.5 0 26
      vertex 6.5 0 0
    endloop
  endfacet
  facet normal 0 -1 0
    outer loop
      vertex 6.5 0 26
      vertex 46.8 0 0
      vertex 46.8 0 37
    endloop
  endfacet
  facet normal 0 1 0
    outer loop
      vertex 46.8 20 37
      vertex 6.5 20 28.5
      vertex 6.5 20 37
    endloop
  endfacet
  facet normal 0 1 0
    outer loop
      vertex 6.5 20 28.5
      vertex 6.5 20 26
      vertex 0 20 28.5
    endloop
  endfacet
  facet normal 0 1 0
    outer loop
      vertex 46.8 20 37
      vertex 6.5 20 26
      vertex 6.5 20 28.5
    endloop
  endfacet
  facet normal 0 1 -0
    outer loop
      vertex 46.8 20 0
      vertex 6.5 20 26
      vertex 46.8 20 37
    endloop
  endfacet
  facet normal 0 1 0
    outer loop
      vertex 6.5 20 26
      vertex 46.8 20 0
      vertex 6.5 20 0
    endloop
  endfacet
  facet normal 0 1 0
    outer loop
      vertex 0 20 28.5
      vertex 6.5 20 26
      vertex 0 20 26
    endloop
  endfacet
  facet normal -0.987686 -0.156446 0
    outer loop
      vertex 4.75 5 26
      vertex 4.67658 5.46352 28.5
      vertex 4.67658 5.46352 26
    endloop
  endfacet
  facet normal -0.987686 -0.156446 0
    outer loop
      vertex 4.67658 5.46352 28.5
      vertex 4.75 5 26
      vertex 4.75 5 28.5
    endloop
  endfacet
  facet normal 0.156443 -0.987687 0
    outer loop
      vertex 2.78647 6.42658 26
      vertex 3.25 6.5 28.5
      vertex 2.78647 6.42658 28.5
    endloop
  endfacet
  facet normal 0.156443 -0.987687 0
    outer loop
      vertex 3.25 6.5 28.5
      vertex 2.78647 6.42658 26
      vertex 3.25 6.5 26
    endloop
  endfacet
  facet normal -0.156425 0.98769 0
    outer loop
      vertex 3.71352 3.57341 26
      vertex 3.25 3.5 28.5
      vertex 3.71352 3.57341 28.5
    endloop
  endfacet
  facet normal -0.156425 0.98769 0
    outer loop
      vertex 3.25 3.5 28.5
      vertex 3.71352 3.57341 26
      vertex 3.25 3.5 26
    endloop
  endfacet
  facet normal -0.707107 -0.707107 0
    outer loop
      vertex 4.46352 5.88168 26
      vertex 4.13168 6.21352 28.5
      vertex 4.13168 6.21352 26
    endloop
  endfacet
  facet normal -0.707107 -0.707107 0
    outer loop
      vertex 4.13168 6.21352 28.5
      vertex 4.46352 5.88168 26
      vertex 4.46352 5.88168 28.5
    endloop
  endfacet
  facet normal -0.891009 -0.453985 0
    outer loop
      vertex 4.67658 5.46352 26
      vertex 4.46352 5.88168 28.5
      vertex 4.46352 5.88168 26
    endloop
  endfacet
  facet normal -0.891009 -0.453985 0
    outer loop
      vertex 4.46352 5.88168 28.5
      vertex 4.67658 5.46352 26
      vertex 4.67658 5.46352 28.5
    endloop
  endfacet
  facet normal 0.707096 -0.707117 0
    outer loop
      vertex 2.03647 5.88168 28.5
      vertex 2.36832 6.21352 26
      vertex 2.36832 6.21352 28.5
    endloop
  endfacet
  facet normal 0.707096 -0.707117 0
    outer loop
      vertex 2.36832 6.21352 26
      vertex 2.03647 5.88168 28.5
      vertex 2.03647 5.88168 26
    endloop
  endfacet
  facet normal 0.891009 -0.453985 0
    outer loop
      vertex 1.82341 5.46352 28.5
      vertex 2.03647 5.88168 26
      vertex 2.03647 5.88168 28.5
    endloop
  endfacet
  facet normal 0.891009 -0.453985 0
    outer loop
      vertex 2.03647 5.88168 26
      vertex 1.82341 5.46352 28.5
      vertex 1.82341 5.46352 26
    endloop
  endfacet
  facet normal 0.453994 -0.891005 0
    outer loop
      vertex 2.36832 6.21352 26
      vertex 2.78647 6.42658 28.5
      vertex 2.36832 6.21352 28.5
    endloop
  endfacet
  facet normal 0.453994 -0.891005 0
    outer loop
      vertex 2.78647 6.42658 28.5
      vertex 2.36832 6.21352 26
      vertex 2.78647 6.42658 26
    endloop
  endfacet
  facet normal -0.453985 0.891009 0
    outer loop
      vertex 4.13168 3.78647 26
      vertex 3.71352 3.57341 28.5
      vertex 4.13168 3.78647 28.5
    endloop
  endfacet
  facet normal -0.453985 0.891009 0
    outer loop
      vertex 3.71352 3.57341 28.5
      vertex 4.13168 3.78647 26
      vertex 3.71352 3.57341 26
    endloop
  endfacet
  facet normal -0.891005 0.453994 0
    outer loop
      vertex 4.46352 4.11832 26
      vertex 4.67658 4.53647 28.5
      vertex 4.67658 4.53647 26
    endloop
  endfacet
  facet normal -0.891005 0.453994 0
    outer loop
      vertex 4.67658 4.53647 28.5
      vertex 4.46352 4.11832 26
      vertex 4.46352 4.11832 28.5
    endloop
  endfacet
  facet normal 0.453994 0.891005 -0
    outer loop
      vertex 2.78647 3.57341 26
      vertex 2.36832 3.78647 28.5
      vertex 2.78647 3.57341 28.5
    endloop
  endfacet
  facet normal 0.453994 0.891005 0
    outer loop
      vertex 2.36832 3.78647 28.5
      vertex 2.78647 3.57341 26
      vertex 2.36832 3.78647 26
    endloop
  endfacet
  facet normal 0.891005 0.453994 0
    outer loop
      vertex 2.03647 4.11832 28.5
      vertex 1.82341 4.53647 26
      vertex 1.82341 4.53647 28.5
    endloop
  endfacet
  facet normal 0.891005 0.453994 0
    outer loop
      vertex 1.82341 4.53647 26
      vertex 2.03647 4.11832 28.5
      vertex 2.03647 4.11832 26
    endloop
  endfacet
  facet normal -0.156446 -0.987686 0
    outer loop
      vertex 3.25 6.5 26
      vertex 3.71352 6.42658 28.5
      vertex 3.25 6.5 28.5
    endloop
  endfacet
  facet normal -0.156446 -0.987686 -0
    outer loop
      vertex 3.71352 6.42658 28.5
      vertex 3.25 6.5 26
      vertex 3.71352 6.42658 26
    endloop
  endfacet
  facet normal -0.453985 -0.891009 0
    outer loop
      vertex 3.71352 6.42658 26
      vertex 4.13168 6.21352 28.5
      vertex 3.71352 6.42658 28.5
    endloop
  endfacet
  facet normal -0.453985 -0.891009 -0
    outer loop
      vertex 4.13168 6.21352 28.5
      vertex 3.71352 6.42658 26
      vertex 4.13168 6.21352 26
    endloop
  endfacet
  facet normal 0.98769 -0.156425 0
    outer loop
      vertex 1.75 5 28.5
      vertex 1.82341 5.46352 26
      vertex 1.82341 5.46352 28.5
    endloop
  endfacet
  facet normal 0.98769 -0.156425 0
    outer loop
      vertex 1.82341 5.46352 26
      vertex 1.75 5 28.5
      vertex 1.75 5 26
    endloop
  endfacet
  facet normal -0.707117 0.707096 0
    outer loop
      vertex 4.13168 3.78647 26
      vertex 4.46352 4.11832 28.5
      vertex 4.46352 4.11832 26
    endloop
  endfacet
  facet normal -0.707117 0.707096 0
    outer loop
      vertex 4.46352 4.11832 28.5
      vertex 4.13168 3.78647 26
      vertex 4.13168 3.78647 28.5
    endloop
  endfacet
  facet normal 0.156422 0.98769 -0
    outer loop
      vertex 3.25 3.5 26
      vertex 2.78647 3.57341 28.5
      vertex 3.25 3.5 28.5
    endloop
  endfacet
  facet normal 0.156422 0.98769 0
    outer loop
      vertex 2.78647 3.57341 28.5
      vertex 3.25 3.5 26
      vertex 2.78647 3.57341 26
    endloop
  endfacet
  facet normal 0.707107 0.707107 0
    outer loop
      vertex 2.36832 3.78647 28.5
      vertex 2.03647 4.11832 26
      vertex 2.03647 4.11832 28.5
    endloop
  endfacet
  facet normal 0.707107 0.707107 0
    outer loop
      vertex 2.03647 4.11832 26
      vertex 2.36832 3.78647 28.5
      vertex 2.36832 3.78647 26
    endloop
  endfacet
  facet normal 0.98769 0.156422 0
    outer loop
      vertex 1.82341 4.53647 28.5
      vertex 1.75 5 26
      vertex 1.75 5 28.5
    endloop
  endfacet
  facet normal 0.98769 0.156422 0
    outer loop
      vertex 1.75 5 26
      vertex 1.82341 4.53647 28.5
      vertex 1.82341 4.53647 26
    endloop
  endfacet
  facet normal -0.987687 0.156443 0
    outer loop
      vertex 4.67658 4.53647 26
      vertex 4.75 5 28.5
      vertex 4.75 5 26
    endloop
  endfacet
  facet normal -0.987687 0.156443 0
    outer loop
      vertex 4.75 5 28.5
      vertex 4.67658 4.53647 26
      vertex 4.67658 4.53647 28.5
    endloop
  endfacet
  facet normal -0.987685 -0.156453 0
    outer loop
      vertex 4.75 15 26
      vertex 4.67658 15.4635 28.5
      vertex 4.67658 15.4635 26
    endloop
  endfacet
  facet normal -0.987685 -0.156453 0
    outer loop
      vertex 4.67658 15.4635 28.5
      vertex 4.75 15 26
      vertex 4.75 15 28.5
    endloop
  endfacet
  facet normal 0.987689 0.156432 0
    outer loop
      vertex 1.82341 14.5365 28.5
      vertex 1.75 15 26
      vertex 1.75 15 28.5
    endloop
  endfacet
  facet normal 0.987689 0.156432 0
    outer loop
      vertex 1.75 15 26
      vertex 1.82341 14.5365 28.5
      vertex 1.82341 14.5365 26
    endloop
  endfacet
  facet normal 0.156401 -0.987694 0
    outer loop
      vertex 2.78647 16.4266 26
      vertex 3.25 16.5 28.5
      vertex 2.78647 16.4266 28.5
    endloop
  endfacet
  facet normal 0.156401 -0.987694 0
    outer loop
      vertex 3.25 16.5 28.5
      vertex 2.78647 16.4266 26
      vertex 3.25 16.5 26
    endloop
  endfacet
  facet normal -0.156405 0.987693 0
    outer loop
      vertex 3.71352 13.5734 26
      vertex 3.25 13.5 28.5
      vertex 3.71352 13.5734 28.5
    endloop
  endfacet
  facet normal -0.156405 0.987693 0
    outer loop
      vertex 3.25 13.5 28.5
      vertex 3.71352 13.5734 26
      vertex 3.25 13.5 26
    endloop
  endfacet
  facet normal -0.707064 -0.707149 0
    outer loop
      vertex 4.13168 16.2135 26
      vertex 4.46352 15.8817 28.5
      vertex 4.13168 16.2135 28.5
    endloop
  endfacet
  facet normal -0.707064 -0.707149 -0
    outer loop
      vertex 4.46352 15.8817 28.5
      vertex 4.13168 16.2135 26
      vertex 4.46352 15.8817 26
    endloop
  endfacet
  facet normal -0.891027 -0.453951 0
    outer loop
      vertex 4.67658 15.4635 26
      vertex 4.46352 15.8817 28.5
      vertex 4.46352 15.8817 26
    endloop
  endfacet
  facet normal -0.891027 -0.453951 0
    outer loop
      vertex 4.46352 15.8817 28.5
      vertex 4.67658 15.4635 26
      vertex 4.67658 15.4635 28.5
    endloop
  endfacet
  facet normal 0.707054 -0.70716 0
    outer loop
      vertex 2.03647 15.8817 26
      vertex 2.36832 16.2135 28.5
      vertex 2.03647 15.8817 28.5
    endloop
  endfacet
  facet normal 0.707054 -0.70716 0
    outer loop
      vertex 2.36832 16.2135 28.5
      vertex 2.03647 15.8817 26
      vertex 2.36832 16.2135 26
    endloop
  endfacet
  facet normal 0.891027 -0.453951 0
    outer loop
      vertex 1.82341 15.4635 28.5
      vertex 2.03647 15.8817 26
      vertex 2.03647 15.8817 28.5
    endloop
  endfacet
  facet normal 0.891027 -0.453951 0
    outer loop
      vertex 2.03647 15.8817 26
      vertex 1.82341 15.4635 28.5
      vertex 1.82341 15.4635 26
    endloop
  endfacet
  facet normal 0.454061 -0.89097 0
    outer loop
      vertex 2.36832 16.2135 26
      vertex 2.78647 16.4266 28.5
      vertex 2.36832 16.2135 28.5
    endloop
  endfacet
  facet normal 0.454061 -0.89097 0
    outer loop
      vertex 2.78647 16.4266 28.5
      vertex 2.36832 16.2135 26
      vertex 2.78647 16.4266 26
    endloop
  endfacet
  facet normal -0.454053 0.890975 0
    outer loop
      vertex 4.13168 13.7865 26
      vertex 3.71352 13.5734 28.5
      vertex 4.13168 13.7865 28.5
    endloop
  endfacet
  facet normal -0.454053 0.890975 0
    outer loop
      vertex 3.71352 13.5734 28.5
      vertex 4.13168 13.7865 26
      vertex 3.71352 13.5734 26
    endloop
  endfacet
  facet normal -0.891027 0.453951 0
    outer loop
      vertex 4.46352 14.1183 26
      vertex 4.67658 14.5365 28.5
      vertex 4.67658 14.5365 26
    endloop
  endfacet
  facet normal -0.891027 0.453951 0
    outer loop
      vertex 4.67658 14.5365 28.5
      vertex 4.46352 14.1183 26
      vertex 4.46352 14.1183 28.5
    endloop
  endfacet
  facet normal 0.454061 0.89097 -0
    outer loop
      vertex 2.78647 13.5734 26
      vertex 2.36832 13.7865 28.5
      vertex 2.78647 13.5734 28.5
    endloop
  endfacet
  facet normal 0.454061 0.89097 0
    outer loop
      vertex 2.36832 13.7865 28.5
      vertex 2.78647 13.5734 26
      vertex 2.36832 13.7865 26
    endloop
  endfacet
  facet normal 0.891027 0.453951 0
    outer loop
      vertex 2.03647 14.1183 28.5
      vertex 1.82341 14.5365 26
      vertex 1.82341 14.5365 28.5
    endloop
  endfacet
  facet normal 0.891027 0.453951 0
    outer loop
      vertex 1.82341 14.5365 26
      vertex 2.03647 14.1183 28.5
      vertex 2.03647 14.1183 26
    endloop
  endfacet
  facet normal -0.156405 -0.987693 0
    outer loop
      vertex 3.25 16.5 26
      vertex 3.71352 16.4266 28.5
      vertex 3.25 16.5 28.5
    endloop
  endfacet
  facet normal -0.156405 -0.987693 -0
    outer loop
      vertex 3.71352 16.4266 28.5
      vertex 3.25 16.5 26
      vertex 3.71352 16.4266 26
    endloop
  endfacet
  facet normal -0.454053 -0.890975 0
    outer loop
      vertex 3.71352 16.4266 26
      vertex 4.13168 16.2135 28.5
      vertex 3.71352 16.4266 28.5
    endloop
  endfacet
  facet normal -0.454053 -0.890975 -0
    outer loop
      vertex 4.13168 16.2135 28.5
      vertex 3.71352 16.4266 26
      vertex 4.13168 16.2135 26
    endloop
  endfacet
  facet normal 0.987689 -0.156432 0
    outer loop
      vertex 1.75 15 28.5
      vertex 1.82341 15.4635 26
      vertex 1.82341 15.4635 28.5
    endloop
  endfacet
  facet normal 0.987689 -0.156432 0
    outer loop
      vertex 1.82341 15.4635 26
      vertex 1.75 15 28.5
      vertex 1.75 15 26
    endloop
  endfacet
  facet normal -0.987685 0.156453 0
    outer loop
      vertex 4.67658 14.5365 26
      vertex 4.75 15 28.5
      vertex 4.75 15 26
    endloop
  endfacet
  facet normal -0.987685 0.156453 0
    outer loop
      vertex 4.75 15 28.5
      vertex 4.67658 14.5365 26
      vertex 4.67658 14.5365 28.5
    endloop
  endfacet
  facet normal -0.707064 0.707149 0
    outer loop
      vertex 4.13168 13.7865 26
      vertex 4.46352 14.1183 28.5
      vertex 4.46352 14.1183 26
    endloop
  endfacet
  facet normal -0.707064 0.707149 0
    outer loop
      vertex 4.46352 14.1183 28.5
      vertex 4.13168 13.7865 26
      vertex 4.13168 13.7865 28.5
    endloop
  endfacet
  facet normal 0.156401 0.987694 -0
    outer loop
      vertex 3.25 13.5 26
      vertex 2.78647 13.5734 28.5
      vertex 3.25 13.5 28.5
    endloop
  endfacet
  facet normal 0.156401 0.987694 0
    outer loop
      vertex 2.78647 13.5734 28.5
      vertex 3.25 13.5 26
      vertex 2.78647 13.5734 26
    endloop
  endfacet
  facet normal 0.707054 0.70716 0
    outer loop
      vertex 2.36832 13.7865 28.5
      vertex 2.03647 14.1183 26
      vertex 2.03647 14.1183 28.5
    endloop
  endfacet
  facet normal 0.707054 0.70716 0
    outer loop
      vertex 2.03647 14.1183 26
      vertex 2.36832 13.7865 28.5
      vertex 2.36832 13.7865 26
    endloop
  endfacet
  facet normal -1 0 0
    outer loop
      vertex 46.8 0 26
      vertex 46.8 20 28.5
      vertex 46.8 20 26
    endloop
  endfacet
  facet normal -1 -0 0
    outer loop
      vertex 46.8 20 28.5
      vertex 46.8 0 26
      vertex 46.8 0 28.5
    endloop
  endfacet
  facet normal -0 0 1
    outer loop
      vertex 51.4766 5.46352 28.5
      vertex 53.3 0 28.5
      vertex 51.4766 14.5365 28.5
    endloop
  endfacet
  facet normal 0 0 1
    outer loop
      vertex 53.3 0 28.5
      vertex 51.4766 5.46352 28.5
      vertex 51.55 5 28.5
    endloop
  endfacet
  facet normal -0 0 1
    outer loop
      vertex 51.2635 14.1183 28.5
      vertex 51.4766 5.46352 28.5
      vertex 51.4766 14.5365 28.5
    endloop
  endfacet
  facet normal 0 0 1
    outer loop
      vertex 51.2635 14.1183 28.5
      vertex 51.2635 5.88168 28.5
      vertex 51.4766 5.46352 28.5
    endloop
  endfacet
  facet normal -0 0 1
    outer loop
      vertex 50.9317 13.7865 28.5
      vertex 51.2635 5.88168 28.5
      vertex 51.2635 14.1183 28.5
    endloop
  endfacet
  facet normal 0 0 1
    outer loop
      vertex 50.9317 13.7865 28.5
      vertex 50.9317 6.21352 28.5
      vertex 51.2635 5.88168 28.5
    endloop
  endfacet
  facet normal -0 0 1
    outer loop
      vertex 50.5135 13.5734 28.5
      vertex 50.9317 6.21352 28.5
      vertex 50.9317 13.7865 28.5
    endloop
  endfacet
  facet normal 0 0 1
    outer loop
      vertex 50.5135 13.5734 28.5
      vertex 50.5135 6.42658 28.5
      vertex 50.9317 6.21352 28.5
    endloop
  endfacet
  facet normal -0 0 1
    outer loop
      vertex 50.05 13.5 28.5
      vertex 50.5135 6.42658 28.5
      vertex 50.5135 13.5734 28.5
    endloop
  endfacet
  facet normal 0 0 1
    outer loop
      vertex 50.05 13.5 28.5
      vertex 50.05 6.5 28.5
      vertex 50.5135 6.42658 28.5
    endloop
  endfacet
  facet normal 0 0 1
    outer loop
      vertex 49.5865 13.5734 28.5
      vertex 50.05 6.5 28.5
      vertex 50.05 13.5 28.5
    endloop
  endfacet
  facet normal 0 0 1
    outer loop
      vertex 49.5865 13.5734 28.5
      vertex 49.5865 6.42658 28.5
      vertex 50.05 6.5 28.5
    endloop
  endfacet
  facet normal 0 0 1
    outer loop
      vertex 49.1683 13.7865 28.5
      vertex 49.5865 6.42658 28.5
      vertex 49.5865 13.5734 28.5
    endloop
  endfacet
  facet normal 0 0 1
    outer loop
      vertex 49.1683 13.7865 28.5
      vertex 49.1683 6.21352 28.5
      vertex 49.5865 6.42658 28.5
    endloop
  endfacet
  facet normal 0 0 1
    outer loop
      vertex 48.8365 14.1183 28.5
      vertex 49.1683 6.21352 28.5
      vertex 49.1683 13.7865 28.5
    endloop
  endfacet
  facet normal 0 0 1
    outer loop
      vertex 48.8365 14.1183 28.5
      vertex 48.8365 5.88168 28.5
      vertex 49.1683 6.21352 28.5
    endloop
  endfacet
  facet normal 0 0 1
    outer loop
      vertex 48.6234 14.5365 28.5
      vertex 48.8365 5.88168 28.5
      vertex 48.8365 14.1183 28.5
    endloop
  endfacet
  facet normal 0 0 1
    outer loop
      vertex 48.6234 14.5365 28.5
      vertex 48.6234 5.46352 28.5
      vertex 48.8365 5.88168 28.5
    endloop
  endfacet
  facet normal 0 0 1
    outer loop
      vertex 46.8 20 28.5
      vertex 48.6234 14.5365 28.5
      vertex 48.55 15 28.5
    endloop
  endfacet
  facet normal 0 0 1
    outer loop
      vertex 48.6234 14.5365 28.5
      vertex 46.8 20 28.5
      vertex 48.6234 5.46352 28.5
    endloop
  endfacet
  facet normal 0 0 1
    outer loop
      vertex 51.4766 14.5365 28.5
      vertex 53.3 20 28.5
      vertex 51.55 15 28.5
    endloop
  endfacet
  facet normal 0 0 1
    outer loop
      vertex 53.3 20 28.5
      vertex 51.4766 15.4635 28.5
      vertex 51.55 15 28.5
    endloop
  endfacet
  facet normal 0 0 1
    outer loop
      vertex 53.3 20 28.5
      vertex 51.2635 15.8817 28.5
      vertex 51.4766 15.4635 28.5
    endloop
  endfacet
  facet normal 0 0 1
    outer loop
      vertex 53.3 20 28.5
      vertex 50.9317 16.2135 28.5
      vertex 51.2635 15.8817 28.5
    endloop
  endfacet
  facet normal 0 0 1
    outer loop
      vertex 53.3 20 28.5
      vertex 50.5135 16.4266 28.5
      vertex 50.9317 16.2135 28.5
    endloop
  endfacet
  facet normal 0 0 1
    outer loop
      vertex 53.3 20 28.5
      vertex 50.05 16.5 28.5
      vertex 50.5135 16.4266 28.5
    endloop
  endfacet
  facet normal -0 0 1
    outer loop
      vertex 46.8 20 28.5
      vertex 50.05 16.5 28.5
      vertex 53.3 20 28.5
    endloop
  endfacet
  facet normal 0 0 1
    outer loop
      vertex 50.05 16.5 28.5
      vertex 46.8 20 28.5
      vertex 49.5865 16.4266 28.5
    endloop
  endfacet
  facet normal 0 0 1
    outer loop
      vertex 46.8 0 28.5
      vertex 48.6234 5.46352 28.5
      vertex 46.8 20 28.5
    endloop
  endfacet
  facet normal 0 0 1
    outer loop
      vertex 48.6234 15.4635 28.5
      vertex 46.8 20 28.5
      vertex 48.55 15 28.5
    endloop
  endfacet
  facet normal 0 0 1
    outer loop
      vertex 48.8365 15.8817 28.5
      vertex 46.8 20 28.5
      vertex 48.6234 15.4635 28.5
    endloop
  endfacet
  facet normal 0 0 1
    outer loop
      vertex 49.1683 16.2135 28.5
      vertex 46.8 20 28.5
      vertex 48.8365 15.8817 28.5
    endloop
  endfacet
  facet normal 0 0 1
    outer loop
      vertex 49.5865 16.4266 28.5
      vertex 46.8 20 28.5
      vertex 49.1683 16.2135 28.5
    endloop
  endfacet
  facet normal 0 0 1
    outer loop
      vertex 53.3 20 28.5
      vertex 51.4766 14.5365 28.5
      vertex 53.3 0 28.5
    endloop
  endfacet
  facet normal -0 0 1
    outer loop
      vertex 51.4766 4.53647 28.5
      vertex 53.3 0 28.5
      vertex 51.55 5 28.5
    endloop
  endfacet
  facet normal -0 0 1
    outer loop
      vertex 51.2635 4.11832 28.5
      vertex 53.3 0 28.5
      vertex 51.4766 4.53647 28.5
    endloop
  endfacet
  facet normal -0 0 1
    outer loop
      vertex 50.9317 3.78647 28.5
      vertex 53.3 0 28.5
      vertex 51.2635 4.11832 28.5
    endloop
  endfacet
  facet normal -0 0 1
    outer loop
      vertex 50.5135 3.57341 28.5
      vertex 53.3 0 28.5
      vertex 50.9317 3.78647 28.5
    endloop
  endfacet
  facet normal -0 0 1
    outer loop
      vertex 50.05 3.5 28.5
      vertex 53.3 0 28.5
      vertex 50.5135 3.57341 28.5
    endloop
  endfacet
  facet normal 0 0 1
    outer loop
      vertex 46.8 0 28.5
      vertex 50.05 3.5 28.5
      vertex 49.5865 3.57341 28.5
    endloop
  endfacet
  facet normal 0 0 1
    outer loop
      vertex 46.8 0 28.5
      vertex 49.5865 3.57341 28.5
      vertex 49.1683 3.78647 28.5
    endloop
  endfacet
  facet normal 0 0 1
    outer loop
      vertex 50.05 3.5 28.5
      vertex 46.8 0 28.5
      vertex 53.3 0 28.5
    endloop
  endfacet
  facet normal 0 0 1
    outer loop
      vertex 48.8365 4.11832 28.5
      vertex 46.8 0 28.5
      vertex 49.1683 3.78647 28.5
    endloop
  endfacet
  facet normal 0 0 1
    outer loop
      vertex 48.6234 4.53647 28.5
      vertex 46.8 0 28.5
      vertex 48.8365 4.11832 28.5
    endloop
  endfacet
  facet normal 0 0 1
    outer loop
      vertex 48.55 5 28.5
      vertex 46.8 0 28.5
      vertex 48.6234 4.53647 28.5
    endloop
  endfacet
  facet normal 0 0 1
    outer loop
      vertex 48.6234 5.46352 28.5
      vertex 46.8 0 28.5
      vertex 48.55 5 28.5
    endloop
  endfacet
  facet normal 1 -0 0
    outer loop
      vertex 53.3 0 28.5
      vertex 53.3 20 26
      vertex 53.3 20 28.5
    endloop
  endfacet
  facet normal 1 0 0
    outer loop
      vertex 53.3 20 26
      vertex 53.3 0 28.5
      vertex 53.3 0 26
    endloop
  endfacet
  facet normal 0 0 -1
    outer loop
      vertex 51.4766 14.5365 26
      vertex 53.3 20 26
      vertex 51.4766 5.46352 26
    endloop
  endfacet
  facet normal 0 0 -1
    outer loop
      vertex 53.3 20 26
      vertex 51.4766 14.5365 26
      vertex 51.55 15 26
    endloop
  endfacet
  facet normal 0 0 -1
    outer loop
      vertex 51.2635 5.88168 26
      vertex 51.4766 14.5365 26
      vertex 51.4766 5.46352 26
    endloop
  endfacet
  facet normal 0 0 -1
    outer loop
      vertex 51.2635 5.88168 26
      vertex 51.2635 14.1183 26
      vertex 51.4766 14.5365 26
    endloop
  endfacet
  facet normal 0 0 -1
    outer loop
      vertex 50.9317 6.21352 26
      vertex 51.2635 14.1183 26
      vertex 51.2635 5.88168 26
    endloop
  endfacet
  facet normal 0 0 -1
    outer loop
      vertex 50.9317 6.21352 26
      vertex 50.9317 13.7865 26
      vertex 51.2635 14.1183 26
    endloop
  endfacet
  facet normal 0 0 -1
    outer loop
      vertex 50.5135 6.42658 26
      vertex 50.9317 13.7865 26
      vertex 50.9317 6.21352 26
    endloop
  endfacet
  facet normal 0 0 -1
    outer loop
      vertex 50.5135 6.42658 26
      vertex 50.5135 13.5734 26
      vertex 50.9317 13.7865 26
    endloop
  endfacet
  facet normal 0 0 -1
    outer loop
      vertex 50.05 6.5 26
      vertex 50.5135 13.5734 26
      vertex 50.5135 6.42658 26
    endloop
  endfacet
  facet normal 0 0 -1
    outer loop
      vertex 50.05 6.5 26
      vertex 50.05 13.5 26
      vertex 50.5135 13.5734 26
    endloop
  endfacet
  facet normal 0 0 -1
    outer loop
      vertex 49.5865 6.42658 26
      vertex 50.05 13.5 26
      vertex 50.05 6.5 26
    endloop
  endfacet
  facet normal 0 0 -1
    outer loop
      vertex 49.5865 6.42658 26
      vertex 49.5865 13.5734 26
      vertex 50.05 13.5 26
    endloop
  endfacet
  facet normal 0 0 -1
    outer loop
      vertex 49.1683 6.21352 26
      vertex 49.5865 13.5734 26
      vertex 49.5865 6.42658 26
    endloop
  endfacet
  facet normal 0 0 -1
    outer loop
      vertex 49.1683 6.21352 26
      vertex 49.1683 13.7865 26
      vertex 49.5865 13.5734 26
    endloop
  endfacet
  facet normal 0 0 -1
    outer loop
      vertex 48.8365 5.88168 26
      vertex 49.1683 13.7865 26
      vertex 49.1683 6.21352 26
    endloop
  endfacet
  facet normal 0 0 -1
    outer loop
      vertex 48.8365 5.88168 26
      vertex 48.8365 14.1183 26
      vertex 49.1683 13.7865 26
    endloop
  endfacet
  facet normal 0 0 -1
    outer loop
      vertex 48.6234 5.46352 26
      vertex 48.8365 14.1183 26
      vertex 48.8365 5.88168 26
    endloop
  endfacet
  facet normal 0 0 -1
    outer loop
      vertex 48.6234 5.46352 26
      vertex 48.6234 14.5365 26
      vertex 48.8365 14.1183 26
    endloop
  endfacet
  facet normal 0 0 -1
    outer loop
      vertex 46.8 0 26
      vertex 48.6234 5.46352 26
      vertex 48.55 5 26
    endloop
  endfacet
  facet normal -0 0 -1
    outer loop
      vertex 48.6234 5.46352 26
      vertex 46.8 0 26
      vertex 48.6234 14.5365 26
    endloop
  endfacet
  facet normal 0 0 -1
    outer loop
      vertex 51.4766 5.46352 26
      vertex 53.3 0 26
      vertex 51.55 5 26
    endloop
  endfacet
  facet normal 0 0 -1
    outer loop
      vertex 53.3 0 26
      vertex 51.4766 4.53647 26
      vertex 51.55 5 26
    endloop
  endfacet
  facet normal 0 0 -1
    outer loop
      vertex 53.3 0 26
      vertex 51.2635 4.11832 26
      vertex 51.4766 4.53647 26
    endloop
  endfacet
  facet normal 0 0 -1
    outer loop
      vertex 53.3 0 26
      vertex 50.9317 3.78647 26
      vertex 51.2635 4.11832 26
    endloop
  endfacet
  facet normal 0 0 -1
    outer loop
      vertex 53.3 0 26
      vertex 50.5135 3.57341 26
      vertex 50.9317 3.78647 26
    endloop
  endfacet
  facet normal 0 0 -1
    outer loop
      vertex 53.3 0 26
      vertex 50.05 3.5 26
      vertex 50.5135 3.57341 26
    endloop
  endfacet
  facet normal 0 0 -1
    outer loop
      vertex 46.8 0 26
      vertex 50.05 3.5 26
      vertex 53.3 0 26
    endloop
  endfacet
  facet normal -0 0 -1
    outer loop
      vertex 50.05 3.5 26
      vertex 46.8 0 26
      vertex 49.5865 3.57341 26
    endloop
  endfacet
  facet normal 0 0 -1
    outer loop
      vertex 46.8 20 26
      vertex 48.6234 14.5365 26
      vertex 46.8 0 26
    endloop
  endfacet
  facet normal -0 0 -1
    outer loop
      vertex 48.6234 4.53647 26
      vertex 46.8 0 26
      vertex 48.55 5 26
    endloop
  endfacet
  facet normal -0 0 -1
    outer loop
      vertex 48.8365 4.11832 26
      vertex 46.8 0 26
      vertex 48.6234 4.53647 26
    endloop
  endfacet
  facet normal -0 0 -1
    outer loop
      vertex 49.1683 3.78647 26
      vertex 46.8 0 26
      vertex 48.8365 4.11832 26
    endloop
  endfacet
  facet normal -0 0 -1
    outer loop
      vertex 49.5865 3.57341 26
      vertex 46.8 0 26
      vertex 49.1683 3.78647 26
    endloop
  endfacet
  facet normal 0 0 -1
    outer loop
      vertex 53.3 0 26
      vertex 51.4766 5.46352 26
      vertex 53.3 20 26
    endloop
  endfacet
  facet normal 0 0 -1
    outer loop
      vertex 51.4766 15.4635 26
      vertex 53.3 20 26
      vertex 51.55 15 26
    endloop
  endfacet
  facet normal 0 0 -1
    outer loop
      vertex 51.2635 15.8817 26
      vertex 53.3 20 26
      vertex 51.4766 15.4635 26
    endloop
  endfacet
  facet normal 0 0 -1
    outer loop
      vertex 50.9317 16.2135 26
      vertex 53.3 20 26
      vertex 51.2635 15.8817 26
    endloop
  endfacet
  facet normal 0 0 -1
    outer loop
      vertex 50.5135 16.4266 26
      vertex 53.3 20 26
      vertex 50.9317 16.2135 26
    endloop
  endfacet
  facet normal 0 0 -1
    outer loop
      vertex 50.05 16.5 26
      vertex 53.3 20 26
      vertex 50.5135 16.4266 26
    endloop
  endfacet
  facet normal 0 0 -1
    outer loop
      vertex 46.8 20 26
      vertex 50.05 16.5 26
      vertex 49.5865 16.4266 26
    endloop
  endfacet
  facet normal 0 0 -1
    outer loop
      vertex 46.8 20 26
      vertex 49.5865 16.4266 26
      vertex 49.1683 16.2135 26
    endloop
  endfacet
  facet normal 0 0 -1
    outer loop
      vertex 50.05 16.5 26
      vertex 46.8 20 26
      vertex 53.3 20 26
    endloop
  endfacet
  facet normal 0 0 -1
    outer loop
      vertex 48.8365 15.8817 26
      vertex 46.8 20 26
      vertex 49.1683 16.2135 26
    endloop
  endfacet
  facet normal 0 0 -1
    outer loop
      vertex 48.6234 15.4635 26
      vertex 46.8 20 26
      vertex 48.8365 15.8817 26
    endloop
  endfacet
  facet normal 0 0 -1
    outer loop
      vertex 48.55 15 26
      vertex 46.8 20 26
      vertex 48.6234 15.4635 26
    endloop
  endfacet
  facet normal 0 0 -1
    outer loop
      vertex 48.6234 14.5365 26
      vertex 46.8 20 26
      vertex 48.55 15 26
    endloop
  endfacet
  facet normal 0 -1 0
    outer loop
      vertex 46.8 0 26
      vertex 53.3 0 28.5
      vertex 46.8 0 28.5
    endloop
  endfacet
  facet normal 0 -1 -0
    outer loop
      vertex 53.3 0 28.5
      vertex 46.8 0 26
      vertex 53.3 0 26
    endloop
  endfacet
  facet normal 0 1 -0
    outer loop
      vertex 53.3 20 26
      vertex 46.8 20 28.5
      vertex 53.3 20 28.5
    endloop
  endfacet
  facet normal 0 1 0
    outer loop
      vertex 46.8 20 28.5
      vertex 53.3 20 26
      vertex 46.8 20 26
    endloop
  endfacet
  facet normal -0.987693 -0.156405 0
    outer loop
      vertex 51.55 5 26
      vertex 51.4766 5.46352 28.5
      vertex 51.4766 5.46352 26
    endloop
  endfacet
  facet normal -0.987693 -0.156405 0
    outer loop
      vertex 51.4766 5.46352 28.5
      vertex 51.55 5 26
      vertex 51.55 5 28.5
    endloop
  endfacet
  facet normal 0.156453 -0.987685 0
    outer loop
      vertex 49.5865 6.42658 26
      vertex 50.05 6.5 28.5
      vertex 49.5865 6.42658 28.5
    endloop
  endfacet
  facet normal 0.156453 -0.987685 0
    outer loop
      vertex 50.05 6.5 28.5
      vertex 49.5865 6.42658 26
      vertex 50.05 6.5 26
    endloop
  endfacet
  facet normal -0.156432 0.987689 0
    outer loop
      vertex 50.5135 3.57341 26
      vertex 50.05 3.5 28.5
      vertex 50.5135 3.57341 28.5
    endloop
  endfacet
  facet normal -0.156432 0.987689 0
    outer loop
      vertex 50.05 3.5 28.5
      vertex 50.5135 3.57341 26
      vertex 50.05 3.5 26
    endloop
  endfacet
  facet normal -0.707149 -0.707064 0
    outer loop
      vertex 51.2635 5.88168 26
      vertex 50.9317 6.21352 28.5
      vertex 50.9317 6.21352 26
    endloop
  endfacet
  facet normal -0.707149 -0.707064 0
    outer loop
      vertex 50.9317 6.21352 28.5
      vertex 51.2635 5.88168 26
      vertex 51.2635 5.88168 28.5
    endloop
  endfacet
  facet normal -0.890975 -0.454053 0
    outer loop
      vertex 51.4766 5.46352 26
      vertex 51.2635 5.88168 28.5
      vertex 51.2635 5.88168 26
    endloop
  endfacet
  facet normal -0.890975 -0.454053 0
    outer loop
      vertex 51.2635 5.88168 28.5
      vertex 51.4766 5.46352 26
      vertex 51.4766 5.46352 28.5
    endloop
  endfacet
  facet normal 0.707149 -0.707064 0
    outer loop
      vertex 48.8365 5.88168 28.5
      vertex 49.1683 6.21352 26
      vertex 49.1683 6.21352 28.5
    endloop
  endfacet
  facet normal 0.707149 -0.707064 0
    outer loop
      vertex 49.1683 6.21352 26
      vertex 48.8365 5.88168 28.5
      vertex 48.8365 5.88168 26
    endloop
  endfacet
  facet normal 0.890975 -0.454053 0
    outer loop
      vertex 48.6234 5.46352 28.5
      vertex 48.8365 5.88168 26
      vertex 48.8365 5.88168 28.5
    endloop
  endfacet
  facet normal 0.890975 -0.454053 0
    outer loop
      vertex 48.8365 5.88168 26
      vertex 48.6234 5.46352 28.5
      vertex 48.6234 5.46352 26
    endloop
  endfacet
  facet normal 0.453951 -0.891027 0
    outer loop
      vertex 49.1683 6.21352 26
      vertex 49.5865 6.42658 28.5
      vertex 49.1683 6.21352 28.5
    endloop
  endfacet
  facet normal 0.453951 -0.891027 0
    outer loop
      vertex 49.5865 6.42658 28.5
      vertex 49.1683 6.21352 26
      vertex 49.5865 6.42658 26
    endloop
  endfacet
  facet normal -0.453951 0.891027 0
    outer loop
      vertex 50.9317 3.78647 26
      vertex 50.5135 3.57341 28.5
      vertex 50.9317 3.78647 28.5
    endloop
  endfacet
  facet normal -0.453951 0.891027 0
    outer loop
      vertex 50.5135 3.57341 28.5
      vertex 50.9317 3.78647 26
      vertex 50.5135 3.57341 26
    endloop
  endfacet
  facet normal -0.89097 0.454061 0
    outer loop
      vertex 51.2635 4.11832 26
      vertex 51.4766 4.53647 28.5
      vertex 51.4766 4.53647 26
    endloop
  endfacet
  facet normal -0.89097 0.454061 0
    outer loop
      vertex 51.4766 4.53647 28.5
      vertex 51.2635 4.11832 26
      vertex 51.2635 4.11832 28.5
    endloop
  endfacet
  facet normal 0.453951 0.891027 -0
    outer loop
      vertex 49.5865 3.57341 26
      vertex 49.1683 3.78647 28.5
      vertex 49.5865 3.57341 28.5
    endloop
  endfacet
  facet normal 0.453951 0.891027 0
    outer loop
      vertex 49.1683 3.78647 28.5
      vertex 49.5865 3.57341 26
      vertex 49.1683 3.78647 26
    endloop
  endfacet
  facet normal 0.89097 0.454061 0
    outer loop
      vertex 48.8365 4.11832 28.5
      vertex 48.6234 4.53647 26
      vertex 48.6234 4.53647 28.5
    endloop
  endfacet
  facet normal 0.89097 0.454061 0
    outer loop
      vertex 48.6234 4.53647 26
      vertex 48.8365 4.11832 28.5
      vertex 48.8365 4.11832 26
    endloop
  endfacet
  facet normal -0.156453 -0.987685 0
    outer loop
      vertex 50.05 6.5 26
      vertex 50.5135 6.42658 28.5
      vertex 50.05 6.5 28.5
    endloop
  endfacet
  facet normal -0.156453 -0.987685 -0
    outer loop
      vertex 50.5135 6.42658 28.5
      vertex 50.05 6.5 26
      vertex 50.5135 6.42658 26
    endloop
  endfacet
  facet normal -0.453951 -0.891027 0
    outer loop
      vertex 50.5135 6.42658 26
      vertex 50.9317 6.21352 28.5
      vertex 50.5135 6.42658 28.5
    endloop
  endfacet
  facet normal -0.453951 -0.891027 -0
    outer loop
      vertex 50.9317 6.21352 28.5
      vertex 50.5135 6.42658 26
      vertex 50.9317 6.21352 26
    endloop
  endfacet
  facet normal 0.987693 -0.156405 0
    outer loop
      vertex 48.55 5 28.5
      vertex 48.6234 5.46352 26
      vertex 48.6234 5.46352 28.5
    endloop
  endfacet
  facet normal 0.987693 -0.156405 0
    outer loop
      vertex 48.6234 5.46352 26
      vertex 48.55 5 28.5
      vertex 48.55 5 26
    endloop
  endfacet
  facet normal -0.70716 0.707054 0
    outer loop
      vertex 50.9317 3.78647 26
      vertex 51.2635 4.11832 28.5
      vertex 51.2635 4.11832 26
    endloop
  endfacet
  facet normal -0.70716 0.707054 0
    outer loop
      vertex 51.2635 4.11832 28.5
      vertex 50.9317 3.78647 26
      vertex 50.9317 3.78647 28.5
    endloop
  endfacet
  facet normal 0.156432 0.987689 -0
    outer loop
      vertex 50.05 3.5 26
      vertex 49.5865 3.57341 28.5
      vertex 50.05 3.5 28.5
    endloop
  endfacet
  facet normal 0.156432 0.987689 0
    outer loop
      vertex 49.5865 3.57341 28.5
      vertex 50.05 3.5 26
      vertex 49.5865 3.57341 26
    endloop
  endfacet
  facet normal 0.70716 0.707054 0
    outer loop
      vertex 49.1683 3.78647 28.5
      vertex 48.8365 4.11832 26
      vertex 48.8365 4.11832 28.5
    endloop
  endfacet
  facet normal 0.70716 0.707054 0
    outer loop
      vertex 48.8365 4.11832 26
      vertex 49.1683 3.78647 28.5
      vertex 49.1683 3.78647 26
    endloop
  endfacet
  facet normal 0.987694 0.156401 0
    outer loop
      vertex 48.6234 4.53647 28.5
      vertex 48.55 5 26
      vertex 48.55 5 28.5
    endloop
  endfacet
  facet normal 0.987694 0.156401 0
    outer loop
      vertex 48.55 5 26
      vertex 48.6234 4.53647 28.5
      vertex 48.6234 4.53647 26
    endloop
  endfacet
  facet normal -0.987694 0.156401 0
    outer loop
      vertex 51.4766 4.53647 26
      vertex 51.55 5 28.5
      vertex 51.55 5 26
    endloop
  endfacet
  facet normal -0.987694 0.156401 0
    outer loop
      vertex 51.55 5 28.5
      vertex 51.4766 4.53647 26
      vertex 51.4766 4.53647 28.5
    endloop
  endfacet
  facet normal -0.987692 -0.156411 0
    outer loop
      vertex 51.55 15 26
      vertex 51.4766 15.4635 28.5
      vertex 51.4766 15.4635 26
    endloop
  endfacet
  facet normal -0.987692 -0.156411 0
    outer loop
      vertex 51.4766 15.4635 28.5
      vertex 51.55 15 26
      vertex 51.55 15 28.5
    endloop
  endfacet
  facet normal 0.987692 0.156411 0
    outer loop
      vertex 48.6234 14.5365 28.5
      vertex 48.55 15 26
      vertex 48.55 15 28.5
    endloop
  endfacet
  facet normal 0.987692 0.156411 0
    outer loop
      vertex 48.55 15 26
      vertex 48.6234 14.5365 28.5
      vertex 48.6234 14.5365 26
    endloop
  endfacet
  facet normal 0.156411 -0.987692 0
    outer loop
      vertex 49.5865 16.4266 26
      vertex 50.05 16.5 28.5
      vertex 49.5865 16.4266 28.5
    endloop
  endfacet
  facet normal 0.156411 -0.987692 0
    outer loop
      vertex 50.05 16.5 28.5
      vertex 49.5865 16.4266 26
      vertex 50.05 16.5 26
    endloop
  endfacet
  facet normal -0.156411 0.987692 0
    outer loop
      vertex 50.5135 13.5734 26
      vertex 50.05 13.5 28.5
      vertex 50.5135 13.5734 28.5
    endloop
  endfacet
  facet normal -0.156411 0.987692 0
    outer loop
      vertex 50.05 13.5 28.5
      vertex 50.5135 13.5734 26
      vertex 50.05 13.5 26
    endloop
  endfacet
  facet normal -0.707107 -0.707107 0
    outer loop
      vertex 51.2635 15.8817 26
      vertex 50.9317 16.2135 28.5
      vertex 50.9317 16.2135 26
    endloop
  endfacet
  facet normal -0.707107 -0.707107 0
    outer loop
      vertex 50.9317 16.2135 28.5
      vertex 51.2635 15.8817 26
      vertex 51.2635 15.8817 28.5
    endloop
  endfacet
  facet normal -0.890992 -0.454018 0
    outer loop
      vertex 51.4766 15.4635 26
      vertex 51.2635 15.8817 28.5
      vertex 51.2635 15.8817 26
    endloop
  endfacet
  facet normal -0.890992 -0.454018 0
    outer loop
      vertex 51.2635 15.8817 28.5
      vertex 51.4766 15.4635 26
      vertex 51.4766 15.4635 28.5
    endloop
  endfacet
  facet normal 0.707107 -0.707107 0
    outer loop
      vertex 48.8365 15.8817 28.5
      vertex 49.1683 16.2135 26
      vertex 49.1683 16.2135 28.5
    endloop
  endfacet
  facet normal 0.707107 -0.707107 0
    outer loop
      vertex 49.1683 16.2135 26
      vertex 48.8365 15.8817 28.5
      vertex 48.8365 15.8817 26
    endloop
  endfacet
  facet normal 0.890992 -0.454018 0
    outer loop
      vertex 48.6234 15.4635 28.5
      vertex 48.8365 15.8817 26
      vertex 48.8365 15.8817 28.5
    endloop
  endfacet
  facet normal 0.890992 -0.454018 0
    outer loop
      vertex 48.8365 15.8817 26
      vertex 48.6234 15.4635 28.5
      vertex 48.6234 15.4635 26
    endloop
  endfacet
  facet normal 0.454018 -0.890992 0
    outer loop
      vertex 49.1683 16.2135 26
      vertex 49.5865 16.4266 28.5
      vertex 49.1683 16.2135 28.5
    endloop
  endfacet
  facet normal 0.454018 -0.890992 0
    outer loop
      vertex 49.5865 16.4266 28.5
      vertex 49.1683 16.2135 26
      vertex 49.5865 16.4266 26
    endloop
  endfacet
  facet normal -0.454018 0.890992 0
    outer loop
      vertex 50.9317 13.7865 26
      vertex 50.5135 13.5734 28.5
      vertex 50.9317 13.7865 28.5
    endloop
  endfacet
  facet normal -0.454018 0.890992 0
    outer loop
      vertex 50.5135 13.5734 28.5
      vertex 50.9317 13.7865 26
      vertex 50.5135 13.5734 26
    endloop
  endfacet
  facet normal -0.890992 0.454018 0
    outer loop
      vertex 51.2635 14.1183 26
      vertex 51.4766 14.5365 28.5
      vertex 51.4766 14.5365 26
    endloop
  endfacet
  facet normal -0.890992 0.454018 0
    outer loop
      vertex 51.4766 14.5365 28.5
      vertex 51.2635 14.1183 26
      vertex 51.2635 14.1183 28.5
    endloop
  endfacet
  facet normal 0.454018 0.890992 -0
    outer loop
      vertex 49.5865 13.5734 26
      vertex 49.1683 13.7865 28.5
      vertex 49.5865 13.5734 28.5
    endloop
  endfacet
  facet normal 0.454018 0.890992 0
    outer loop
      vertex 49.1683 13.7865 28.5
      vertex 49.5865 13.5734 26
      vertex 49.1683 13.7865 26
    endloop
  endfacet
  facet normal 0.890992 0.454018 0
    outer loop
      vertex 48.8365 14.1183 28.5
      vertex 48.6234 14.5365 26
      vertex 48.6234 14.5365 28.5
    endloop
  endfacet
  facet normal 0.890992 0.454018 0
    outer loop
      vertex 48.6234 14.5365 26
      vertex 48.8365 14.1183 28.5
      vertex 48.8365 14.1183 26
    endloop
  endfacet
  facet normal -0.156411 -0.987692 0
    outer loop
      vertex 50.05 16.5 26
      vertex 50.5135 16.4266 28.5
      vertex 50.05 16.5 28.5
    endloop
  endfacet
  facet normal -0.156411 -0.987692 -0
    outer loop
      vertex 50.5135 16.4266 28.5
      vertex 50.05 16.5 26
      vertex 50.5135 16.4266 26
    endloop
  endfacet
  facet normal -0.454018 -0.890992 0
    outer loop
      vertex 50.5135 16.4266 26
      vertex 50.9317 16.2135 28.5
      vertex 50.5135 16.4266 28.5
    endloop
  endfacet
  facet normal -0.454018 -0.890992 -0
    outer loop
      vertex 50.9317 16.2135 28.5
      vertex 50.5135 16.4266 26
      vertex 50.9317 16.2135 26
    endloop
  endfacet
  facet normal 0.987692 -0.156411 0
    outer loop
      vertex 48.55 15 28.5
      vertex 48.6234 15.4635 26
      vertex 48.6234 15.4635 28.5
    endloop
  endfacet
  facet normal 0.987692 -0.156411 0
    outer loop
      vertex 48.6234 15.4635 26
      vertex 48.55 15 28.5
      vertex 48.55 15 26
    endloop
  endfacet
  facet normal -0.987692 0.156411 0
    outer loop
      vertex 51.4766 14.5365 26
      vertex 51.55 15 28.5
      vertex 51.55 15 26
    endloop
  endfacet
  facet normal -0.987692 0.156411 0
    outer loop
      vertex 51.55 15 28.5
      vertex 51.4766 14.5365 26
      vertex 51.4766 14.5365 28.5
    endloop
  endfacet
  facet normal -0.707107 0.707107 0
    outer loop
      vertex 50.9317 13.7865 26
      vertex 51.2635 14.1183 28.5
      vertex 51.2635 14.1183 26
    endloop
  endfacet
  facet normal -0.707107 0.707107 0
    outer loop
      vertex 51.2635 14.1183 28.5
      vertex 50.9317 13.7865 26
      vertex 50.9317 13.7865 28.5
    endloop
  endfacet
  facet normal 0.156411 0.987692 -0
    outer loop
      vertex 50.05 13.5 26
      vertex 49.5865 13.5734 28.5
      vertex 50.05 13.5 28.5
    endloop
  endfacet
  facet normal 0.156411 0.987692 0
    outer loop
      vertex 49.5865 13.5734 28.5
      vertex 50.05 13.5 26
      vertex 49.5865 13.5734 26
    endloop
  endfacet
  facet normal 0.707107 0.707107 0
    outer loop
      vertex 49.1683 13.7865 28.5
      vertex 48.8365 14.1183 26
      vertex 48.8365 14.1183 28.5
    endloop
  endfacet
  facet normal 0.707107 0.707107 0
    outer loop
      vertex 48.8365 14.1183 26
      vertex 49.1683 13.7865 28.5
      vertex 49.1683 13.7865 26
    endloop
  endfacet
  facet normal 0 0 1
    outer loop
      vertex 46.8 20 37
      vertex 19.5 10 37
      vertex 46.8 0 37
    endloop
  endfacet
  facet normal 0 0 1
    outer loop
      vertex 46.8 20 37
      vertex 19.3776 10.7725 37
      vertex 19.5 10 37
    endloop
  endfacet
  facet normal 0 0 1
    outer loop
      vertex 46.8 20 37
      vertex 19.0225 11.4695 37
      vertex 19.3776 10.7725 37
    endloop
  endfacet
  facet normal 0 0 1
    outer loop
      vertex 46.8 20 37
      vertex 18.4695 12.0225 37
      vertex 19.0225 11.4695 37
    endloop
  endfacet
  facet normal 0 0 1
    outer loop
      vertex 46.8 20 37
      vertex 17.7725 12.3776 37
      vertex 18.4695 12.0225 37
    endloop
  endfacet
  facet normal -0 0 1
    outer loop
      vertex 6.5 20 37
      vertex 17.7725 12.3776 37
      vertex 46.8 20 37
    endloop
  endfacet
  facet normal 0 0 1
    outer loop
      vertex 17.7725 12.3776 37
      vertex 6.5 20 37
      vertex 17 12.5 37
    endloop
  endfacet
  facet normal 0 0 1
    outer loop
      vertex 14.6224 10.7725 37
      vertex 6.5 20 37
      vertex 14.5 10 37
    endloop
  endfacet
  facet normal 0 0 1
    outer loop
      vertex 14.9775 11.4695 37
      vertex 6.5 20 37
      vertex 14.6224 10.7725 37
    endloop
  endfacet
  facet normal 0 0 1
    outer loop
      vertex 15.5305 12.0225 37
      vertex 6.5 20 37
      vertex 14.9775 11.4695 37
    endloop
  endfacet
  facet normal 0 0 1
    outer loop
      vertex 16.2275 12.3776 37
      vertex 6.5 20 37
      vertex 15.5305 12.0225 37
    endloop
  endfacet
  facet normal 0 0 1
    outer loop
      vertex 17 12.5 37
      vertex 6.5 20 37
      vertex 16.2275 12.3776 37
    endloop
  endfacet
  facet normal -0 0 1
    outer loop
      vertex 19.3776 9.22746 37
      vertex 46.8 0 37
      vertex 19.5 10 37
    endloop
  endfacet
  facet normal -0 0 1
    outer loop
      vertex 19.0225 8.53054 37
      vertex 46.8 0 37
      vertex 19.3776 9.22746 37
    endloop
  endfacet
  facet normal -0 0 1
    outer loop
      vertex 18.4695 7.97746 37
      vertex 46.8 0 37
      vertex 19.0225 8.53054 37
    endloop
  endfacet
  facet normal -0 0 1
    outer loop
      vertex 17.7725 7.62236 37
      vertex 46.8 0 37
      vertex 18.4695 7.97746 37
    endloop
  endfacet
  facet normal 0 0 1
    outer loop
      vertex 6.5 0 37
      vertex 17.7725 7.62236 37
      vertex 17 7.5 37
    endloop
  endfacet
  facet normal 0 0 1
    outer loop
      vertex 6.5 0 37
      vertex 17 7.5 37
      vertex 16.2275 7.62236 37
    endloop
  endfacet
  facet normal 0 0 1
    outer loop
      vertex 6.5 0 37
      vertex 14.5 10 37
      vertex 6.5 20 37
    endloop
  endfacet
  facet normal 0 0 1
    outer loop
      vertex 14.5 10 37
      vertex 6.5 0 37
      vertex 14.6224 9.22746 37
    endloop
  endfacet
  facet normal 0 0 1
    outer loop
      vertex 17.7725 7.62236 37
      vertex 6.5 0 37
      vertex 46.8 0 37
    endloop
  endfacet
  facet normal 0 0 1
    outer loop
      vertex 15.5305 7.97746 37
      vertex 6.5 0 37
      vertex 16.2275 7.62236 37
    endloop
  endfacet
  facet normal 0 0 1
    outer loop
      vertex 14.9775 8.53054 37
      vertex 6.5 0 37
      vertex 15.5305 7.97746 37
    endloop
  endfacet
  facet normal 0 0 1
    outer loop
      vertex 14.6224 9.22746 37
      vertex 6.5 0 37
      vertex 14.9775 8.53054 37
    endloop
  endfacet
  facet normal 1 -0 0
    outer loop
      vertex 46.8 0 37
      vertex 46.8 20 0
      vertex 46.8 20 37
    endloop
  endfacet
  facet normal 1 0 0
    outer loop
      vertex 46.8 20 0
      vertex 46.8 0 37
      vertex 46.8 0 0
    endloop
  endfacet
  facet normal 0 0 -1
    outer loop
      vertex 6.5 0 0
      vertex 46.8 20 0
      vertex 46.8 0 0
    endloop
  endfacet
  facet normal -0 0 -1
    outer loop
      vertex 46.8 20 0
      vertex 6.5 0 0
      vertex 6.5 20 0
    endloop
  endfacet
  facet normal 0.987679 0.156494 0
    outer loop
      vertex 19.5 10 42
      vertex 19.3776 10.7725 37
      vertex 19.3776 10.7725 42
    endloop
  endfacet
  facet normal 0.987679 0.156494 0
    outer loop
      vertex 19.3776 10.7725 37
      vertex 19.5 10 42
      vertex 19.5 10 37
    endloop
  endfacet
  facet normal -0.156494 0.987679 0
    outer loop
      vertex 17 12.5 37
      vertex 16.2275 12.3776 42
      vertex 17 12.5 42
    endloop
  endfacet
  facet normal -0.156494 0.987679 0
    outer loop
      vertex 16.2275 12.3776 42
      vertex 17 12.5 37
      vertex 16.2275 12.3776 37
    endloop
  endfacet
  facet normal 0.156444 -0.987687 0
    outer loop
      vertex 17 7.5 37
      vertex 17.7725 7.62236 42
      vertex 17 7.5 42
    endloop
  endfacet
  facet normal 0.156444 -0.987687 0
    outer loop
      vertex 17.7725 7.62236 42
      vertex 17 7.5 37
      vertex 17.7725 7.62236 37
    endloop
  endfacet
  facet normal -0.453951 -0.891027 0
    outer loop
      vertex 15.5305 7.97746 37
      vertex 16.2275 7.62236 42
      vertex 15.5305 7.97746 42
    endloop
  endfacet
  facet normal -0.453951 -0.891027 -0
    outer loop
      vertex 16.2275 7.62236 42
      vertex 15.5305 7.97746 37
      vertex 16.2275 7.62236 37
    endloop
  endfacet
  facet normal 0.453951 0.891027 -0
    outer loop
      vertex 18.4695 12.0225 37
      vertex 17.7725 12.3776 42
      vertex 18.4695 12.0225 42
    endloop
  endfacet
  facet normal 0.453951 0.891027 0
    outer loop
      vertex 17.7725 12.3776 42
      vertex 18.4695 12.0225 37
      vertex 17.7725 12.3776 37
    endloop
  endfacet
  facet normal 0.891027 0.453951 0
    outer loop
      vertex 19.3776 10.7725 42
      vertex 19.0225 11.4695 37
      vertex 19.0225 11.4695 42
    endloop
  endfacet
  facet normal 0.891027 0.453951 0
    outer loop
      vertex 19.0225 11.4695 37
      vertex 19.3776 10.7725 42
      vertex 19.3776 10.7725 37
    endloop
  endfacet
  facet normal 0.156494 0.987679 -0
    outer loop
      vertex 17.7725 12.3776 37
      vertex 17 12.5 42
      vertex 17.7725 12.3776 42
    endloop
  endfacet
  facet normal 0.156494 0.987679 0
    outer loop
      vertex 17 12.5 42
      vertex 17.7725 12.3776 37
      vertex 17 12.5 37
    endloop
  endfacet
  facet normal -0.891027 0.453951 0
    outer loop
      vertex 14.6224 10.7725 37
      vertex 14.9775 11.4695 42
      vertex 14.9775 11.4695 37
    endloop
  endfacet
  facet normal -0.891027 0.453951 0
    outer loop
      vertex 14.9775 11.4695 42
      vertex 14.6224 10.7725 37
      vertex 14.6224 10.7725 42
    endloop
  endfacet
  facet normal -0.987679 0.156494 0
    outer loop
      vertex 14.5 10 37
      vertex 14.6224 10.7725 42
      vertex 14.6224 10.7725 37
    endloop
  endfacet
  facet normal -0.987679 0.156494 0
    outer loop
      vertex 14.6224 10.7725 42
      vertex 14.5 10 37
      vertex 14.5 10 42
    endloop
  endfacet
  facet normal 0 0 1
    outer loop
      vertex 19.3776 10.7725 42
      vertex 19.3776 9.22746 42
      vertex 19.5 10 42
    endloop
  endfacet
  facet normal 0 0 1
    outer loop
      vertex 19.0225 11.4695 42
      vertex 19.3776 9.22746 42
      vertex 19.3776 10.7725 42
    endloop
  endfacet
  facet normal 0 0 1
    outer loop
      vertex 19.0225 11.4695 42
      vertex 19.0225 8.53054 42
      vertex 19.3776 9.22746 42
    endloop
  endfacet
  facet normal 0 0 1
    outer loop
      vertex 18.4695 12.0225 42
      vertex 19.0225 8.53054 42
      vertex 19.0225 11.4695 42
    endloop
  endfacet
  facet normal 0 0 1
    outer loop
      vertex 18.4695 12.0225 42
      vertex 18.4695 7.97746 42
      vertex 19.0225 8.53054 42
    endloop
  endfacet
  facet normal 0 0 1
    outer loop
      vertex 17.7725 12.3776 42
      vertex 18.4695 7.97746 42
      vertex 18.4695 12.0225 42
    endloop
  endfacet
  facet normal 0 0 1
    outer loop
      vertex 17.7725 12.3776 42
      vertex 17.7725 7.62236 42
      vertex 18.4695 7.97746 42
    endloop
  endfacet
  facet normal 0 0 1
    outer loop
      vertex 17 12.5 42
      vertex 17.7725 7.62236 42
      vertex 17.7725 12.3776 42
    endloop
  endfacet
  facet normal 0 0 1
    outer loop
      vertex 17 12.5 42
      vertex 17 7.5 42
      vertex 17.7725 7.62236 42
    endloop
  endfacet
  facet normal -0 0 1
    outer loop
      vertex 16.2275 12.3776 42
      vertex 17 7.5 42
      vertex 17 12.5 42
    endloop
  endfacet
  facet normal 0 0 1
    outer loop
      vertex 16.2275 12.3776 42
      vertex 16.2275 7.62236 42
      vertex 17 7.5 42
    endloop
  endfacet
  facet normal -0 0 1
    outer loop
      vertex 15.5305 12.0225 42
      vertex 16.2275 7.62236 42
      vertex 16.2275 12.3776 42
    endloop
  endfacet
  facet normal 0 0 1
    outer loop
      vertex 15.5305 12.0225 42
      vertex 15.5305 7.97746 42
      vertex 16.2275 7.62236 42
    endloop
  endfacet
  facet normal -0 0 1
    outer loop
      vertex 14.9775 11.4695 42
      vertex 15.5305 7.97746 42
      vertex 15.5305 12.0225 42
    endloop
  endfacet
  facet normal 0 0 1
    outer loop
      vertex 14.9775 11.4695 42
      vertex 14.9775 8.53054 42
      vertex 15.5305 7.97746 42
    endloop
  endfacet
  facet normal -0 0 1
    outer loop
      vertex 14.6224 10.7725 42
      vertex 14.9775 8.53054 42
      vertex 14.9775 11.4695 42
    endloop
  endfacet
  facet normal 0 0 1
    outer loop
      vertex 14.6224 10.7725 42
      vertex 14.6224 9.22746 42
      vertex 14.9775 8.53054 42
    endloop
  endfacet
  facet normal 0 -0 1
    outer loop
      vertex 14.6224 9.22746 42
      vertex 14.6224 10.7725 42
      vertex 14.5 10 42
    endloop
  endfacet
  facet normal -0.453951 0.891027 0
    outer loop
      vertex 16.2275 12.3776 37
      vertex 15.5305 12.0225 42
      vertex 16.2275 12.3776 42
    endloop
  endfacet
  facet normal -0.453951 0.891027 0
    outer loop
      vertex 15.5305 12.0225 42
      vertex 16.2275 12.3776 37
      vertex 15.5305 12.0225 37
    endloop
  endfacet
  facet normal 0.98768 -0.156486 0
    outer loop
      vertex 19.3776 9.22746 42
      vertex 19.5 10 37
      vertex 19.5 10 42
    endloop
  endfacet
  facet normal 0.98768 -0.156486 0
    outer loop
      vertex 19.5 10 37
      vertex 19.3776 9.22746 42
      vertex 19.3776 9.22746 37
    endloop
  endfacet
  facet normal -0.156444 -0.987687 0
    outer loop
      vertex 16.2275 7.62236 37
      vertex 17 7.5 42
      vertex 16.2275 7.62236 42
    endloop
  endfacet
  facet normal -0.156444 -0.987687 -0
    outer loop
      vertex 17 7.5 42
      vertex 16.2275 7.62236 37
      vertex 17 7.5 37
    endloop
  endfacet
  facet normal -0.891006 -0.453992 0
    outer loop
      vertex 14.9775 8.53054 37
      vertex 14.6224 9.22746 42
      vertex 14.6224 9.22746 37
    endloop
  endfacet
  facet normal -0.891006 -0.453992 0
    outer loop
      vertex 14.6224 9.22746 42
      vertex 14.9775 8.53054 37
      vertex 14.9775 8.53054 42
    endloop
  endfacet
  facet normal 0.707107 0.707107 0
    outer loop
      vertex 19.0225 11.4695 42
      vertex 18.4695 12.0225 37
      vertex 18.4695 12.0225 42
    endloop
  endfacet
  facet normal 0.707107 0.707107 0
    outer loop
      vertex 18.4695 12.0225 37
      vertex 19.0225 11.4695 42
      vertex 19.0225 11.4695 37
    endloop
  endfacet
  facet normal -0.98768 -0.156486 0
    outer loop
      vertex 14.6224 9.22746 37
      vertex 14.5 10 42
      vertex 14.5 10 37
    endloop
  endfacet
  facet normal -0.98768 -0.156486 0
    outer loop
      vertex 14.5 10 42
      vertex 14.6224 9.22746 37
      vertex 14.6224 9.22746 42
    endloop
  endfacet
  facet normal -0.707107 0.707107 0
    outer loop
      vertex 14.9775 11.4695 37
      vertex 15.5305 12.0225 42
      vertex 15.5305 12.0225 37
    endloop
  endfacet
  facet normal -0.707107 0.707107 0
    outer loop
      vertex 15.5305 12.0225 42
      vertex 14.9775 11.4695 37
      vertex 14.9775 11.4695 42
    endloop
  endfacet
  facet normal 0.707158 -0.707056 0
    outer loop
      vertex 18.4695 7.97746 42
      vertex 19.0225 8.53054 37
      vertex 19.0225 8.53054 42
    endloop
  endfacet
  facet normal 0.707158 -0.707056 0
    outer loop
      vertex 19.0225 8.53054 37
      vertex 18.4695 7.97746 42
      vertex 18.4695 7.97746 37
    endloop
  endfacet
  facet normal 0.453951 -0.891027 0
    outer loop
      vertex 17.7725 7.62236 37
      vertex 18.4695 7.97746 42
      vertex 17.7725 7.62236 42
    endloop
  endfacet
  facet normal 0.453951 -0.891027 0
    outer loop
      vertex 18.4695 7.97746 42
      vertex 17.7725 7.62236 37
      vertex 18.4695 7.97746 37
    endloop
  endfacet
  facet normal 0.891006 -0.453992 0
    outer loop
      vertex 19.0225 8.53054 42
      vertex 19.3776 9.22746 37
      vertex 19.3776 9.22746 42
    endloop
  endfacet
  facet normal 0.891006 -0.453992 0
    outer loop
      vertex 19.3776 9.22746 37
      vertex 19.0225 8.53054 42
      vertex 19.0225 8.53054 37
    endloop
  endfacet
  facet normal -0.707158 -0.707056 0
    outer loop
      vertex 15.5305 7.97746 37
      vertex 14.9775 8.53054 42
      vertex 14.9775 8.53054 37
    endloop
  endfacet
  facet normal -0.707158 -0.707056 0
    outer loop
      vertex 14.9775 8.53054 42
      vertex 15.5305 7.97746 37
      vertex 15.5305 7.97746 42
    endloop
  endfacet
endsolid OpenSCAD_Model
